<?xml version="1.0" encoding="UTF-8" standalone="no"?>
<!-- Created with Inkscape (http://www.inkscape.org/) -->

<svg
   xmlns:dc="http://purl.org/dc/elements/1.1/"
   xmlns:cc="http://creativecommons.org/ns#"
   xmlns:rdf="http://www.w3.org/1999/02/22-rdf-syntax-ns#"
   xmlns:svg="http://www.w3.org/2000/svg"
   xmlns="http://www.w3.org/2000/svg"
   xmlns:sodipodi="http://sodipodi.sourceforge.net/DTD/sodipodi-0.dtd"
   xmlns:inkscape="http://www.inkscape.org/namespaces/inkscape"
   id="svg3346"
   version="1.1"
   inkscape:version="0.91 r13725"
   width="498.75"
   height="154.6875"
   viewBox="0 0 498.75 154.6875"
   sodipodi:docname="logo.svg">
  <metadata
     id="metadata3352">
    <rdf:RDF>
      <cc:Work
         rdf:about="">
        <dc:format>image/svg+xml</dc:format>
        <dc:type
           rdf:resource="http://purl.org/dc/dcmitype/StillImage" />
        <dc:title></dc:title>
      </cc:Work>
    </rdf:RDF>
  </metadata>
  <defs
     id="defs3350" />
  <sodipodi:namedview
     pagecolor="#ffffff"
     bordercolor="#666666"
     borderopacity="1"
     objecttolerance="10"
     gridtolerance="10"
     guidetolerance="10"
     inkscape:pageopacity="0"
     inkscape:pageshadow="2"
     inkscape:window-width="1366"
     inkscape:window-height="721"
     id="namedview3348"
     showgrid="false"
     inkscape:zoom="0.58947368"
     inkscape:cx="431.17586"
     inkscape:cy="77.34375"
     inkscape:window-x="-4"
     inkscape:window-y="-4"
     inkscape:window-maximized="1"
     inkscape:current-layer="svg3346" />
  <g
     id="g3368">
    <path
       style="fill:#b37639"
       d="M 3.046875,154.0496 C 1.3710937,153.81948 0,153.29963 0,152.89438 0,151.11619 43.064121,14.100398 44.395397,11.642912 49.953271,1.3832824 58.94198,-2.3551006 68.077583,1.7935459 74.085275,4.5217503 76.762979,8.9356262 80.825817,22.807484 89.401752,52.088537 117.1875,151.65083 117.1875,153.0992 c 0,1.41083 -1.35427,1.5883 -12.12053,1.5883 -9.246164,0 -12.437687,-0.31715 -13.457863,-1.33733 C 90.87358,152.61465 88.92141,147.02481 87.270951,140.9283 82.749506,124.2269 80.6752,118.34487 79.092714,117.73761 78.304253,117.43505 68.842852,117.1875 58.067377,117.1875 l -19.591769,0 -1.768812,3.51563 c -0.972845,1.93359 -3.733402,9.63281 -6.134569,17.10937 -2.401168,7.47656 -4.761904,14.22656 -5.246081,15 -0.675461,1.079 -3.015683,1.43525 -10.056359,1.53087 -5.04682,0.0685 -10.5471308,-0.0636 -12.222912,-0.29377 z M 73.482843,91.171875 C 71.250035,81.817549 60.790777,46.353277 60.044752,45.607252 58.889815,44.452315 58.594414,45.239714 50.50866,71.025928 46.909416,82.504252 44.222447,92.312845 44.537617,92.822803 44.875416,93.369372 51.060565,93.75 59.60444,93.75 l 14.493783,0 -0.61538,-2.578125 z m 101.696547,62.701585 -2.47684,-0.59221 1.83485,-6.09375 c 11.74269,-38.9987 41.68013,-134.354699 42.97253,-136.875 2.15774,-4.2078245 5.21824,-7.0381548 9.58213,-8.8615052 8.80296,-3.6781133 17.65465,-0.1057376 22.34895,9.0196182 1.64577,3.199266 12.90172,42.234542 32.259,111.873137 4.44313,15.98437 8.30107,29.81256 8.57319,30.7293 0.46043,1.55112 -0.43737,1.64872 -12.93609,1.40625 l -13.43086,-0.26055 -1.55249,-5.15625 c -0.85387,-2.83594 -3.07672,-10.60704 -4.93967,-17.26913 -1.86294,-6.66209 -3.8527,-12.6738 -4.42168,-13.35938 -0.80415,-0.96894 -5.6994,-1.24649 -21.98484,-1.24649 l -20.95033,0 -3.91541,12.42187 c -5.88841,18.68136 -8.10857,23.8619 -10.50116,24.50357 -2.62955,0.70521 -17.22461,0.53439 -20.46128,-0.23948 z m 70.96354,-61.319821 c 0.56432,-1.470579 -12.13149,-45.479703 -13.52085,-46.869054 -1.22826,-1.228266 -0.44514,-3.341363 -8.95022,24.150587 -4.99605,16.149318 -6.64896,22.688059 -5.86184,23.188769 0.60293,0.383541 7.12119,0.703807 14.48502,0.711703 10.00309,0.01073 13.5049,-0.288176 13.84789,-1.182005 z M 132.80159,140.94552 c -0.33775,-7.04246 -0.61409,-35.30005 -0.61409,-62.794639 l 0,-49.990159 -2.10938,-0.492944 c -1.16015,-0.271119 -8.01562,-0.595563 -15.23437,-0.720986 l -13.125,-0.228042 -0.26147,-11.830519 -0.26147,-11.8305183 2.95678,-0.5913564 C 105.77882,2.1411103 126.01709,1.875 149.12653,1.875 l 42.01715,0 1.45941,2.0835996 c 2.09398,2.9895632 2.08339,19.6584874 -0.0138,21.7556854 -1.21949,1.219465 -4.1204,1.473215 -16.84204,1.473215 -14.23519,0 -15.44039,0.133755 -16.33929,1.813368 -0.64067,1.197109 -0.97048,22.702707 -0.97048,63.28125 l 0,61.467882 -12.51091,0 -12.51091,0 -0.61409,-12.80448 z m 170.0315,-54.461145 c 0.0233,-76.104416 -0.45559,-71.183273 7.65115,-78.6259765 6.37878,-5.8562835 9.04796,-6.4583128 28.42201,-6.4105243 14.72014,0.036309 17.73201,0.3074836 23.58636,2.1236037 12.92145,4.0084638 22.70428,12.6609901 28.82096,25.4910221 2.78709,5.84605 2.90518,6.589149 2.90518,18.28125 0,11.799384 -0.0968,12.391878 -3.0396,18.605331 -3.54622,7.48752 -13.31169,17.880379 -19.92915,21.209502 -5.62628,2.830481 -7.5,4.594038 -7.5,7.059061 0,1.128618 7.3238,13.626296 16.27509,27.772626 8.95131,14.14632 16.97776,27.07939 17.83658,28.74015 l 1.56148,3.01958 -14.00308,0 -14.00307,0 -8.75538,-13.63344 c -4.81545,-7.49839 -12.50573,-19.41636 -17.08949,-26.48438 -4.58377,-7.06801 -8.90799,-14.208477 -9.60938,-15.867692 -1.89648,-4.486369 -1.61526,-12.797701 0.57853,-17.097885 2.23052,-4.372187 5.1927,-6.587134 14.45319,-10.807278 9.61777,-4.382958 14.25412,-8.744692 16.12084,-15.165982 2.44362,-8.40576 -0.0124,-16.867692 -6.5657,-22.621589 -4.46885,-3.923702 -8.51772,-4.872856 -20.81281,-4.879026 l -10.41944,-0.0052 -0.59618,4.349598 c -0.3279,2.392279 -0.59618,30.868841 -0.59618,63.281249 l 0,58.931655 -12.65625,0 -12.65625,0 0.0206,-67.265627 z m 106.85441,-8.075696 0,-75.3413215 4.3496,-0.5961787 c 5.48661,-0.7520242 13.81667,-0.7495078 18.38477,0.00555 l 3.51563,0.581097 0,75.3460842 0,75.34609 -13.125,0 -13.125,0 0,-75.341325 z m 58.00541,64.325691 c -1.16613,-1.48693 -1.13297,-1.52009 0.35396,-0.35396 1.56165,1.22472 2.05827,1.99459 1.28667,1.99459 -0.19467,0 -0.93296,-0.73828 -1.64063,-1.64063 z m -1.52104,-15.88062 c 0.90235,-0.2358 2.37891,-0.2358 3.28125,0 0.90235,0.23581 0.16407,0.42875 -1.64062,0.42875 -1.80469,0 -2.54297,-0.19294 -1.64063,-0.42875 z m 14.9484,-10.135 c -0.0191,-1.54687 0.17536,-2.29318 0.43217,-1.65847 0.2568,0.63472 0.27243,1.90034 0.0348,2.8125 -0.23769,0.91216 -0.4478,0.39285 -0.46691,-1.15403 z m -15.41715,-13.31787 c 1.16016,-0.22346 3.0586,-0.22346 4.21875,0 1.16016,0.22345 0.21094,0.40628 -2.10937,0.40628 -2.32031,0 -3.26953,-0.18283 -2.10938,-0.40628 z m 12.42188,-2.61963 c 0.6419,-0.77344 1.37802,-1.40625 1.63583,-1.40625 0.25782,0 -0.0564,0.63281 -0.69833,1.40625 -0.6419,0.77344 -1.37802,1.40625 -1.63583,1.40625 -0.25782,0 0.0564,-0.63281 0.69833,-1.40625 z m 2.99527,-7.5 c -0.0191,-1.546875 0.17536,-2.293185 0.43217,-1.658468 0.2568,0.634719 0.27243,1.900344 0.0348,2.812502 -0.23769,0.91216 -0.4478,0.392841 -0.46691,-1.154034 z M 463.3789,90.371093 c 0.31152,-0.311522 1.12012,-0.344829 1.79688,-0.07402 0.74787,0.299274 0.52573,0.521421 -0.56641,0.566406 -0.98827,0.04071 -1.54199,-0.18087 -1.23047,-0.492393 z m 8.4375,0 c 0.31152,-0.311522 1.12012,-0.344829 1.79688,-0.07402 0.74787,0.299274 0.52573,0.521421 -0.56641,0.566406 -0.98827,0.04071 -1.54199,-0.18087 -1.23047,-0.492393 z m -9.375,-6.5625 c 0.31152,-0.311522 1.12012,-0.344829 1.79688,-0.07402 0.74787,0.299274 0.52573,0.521421 -0.56641,0.566406 -0.98827,0.04071 -1.54199,-0.18087 -1.23047,-0.492393 z m 18.57012,-3.574218 c -0.0407,-0.988281 0.18087,-1.541992 0.49239,-1.230469 0.31152,0.311524 0.34482,1.120117 0.074,1.796875 -0.29927,0.747875 -0.52142,0.525728 -0.5664,-0.566406 z m -19.9959,-10.542763 c 0.64454,-0.260074 1.69922,-0.260074 2.34375,0 0.64454,0.260074 0.11719,0.472861 -1.17187,0.472861 -1.28906,0 -1.81641,-0.212787 -1.17188,-0.472861 z m 7.72479,-0.796922 c -0.96116,-1.158124 -1.4544,-1.201052 -2.69292,-0.234375 -1.35198,1.055229 -1.37472,1.003138 -0.20995,-0.480841 1.22497,-1.560656 1.41467,-1.566203 3.04688,-0.08907 0.95732,0.866361 1.74058,1.720755 1.74058,1.898652 0,0.700128 -0.76302,0.25705 -1.88459,-1.094361 z m -11.36,-1.160315 c -1.16613,-1.486927 -1.13297,-1.520087 0.35396,-0.353958 1.56165,1.224721 2.05827,1.994583 1.28667,1.994583 -0.19467,0 -0.93296,-0.738281 -1.64063,-1.640625 z m 4.12349,-4.550782 c 0.31152,-0.311522 1.12012,-0.344829 1.79688,-0.07402 0.74787,0.299274 0.52573,0.521421 -0.56641,0.566406 -0.98827,0.04071 -1.54199,-0.18087 -1.23047,-0.492393 z m 19.61637,-2.714843 c -0.0191,-1.546875 0.17536,-2.293185 0.43217,-1.658468 0.2568,0.634719 0.27243,1.900344 0.0348,2.8125 -0.23774,0.912158 -0.44785,0.392843 -0.46695,-1.154032 z m -21.67125,0.07812 c -0.0407,-0.988281 0.18087,-1.541992 0.49239,-1.230469 0.31152,0.311524 0.34482,1.120118 0.074,1.796875 -0.29927,0.747875 -0.52142,0.525728 -0.5664,-0.566406 z m 2.05488,-2.988281 c 0.31152,-0.311523 1.12012,-0.34483 1.79688,-0.07402 0.74787,0.299274 0.52573,0.521422 -0.56641,0.566407 -0.98827,0.04071 -1.54199,-0.18087 -1.23047,-0.492394 z M 457.5,52.96875 c 0.6419,-0.773438 1.37802,-1.40625 1.63583,-1.40625 0.25782,0 -0.0564,0.632812 -0.69833,1.40625 -0.6419,0.773437 -1.37802,1.40625 -1.63583,1.40625 -0.25782,0 0.0564,-0.632813 0.69833,-1.40625 z m 8.36313,-0.234375 c -1.05174,-1.389914 -1.04259,-1.463502 0.0599,-0.481551 1.04416,0.929993 1.68374,0.837348 3.23605,-0.46875 1.93025,-1.624112 1.9306,-1.623014 0.14874,0.481551 -2.1387,2.526048 -1.91135,2.49511 -3.44469,0.46875 z m -4.35923,-1.738282 c 0.31152,-0.311522 1.12012,-0.344829 1.79688,-0.07402 0.74787,0.299274 0.52573,0.521421 -0.56641,0.566406 -0.98827,0.04071 -1.54199,-0.18087 -1.23047,-0.492393 z m 11.25,-0.9375 c 0.31152,-0.311522 1.12012,-0.344829 1.79688,-0.07402 0.74787,0.299274 0.52573,0.521421 -0.56641,0.566406 -0.98827,0.04071 -1.54199,-0.18087 -1.23047,-0.492393 z m -6.11328,-2.866981 c 0.64454,-0.260074 1.69922,-0.260074 2.34375,0 0.64454,0.260074 0.11719,0.472861 -1.17187,0.472861 -1.28906,0 -1.81641,-0.212787 -1.17188,-0.472861 z M 481.12027,37.03125 c -0.0191,-1.546875 0.17536,-2.293185 0.43217,-1.658468 0.2568,0.634719 0.27243,1.900344 0.0348,2.8125 -0.23774,0.912158 -0.44785,0.392843 -0.46695,-1.154032 z m -14.9484,-13.302493 c 0.90235,-0.235807 2.37891,-0.235807 3.28125,0 0.90235,0.235807 0.16407,0.42874 -1.64062,0.42874 -1.80469,0 -2.54297,-0.192933 -1.64063,-0.42874 z m 7.26563,-7.222205 c 0,-0.202646 0.65472,-0.619689 1.45494,-0.926762 0.8343,-0.320152 1.21062,-0.162983 0.88217,0.368448 -0.55055,0.890816 -2.33711,1.317608 -2.33711,0.558314 z m 7.68277,-2.912802 c -0.0191,-1.546875 0.17536,-2.293185 0.43217,-1.658467 0.2568,0.634718 0.27243,1.900343 0.0348,2.8125 -0.23774,0.912157 -0.44785,0.392842 -0.46695,-1.154033 z"
       id="path3372"
       inkscape:connector-curvature="0" />
    <path
       style="fill:#090909"
       d="m 462.89062,144.63375 c -6.37542,-5.42969 -7.26562,-6.57124 -7.26562,-9.31704 l 0,-3.12921 7.5,0 c 6.04166,0 7.5,-0.27344 7.5,-1.40625 0,-0.9375 0.9375,-1.40625 2.8125,-1.40625 1.875,0 2.8125,0.46875 2.8125,1.40625 0,0.875 0.88541,1.40625 2.34375,1.40625 2.05357,0 2.34375,0.40625 2.34375,3.28125 0,2.875 -0.29018,3.28125 -2.34375,3.28125 -2.25962,0 -2.34375,0.21875 -2.34375,6.09375 l 0,6.09375 -3.04688,-0.0579 c -2.35183,-0.0447 -4.70428,-1.4695 -10.3125,-6.2458 z m 7.73438,-3.07125 c 0,-2.61647 -0.24093,-2.8125 -3.45665,-2.8125 l -3.45664,0 2.69454,2.8125 c 1.482,1.54687 3.03749,2.8125 3.45665,2.8125 0.41915,0 0.7621,-1.26563 0.7621,-2.8125 z m -10.11978,-15.93404 c -2.24213,-0.94996 -4.88022,-6.02854 -4.88022,-9.3949 0,-6.48264 5.61302,-9.85603 15.24078,-9.15962 4.7345,0.34246 6.02949,0.83124 7.8694,2.97027 3.05936,3.55672 3.04059,9.81418 -0.0402,13.39581 -2.02564,2.35494 -2.90963,2.63089 -9.14062,2.85343 -3.79396,0.1355 -7.86608,-0.16375 -9.04915,-0.66499 z m 15.20906,-7.10168 c 0.81028,-0.81026 1.47322,-1.62388 1.47322,-1.80803 0,-0.18415 -0.66294,-0.99777 -1.47322,-1.80803 -1.79985,-1.79985 -12.56264,-2.06236 -14.27678,-0.34822 -1.46874,1.46874 -1.44202,4.21583 0.0469,4.81661 0.64454,0.26007 3.77847,0.50617 6.96429,0.54687 4.0936,0.0523 6.22447,-0.35805 7.26562,-1.3992 z m -16.10321,-16.84195 c -1.13087,-0.79209 -2.54569,-3.074183 -3.14404,-5.071321 -2.18191,-7.282531 1.04408,-11.753581 9.21735,-12.774763 6.16245,-0.769947 11.78477,0.689196 13.81295,3.584824 0.79209,1.130871 1.44017,3.893149 1.44017,6.138395 0,3.261976 -0.55065,4.632919 -2.74039,6.822645 -2.53202,2.53203 -3.26462,2.74039 -9.63514,2.74039 -4.68355,0 -7.55419,-0.46188 -8.9509,-1.44017 z m 16.57578,-6.879327 C 477.6996,91.978906 474.67783,90 468.84892,90 c -5.71543,0 -8.53642,1.224328 -8.53642,3.704859 0,2.325638 1.14803,2.695557 8.63889,2.783625 5.24089,0.06159 6.45262,-0.220228 7.23546,-1.682981 z m -8.60053,-16.39496 c -9.94731,-2.449818 -11.9463,-3.232939 -11.95313,-4.68272 -0.005,-1.051623 0.47788,-1.554405 1.21944,-1.269842 0.6752,0.259097 6.37051,1.664593 12.65625,3.123325 9.32589,2.164259 11.42862,2.958483 11.42862,4.316717 0,0.915462 -0.31641,1.61719 -0.70313,1.559395 -0.38671,-0.0578 -6.07834,-1.428888 -12.64805,-3.046875 z m 1.62556,-9.980633 c -1.52828,-1.688727 -1.8646,-1.736997 -3.26599,-0.46875 -2.22084,2.009835 -5.97672,1.749274 -8.06621,-0.559586 -1.28247,-1.417111 -1.78593,-3.371494 -1.78593,-6.932824 0,-3.56133 0.50346,-5.515713 1.78593,-6.932824 2.08987,-2.309284 6.37615,-2.593461 8.08374,-0.535947 1.06051,1.277842 1.41834,1.225785 3.22209,-0.46875 2.92951,-2.752133 7.40281,-2.494948 9.80895,0.563951 2.92846,3.722942 2.73398,11.824109 -0.3581,14.916184 -2.82819,2.828186 -7.07318,3.016709 -9.42448,0.418546 z m -4.15334,-6.664283 c 0.83921,-1.568093 0.76305,-2.283325 -0.36308,-3.409448 -2.6842,-2.684207 -6.79773,1.077947 -4.37305,3.99951 1.63012,1.964174 3.49338,1.732036 4.73613,-0.590062 z m 11.54857,-0.107411 c 1.49416,-2.3837 -1.27676,-4.913758 -4.49651,-4.105652 -1.76295,0.44247 -2.4231,1.220545 -2.4231,2.855923 0,3.546632 4.92259,4.435685 6.91961,1.249729 z M 460.50522,45.940957 c -2.24213,-0.949952 -4.88022,-6.028534 -4.88022,-9.394902 0,-6.482634 5.61302,-9.85603 15.24078,-9.159621 4.7345,0.342464 6.02949,0.831249 7.8694,2.970272 3.05936,3.556726 3.04059,9.814187 -0.0402,13.39581 -2.02564,2.35494 -2.90963,2.630898 -9.14062,2.853435 -3.79396,0.135498 -7.86608,-0.163748 -9.04915,-0.664994 z m 15.20906,-7.101672 c 0.81028,-0.810267 1.47322,-1.623883 1.47322,-1.808035 0,-0.184152 -0.66294,-0.997768 -1.47322,-1.808035 -1.79985,-1.799848 -12.56264,-2.062355 -14.27678,-0.348215 -1.46874,1.468746 -1.44202,4.215833 0.0469,4.816612 0.64454,0.260074 3.77847,0.506168 6.96429,0.546875 4.0936,0.0523 6.22447,-0.358054 7.26562,-1.399202 z M 460.50522,22.503457 c -2.24213,-0.949952 -4.88022,-6.028534 -4.88022,-9.394902 0,-1.073417 0.63349,-3.1766987 1.40775,-4.6739597 3.16103,-6.1127556 19.64105,-6.2121714 22.89179,-0.1380949 1.81273,3.3871246 1.22119,9.1693686 -1.22955,12.0185156 -2.02564,2.35494 -2.90963,2.630898 -9.14062,2.853435 -3.79396,0.135498 -7.86608,-0.163748 -9.04915,-0.664994 z m 15.70993,-7.438351 c 1.58727,-2.965813 -1.09146,-4.752606 -7.125,-4.752606 -5.94306,0 -8.77765,1.196417 -8.77765,3.704859 0,2.325637 1.14803,2.695557 8.63889,2.783628 5.30516,0.06237 6.44746,-0.210613 7.26376,-1.735881 z"
       id="path3370"
       inkscape:connector-curvature="0" />
  </g>
</svg>
