<?xml version="1.0" encoding="UTF-8" standalone="no"?>
<!-- Created with Inkscape (http://www.inkscape.org/) -->

<svg
   xmlns:dc="http://purl.org/dc/elements/1.1/"
   xmlns:cc="http://creativecommons.org/ns#"
   xmlns:rdf="http://www.w3.org/1999/02/22-rdf-syntax-ns#"
   xmlns:svg="http://www.w3.org/2000/svg"
   xmlns="http://www.w3.org/2000/svg"
   xmlns:sodipodi="http://sodipodi.sourceforge.net/DTD/sodipodi-0.dtd"
   xmlns:inkscape="http://www.inkscape.org/namespaces/inkscape"
   id="svg3352"
   version="1.1"
   inkscape:version="0.91 r13725"
   width="1070.8029"
   height="306.88217"
   viewBox="0 0 1070.8029 306.88217"
   sodipodi:docname="logo.svg">
  <metadata
     id="metadata3358">
    <rdf:RDF>
      <cc:Work
         rdf:about="">
        <dc:format>image/svg+xml</dc:format>
        <dc:type
           rdf:resource="http://purl.org/dc/dcmitype/StillImage" />
        <dc:title></dc:title>
      </cc:Work>
    </rdf:RDF>
  </metadata>
  <defs
     id="defs3356" />
  <sodipodi:namedview
     pagecolor="#ffffff"
     bordercolor="#666666"
     borderopacity="1"
     objecttolerance="10"
     gridtolerance="10"
     guidetolerance="10"
     inkscape:pageopacity="0"
     inkscape:pageshadow="2"
     inkscape:window-width="1366"
     inkscape:window-height="721"
     id="namedview3354"
     showgrid="false"
     inkscape:zoom="0.27456034"
     inkscape:cx="535.40143"
     inkscape:cy="153.44109"
     inkscape:window-x="-4"
     inkscape:window-y="-4"
     inkscape:window-maximized="1"
     inkscape:current-layer="svg3352" />
  <g
     id="g3371"
     transform="translate(-3.712202e-4,-1.8836914e-4)">
    <path
       style="fill:#0098fd"
       d="m 602.03336,275.52609 c -11.05287,-4.91248 -11.93404,-20.76247 -2.37856,-42.78365 15.54543,-35.82534 56.66275,-75.61884 82.28631,-79.63701 9.15331,-1.43538 15.67651,0.87632 18.84748,6.67922 2.54675,4.66054 2.23978,18.01179 -0.60935,26.50315 -7.00576,20.87953 -21.59112,42.66756 -41.49927,61.99278 -22.14439,21.49597 -44.92758,32.45407 -56.64661,27.24551 z"
       id="path3379"
       inkscape:connector-curvature="0" />
    <path
       style="fill:#00ca98"
       d="M 46.609459,275.49323 C 32.659461,269.7574 24.906956,260.19314 20.619517,243.4294 18.26455,234.22158 18.089542,214.95165 20.25705,203.51869 c 4.264042,-22.49154 17.151306,-41.43131 33.456194,-49.1689 22.122607,-10.49842 52.299376,-2.95031 61.674596,15.42665 2.56256,5.02303 4.55556,13.23717 4.91697,20.26527 l 0.28956,5.63087 -12.73371,0.25999 -12.733693,0.26 -1.093777,-5.8815 c -1.957454,-10.52565 -6.772579,-14.34388 -18.014552,-14.28488 -8.49907,0.0446 -12.739711,1.94963 -18.676196,8.38996 -7.730508,8.38661 -12.453822,22.64817 -12.586292,38.00304 -0.09757,11.30994 1.886594,18.35093 6.662993,23.6442 4.350269,4.82103 8.026552,6.3896 14.948002,6.37791 9.956907,-0.0168 18.035258,-5.57385 22.781612,-15.67129 1.035962,-2.20391 1.883567,-4.43403 1.883567,-4.95582 0,-0.58658 -4.298621,-0.9487 -11.261731,-0.9487 -8.385332,0 -11.260965,-0.29963 -11.258732,-1.1731 0.0032,-1.26455 2.540171,-16.70441 3.315347,-20.17727 l 0.471324,-2.11157 23.322891,0 23.322897,0 -2.20171,12.3616 c -5.28639,29.68071 -14.34098,44.22392 -33.432979,53.69903 l -8.715069,4.32518 -11.254529,-0.0223 c -9.699703,-0.0192 -12.01105,-0.33333 -16.730574,-2.27386 z m 690.538441,0.52865 c -13.40967,-4.83053 -22.86557,-15.82502 -27.13351,-31.54847 -2.1455,-7.90419 -2.88046,-24.54937 -1.53025,-34.6565 3.29662,-24.67712 16.59983,-46.78715 32.99769,-54.84236 19.59795,-9.62721 45.00312,-6.24957 57.85375,7.69171 2.12733,2.30789 4.77393,5.97217 5.88133,8.14286 2.41396,4.73176 4.65044,14.72255 4.67294,20.87493 l 0.0163,4.45777 -12.6989,0 c -9.33628,0 -12.79681,-0.31064 -13.06864,-1.1731 -0.20335,-0.64521 -0.64616,-3.23164 -0.98403,-5.74762 -1.33252,-9.92286 -11.48226,-15.54918 -23.28527,-12.90778 -6.85115,1.53322 -12.10047,5.48049 -16.65075,12.52065 -10.72336,16.59113 -12.44087,43.89088 -3.53478,56.18537 6.78819,9.37084 22.14423,10.11702 31.46139,1.52877 3.39392,-3.12841 9.66817,-12.9839 9.66817,-15.18662 0,-0.27281 -4.99739,-0.496 -11.10531,-0.496 -6.10793,0 -11.31538,-0.21005 -11.57211,-0.46678 -0.25673,-0.25673 0.37043,-5.53567 1.39368,-11.73097 l 1.86046,-11.26419 23.31957,0 c 12.82576,0 23.31956,0.35358 23.31956,0.78572 0,0.43215 -1.07989,6.63186 -2.39977,13.77713 -5.19418,28.11925 -14.4649,42.36668 -33.6635,51.73477 l -8.37818,4.08819 -10.86061,-0.0339 c -8.05267,-0.0251 -12.08057,-0.47332 -15.57922,-1.73363 z m -238.7977,-1.28257 c -5.9971,-3.06395 -8.02371,-7.48952 -7.8431,-17.12721 0.3749,-20.00452 16.96737,-49.91307 41.14044,-74.15722 26.06101,-26.13763 52.66926,-37.40386 63.61627,-26.93586 13.41488,12.82789 -1.81593,52.09919 -33.44642,86.23862 -13.29852,14.35336 -32.25625,27.75481 -44.92204,31.75593 -9.14424,2.88866 -13.23552,2.93847 -18.54515,0.22574 z m -396.05615,0.23782 c 0,-0.54436 11.03631,-28.4294 24.52514,-61.96675 l 24.52515,-60.97701 13.4832,0 c 7.41575,0 13.48898,0.10558 13.49604,0.23462 0.008,0.12904 3.15207,27.68509 6.98889,61.23566 3.83683,33.55057 6.64655,61.33179 6.24382,61.73604 -0.40272,0.40425 -5.76488,0.61541 -11.9159,0.46924 l -11.18367,-0.26576 -0.66173,-5.63086 c -0.36396,-3.09698 -0.92657,-8.49179 -1.25025,-11.98847 l -0.58851,-6.3576 -15.1731,0.25749 -15.17312,0.2575 -4.35858,11.73097 -4.35857,11.73097 -12.29941,0.26186 c -8.16427,0.17382 -12.2994,-0.0709 -12.2994,-0.7279 z m 61.92844,-45.75398 c -0.006,-0.38712 -0.84575,-9.99479 -1.86587,-21.35037 -1.02013,-11.35557 -1.85977,-21.03362 -1.86587,-21.50678 -0.006,-0.47314 -0.22925,-0.64211 -0.49588,-0.37547 C 159.5581,186.42731 149.7521,212.67238 145.41971,225 l -1.73155,4.92701 10.27271,0 c 5.64999,0 10.26771,-0.31674 10.26162,-0.70386 z m 30.67102,45.9854 c -0.34963,-0.58509 18.04825,-113.53186 19.56717,-120.12513 0.48084,-2.08725 0.66905,-2.11157 16.34019,-2.11157 l 15.85374,0 0.52551,3.51929 c 0.28903,1.93561 1.88054,20.52564 3.53669,41.31118 1.65615,20.78554 3.312,37.46698 3.67967,37.06986 0.36767,-0.39711 8.1532,-19.11864 17.30119,-41.6034 l 16.63271,-40.88137 16.07985,0.40237 c 8.84392,0.2213 16.1313,0.45838 16.19416,0.52683 0.0629,0.0685 -4.0414,24.8299 -9.12058,55.02541 -5.07918,30.19552 -9.70865,57.75157 -10.28772,61.23567 l -1.05285,6.33472 -11.02053,0 c -6.06128,0 -11.22102,-0.20051 -11.46609,-0.44556 -0.24505,-0.24507 3.05174,-19.35482 7.32624,-42.46611 4.27448,-23.11131 7.67754,-42.53694 7.56234,-43.16808 -0.11519,-0.63114 -8.09261,18.37303 -17.7276,42.2315 l -17.51815,43.37901 -9.40075,0.26676 -9.40075,0.26677 -0.52751,-4.02068 c -0.75812,-5.77842 -7.10496,-79.09739 -7.10496,-82.07682 0,-7.17165 -1.66788,2.58222 -7.11719,41.62177 -3.30145,23.65204 -6.00688,43.32046 -6.01206,43.70758 -0.006,0.38712 -5.05229,0.70386 -11.21578,0.70386 -6.16349,0 -11.39561,-0.31674 -11.62694,-0.70386 z m 112.78063,0.24452 c -0.36193,-0.36191 15.74188,-99.60348 19.37994,-119.43117 l 0.55964,-3.05005 31.05394,0 31.05394,0 -0.48598,11.49635 c -0.2673,6.32299 -0.78864,12.22712 -1.15854,13.12029 -0.60271,1.45532 -2.72927,1.65022 -20.48013,1.87695 l -19.80759,0.25302 -1.63672,8.91553 c -0.90018,4.90355 -1.658,9.44344 -1.68404,10.08864 -0.0362,0.89777 4.01436,1.1731 17.25911,1.1731 9.51855,0 17.53151,0.36415 17.80659,0.80924 0.27509,0.44509 -0.12513,4.56266 -0.88935,9.15016 -0.76422,4.5875 -1.61527,9.70438 -1.89122,11.37083 l -0.50173,3.02992 -18.01582,0.25475 -18.01582,0.25475 -2.07887,11.26173 c -1.14338,6.19395 -2.0986,11.78963 -2.1227,12.43483 -0.0337,0.90268 4.50595,1.1731 19.69366,1.1731 14.95562,0 19.83229,0.28421 20.12881,1.17309 0.21524,0.64521 -0.53707,6.45204 -1.67179,12.90407 l -2.06312,11.73097 -31.97432,0.24675 c -17.58588,0.1357 -32.19193,0.0291 -32.45789,-0.23685 z m 495.37048,-0.23227 c -0.22995,-0.39386 4.15944,-28.16658 9.7542,-61.71715 5.59476,-33.55057 10.18888,-61.10662 10.20915,-61.23566 0.0203,-0.12904 14.39556,-0.23462 31.94509,-0.23462 28.87363,0 31.90824,0.14554 31.90824,1.53035 0,1.63212 -2.57276,19.11209 -3.32882,22.61682 -0.44763,2.07497 -0.62236,2.09512 -20.33924,2.34619 l -19.88773,0.25325 -1.63671,8.91554 c -0.90019,4.90354 -1.65801,9.65458 -1.68404,10.55787 -0.0435,1.50647 1.38439,1.64234 17.25911,1.64234 9.51854,0 17.4659,0.31673 17.66078,0.70385 0.19489,0.38713 -0.46052,5.86827 -1.45646,12.18032 l -1.81079,11.47644 -17.96157,0.25453 -17.96156,0.25451 -1.57262,7.8758 c -0.86492,4.33169 -1.85477,9.92737 -2.19963,12.43483 l -0.62703,4.55903 20.20633,0 20.20633,0 -0.54411,3.51929 c -0.29926,1.93561 -1.2367,7.74244 -2.08319,12.90407 l -1.53909,9.38477 -32.04928,0.24687 c -17.6271,0.13578 -32.23742,-0.0754 -32.46736,-0.46924 z m 66.54492,-0.10112 c -0.28816,-0.46626 10.53866,-28.35141 24.05961,-61.96702 l 24.58353,-61.11929 13.36459,0 13.36461,0 0.51832,3.05005 c 1.90671,11.21943 13.50742,119.46384 12.87132,120.09994 -0.43518,0.43523 -5.82392,0.67174 -11.97498,0.52557 l -11.18365,-0.26576 -1.07821,-10.79249 c -0.59303,-5.93587 -1.12092,-11.33085 -1.1731,-11.98884 -0.0736,-0.92786 -3.50813,-1.13847 -15.30423,-0.93847 l -15.20936,0.25786 -4.34123,11.73097 -4.34125,11.73097 -11.81602,0.26212 c -6.49881,0.14417 -12.05179,-0.11936 -12.33995,-0.58561 z m 61.36818,-46.83501 c -0.0275,-3.76067 -3.61056,-41.70913 -3.97226,-42.07082 -0.21663,-0.21665 -3.27426,7.5242 -6.79472,17.20186 -3.52046,9.67767 -7.17466,19.60176 -8.12047,22.05353 l -1.71965,4.45777 10.30956,0 c 9.19756,0 10.30827,-0.17715 10.29754,-1.64234 z m 30.09943,45.51617 c 0.031,-1.16137 4.57076,-28.92858 10.08863,-61.70491 l 10.03251,-59.59332 18.76955,-0.26615 c 30.53646,-0.43301 40.26596,1.72585 46.48806,10.31517 4.4695,6.17007 5.8528,12.43746 5.4178,24.54763 -0.3257,9.07107 -0.7218,11.16789 -3.0009,15.88766 -2.8913,5.98772 -11.1136,15.4378 -16.1289,18.53745 -1.7677,1.09251 -3.214,2.45303 -3.214,3.02338 0,0.57035 4.2231,11.85963 9.3848,25.08729 5.1616,13.22765 9.3847,24.56267 9.3847,25.18891 0,0.85234 -3.4401,1.07333 -13.6817,0.87893 l -13.6818,-0.25971 -8.6071,-22.05747 c -4.7339,-12.13161 -8.9487,-22.5839 -9.3663,-23.22732 -0.4346,-0.66961 -2.7102,-1.16985 -5.32171,-1.16985 -4.22333,0 -4.60163,0.19179 -5.09105,2.58081 -0.29074,1.41945 -2.03105,11.62359 -3.86728,22.67587 -1.83622,11.05228 -3.5572,20.44878 -3.82448,20.88113 -0.26718,0.43234 -5.73982,0.78607 -12.16136,0.78607 -11.49897,0 -11.67475,-0.0319 -11.61947,-2.11157 z m 58.15985,-70.24872 c 5.5982,-3.12646 7.7032,-6.33589 8.2167,-12.52827 0.8962,-10.80807 -2.6398,-13.65159 -16.9763,-13.65159 l -8.7896,0 -2.45197,13.77897 c -1.34859,7.57843 -2.20495,14.17879 -1.90286,14.66746 0.31505,0.50975 4.24253,0.69532 9.21333,0.43531 6.8271,-0.3571 9.518,-0.93001 12.6907,-2.70188 z M 473.24686,110.17335 c 0.31185,-0.31184 1.12128,-0.34518 1.79875,-0.074 0.74865,0.29958 0.52628,0.52196 -0.567,0.56699 -0.9893,0.0407 -1.5436,-0.18105 -1.23175,-0.49291 z m 45.11447,-6.47158 c 0.004,-4.129298 0.1684,-5.701821 0.36666,-3.49448 0.19824,2.20733 0.19546,5.58585 -0.007,7.50782 -0.20165,1.92196 -0.36386,0.11596 -0.36045,-4.01334 z m 69.52286,-26.277369 c 7.7e-4,-10.839416 0.13738,-15.145191 0.30358,-9.568388 0.16622,5.576802 0.16559,14.445415 -9.4e-4,19.708029 -0.16742,5.262613 -0.30341,0.699775 -0.30264,-10.139641 z m -45.56387,14.781022 c -1.16734,-1.488478 -1.13415,-1.521672 0.35433,-0.354327 1.56327,1.225998 2.06041,1.996662 1.28801,1.996662 -0.19488,0 -0.93393,-0.739051 -1.64234,-1.642335 z m -23.95899,-6.334724 c 0.004,-4.129301 0.1684,-5.701819 0.36666,-3.494484 0.19824,2.207335 0.19546,5.585854 -0.007,7.50782 C 518.52013,91.806002 518.35793,90 518.36133,85.870699 Z M 449.60485,84.07195 c -0.0407,-0.989311 0.18106,-1.5436 0.4929,-1.231752 0.31185,0.311849 0.34518,1.121286 0.074,1.798749 -0.29958,0.748655 -0.52196,0.526276 -0.56699,-0.566997 z m 192.78304,-2.078638 c 6.73226,-0.699025 14.54969,-0.758748 14.54811,-0.111143 -9.4e-4,0.387122 -3.90812,0.636272 -8.68262,0.553667 -4.77451,-0.08261 -7.41398,-0.281741 -5.86549,-0.442524 z M 523.13784,59.124088 c 0,-12.645986 0.13284,-17.819343 0.29521,-11.496351 0.16236,6.322993 0.16236,16.669708 0,22.992701 -0.16237,6.322993 -0.29521,1.149635 -0.29521,-11.49635 z m 17.49933,19.316996 c -0.0407,-0.989311 0.18106,-1.543599 0.49291,-1.231751 0.31184,0.311848 0.34518,1.121285 0.074,1.798749 -0.29958,0.748654 -0.52196,0.526275 -0.56699,-0.566998 z M 411.58275,76.291778 c -0.5093,-1.337516 -0.4015,-1.445313 0.52536,-0.525355 0.64137,0.636602 0.92972,1.393866 0.64077,1.682811 -0.28895,0.288946 -0.81371,-0.231909 -1.16613,-1.157456 z m 68.59084,-32.88719 c -0.24073,-0.387122 4.27423,-0.5931 10.03325,-0.45773 18.98272,0.446206 21.01878,0.804062 5.59932,0.984137 -8.35718,0.0976 -15.39184,-0.139285 -15.63257,-0.526407 z m 86.90148,0.003 c 6.06491,-0.163469 15.98931,-0.163469 22.05422,0 6.06491,0.16347 1.10271,0.297219 -11.02711,0.297219 -12.12982,0 -17.09202,-0.133749 -11.02711,-0.297219 z M 391.49332,41.293014 c 0,-1.290407 0.21302,-1.818301 0.47336,-1.173097 0.26034,0.645203 0.26034,1.70099 0,2.346194 -0.26034,0.645203 -0.47336,0.117309 -0.47336,-1.173097 z m 17.6829,0.05539 c 0,-0.485701 0.41748,-1.141107 0.92773,-1.456459 0.53199,-0.328785 0.68931,0.04792 0.36883,0.883091 -0.62389,1.625835 -1.29656,1.923304 -1.29656,0.573368 z m 131.46095,-1.384897 c -0.0407,-0.989311 0.18106,-1.543599 0.49291,-1.231751 0.31184,0.311848 0.34518,1.121285 0.074,1.798749 -0.29958,0.748654 -0.52196,0.526275 -0.56699,-0.566998 z m -22.27584,-7.586026 c 0.004,-4.129302 0.1684,-5.701819 0.36666,-3.494485 0.19824,2.207335 0.19546,5.585855 -0.007,7.507821 -0.20129,1.921967 -0.36349,0.115965 -0.36009,-4.013336 z m -68.75648,1.955161 c -0.0407,-0.989311 0.18106,-1.5436 0.4929,-1.231752 0.31185,0.311849 0.34518,1.121286 0.074,1.798749 -0.29958,0.748655 -0.52196,0.526276 -0.56699,-0.566997 z m 68.75648,-19.786235 c 0.004,-4.129302 0.1684,-5.7018196 0.36666,-3.494485 0.19824,2.207335 0.19546,5.585855 -0.007,7.507821 -0.20129,1.921966 -0.36349,0.115965 -0.36009,-4.013336 z m 13.75545,1.876955 c 0.64256,-0.774244 1.37946,-1.407717 1.63754,-1.407717 0.25808,0 -0.0565,0.633473 -0.69906,1.407717 -0.64257,0.774244 -1.37946,1.407716 -1.63754,1.407716 -0.25809,0 0.0565,-0.633472 0.69906,-1.407716 z M 406.61495,7.8793014 c 0.31185,-0.3118483 1.12129,-0.3451889 1.79875,-0.07409 0.74866,0.2995867 0.52628,0.521965 -0.567,0.5669968 -0.9893,0.04075 -1.54359,-0.1810583 -1.23175,-0.4929066 z m 68.50887,0 c 0.31184,-0.3118483 1.12128,-0.3451889 1.79875,-0.07409 0.74865,0.2995867 0.52628,0.521965 -0.567,0.5669968 -0.98931,0.04075 -1.5436,-0.1810583 -1.23175,-0.4929066 z"
       id="path3377"
       inkscape:connector-curvature="0" />
    <path
       style="fill:#fd0101"
       d="m 392.56923,275.01523 c -18.3799,-11.20694 -0.62865,-58.08057 35.76153,-94.43124 21.88231,-21.85854 43.15934,-32.3406 55.327,-27.25663 12.04769,5.03385 11.45189,24.88793 -1.5242,50.79151 -14.82026,29.58501 -45.48567,60.90205 -68.54361,70.00012 -8.38938,3.31023 -16.49488,3.65582 -21.02072,0.89624 z"
       id="path3375"
       inkscape:connector-curvature="0" />
    <path
       style="fill:#040404"
       d="m 376.3295,103.70177 0,-7.038579 20.20741,0 c 21.56414,0 24.54903,-0.504629 29.40828,-4.971799 5.79816,-5.330313 7.53661,-16.696833 3.61318,-23.624015 -2.84483,-5.022832 -6.6668,-7.393744 -15.90141,-9.864249 -13.35973,-3.574083 -17.60948,-7.60599 -17.61592,-16.712882 -0.005,-6.976472 2.74615,-12.03258 7.79399,-14.324319 3.44603,-1.564511 6.2885,-1.788365 22.93764,-1.806421 l 19.00417,-0.02061 0,7.038582 0,7.038582 -17.77568,0 c -17.29324,0 -20.54938,0.52791 -18.1368,2.94048 0.49498,0.49499 4.56338,1.763568 9.04088,2.819062 6.2192,1.46607 9.28866,2.781492 13.00318,5.572523 10.92706,8.210433 15.30984,21.41545 11.65729,35.122575 -1.76758,6.633238 -3.90583,10.389501 -8.56836,15.05203 -8.33178,8.33178 -14.37715,9.81762 -39.94449,9.81762 l -18.72336,0 0,-7.03858 z m 95.67832,5.7604 c -8.67292,-2.33911 -15.21697,-8.17472 -19.56674,-17.448543 l -2.44109,-5.20445 0,-26.746612 c 0,-18.570779 0.35491,-27.911069 1.16105,-30.556049 2.61842,-8.591154 10.27266,-16.732718 18.84879,-20.048842 2.51309,-0.9717329 9.51491,-1.4419997 25.74094,-1.7288518 l 22.28885,-0.3940335 0,7.1250973 0,7.125098 -20.41189,0.02061 c -23.71967,0.02395 -26.32979,0.663826 -30.90769,7.577047 l -2.64288,3.991096 -0.27838,24.706511 c -0.31641,28.083038 0.14102,30.444752 6.89528,35.600066 l 3.55529,2.713639 21.89513,0.282829 21.89514,0.282839 0,6.990359 0,6.99037 -20.88113,-0.0633 c -13.35328,-0.0405 -22.42034,-0.47848 -25.15067,-1.21485 z m 74.65536,0.40375 c -8.14847,-2.01033 -15.64522,-8.13177 -19.94273,-16.28415 l -2.58073,-4.895638 -0.28507,-27.749665 c -0.27427,-26.698429 -0.20651,-27.959632 1.78868,-33.292246 2.63084,-7.031561 9.50618,-14.464687 16.13809,-17.447346 4.68003,-2.1048143 5.97738,-2.2088965 31.39375,-2.5186167 l 26.51199,-0.3230711 0,7.1148988 0,7.114898 -24.33932,0 c -14.91518,0 -25.36226,0.386495 -26.98123,0.998182 -3.75598,1.41911 -7.7553,5.425002 -9.77822,9.794311 -1.54102,3.328441 -1.74034,6.374353 -1.75861,26.874064 l -0.0206,23.120154 2.62816,5.030874 c 1.81789,3.479843 3.7709,5.678135 6.33472,7.130306 3.5056,1.985612 4.76342,2.100275 23.19901,2.114878 l 19.49246,0.01544 -0.25367,-19.47341 -0.25366,-19.47341 -15.7195,-0.25731 -15.71949,-0.257311 0,-6.546652 0,-6.546652 21.57266,0 21.57266,0 0.24694,31.843715 0.24694,31.843707 15.83252,-44.747774 c 8.70788,-24.61128 16.64758,-46.099017 17.64376,-47.750527 4.64622,-7.7026918 17.49108,-9.8778636 25.10389,-4.251141 3.91329,2.892347 5.8702,7.425862 17.91727,41.508319 6.29442,17.807612 13.49863,38.184306 16.00933,45.281543 l 4.5649,12.90406 -30.47014,0 -30.47014,0 0,-6.1001 0,-6.100102 21.58498,0 c 11.87174,0 21.58499,-0.323014 21.58499,-0.717804 0,-2.460847 -26.62111,-74.112207 -27.88913,-75.064261 -2.21604,-1.663848 -5.35196,-1.452886 -7.099,0.47757 -0.82161,0.907867 -8.23125,20.862247 -16.4659,44.343066 l -14.97206,42.692401 -31.77653,0.1447 c -17.47708,0.0796 -33.04347,-0.16787 -34.59196,-0.5499 z m 84.76948,-41.315875 c 9.11884,-26.444265 15.07855,-42.393676 15.96858,-42.735214 0.78099,-0.299697 1.91239,-0.0015 2.51422,0.662677 0.60183,0.664169 4.80766,11.765454 9.3463,24.66952 4.53863,12.904067 9.87109,28.001825 11.8499,33.550574 l 3.59782,10.088634 -19.14203,0 c -17.46894,0 -19.17322,-0.14355 -19.49882,-1.642336 -0.19623,-0.903284 -1.79511,2.686392 -3.55305,7.97706 l -3.19627,9.61939 -6.21762,0 -6.21762,0 14.54859,-42.190305 z m 25.254,12.862885 c -0.24664,-0.645203 -1.99747,-6.029718 -3.89072,-11.965589 -1.89326,-5.93587 -3.68503,-11.425964 -3.98171,-12.200208 -0.50051,-1.306174 -6.84642,15.890345 -8.29098,22.467394 l -0.63069,2.8715 8.62127,0 c 6.51054,0 8.51149,-0.287208 8.17283,-1.173097 z m -280.35716,4.478033 0,-7.018317 18.0657,-0.254884 c 15.31946,-0.216138 18.06569,-0.468876 18.06569,-1.6626 0,-0.988477 -2.37569,-1.986465 -7.97706,-3.351033 -12.95638,-3.156344 -18.13997,-6.841393 -22.72533,-16.155559 -2.86307,-5.815731 -3.0828,-6.9324 -3.0828,-15.666584 0,-8.230913 0.31271,-10.071646 2.5059,-14.750545 3.00846,-6.418165 9.09912,-12.755734 15.00761,-15.615981 6.32027,-3.0595892 13.2789,-3.8961159 32.46042,-3.9022037 l 17.12721,-0.00544 0,7.0385827 0,7.038581 -19.52377,0 c -18.91751,0 -19.6679,0.07236 -24.16579,2.330176 -10.4133,5.227194 -13.43667,18.354583 -6.60487,28.678135 2.8022,4.234423 7.09154,6.679801 15.57076,8.876987 3.29314,0.853338 7.63211,2.390526 9.64216,3.415975 7.492,3.822137 9.37394,15.260606 3.67023,22.307737 -4.06895,5.027309 -6.78526,5.564045 -28.56265,5.643889 l -19.47341,0.0714 0,-7.018318 z m 98.44431,4.899169 c -5.46587,-3.632364 -7.41198,-8.918771 -7.41198,-20.133928 l 0,-9.655161 21.58498,0 21.58498,0 0,7.038582 0,7.038582 -15.58528,0 c -13.82618,0 -15.521,0.167552 -15.01564,1.484471 0.31331,0.816461 0.56964,1.661091 0.56964,1.876956 0,0.215865 8.4463,0.392483 18.76955,0.392483 l 18.76956,0 0,7.038582 0,7.038582 -20.03849,0 c -19.23476,0 -20.16638,-0.085 -23.22732,-2.119149 z m 74.44032,0.558383 c -7.41276,-3.653607 -8.96976,-10.238811 -8.50664,-35.978338 0.38719,-21.519648 1.21221,-24.288045 8.32049,-27.919708 3.95737,-2.021835 5.12166,-2.111574 27.3961,-2.111574 l 23.26308,0 0,7.021896 0,7.021898 -22.75808,0.251304 -22.75808,0.251304 0,19.238791 0,19.23879 7.2732,0.274096 c 6.78698,0.255772 7.2732,0.145978 7.2732,-1.642336 0,-1.733033 -0.58377,-1.916431 -6.1001,-1.916431 l -6.1001,0 0,-7.038582 0,-7.038582 13.60792,0 13.60792,0 0,15.954119 0,15.954119 -15.71949,-0.02137 C 555.45999,92.87085 551.67374,92.560808 549.21413,91.348515 Z M 467.49952,46.68926 c 0.37292,-11.571218 1.62882,-15.098028 6.73249,-18.906072 2.46958,-1.842652 4.02668,-1.995182 23.22732,-2.275292 l 20.58029,-0.300238 0,7.1042 0,7.104201 -18.2673,0 c -16.87832,0 -18.33865,0.133333 -19.20577,1.753561 -0.51616,0.964458 -0.6718,2.020246 -0.34584,2.346194 0.32595,0.325948 7.27928,0.592632 15.45186,0.592632 l 14.85922,0 0,6.569344 0,6.569343 -21.68627,0 -21.68626,0 0.34026,-10.557873 z"
       id="path3373"
       inkscape:connector-curvature="0" />
  </g>
</svg>
