<?xml version="1.0" encoding="UTF-8" standalone="no"?>
<!-- Created with Inkscape (http://www.inkscape.org/) -->

<svg
   xmlns:dc="http://purl.org/dc/elements/1.1/"
   xmlns:cc="http://creativecommons.org/ns#"
   xmlns:rdf="http://www.w3.org/1999/02/22-rdf-syntax-ns#"
   xmlns:svg="http://www.w3.org/2000/svg"
   xmlns="http://www.w3.org/2000/svg"
   xmlns:sodipodi="http://sodipodi.sourceforge.net/DTD/sodipodi-0.dtd"
   xmlns:inkscape="http://www.inkscape.org/namespaces/inkscape"
   id="svg3336"
   version="1.1"
   inkscape:version="0.91 r13725"
   width="597.1875"
   height="202.5"
   viewBox="0 0 597.1875 202.5"
   sodipodi:docname="logo.svg">
  <metadata
     id="metadata3342">
    <rdf:RDF>
      <cc:Work
         rdf:about="">
        <dc:format>image/svg+xml</dc:format>
        <dc:type
           rdf:resource="http://purl.org/dc/dcmitype/StillImage" />
        <dc:title></dc:title>
      </cc:Work>
    </rdf:RDF>
  </metadata>
  <defs
     id="defs3340" />
  <sodipodi:namedview
     pagecolor="#ffffff"
     bordercolor="#666666"
     borderopacity="1"
     objecttolerance="10"
     gridtolerance="10"
     guidetolerance="10"
     inkscape:pageopacity="0"
     inkscape:pageshadow="2"
     inkscape:window-width="1366"
     inkscape:window-height="721"
     id="namedview3338"
     showgrid="false"
     inkscape:zoom="0.75604396"
     inkscape:cx="498.13943"
     inkscape:cy="-143.20217"
     inkscape:window-x="-4"
     inkscape:window-y="-4"
     inkscape:window-maximized="1"
     inkscape:current-layer="svg3336" />
  <g
     id="g3346"
     transform="translate(0,3.7449715e-4)">
    <path
       style="fill:#13b1e5"
       d="m 221.6199,188.90625 c 0.002,-7.21875 0.14862,-10.04795 0.32703,-6.28711 0.1784,3.76084 0.1772,9.66709 -0.003,13.125 -0.17971,3.45791 -0.32568,0.38086 -0.32422,-6.83789 z m 10.3125,0 c 0.002,-7.21875 0.14862,-10.04795 0.32703,-6.28711 0.1784,3.76084 0.1772,9.66709 -0.003,13.125 -0.17971,3.45791 -0.32568,0.38086 -0.32422,-6.83789 z m 188.4375,0 c 0.002,-7.21875 0.14862,-10.04795 0.32703,-6.28711 0.1784,3.76084 0.1772,9.66709 -0.003,13.125 -0.17971,3.45791 -0.32568,0.38086 -0.32422,-6.83789 z m 39.34307,4.21875 c 0,-4.89844 0.158,-6.90234 0.35113,-4.45313 0.19313,2.44922 0.19313,6.45704 0,8.90625 -0.19313,2.44922 -0.35113,0.44532 -0.35113,-4.45312 z m 39.39493,-2.34375 c 0.002,-6.1875 0.15358,-8.59675 0.33717,-5.35388 0.18359,3.24285 0.18208,8.30535 -0.004,11.25 -0.18545,2.94463 -0.33565,0.29138 -0.3338,-5.89612 z m 25.3245,-1.875 c 0.002,-7.21875 0.14862,-10.04795 0.32703,-6.28711 0.1784,3.76084 0.1772,9.66709 -0.003,13.125 -0.17971,3.45791 -0.32568,0.38086 -0.32422,-6.83789 z m -430.21365,3.37491 c -4.219509,-2.662 -33.004126,-32.12466 -33.705947,-34.49993 -1.010556,-3.42017 1.470075,-6.61511 17.470454,-22.5012 15.036926,-14.92951 18.40154,-17.47454 21.583068,-16.32567 2.436505,0.87982 35.131865,33.54025 35.681965,35.64383 0.26522,1.01421 -0.0594,2.88815 -0.72157,4.16431 -1.31455,2.5338 -28.16461,29.78184 -32.70586,33.19062 -3.410285,2.55987 -4.022557,2.58629 -7.60211,0.32804 z m 378.16166,0.14071 c -1.16613,-1.48693 -1.13297,-1.52009 0.35396,-0.35396 1.56165,1.22472 2.05827,1.99459 1.28667,1.99459 -0.19467,0 -0.93296,-0.73828 -1.64063,-1.64063 z m -143.08354,-0.90585 c 1.41797,-0.21481 3.73829,-0.21481 5.15625,0 1.41797,0.2148 0.25782,0.39055 -2.57812,0.39055 -2.83594,0 -3.99609,-0.17575 -2.57813,-0.39055 z m 252.02715,-8.15665 c -0.0407,-0.98827 0.18087,-1.54199 0.49239,-1.23047 0.31152,0.31152 0.34482,1.12012 0.074,1.79688 -0.29927,0.74787 -0.52142,0.52573 -0.5664,-0.56641 z m -67.5,-5.625 c -0.0407,-0.98827 0.18087,-1.54199 0.49239,-1.23047 0.31152,0.31152 0.34482,1.12012 0.074,1.79688 -0.29927,0.74787 -0.52142,0.52573 -0.5664,-0.56641 z M 214.02744,159.80642 c -6.02603,-3.0029 -12.93254,-10.30508 -14.25646,-15.07322 -1.63508,-5.8888 -1.22642,-12.08761 2.66915,-40.48738 2.02958,-14.79614 4.78645,-35.972383 6.12639,-47.05832 4.233,-35.021527 4.96639,-39.308582 7.44929,-43.545324 3.342,-5.7026924 10.01086,-11.4664764 14.74064,-12.74007219 3.75204,-1.01032034 10.6076,-0.78805241 11.7775,0.38184499 0.27726,0.2772535 -0.39233,7.1681932 -1.48795,15.3131992 -2.52823,18.795031 -4.7852,38.494484 -4.75786,41.527852 l 0.0211,2.34375 2.08945,-2.34375 C 242.17721,53.886635 251.6174,46.289602 257.34375,42.878895 270.66217,34.946227 280.51287,32.8125 303.81693,32.8125 l 17.02097,0 -0.65268,4.453125 c -1.40284,9.571426 -6.92427,16.879689 -14.30022,18.928005 -1.94769,0.540877 -7.76,0.990773 -12.91625,0.999769 -5.15625,0.009 -11.48438,0.580662 -14.0625,1.270369 -20.44832,5.470395 -35.03512,24.505785 -34.06171,44.449642 0.4367,8.94737 3.09335,14.68324 9.44625,20.39506 6.13346,5.5145 11.01187,6.96643 25.55296,7.60515 9.48919,0.41681 13.09318,0.95835 16.27821,2.44596 4.86894,2.27411 9.00697,8.18956 9.90146,14.15446 1.12445,7.49843 2.14301,7.17346 -22.48383,7.17346 -12.35516,0 -24.0481,-0.45113 -26.85282,-1.03601 -11.41201,-2.37983 -23.45335,-10.64756 -30.28759,-20.79583 l -3.08835,-4.58594 -0.55751,2.66202 c -0.51067,2.43833 -2.43324,25.78715 -2.43854,29.61513 -0.003,2.1555 -0.6223,2.08256 -6.28734,-0.74045 z m 341.91006,0.96351 c 0,-0.77965 1.46746,-11.43199 3.26102,-23.67187 1.79356,-12.23987 4.54293,-32.59025 6.10972,-45.22306 3.02682,-24.404811 7.23746,-55.322935 8.01161,-58.828125 0.31367,-1.420278 1.14914,-2.107667 2.55738,-2.104147 6.87408,0.01719 14.68718,5.264299 19.13184,12.848545 l 2.49586,4.258856 -1.62681,12.77181 c -3.24301,25.460544 -9.98605,72.881721 -11.01429,77.459311 -1.39969,6.23118 -3.00299,9.21969 -7.67772,14.31104 -6.32399,6.88759 -21.24861,12.63142 -21.24861,8.17764 z m -217.17472,-7.94362 c -8.33777,-2.18573 -12.64097,-4.35565 -19.14229,-9.65266 -14.6659,-11.9492 -21.5285,-30.0391 -18.77527,-49.491818 3.66536,-25.897162 16.6013,-44.683444 38.06103,-55.274285 9.69546,-4.784919 16.56181,-6.537284 28.125,-7.177797 19.18026,-1.062442 32.7055,3.651105 44.6364,15.555783 11.19472,11.170118 15.30884,21.201641 15.22392,37.120717 -0.0593,11.129241 -1.82371,18.57659 -6.88517,29.0625 -14.60887,30.26542 -50.55784,47.90174 -81.24362,39.85756 z m 33.46442,-25.23025 c 6.28488,-2.37088 15.06573,-9.26028 19.81998,-15.55063 5.60971,-7.4222 7.79657,-14.394614 7.79657,-24.85793 0,-7.892669 -0.3039,-9.52515 -2.67037,-14.34447 -3.16421,-6.443953 -10.66483,-14.264356 -16.00908,-16.691624 -7.35736,-3.341585 -23.51078,-2.108299 -32.55261,2.485335 -16.54008,8.403064 -26.09123,30.512877 -20.86605,48.302479 3.411,11.61306 9.84648,18.43748 20.65185,21.89997 6.01017,1.92591 16.94056,1.3557 23.82971,-1.24313 z m 98.02385,25.59712 c -18.53568,-4.48497 -34.56251,-20.34704 -39.57368,-39.16682 -1.68755,-6.33777 -1.64592,-19.458101 0.0879,-27.700427 4.55745,-21.665536 21.78378,-41.562548 43.61989,-50.382543 9.92699,-4.009689 18.0445,-5.00589 40.79034,-5.00589 23.37595,0 21.26355,0.666392 22.46442,-7.086803 1.43058,-9.236401 10.84958,-19.5889761 20.40394,-22.4263167 4.52944,-1.34509692 8.2061,-1.83317538 8.2061,-1.08936269 0,0.18425969 -1.65926,13.57879139 -3.68724,29.76562439 -2.02798,16.186834 -4.57319,37.65717 -5.65602,47.711858 -2.2106,20.526703 -3.56879,26.92778 -7.50514,35.37146 -9.04888,19.41028 -29.24992,35.8453 -49.27225,40.08657 -8.14908,1.72619 -22.57892,1.68884 -29.8783,-0.0773 z m 27.0927,-24.15507 c 7.15316,-1.91079 12.50341,-5.00955 18.46146,-10.69257 5.93751,-5.66343 9.10664,-10.47955 11.43602,-17.37934 1.26546,-3.74835 6.19627,-38.97062 6.19627,-44.261811 0,-1.488388 -1.64458,-1.575437 -21.79688,-1.153717 -24.75086,0.517952 -27.87534,1.140144 -37.2873,7.425219 -6.72213,4.488861 -12.90992,12.304376 -16.03328,20.250891 -2.96031,7.531681 -3.00314,21.198248 -0.0866,27.640988 2.47511,5.46766 9.7124,13.37136 14.46331,15.7951 7.13388,3.63943 16.52599,4.54455 24.64702,2.37524 z m -362.9499,-9.30687 C 118.8432,104.23716 117.1875,102.28216 117.1875,99.414506 c 0,-2.862356 1.67569,-4.855162 17.11687,-20.356241 C 149.96631,63.335561 151.69885,61.875 154.6875,61.875 c 2.98865,0 4.72119,1.460561 20.38313,17.183265 15.44118,15.501079 17.11687,17.493885 17.11687,20.356241 0,2.867654 -1.6557,4.822654 -17.20635,20.316734 -15.33521,15.27942 -17.54209,17.14376 -20.29365,17.14376 -2.75156,0 -4.95844,-1.86434 -20.29365,-17.14376 z M 18.037154,117.85538 C 6.2010763,105.94904 1.875,101.00053 1.875,99.3678 c 0,-3.107456 31.885068,-35.236793 34.118401,-34.379782 1.382482,0.530507 1.506307,3.865788 1.283945,34.58382 -0.213162,29.447002 -0.435592,34.033152 -1.662067,34.269162 -0.804868,0.15486 -8.391207,-6.74418 -17.578125,-15.98562 z M 63.103883,114.5672 C 61.602012,113.62268 61.132572,39.682053 62.611284,36.978648 63.159533,35.976329 70.524406,28.300781 78.977667,19.921875 92.740661,6.2799404 94.677956,4.6875 97.511119,4.6875 100.36441,4.6875 102.35979,6.3722977 117.8375,21.85 132.33421,36.346714 135,39.441822 135,41.776501 135,44.163495 130.17276,49.364105 99.609375,79.904416 76.926706,102.56996 63.818427,115.01657 63.103883,114.5672 Z"
       id="path3350"
       inkscape:connector-curvature="0" />
    <path
       style="fill:#111111"
       d="m 388.40698,200.54984 c -5.07401,-2.51161 -8.30474,-8.56312 -7.33402,-13.73747 0.95435,-5.08713 6.4671,-10.21918 11.84325,-11.02538 4.84974,-0.72727 10.53988,0.57858 13.91258,3.19282 1.91151,1.48165 2.09858,2.0206 1.11344,3.20762 -1.04581,1.26012 -1.57578,1.16095 -4.53774,-0.84908 -5.24502,-3.55937 -10.82026,-2.94727 -15.98262,1.75472 -3.20319,2.91754 -2.93124,8.89373 0.55679,12.23548 4.62991,4.43572 11.67174,4.49773 16.84077,0.14828 2.41909,-2.03554 2.92582,-2.15623 3.93705,-0.93778 1.55192,1.86996 -0.1704,3.94297 -5.16273,6.21394 -4.96405,2.25809 -10.36034,2.18591 -15.18677,-0.20315 z M 194.0625,188.90625 c 0,-11.58144 0.14389,-12.65625 1.69434,-12.65625 1.06163,0 3.63054,2.80445 6.87917,7.50993 l 5.18483,7.50993 5.11164,-7.26997 c 7.70143,-10.95328 8.31752,-10.59496 8.31752,4.83762 0,12.09999 -0.0921,12.72499 -1.875,12.72499 -1.74623,0 -1.87556,-0.62775 -1.88324,-9.14063 l -0.008,-9.14062 -4.44488,6.7811 c -2.44469,3.7296 -4.71642,6.78819 -5.04828,6.79687 -0.33188,0.008 -2.65219,-2.98544 -5.15625,-6.6536 l -4.55266,-6.66938 -0.26832,9.01313 c -0.24536,8.24164 -0.42592,9.01313 -2.10938,9.01313 -1.73882,0 -1.84105,-0.7028 -1.84105,-12.65625 z m 38.4375,0 0,-12.65625 11.71875,0 c 11.09375,0 11.71875,0.1 11.71875,1.875 0,1.75596 -0.625,1.875 -9.84375,1.875 l -9.84375,0 0,3.28125 0,3.28125 6.63124,0 c 5.80964,0 6.59249,0.20327 6.31844,1.64062 -0.25449,1.33472 -1.49094,1.69231 -6.63125,1.91784 l -6.31843,0.27721 0,3.70716 0,3.70717 10.3125,0 c 9.6875,0 10.3125,0.11363 10.3125,1.875 0,1.77885 -0.625,1.875 -12.1875,1.875 l -12.1875,0 0,-12.65625 z m 34.6875,0 0,-12.65625 7.53011,0 c 13.0005,0 18.23959,4.12973 17.52428,13.81359 -0.6244,8.45296 -5.2664,11.49891 -17.52428,11.49891 l -7.53011,0 0,-12.65625 z m 18.82211,6.16586 c 2.91321,-2.9132 3.48965,-6.23028 1.69316,-9.74312 -1.9872,-3.88578 -4.7406,-5.28612 -10.43715,-5.30814 L 271.875,180 l 0,8.90625 0,8.90625 5.69711,0 c 5.04682,0 6.00992,-0.31281 8.4375,-2.74039 z m 16.80289,-6.16586 0,-12.65625 2.34375,0 2.34375,0 0,12.65625 0,12.65625 -2.34375,0 -2.34375,0 0,-12.65625 z m 21.27618,0.24196 c 3.50904,-6.82786 7.01465,-12.53414 7.79027,-12.68062 0.9728,-0.18372 3.37035,3.66673 7.72996,12.41429 5.40913,10.85344 6.06357,12.68062 4.54178,12.68062 -1.03822,0 -2.58349,-1.36523 -3.71397,-3.28125 C 338.51526,195.02461 338.45116,195 331.89145,195 l -6.60929,0 -1.56471,3.28125 c -1.13827,2.38697 -2.17033,3.28125 -3.78678,3.28125 -2.12842,0 -1.95317,-0.5232 4.15801,-12.41429 z m 12.47382,2.59562 c 0,-0.99498 -4.16529,-8.93133 -4.6875,-8.93133 -0.52221,0 -4.6875,7.93635 -4.6875,8.93133 0,0.24402 2.10937,0.44367 4.6875,0.44367 2.57812,0 4.6875,-0.19965 4.6875,-0.44367 z m 84.375,-2.83758 0,-12.65625 11.71875,0 c 11.09375,0 11.71875,0.1 11.71875,1.875 0,1.75596 -0.625,1.875 -9.84375,1.875 l -9.84375,0 0,3.28125 0,3.28125 6.63124,0 c 5.80964,0 6.59249,0.20327 6.31844,1.64062 -0.25449,1.33472 -1.49094,1.69231 -6.63125,1.91784 l -6.31843,0.27721 0,3.70716 0,3.70717 10.3125,0 c 9.6875,0 10.3125,0.11363 10.3125,1.875 0,1.77885 -0.625,1.875 -12.1875,1.875 l -12.1875,0 0,-12.65625 z m 34.6875,0 c 0,-10.09052 0.26034,-12.65625 1.28422,-12.65625 0.70633,0 4.81961,3.99202 9.14063,8.87117 l 7.8564,8.87118 0.26832,-8.87118 c 0.24502,-8.10055 0.42825,-8.87117 2.10938,-8.87117 1.73882,0 1.84105,0.7028 1.84105,12.65625 0,9.50705 -0.29159,12.65297 -1.17188,12.64305 -0.64453,-0.007 -4.54065,-3.80414 -8.65806,-8.4375 -4.11742,-4.63337 -7.80882,-8.4243 -8.20313,-8.4243 -0.39431,0 -0.71693,3.79687 -0.71693,8.4375 0,7.8125 -0.13889,8.4375 -1.875,8.4375 -1.7824,0 -1.875,-0.625 -1.875,-12.65625 z m 44.0625,1.875 0,-10.78125 -5.625,0 c -5,0 -5.625,-0.20833 -5.625,-1.875 0,-1.7824 0.625,-1.875 12.65625,-1.875 12.03125,0 12.65625,0.0926 12.65625,1.875 0,1.64773 -0.625,1.875 -5.15625,1.875 l -5.15625,0 0,10.78125 c 0,10.15625 -0.10869,10.78125 -1.875,10.78125 -1.76631,0 -1.875,-0.625 -1.875,-10.78125 z m 25.3125,-1.875 0,-12.65625 11.71875,0 c 11.09375,0 11.71875,0.1 11.71875,1.875 0,1.75596 -0.625,1.875 -9.84375,1.875 l -9.84375,0 0,3.28125 0,3.28125 6.63124,0 c 5.80964,0 6.59249,0.20327 6.31844,1.64062 -0.25449,1.33472 -1.49094,1.69231 -6.63125,1.91784 l -6.31843,0.27721 0,3.70716 0,3.70717 10.3125,0 c 9.6875,0 10.3125,0.11363 10.3125,1.875 0,1.77885 -0.625,1.875 -12.1875,1.875 l -12.1875,0 0,-12.65625 z m 34.6875,0 0,-12.65625 10.82386,0 c 10.24201,0 10.94757,0.1237 13.125,2.30114 1.26562,1.26563 2.30114,3.39417 2.30114,4.73011 0,2.39028 -3.67696,7.03125 -5.57074,7.03125 -0.53266,0 0.50285,2.30004 2.30113,5.11121 3.7974,5.9363 3.84681,6.13879 1.49782,6.13879 -1.13756,0 -3.0672,-2.0106 -5.39063,-5.6168 l -3.61883,-5.6168 -5.39063,-0.008 -5.39062,-0.008 0,5.625 c 0,5.375 -0.10417,5.625 -2.34375,5.625 l -2.34375,0 0,-12.65625 z m 21.62772,-3.82858 c 0.89253,-1.07545 0.96149,-1.91552 0.2501,-3.04688 -0.76871,-1.22253 -2.74359,-1.62092 -9.08626,-1.83291 l -8.10406,-0.27088 0,3.31775 0,3.31775 7.85396,0 c 6.02233,0 8.14135,-0.34628 9.08626,-1.48483 z"
       id="path3348"
       inkscape:connector-curvature="0" />
  </g>
</svg>
