<?xml version="1.0" encoding="UTF-8" standalone="no"?>
<!-- Created with Inkscape (http://www.inkscape.org/) -->

<svg
   xmlns:dc="http://purl.org/dc/elements/1.1/"
   xmlns:cc="http://creativecommons.org/ns#"
   xmlns:rdf="http://www.w3.org/1999/02/22-rdf-syntax-ns#"
   xmlns:svg="http://www.w3.org/2000/svg"
   xmlns="http://www.w3.org/2000/svg"
   xmlns:sodipodi="http://sodipodi.sourceforge.net/DTD/sodipodi-0.dtd"
   xmlns:inkscape="http://www.inkscape.org/namespaces/inkscape"
   id="svg3356"
   version="1.1"
   inkscape:version="0.91 r13725"
   width="1070.8029"
   height="306.88217"
   viewBox="0 0 1070.8029 306.88217"
   sodipodi:docname="logo.svg">
  <metadata
     id="metadata3362">
    <rdf:RDF>
      <cc:Work
         rdf:about="">
        <dc:format>image/svg+xml</dc:format>
        <dc:type
           rdf:resource="http://purl.org/dc/dcmitype/StillImage" />
        <dc:title></dc:title>
      </cc:Work>
    </rdf:RDF>
  </metadata>
  <defs
     id="defs3360" />
  <sodipodi:namedview
     pagecolor="#ffffff"
     bordercolor="#666666"
     borderopacity="1"
     objecttolerance="10"
     gridtolerance="10"
     guidetolerance="10"
     inkscape:pageopacity="0"
     inkscape:pageshadow="2"
     inkscape:window-width="1366"
     inkscape:window-height="721"
     id="namedview3358"
     showgrid="false"
     inkscape:zoom="0.27456034"
     inkscape:cx="535.40143"
     inkscape:cy="153.44109"
     inkscape:window-x="-4"
     inkscape:window-y="-4"
     inkscape:window-maximized="1"
     inkscape:current-layer="svg3356" />
  <g
     id="g3366"
     transform="translate(3.2e-4,-4.2836914e-4)">
    <path
       style="fill:#fd0202"
       d="m 108.8634,265.58916 0,-12.20021 44.10844,0 44.10845,0 0,-12.14055 0,-12.14056 -36.36601,-0.29427 c -35.27013,-0.28541 -36.48105,-0.35586 -40.18393,-2.33789 -4.90739,-2.62677 -10.15001,-8.44561 -11.78831,-13.08398 -0.91723,-2.59687 -1.28636,-8.7782 -1.28636,-21.54082 l 0,-17.89885 2.83654,-5.56309 c 3.07743,-6.0355 8.85203,-10.78099 15.29737,-12.57115 2.11091,-0.5863 19.75988,-0.96055 45.44795,-0.96375 l 41.99687,-0.005 0,12.19024 0,12.19024 -40.58916,0.24459 -40.58915,0.24459 0,12.20021 0,12.2002 36.60062,0.46924 36.60063,0.46924 4.31091,2.53431 c 5.11199,3.00525 8.89314,7.677 10.84146,13.39504 2.19595,6.44471 1.48897,39.08749 -0.94565,43.66398 -2.84422,5.3464 -7.2122,9.2664 -12.55128,11.26401 -4.76046,1.78112 -7.32717,1.87467 -51.42996,1.87467 l -46.41943,0 0,-12.2002 z m 147.55014,11.01032 c -5.8821,-1.41337 -11.71955,-6.94183 -13.65389,-12.93115 -1.37186,-4.24771 -1.57092,-10.12108 -1.57092,-46.35136 0,-47.52593 0.005,-47.55978 7.43012,-54.95372 7.5933,-7.56099 7.20566,-7.51445 62.59423,-7.51445 l 48.22383,0 0,12.19144 0,12.19146 -46.68926,0.24337 -46.68926,0.24339 -0.24553,36.84615 -0.24552,36.84615 36.84615,-0.24553 36.84615,-0.24552 0.26254,-11.94996 0.26255,-11.94995 -24.66297,-0.25025 -24.66295,-0.25026 -0.26267,-11.96559 -0.26265,-11.96559 37.0979,0 37.0979,0 0,36.60063 0,36.60062 -51.85088,-0.1127 c -31.85959,-0.0693 -53.39849,-0.48456 -55.86487,-1.07718 z m 211.88676,-11.01032 0,-12.20021 12.21111,0 12.21109,0 -0.2455,-36.83525 -0.24552,-36.83524 -11.96559,-0.26266 -11.96559,-0.26266 0,-12.17217 0,-12.17217 24.40042,0 24.40042,0 0,49.27007 0,49.27008 12.20021,0 12.2002,0 0,12.20021 0,12.2002 -36.60062,0 -36.60063,0 0,-12.2002 z m 103.8963,10.68703 c -5.6956,-1.75057 -11.40919,-7.33281 -13.04909,-12.7491 -0.9274,-3.06305 -1.2226,-14.34816 -1.2226,-46.73877 0,-41.58158 0.0523,-42.81141 1.99348,-46.92388 2.40407,-5.09299 6.8896,-9.75598 12.03403,-12.51012 3.7127,-1.98763 4.78822,-2.04278 45.0199,-2.30857 47.78972,-0.31571 48.26216,-0.25368 55.84907,7.33323 7.51103,7.51103 7.57484,7.97284 7.57484,54.81601 0,46.63612 -0.17515,48.01321 -6.93476,54.52157 -6.11666,5.8893 -7.8927,6.08221 -55.31097,6.00744 -33.71143,-0.0531 -42.2963,-0.32362 -45.9539,-1.44781 z m 83.32998,-59.95711 0,-36.60062 -36.60063,0 -36.60062,0 -0.24553,36.84615 -0.24552,36.84615 36.84615,-0.24553 36.84615,-0.24552 0,-36.60063 z m 57.44166,59.95711 c -5.6956,-1.75057 -11.4092,-7.33281 -13.04909,-12.7491 -0.92741,-3.06305 -1.2226,-14.34816 -1.2226,-46.73877 0,-41.58158 0.0523,-42.81141 1.99347,-46.92388 2.40407,-5.09299 6.8896,-9.75598 12.03403,-12.51012 3.71271,-1.98763 4.78822,-2.04278 45.0199,-2.30857 47.78973,-0.31571 48.26217,-0.25368 55.84907,7.33323 7.51103,7.51103 7.57485,7.97284 7.57485,54.81601 0,46.63612 -0.17516,48.01321 -6.93477,54.52157 -6.11666,5.8893 -7.8927,6.08221 -55.31097,6.00744 -33.71142,-0.0531 -42.2963,-0.32362 -45.95389,-1.44781 z m 83.32997,-59.95711 0,-36.60062 -36.60062,0 -36.60063,0 -0.24552,36.84615 -0.24553,36.84615 36.84615,-0.24553 36.84615,-0.24552 0,-36.60063 z m 57.44166,59.95711 c -5.6956,-1.75057 -11.40919,-7.33281 -13.04909,-12.7491 -0.9274,-3.06305 -1.2226,-14.34816 -1.2226,-46.73877 0,-41.58158 0.0523,-42.81141 1.99348,-46.92388 2.40407,-5.09299 6.8896,-9.75598 12.03403,-12.51012 3.7127,-1.98763 4.78821,-2.04278 45.01989,-2.30857 47.78973,-0.31571 48.26216,-0.25368 55.84909,7.33323 7.51102,7.51103 7.57483,7.97284 7.57483,54.81601 0,46.63612 -0.17512,48.01321 -6.93478,54.52157 -6.11662,5.8893 -7.89269,6.08221 -55.31095,6.00744 -33.71143,-0.0531 -42.2963,-0.32362 -45.9539,-1.44781 z m 83.32998,-59.95711 0,-36.60062 -36.60063,0 -36.60062,0 -0.24553,36.84615 -0.24552,36.84615 36.84615,-0.24553 36.84615,-0.24552 0,-36.60063 z m -554.171,0.46924 0,-12.20021 36.60062,0 36.60063,0 0,12.20021 0,12.20021 -36.60063,0 -36.60062,0 0,-12.20021 z"
       id="path3370"
       inkscape:connector-curvature="0" />
    <path
       style="fill:#040404"
       d="m 376.3295,103.84082 0,-7.050747 21.42191,-0.29806 21.42191,-0.298061 3.8014,-2.517637 c 7.95438,-5.268127 10.99561,-16.130419 6.89044,-24.610541 -2.75304,-5.687033 -5.97757,-7.810066 -16.5727,-10.911455 -4.86019,-1.422671 -9.90635,-3.287523 -11.21367,-4.144116 -3.8918,-2.550001 -6.03384,-6.989208 -6.03775,-12.512713 -0.005,-6.387513 1.81007,-10.6241 5.7558,-13.438272 3.06216,-2.183992 3.7646,-2.260033 23.56812,-2.551322 l 20.41188,-0.300238 0,7.1042 0,7.104201 -17.83107,0 c -16.81666,0 -17.83107,0.100225 -17.83107,1.761723 0,1.432647 1.53387,2.145256 8.21167,3.814984 12.59993,3.150506 18.42296,7.527167 23.79583,17.885232 1.86031,3.586407 2.19484,5.64061 2.21876,13.62436 0.0262,8.743861 -0.18573,9.835934 -3.03097,15.618507 -3.56017,7.23556 -8.64514,12.197155 -16.06703,15.677205 -5.14814,2.41391 -5.79598,2.48046 -27.09385,2.78327 l -21.81961,0.31023 0,-7.05075 z m 92.52433,4.57473 c -7.05602,-2.9008 -12.06146,-7.78955 -15.85615,-15.486536 l -2.99769,-6.08037 0,-27.704823 0,-27.704822 2.47305,-5.274254 c 3.34177,-7.126988 8.06014,-12.112314 14.59994,-15.425979 l 5.45047,-2.7617065 22.9927,0 22.9927,0 0.27574,6.8039625 0.27573,6.803962 -20.92224,0.02061 c -24.28895,0.02393 -26.82188,0.634936 -31.41804,7.578833 l -2.64288,3.992881 0,25.945014 0,25.945014 2.5768,3.894802 c 4.52221,6.835234 5.83773,7.169923 30.26991,7.701054 l 21.58498,0.469239 0.27574,6.803959 0.27573,6.80396 -22.32995,-0.0222 c -21.47266,-0.0214 -22.54291,-0.10981 -27.87654,-2.30252 z m 75.83508,1.00005 c -5.92491,-1.86395 -12.01182,-6.54848 -15.61313,-12.015976 -5.70093,-8.655142 -5.87454,-9.800129 -5.87454,-38.744775 l 0,-26.277372 2.92092,-6.164132 c 3.52597,-7.441018 8.4577,-12.503592 15.37939,-15.787454 5.12813,-2.4329375 5.33371,-2.4507782 31.67362,-2.7487623 l 26.51199,-0.2999309 0,7.0487302 0,7.048731 -25.723,0.289782 -25.72301,0.289782 -3.60441,2.914933 c -7.14542,5.778575 -7.32071,6.508336 -7.66491,31.91049 -0.3409,25.159101 0.13726,28.537323 4.78918,33.835554 4.8353,5.507123 6.86589,5.947991 27.39549,5.947991 l 18.33045,0 0,-19.708029 0,-19.708029 -15.48488,0 -15.48487,0 0,-7.038582 0,-7.038582 21.57266,0 21.57266,0 0.24694,32.142857 0.24694,32.142854 15.88056,-44.828861 c 8.73432,-24.655874 16.64886,-46.092216 17.58788,-47.636315 5.16351,-8.4907183 18.80515,-9.7588775 26.7413,-2.485936 2.98037,2.7313 4.75107,7.17613 20.07048,50.381066 9.24095,26.062015 16.81308,47.491056 16.82696,47.620106 0.0139,0.12904 -13.69998,0.23461 -30.47527,0.23461 l -30.50052,0 0,-6.1001 0,-6.100104 21.58498,0 c 11.87174,0 21.58499,-0.215793 21.58499,-0.479534 0,-2.220991 -26.78264,-74.404375 -27.93996,-75.302531 -2.09845,-1.628537 -5.36725,-1.465475 -6.90343,0.344375 -0.7084,0.834609 -8.08605,20.788989 -16.39478,44.343066 l -15.10677,42.825598 -32.28634,0.17803 c -24.1842,0.13335 -33.2528,-0.126 -36.13757,-1.03355 z m 74.20675,-5.00997 c 1.25154,-3.4841 7.80138,-22.374602 14.55518,-41.978899 6.7538,-19.604297 12.70053,-36.065087 13.21498,-36.579532 2.35777,-2.357774 4.54689,2.380184 16.05868,34.756288 6.59303,18.542431 11.99938,33.819089 12.0141,33.94813 0.0147,0.12904 -8.59972,0.234619 -19.14321,0.234619 -16.97675,0 -19.20469,-0.175167 -19.47341,-1.531068 -0.16688,-0.842087 -1.70345,2.747588 -3.4146,7.977062 l -3.11116,9.50812 -6.48805,0 -6.48806,0 2.27555,-6.33472 z m 33.56476,-35.662147 -4.33357,-12.904067 -3.42683,10.792492 c -1.88476,5.935871 -3.73238,11.742701 -4.10582,12.904067 -0.66998,2.083576 -0.56709,2.111575 7.7604,2.111575 l 8.43939,0 -4.33357,-12.904067 z m -276.13092,17.177121 0,-7.088487 17.83108,0 c 16.40804,0 17.83107,-0.132075 17.83107,-1.654936 0,-1.307701 -1.75527,-2.074242 -8.3657,-3.653372 -17.85408,-4.265063 -26.08745,-15.182901 -25.25813,-33.493441 0.7253,-16.013789 10.11701,-27.733477 25.03915,-31.2457489 3.45533,-0.8132898 11.75115,-1.252581 23.83494,-1.2621386 l 18.53493,-0.01466 0,7.0385825 0,7.038581 -19.26893,0 c -20.56011,0 -23.6948,0.54805 -28.43733,4.971799 -4.2872,3.999032 -6.01474,8.822689 -5.62568,15.708051 0.59067,10.453299 6.02302,16.175422 17.81711,18.767503 7.63147,1.677229 14.06151,5.414367 16.0934,9.353482 2.18496,4.235878 1.73234,12.18238 -0.89426,15.700432 -4.65862,6.239715 -5.0265,6.326677 -28.08206,6.638316 l -21.04959,0.284526 0,-7.088489 z m 99.94786,6.088221 c -2.98796,-1.244058 -6.99505,-5.998736 -7.99554,-9.487248 -0.50599,-1.764306 -0.91999,-7.328188 -0.91999,-12.364182 l 0,-9.156352 21.58498,0 21.58498,0 0,7.038582 0,7.038582 -15.08445,0 c -13.86054,0 -15.05888,0.133254 -14.76932,1.642335 0.28392,1.479782 2.17173,1.688781 19.07298,2.111575 l 18.75785,0.469239 0.27574,6.803962 0.27573,6.803963 -20.453,-0.05949 c -11.24915,-0.03271 -21.29763,-0.411151 -22.32996,-0.840966 z m 71.74844,-1.214308 c -1.72595,-1.16312 -4.00556,-3.59143 -5.06579,-5.396246 -1.79991,-3.063955 -1.92769,-4.774552 -1.92769,-25.804944 0,-25.075893 0.47979,-27.433208 6.45042,-31.692101 2.82929,-2.018147 3.81643,-2.10306 27.56939,-2.371464 l 24.63503,-0.278371 0,7.065649 0,7.065649 -22.75808,0.251304 -22.75808,0.251304 0,19.238791 0,19.23879 7.03858,0 c 5.63087,0 7.03858,-0.281543 7.03858,-1.407716 0,-1.071345 -1.40155,-1.474479 -5.86548,-1.687117 l -5.86548,-0.279402 0,-6.993799 0,-6.993801 13.60792,0 13.60792,0 0,15.954119 0,15.954119 -16.28457,0 c -15.34092,0 -16.46642,-0.122545 -19.42267,-2.114764 z M 467.36183,47.591972 c 0,-8.162681 0.3264,-10.293948 2.11157,-13.787604 3.98719,-7.803104 4.51666,-7.957186 28.45511,-8.280759 l 21.04958,-0.284526 0,7.069056 0,7.069056 -18.99196,0.254052 c -17.22407,0.230402 -19.02133,0.406928 -19.3076,1.896386 -0.29003,1.509103 0.90807,1.642336 14.76881,1.642336 l 15.08445,0 0,7.038582 0,7.038582 -21.58498,0 -21.58498,0 0,-9.655161 z"
       id="path3368"
       inkscape:connector-curvature="0" />
  </g>
</svg>
