<?xml version="1.0" encoding="UTF-8" standalone="no"?>
<!-- Created with Inkscape (http://www.inkscape.org/) -->

<svg
   xmlns:dc="http://purl.org/dc/elements/1.1/"
   xmlns:cc="http://creativecommons.org/ns#"
   xmlns:rdf="http://www.w3.org/1999/02/22-rdf-syntax-ns#"
   xmlns:svg="http://www.w3.org/2000/svg"
   xmlns="http://www.w3.org/2000/svg"
   xmlns:sodipodi="http://sodipodi.sourceforge.net/DTD/sodipodi-0.dtd"
   xmlns:inkscape="http://www.inkscape.org/namespaces/inkscape"
   id="svg3347"
   version="1.1"
   inkscape:version="0.91 r13725"
   width="899.06152"
   height="480.50052"
   viewBox="0 0 899.06152 480.50052"
   sodipodi:docname="logo.svg">
  <metadata
     id="metadata3353">
    <rdf:RDF>
      <cc:Work
         rdf:about="">
        <dc:format>image/svg+xml</dc:format>
        <dc:type
           rdf:resource="http://purl.org/dc/dcmitype/StillImage" />
        <dc:title></dc:title>
      </cc:Work>
    </rdf:RDF>
  </metadata>
  <defs
     id="defs3351" />
  <sodipodi:namedview
     pagecolor="#ffffff"
     bordercolor="#666666"
     borderopacity="1"
     objecttolerance="10"
     gridtolerance="10"
     guidetolerance="10"
     inkscape:pageopacity="0"
     inkscape:pageshadow="2"
     inkscape:window-width="1366"
     inkscape:window-height="721"
     id="namedview3349"
     showgrid="false"
     inkscape:zoom="0.32700765"
     inkscape:cx="449.53076"
     inkscape:cy="-204.35017"
     inkscape:window-x="-4"
     inkscape:window-y="-4"
     inkscape:window-maximized="1"
     inkscape:current-layer="svg3347" />
  <g
     id="g3357"
     transform="translate(-3.223319e-4,4.6619296e-4)">
    <path
       style="fill:#c0d62d"
       d="m 239.78102,467.74543 c -1.54849,-0.21053 -6.82742,-0.8402 -11.73097,-1.39927 -4.90354,-0.55908 -14.87172,-2.246 -22.1515,-3.74874 C 152.87081,451.65116 104.92068,425.6773 68.978102,388.42969 36.758678,355.04042 17.328661,317.30151 8.8738604,271.68926 6.4245317,258.47553 5.9353571,225.73923 7.9606104,210.5732 11.838617,181.5329 21.696543,153.27386 36.56623,128.57143 73.710227,66.865564 140.19996,23.043762 215.84984,10.409865 234.14922,7.3537811 243.8779,6.6018689 265.11992,6.6018689 c 10.83941,0 23.72002,0.4159953 28.62356,0.9244339 47.4286,4.9177752 91.12199,20.5282892 128.10219,45.7675912 56.24234,38.385875 92.05895,94.331036 100.46485,156.925086 1.55276,11.56246 1.77368,40.27046 0.39741,51.64088 -3.66055,30.24255 -15.29848,63.15584 -31.27371,88.44543 -27.07234,42.85682 -69.94384,78.03139 -119.16796,97.77317 -21.58892,8.65843 -42.30447,14.24579 -66.79181,18.01496 -8.91529,1.37227 -58.56708,2.62087 -65.69343,1.65201 z M 408.66537,296.91404 c 6.04205,-1.56208 10.89385,-3.75198 11.99284,-5.41308 0.97008,-1.46628 0.85886,-7.34376 -0.16974,-8.96961 -0.72839,-1.15132 -2.04804,-0.93697 -8.66655,1.40772 -6.83486,2.42132 -9.09316,2.76583 -18.13058,2.76583 -8.84954,0 -10.87579,-0.29556 -14.19373,-2.07042 -7.34403,-3.92853 -11.15042,-10.33443 -12.19416,-20.52201 l -0.61792,-6.03114 27.69978,0 c 23.58141,0 27.87496,-0.21108 28.87806,-1.41973 1.71967,-2.07209 0.67478,-18.43078 -1.55072,-24.27788 -3.41428,-8.97044 -11.86295,-16.34302 -21.64955,-18.8921 -22.24924,-5.7952 -41.90736,6.66565 -46.73714,29.62563 -3.72927,17.72834 0.18922,36.29991 9.65806,45.77413 9.54878,9.5542 27.53762,12.71345 45.68135,8.02266 z m -41.35206,-52.96113 c 1.60106,-10.01244 8.3478,-17.80404 17.11551,-19.76617 11.22232,-2.51144 21.1354,2.95801 24.22646,13.36671 0.80268,2.70294 1.45942,6.10473 1.45942,7.55953 l 0,2.6451 -21.70493,0 -21.70493,0 0.60847,-3.80517 z m -211.55905,51.72922 c 1.24734,-2.33068 1.24734,-7.17748 0,-9.50816 -0.91623,-1.71199 -2.17084,-1.81526 -22.05422,-1.81526 l -21.08273,0 0,-49.7063 c 0,-48.18266 -0.0556,-49.73606 -1.81526,-50.67779 -2.28778,-1.22438 -7.64719,-1.25231 -10.79309,-0.0562 l -2.407292,0.91522 0,54.45493 c 0,53.20362 0.04317,54.49805 1.876955,56.33188 1.789037,1.78904 3.128257,1.87695 28.590547,1.87695 25.45046,0 26.75953,-0.0859 27.68509,-1.81526 z m 29.59506,-39.88733 0,-41.23336 -2.96117,-0.76731 c -1.62864,-0.42203 -4.58484,-0.43005 -6.56934,-0.0178 l -3.60817,0.74949 -0.24494,40.3127 c -0.13471,22.17198 -0.0349,40.86002 0.22174,41.52897 0.33387,0.87016 2.27296,1.13721 6.81427,0.93847 l 6.34761,-0.27778 0,-41.23335 z m 41.57456,40.57642 c 0.82556,-0.82556 1.12617,-8.59694 1.12617,-29.11377 l 0,-27.98761 3.98853,-4.35417 c 6.12355,-6.68491 11.41155,-9.68174 17.07633,-9.67754 6.25675,0.005 9.99925,2.37277 12.82684,8.11647 2.18101,4.43029 2.25198,5.32386 2.70893,34.11151 l 0.46924,29.56204 6.56934,0 6.56934,0 0.46924,-28.81965 0.46924,-28.81965 4.22315,-4.37836 c 6.67984,-6.92536 11.73261,-9.77696 17.31095,-9.76969 6.95769,0.009 11.4512,3.42872 13.90423,10.58141 0.61594,1.796 1.25168,14.8136 1.5683,32.11314 l 0.53247,29.0928 6.56935,0 6.56934,0 -0.007,-31.90823 c -0.007,-31.04968 -0.0647,-32.05148 -2.15171,-37.23155 -2.36062,-5.85901 -7.6104,-11.29881 -13.19526,-13.67286 -1.97495,-0.83952 -6.38447,-1.48721 -10.45423,-1.53557 -6.00486,-0.0713 -7.78525,0.30713 -12.12262,2.577 -2.79623,1.46334 -7.27134,4.72928 -9.94469,7.25763 -2.67336,2.52836 -5.07535,4.597 -5.33774,4.597 -0.2624,0 -1.63576,-1.83305 -3.0519,-4.07344 -3.11085,-4.9215 -8.39612,-8.51784 -14.76259,-10.04513 -9.42758,-2.26164 -18.57846,0.68084 -27.74345,8.92096 l -4.83871,4.35041 -0.28059,-5.85502 c -0.27485,-5.73547 -0.34287,-5.8711 -3.33064,-6.64182 -1.67753,-0.43273 -4.42257,-0.43121 -6.1001,0.004 l -3.05005,0.79017 -0.24494,40.29506 c -0.13471,22.16228 -0.0424,40.82295 0.20517,41.46815 0.59384,1.54776 11.91968,1.58724 13.45999,0.0469 z M 185.81856,196.14181 c 2.33689,-2.33689 2.57839,-9.84266 0.41603,-12.92986 -1.22764,-1.7527 -2.34091,-2.08578 -6.97156,-2.08578 -5.95647,0 -8.01748,1.19431 -9.03123,5.23342 -0.89618,3.5707 0.44137,8.64644 2.69436,10.22449 3.05043,2.1366 10.57154,1.8786 12.8924,-0.44227 z m 676.87695,195.4949 c 0.90329,-0.23605 2.38139,-0.23605 3.28468,0 0.90328,0.23605 0.16423,0.42919 -1.64234,0.42919 -1.80657,0 -2.54562,-0.19314 -1.64234,-0.42919 z m -0.48709,-2.7841 c 0.63537,-0.25707 1.90232,-0.27271 2.81543,-0.0348 0.91311,0.23794 0.39325,0.44828 -1.15524,0.4674 -1.54849,0.0192 -2.29557,-0.17555 -1.66019,-0.43263 z m -276.83303,-4.69834 c 0.6452,-0.26034 1.70099,-0.26034 2.34619,0 0.64521,0.26035 0.11731,0.47336 -1.17309,0.47336 -1.29041,0 -1.8183,-0.21301 -1.1731,-0.47336 z m 21.13529,0.0545 c 0.31185,-0.31185 1.1213,-0.34518 1.79876,-0.074 0.74865,0.29958 0.52627,0.52196 -0.567,0.56699 -0.98931,0.0407 -1.5436,-0.18106 -1.23176,-0.4929 z m 61.45074,-0.0545 c 0.6452,-0.26034 1.70099,-0.26034 2.34619,0 0.6452,0.26035 0.11731,0.47336 -1.1731,0.47336 -1.2904,0 -1.8183,-0.21301 -1.17309,-0.47336 z m 29.58159,0.0545 c 0.31185,-0.31185 1.12129,-0.34518 1.79875,-0.074 0.74865,0.29958 0.52628,0.52196 -0.567,0.56699 -0.98931,0.0407 -1.5436,-0.18106 -1.23175,-0.4929 z m 21.58498,0 c 0.31185,-0.31185 1.1213,-0.34518 1.79875,-0.074 0.74866,0.29958 0.52628,0.52196 -0.567,0.56699 -0.9893,0.0407 -1.54359,-0.18106 -1.23175,-0.4929 z m 31.40159,-0.0486 c 0.63538,-0.25706 1.90233,-0.27271 2.81544,-0.0348 0.91311,0.23794 0.39325,0.44827 -1.15524,0.4674 -1.54849,0.0191 -2.29557,-0.17556 -1.6602,-0.43263 z m -113.92006,-7.36143 c 0.004,-4.1293 0.1684,-5.70183 0.36665,-3.49449 0.19825,2.20734 0.19546,5.58586 -0.007,7.50782 -0.20165,1.92197 -0.36386,0.11597 -0.36045,-4.01333 z m 3.62105,-0.11971 c -0.15587,-6.29518 0.098,-7.85251 1.45347,-8.91554 1.44196,-1.13086 1.50444,-1.11082 0.51214,0.16418 -0.62161,0.79871 -1.27567,4.8107 -1.45347,8.91553 l -0.32327,7.46336 -0.18887,-7.62753 z m 136.35963,6.21981 c -0.31901,-0.51616 -0.13278,-0.93848 0.41385,-0.93848 0.54662,0 0.99386,0.42232 0.99386,0.93848 0,0.51616 -0.18623,0.93848 -0.41385,0.93848 -0.22762,0 -0.67486,-0.42232 -0.99386,-0.93848 z m 36.44691,-5.63086 c 0,-3.87122 0.16565,-5.4549 0.36813,-3.51929 0.20246,1.93561 0.20246,5.10297 0,7.03858 -0.20248,1.93561 -0.36813,0.35193 -0.36813,-3.51929 z m 3.74634,-0.46924 c -0.004,-3.61314 0.16205,-5.20624 0.36937,-3.54022 0.20732,1.66601 0.21073,4.62222 0.008,6.56934 -0.20316,1.94712 -0.37278,0.58402 -0.37695,-3.02912 z m -240.67793,3.51929 c -1.16734,-1.48848 -1.13415,-1.52168 0.35433,-0.35433 1.56327,1.226 2.06041,1.99666 1.28801,1.99666 -0.19488,0 -0.93393,-0.73905 -1.64234,-1.64233 z m 35.78186,-0.70386 c 0.64257,-0.77424 1.37946,-1.40772 1.63754,-1.40772 0.25808,0 -0.0565,0.63348 -0.69906,1.40772 -0.64257,0.77424 -1.37946,1.40772 -1.63754,1.40772 -0.25808,0 0.0565,-0.63348 0.69906,-1.40772 z m 250.80813,-0.17768 c 0.90329,-0.23605 2.38139,-0.23605 3.28468,0 0.90328,0.23605 0.16423,0.42919 -1.64234,0.42919 -1.80657,0 -2.54562,-0.19314 -1.64234,-0.42919 z m -260.1929,-5.45319 c 0.64256,-0.77424 1.37945,-1.40771 1.63754,-1.40771 0.25808,0 -0.0565,0.63347 -0.69907,1.40771 -0.64256,0.77425 -1.37946,1.40772 -1.63754,1.40772 -0.25808,0 0.0565,-0.63347 0.69907,-1.40772 z m -26.1292,-4.22314 c 0,-1.29041 0.21301,-1.8183 0.47336,-1.1731 0.26034,0.6452 0.26034,1.70099 0,2.34619 -0.26035,0.64521 -0.47336,0.11731 -0.47336,-1.17309 z m 270.20746,0.54744 c -0.0407,-0.98931 0.18106,-1.5436 0.49291,-1.23175 0.31184,0.31184 0.34518,1.12128 0.074,1.79875 -0.29958,0.74865 -0.52196,0.52628 -0.56699,-0.567 z m 13.21277,-0.54744 c 0,-1.29041 0.21301,-1.8183 0.47336,-1.1731 0.26034,0.6452 0.26034,1.70099 0,2.34619 -0.26035,0.64521 -0.47336,0.11731 -0.47336,-1.17309 z m -21.73316,-1.40772 c 0.64256,-0.77424 1.37946,-1.40772 1.63754,-1.40772 0.25808,0 -0.0565,0.63348 -0.69907,1.40772 -0.64256,0.77424 -1.37945,1.40772 -1.63754,1.40772 -0.25808,0 0.0565,-0.63348 0.69907,-1.40772 z m -236.0657,-1.47015 c -0.34023,-0.55051 -0.41733,-1.20219 -0.17132,-1.4482 0.24599,-0.246 0.69734,0.20441 1.003,1.00092 0.63457,1.6537 0.0937,1.94458 -0.83168,0.44728 z m 137.13746,-1.20538 c 0.41093,-1.07892 0.16533,-2.05129 -0.64825,-2.56644 -0.9795,-0.62021 -1.00656,-0.83302 -0.10731,-0.84377 1.71562,-0.0205 2.5391,2.7211 1.21267,4.03725 -0.86389,0.85718 -0.968,0.71436 -0.45711,-0.62704 z m -112.22922,-0.84376 c 0,-0.81726 -0.52789,-1.69894 -1.17309,-1.95928 -0.91883,-0.37075 -0.91245,-0.48942 0.0295,-0.54744 1.33822,-0.0825 2.64436,2.49193 1.72883,3.40746 -0.32187,0.32185 -0.5852,-0.0835 -0.5852,-0.90074 z m 39.67023,0.6061 c 0.31185,-0.31185 1.12129,-0.34519 1.79875,-0.074 0.74865,0.29958 0.52628,0.52196 -0.567,0.56699 -0.98931,0.0407 -1.5436,-0.18106 -1.23175,-0.49291 z m 64.50078,-0.6061 c 0,-0.81726 -0.52789,-1.69894 -1.17309,-1.95928 -0.91883,-0.37075 -0.91245,-0.48942 0.0295,-0.54744 1.33822,-0.0825 2.64436,2.49193 1.72883,3.40746 -0.32187,0.32185 -0.5852,-0.0835 -0.5852,-0.90074 z m 19.02372,0.6061 c 0.31185,-0.31185 1.1213,-0.34519 1.79875,-0.074 0.74866,0.29958 0.52628,0.52196 -0.567,0.56699 -0.9893,0.0407 -1.54359,-0.18106 -1.23175,-0.49291 z m 21.58499,0 c 0.31184,-0.31185 1.12129,-0.34519 1.79875,-0.074 0.74865,0.29958 0.52628,0.52196 -0.567,0.56699 -0.98931,0.0407 -1.5436,-0.18106 -1.23175,-0.49291 z m 18.51538,-0.6061 c 0,-0.81726 -0.52789,-1.69894 -1.1731,-1.95928 -0.91882,-0.37075 -0.91244,-0.48942 0.0295,-0.54744 1.33821,-0.0825 2.64436,2.49193 1.72883,3.40746 -0.32187,0.32185 -0.5852,-0.0835 -0.5852,-0.90074 z m 72.51694,0.6061 c 0.31185,-0.31185 1.1213,-0.34519 1.79875,-0.074 0.74866,0.29958 0.52628,0.52196 -0.567,0.56699 -0.9893,0.0407 -1.54359,-0.18106 -1.23175,-0.49291 z m -38.98201,-2.36489 c 0.63661,-0.64138 1.39386,-0.92972 1.68281,-0.64078 0.28895,0.28895 -0.2319,0.81371 -1.15745,1.16614 -1.33752,0.50929 -1.44531,0.4015 -0.52536,-0.52536 z m 10.32325,0 c 0.63661,-0.64138 1.39387,-0.92972 1.68282,-0.64078 0.28894,0.28895 -0.23191,0.81371 -1.15746,1.16614 -1.33752,0.50929 -1.44531,0.4015 -0.52536,-0.52536 z m 8.46195,-0.50508 c 0.6452,-0.26035 1.70099,-0.26035 2.34619,0 0.6452,0.26034 0.11731,0.47336 -1.1731,0.47336 -1.2904,0 -1.8183,-0.21302 -1.17309,-0.47336 z m -266.29302,-3.60162 c 0.64257,-0.77424 1.37946,-1.40771 1.63754,-1.40771 0.25808,0 -0.0565,0.63347 -0.69906,1.40771 -0.64257,0.77425 -1.37946,1.40772 -1.63754,1.40772 -0.25808,0 0.0565,-0.63347 0.69906,-1.40772 z m 247.75808,0.10946 c 0,-0.19788 0.84522,-0.58081 1.87825,-0.85096 1.03304,-0.27014 1.64159,-0.10824 1.35233,0.35979 -0.50513,0.81733 -3.23058,1.23169 -3.23058,0.49117 z M 686.28022,321.84708 c -9.26831,-1.82927 -17.09307,-6.94662 -19.60748,-12.82319 -3.19105,-7.45796 -0.0114,-18.90097 6.81578,-24.52847 l 3.24617,-2.67576 -2.43718,-1.5969 c -7.57009,-4.96012 -8.03052,-14.6988 -1.1718,-24.78525 2.60493,-3.83082 2.66865,-4.14696 1.16963,-5.80336 -4.45835,-4.92641 -5.51855,-17.11082 -2.24919,-25.84896 2.4409,-6.52389 5.91983,-10.57902 11.84023,-13.80131 5.0147,-2.72934 16.20978,-4.92616 19.94104,-3.91304 1.30733,0.35496 9.74166,0.90561 18.74296,1.22367 l 16.366,0.57827 0.76776,2.97175 c 0.44419,1.71933 0.37927,3.99354 -0.15404,5.39625 -0.86118,2.2651 -1.32435,2.4245 -7.04512,2.4245 -3.36783,0 -6.12157,0.10557 -6.1194,0.23462 0.002,0.12904 1.05794,2.31219 2.34619,4.85144 3.01221,5.93732 3.17048,14.21492 0.41273,21.58565 -2.40551,6.42929 -8.82136,12.46699 -15.9813,15.03935 -7.16575,2.57445 -18.5655,2.48303 -24.55788,-0.19695 l -4.46036,-1.99481 -1.46012,2.82357 c -2.06014,3.98388 -1.40743,8.22724 1.61051,10.47018 2.12154,1.57671 4.80164,1.96777 18.05355,2.63415 8.55918,0.43042 17.36246,1.25714 19.56283,1.83719 11.03136,2.90796 16.90701,9.84452 16.90167,19.95339 -0.007,13.09613 -8.16883,21.80701 -23.91012,25.51834 -6.32204,1.49055 -22.04312,1.72435 -28.62306,0.42568 z m 30.51885,-12.9332 c 4.85137,-2.53988 7.69736,-6.86786 7.70211,-11.7128 0.008,-8.40798 -4.66012,-10.74306 -23.16041,-11.58463 l -12.97356,-0.59016 -3.55812,3.93842 c -5.47097,6.0557 -6.66181,10.78408 -4.0083,15.9154 1.15943,2.24209 4.00244,4.00107 9.91871,6.13676 0.77424,0.27948 6.05318,0.39481 11.73097,0.25629 8.56163,-0.20888 11.01016,-0.61149 14.3486,-2.35928 z m -8.62489,-59.19009 c 5.57751,-2.53301 8.20909,-6.72634 8.6594,-13.79854 0.44437,-6.9787 -0.87044,-11.43575 -4.31618,-14.63129 -7.6757,-7.11836 -21.32238,-5.31273 -26.23637,3.47142 -2.46159,4.40027 -2.87075,12.85862 -0.85269,17.6266 3.30739,7.81418 14.05524,11.27859 22.74584,7.33181 z m 165.04293,42.11524 c -6.06836,-0.84397 -10.08336,-2.94882 -12.92429,-6.77548 -4.39247,-5.91655 -4.68629,-8.07214 -5.11715,-37.54009 l -0.40821,-27.91971 -5.30344,-0.0144 c -2.91689,-0.008 -5.90172,-0.39306 -6.63295,-0.85592 -1.40745,-0.89086 -1.87375,-8.24544 -0.64847,-10.22797 0.40732,-0.65907 3.11048,-1.10196 6.72576,-1.10196 l 6.04471,0 0,-9.66631 c 0,-6.26695 0.39605,-10.06237 1.12618,-10.7925 0.61939,-0.61939 3.49113,-1.12617 6.38164,-1.12617 2.89052,0 5.76226,0.50678 6.38165,1.12617 0.72968,0.72968 1.12618,4.51893 1.12618,10.76271 l 0,9.63654 11.02711,0.2644 11.02711,0.2644 0.28901,4.53068 c 0.43288,6.78592 -0.26547,7.20029 -12.13489,7.20029 l -10.20834,0 0,25.36904 c 0,27.54753 0.41491,30.26195 5.09445,33.3281 2.43034,1.59242 8.01938,1.55327 14.84819,-0.104 2.57687,-0.62538 2.58082,-0.61849 2.58082,4.49925 0,7.12957 -1.51176,8.31075 -12.20021,9.5324 -1.29041,0.14749 -4.4741,-0.0278 -7.07486,-0.38951 z m -312.946,-2.78794 c -1.83382,-1.83382 -1.87695,-3.12825 -1.87695,-56.33188 l 0,-54.45492 2.40729,-0.91526 c 3.1459,-1.19607 8.50531,-1.16814 10.79309,0.0562 1.75962,0.94172 1.81526,2.49513 1.81526,50.67779 l 0,49.70632 21.08273,0 c 19.88338,0 21.13799,0.10327 22.05422,1.81526 0.53433,0.99839 0.9715,3.13773 0.9715,4.75409 0,1.61635 -0.43717,3.75569 -0.9715,4.75408 -0.92556,1.72943 -2.23463,1.81526 -27.68509,1.81526 -25.46229,0 -26.80151,-0.0879 -28.59055,-1.87696 z m 72.70882,0.74703 c -0.25667,-0.66894 -0.35645,-19.35698 -0.22174,-41.52896 l 0.24494,-40.3127 3.60817,-0.7495 c 1.9845,-0.41222 4.9407,-0.4042 6.56934,0.0178 l 2.96117,0.76732 0,41.23336 0,41.23335 -6.34761,0.27779 c -4.54131,0.19874 -6.4804,-0.0683 -6.81427,-0.93848 z m 126.69617,0 c -0.25574,-0.66894 -0.35551,-28.03326 -0.22173,-60.80959 l 0.24323,-59.59333 6.56934,0 6.56935,0 0.25043,24.15222 0.25044,24.15221 5.81424,-4.2802 c 8.45308,-6.2228 11.29666,-7.25627 20.05292,-7.28797 12.5389,-0.0454 19.72188,4.55296 25.0087,16.00997 2.01321,4.36282 2.07754,5.47987 2.0967,36.40914 l 0.0198,31.90824 -6.56935,0 -6.56934,0 -0.46924,-29.0928 c -0.46299,-28.70538 -0.50048,-29.15528 -2.81543,-33.78384 -3.13817,-6.27448 -7.22292,-8.91689 -13.78412,-8.91689 -6.47824,0 -10.71734,2.16382 -17.24476,8.80243 l -5.10253,5.18947 -0.46924,28.90082 -0.46923,28.90081 -6.34761,0.27779 c -4.54193,0.19877 -6.47988,-0.0682 -6.81258,-0.93848 z M 633.71865,190.01474 c -2.25298,-1.57805 -3.59054,-6.65379 -2.69436,-10.22449 1.01375,-4.03911 3.07476,-5.23342 9.03123,-5.23342 4.63065,0 5.74392,0.33307 6.97156,2.08578 2.16236,3.0872 1.92087,10.59297 -0.41603,12.92986 -2.32086,2.32087 -9.84197,2.57887 -12.8924,0.44227 z"
       id="path3361"
       inkscape:connector-curvature="0" />
    <path
       style="fill:#090909"
       d="m 857.60978,390.17205 c -2.19118,-1.7655 -2.59036,-3.82836 -1.23194,-6.36658 0.82252,-1.5369 0.93201,-2.82549 0.33488,-3.94124 -0.57294,-1.07055 -0.53504,-2.3158 0.107,-3.51546 0.54682,-1.02173 0.72705,-2.92215 0.40052,-4.22315 -1.0021,-3.99268 0.3345,-7.07142 3.63172,-8.36538 3.92241,-1.53931 12.87067,-0.89351 12.87067,0.92887 0,0.72443 -0.62292,1.31715 -1.38426,1.31715 -1.01149,0 -1.24446,0.69897 -0.86513,2.59562 0.36619,1.83092 -0.095,3.3763 -1.56524,5.24546 -1.81659,2.30942 -2.60967,2.60807 -6.17345,2.32463 -3.30591,-0.26294 -4.08909,-0.0286 -4.08909,1.22347 0,1.89922 1.88897,2.68798 6.43728,2.68798 4.13241,0 7.63989,2.1983 7.63989,4.78826 0,1.02652 -1.0366,2.90299 -2.30354,4.16993 -1.87211,1.8721 -3.24466,2.30354 -7.32845,2.30354 -2.7637,0 -5.68009,-0.52789 -6.48086,-1.1731 z m 10.01672,-1.64384 c 1.82242,-0.69289 2.39358,-1.49138 2.17267,-3.03742 -0.23456,-1.64164 -1.11152,-2.22867 -4.0355,-2.70138 -4.55627,-0.7366 -5.86224,-0.29853 -6.66673,2.23621 -1.13486,3.57562 3.419,5.44562 8.52956,3.50259 z m 0.2896,-18.62794 c 0.23865,-2.39159 -0.15572,-3.14676 -2.10776,-4.03618 -2.00622,-0.91409 -2.71081,-0.81405 -4.28211,0.60795 -2.43247,2.20136 -2.39195,4.70061 0.10458,6.44925 2.94228,2.06085 5.92105,0.62911 6.28529,-3.02102 z m -287.54426,13.02782 c -8.21814,-3.32459 -10.16753,-17.29289 -3.32787,-23.8457 4.71542,-4.51765 14.60796,-5.08108 17.97522,-1.02378 1.67332,2.01621 0.41217,2.81698 -2.41079,1.53075 -3.76328,-1.71467 -9.25379,-1.33235 -12.01084,0.83635 -1.34757,1.06 -2.89464,3.57807 -3.43793,5.5957 -2.46278,9.14607 4.1343,16.75832 12.66736,14.61666 2.06704,-0.5188 2.35236,-1.09362 2.35236,-4.73903 0,-4.11652 -0.0272,-4.15087 -3.51929,-4.43988 -2.37316,-0.19642 -3.51929,-0.74973 -3.51929,-1.69899 0,-1.56384 4.86252,-2.39105 8.57616,-1.45899 2.04174,0.51245 2.21633,1.03122 2.21633,6.58528 0,5.16633 -0.29844,6.23805 -2.08577,7.48994 -2.24788,1.57448 -10.1479,1.89789 -13.47565,0.55169 z m 22.66704,-0.56551 c -1.98928,-1.98928 -1.86477,-6.32768 0.23617,-8.22901 0.94101,-0.8516 3.68606,-1.81908 6.1001,-2.14997 3.17466,-0.43513 4.38521,-1.02076 4.37482,-2.11637 -0.0358,-3.77415 -3.11311,-5.04196 -8.66655,-3.57054 -1.96122,0.51964 -2.58081,0.35024 -2.58081,-0.70562 0,-2.07581 6.5326,-3.58105 10.11762,-2.33131 3.68715,1.28535 4.89802,4.66702 4.89802,13.67903 0,5.38081 -0.29753,6.89854 -1.35233,6.89854 -0.74378,0 -1.61404,-0.42346 -1.93391,-0.94101 -0.38877,-0.62904 -1.16452,-0.62904 -2.33989,0 -2.633,1.40914 -7.18478,1.13472 -8.85324,-0.53374 z m 9.59928,-2.46686 c 0.6194,-0.61939 1.12618,-2.09749 1.12618,-3.28467 0,-1.83264 -0.48576,-2.1585 -3.21764,-2.1585 -1.76971,0 -3.88128,0.66364 -4.69239,1.47476 -1.68238,1.68238 -1.66755,1.62321 -0.9051,3.61011 0.6815,1.77598 6.0224,2.02485 7.68895,0.3583 z m 11.44943,-6.38164 c 0,-8.55058 0.24173,-10.32326 1.40772,-10.32326 0.77424,0 1.40771,0.58795 1.40771,1.30655 0,1.04037 0.68553,0.95705 3.36493,-0.40899 3.4928,-1.78073 5.3397,-1.59942 8.13142,0.79826 1.47019,1.26267 1.83878,1.23274 3.51647,-0.28555 2.56902,-2.32493 7.53073,-2.05951 9.61491,0.51435 1.29737,1.60219 1.64964,3.8187 1.64964,10.37956 0,7.71667 -0.14076,8.34233 -1.87695,8.34233 -1.71893,0 -1.87696,-0.62566 -1.87696,-7.43106 0,-4.08709 -0.25633,-8.09908 -0.56964,-8.91554 -0.72722,-1.89511 -4.04077,-1.9067 -6.72936,-0.0236 -1.85771,1.30119 -2.08577,2.27605 -2.08577,8.91554 0,6.00066 -0.27456,7.45461 -1.40772,7.45461 -1.11598,0 -1.40771,-1.34879 -1.40771,-6.50825 0,-8.24852 -1.10085,-11.32281 -4.05447,-11.32281 -3.98499,0 -5.33031,2.68336 -5.33031,10.63176 0,6.57365 -0.16312,7.19931 -1.87696,7.19931 -1.7632,0 -1.87695,-0.62566 -1.87695,-10.32325 z m 37.96835,8.18071 c -4.5233,-3.89077 -4.0164,-13.42012 0.93232,-17.5272 0.81694,-0.67799 3.24536,-1.23272 5.3965,-1.23272 4.97117,0 8.51646,3.56114 8.07408,8.11017 l -0.28574,2.93827 -6.80397,0.27574 c -5.82593,0.2361 -6.80396,0.51871 -6.80396,1.96612 0,3.29185 3.28368,5.08071 8.42027,4.58716 3.38399,-0.32517 4.71842,-0.12263 4.71842,0.71616 0,3.11376 -10.07852,3.23656 -13.64792,0.1663 z m 10.83248,-11.88141 c 0,-1.87777 -3.24542,-4.7456 -5.37044,-4.7456 -1.64931,0 -4.95281,3.44277 -4.95281,5.16162 0,1.08068 1.19917,1.40772 5.16163,1.40772 4.48577,0 5.16162,-0.23879 5.16162,-1.82374 z m 19.47341,13.0103 c -2.52731,-1.47202 -2.14898,-4.06206 0.46924,-3.21242 1.16137,0.37688 3.64369,0.88789 5.51626,1.13558 2.74987,0.36373 3.68395,0.0516 4.85667,-1.62265 2.06293,-2.94525 0.79466,-5.46129 -4.10719,-8.14794 -5.23429,-2.86886 -7.44705,-5.43531 -7.40899,-8.59325 0.0634,-5.26532 6.02001,-8.57494 11.92533,-6.62601 4.87147,1.60774 3.88994,3.49124 -1.74046,3.33981 -3.64004,-0.0979 -5.05717,0.26799 -5.86068,1.51321 -1.51177,2.34281 0.0437,4.42133 5.57937,7.45532 6.99597,3.83439 8.50065,9.93114 3.43451,13.91616 -2.59176,2.03869 -9.78813,2.51726 -12.66406,0.84219 z m 23.34504,-0.41042 c -1.1479,-1.14789 -1.52543,-3.33989 -1.52543,-8.85676 0,-6.54207 -0.20207,-7.38417 -1.87696,-7.82217 -1.03232,-0.26996 -1.87695,-0.95268 -1.87695,-1.51717 0,-0.56448 0.84463,-1.02634 1.87695,-1.02634 1.46981,0 1.87696,-0.62565 1.87696,-2.88424 0,-2.2399 0.36689,-2.81467 1.64233,-2.57279 0.99055,0.18785 1.76019,1.33252 1.93929,2.88424 0.25054,2.17059 0.73958,2.57279 3.12827,2.57279 3.56155,0 3.1546,2.21708 -0.48583,2.64685 l -2.54673,0.30065 0.27291,7.20717 c 0.26985,7.1263 0.30249,7.21056 2.90936,7.50949 3.45161,0.3958 2.76262,2.4282 -0.94868,2.79841 -1.71537,0.17111 -3.47059,-0.32523 -4.38549,-1.24013 z m 12.55173,-8.89918 c 0,-8.55058 0.24173,-10.32326 1.40772,-10.32326 0.77424,0 1.40771,0.69892 1.40771,1.55317 0,1.41298 0.14825,1.42062 1.64234,0.0847 2.64886,-2.36844 6.80396,-2.50899 6.80396,-0.23015 0,0.8672 -0.88042,1.40771 -2.29298,1.40771 -3.67902,0 -5.21484,3.24 -5.21484,11.00132 0,6.2041 -0.17194,6.82976 -1.87695,6.82976 -1.76321,0 -1.87696,-0.62566 -1.87696,-10.32326 z m 17.17955,8.05831 c -2.34671,-2.01855 -2.63315,-2.88399 -2.63315,-7.95573 0,-4.90966 0.34254,-6.03332 2.4955,-8.18629 5.50105,-5.50105 15.39587,-1.71731 14.68285,5.61467 l -0.28575,2.93827 -6.80396,0.27574 c -5.82594,0.2361 -6.80397,0.51871 -6.80397,1.96612 0,3.29185 3.28368,5.08071 8.42028,4.58716 3.38398,-0.32517 4.71841,-0.12263 4.71841,0.71616 0,3.19457 -10.09,3.22669 -13.79021,0.0439 z m 10.97478,-11.75901 c 0,-1.87777 -3.24543,-4.7456 -5.37045,-4.7456 -1.64931,0 -4.95281,3.44277 -4.95281,5.16162 0,1.08068 1.19917,1.40772 5.16163,1.40772 4.48577,0 5.16163,-0.23879 5.16163,-1.82374 z m 9.99947,12.30772 c -2.04937,-2.26453 -1.97445,-6.05791 0.15775,-7.98753 0.94101,-0.8516 3.68605,-1.81908 6.1001,-2.14997 3.79793,-0.52057 4.38918,-0.89601 4.38918,-2.78722 0,-3.06721 -3.07838,-4.54771 -6.7759,-3.25875 -3.80905,1.32785 -4.48583,1.27287 -4.48583,-0.36444 0,-2.10253 6.5618,-3.553 10.25272,-2.26633 3.86675,1.34796 4.76293,3.80974 4.76293,13.08374 0,5.79898 -0.29419,7.44673 -1.32952,7.44673 -0.73122,0 -1.49046,-0.48288 -1.68719,-1.07306 -0.26836,-0.80508 -0.85838,-0.80508 -2.3627,0 -2.99293,1.60177 -7.26557,1.29716 -9.02154,-0.64317 z m 9.52086,-2.22538 c 0.6194,-0.61939 1.12617,-2.09749 1.12617,-3.28467 0,-1.75923 -0.50658,-2.1585 -2.73867,-2.1585 -1.50628,0 -3.40669,0.25634 -4.22315,0.56965 -1.47618,0.56646 -2.05355,4.17932 -0.85882,5.37404 1.03686,1.03687 5.49003,0.70393 6.69447,-0.50052 z m 11.44943,-6.38164 c 0,-8.55058 0.24173,-10.32326 1.40771,-10.32326 0.77425,0 1.40772,0.58795 1.40772,1.30655 0,1.03984 0.68837,0.9556 3.37224,-0.41271 3.4197,-1.74347 7.45384,-1.24026 8.90702,1.11102 0.36424,0.58936 1.71501,0.26267 3.56449,-0.86205 3.52993,-2.14669 7.10079,-1.72954 9.05294,1.05754 1.99782,2.85228 1.97496,18.44616 -0.027,18.44616 -1.10303,0 -1.42796,-1.37109 -1.50127,-6.33472 -0.1288,-8.7225 -0.87223,-10.96604 -3.74644,-11.30615 -3.8894,-0.46026 -5.41819,2.24507 -5.73404,10.14686 -0.23153,5.79255 -0.56422,7.0591 -1.92232,7.31825 -1.44816,0.27634 -1.64234,-0.53426 -1.64234,-6.85571 0,-8.15879 -1.00518,-10.7996 -4.11072,-10.7996 -3.9279,0 -5.27405,2.71365 -5.27405,10.63176 0,6.57365 -0.16312,7.19931 -1.87696,7.19931 -1.7632,0 -1.87695,-0.62566 -1.87695,-10.32325 z m 36.06454,9.07975 c -0.26245,-0.68393 -0.35477,-5.21898 -0.20516,-10.07791 0.23215,-7.5398 0.51268,-8.88045 1.91434,-9.14857 1.48417,-0.2839 1.64234,0.68668 1.64234,10.07792 0,8.70639 -0.23312,10.39206 -1.43717,10.39206 -0.79045,0 -1.65191,-0.55958 -1.91435,-1.2435 z m 10.32325,0 c -0.26244,-0.68393 -0.35476,-5.21898 -0.20516,-10.07791 0.23215,-7.5398 0.51268,-8.88045 1.91434,-9.14857 1.05181,-0.20119 1.64234,0.26905 1.64234,1.30783 0,1.5119 0.11647,1.51657 1.71623,0.0688 2.41216,-2.18298 7.90896,-2.00309 10.01843,0.32785 2.4908,2.75231 2.68142,18.08379 0.23093,18.57434 -1.4495,0.29016 -1.64234,-0.51303 -1.64234,-6.84033 0,-3.94299 -0.43717,-7.98595 -0.97149,-8.98434 -1.17199,-2.18987 -4.4193,-2.34823 -7.26598,-0.35433 -1.85772,1.30119 -2.08578,2.27604 -2.08578,8.91553 0,6.06857 -0.26721,7.45461 -1.43717,7.45461 -0.79045,0 -1.6519,-0.55958 -1.91435,-1.2435 z m -10.56166,-25.66152 c 0.39783,-2.06576 4.05917,-2.34613 4.05917,-0.31083 0,0.77424 -0.98778,1.54759 -2.19507,1.71855 -1.70223,0.24104 -2.12076,-0.075 -1.8641,-1.40772 z m -274.19944,-23.30353 0,-4.22315 173.14912,0 173.14911,0 0,4.22315 0,4.22315 -173.14911,0 -173.14912,0 0,-4.22315 z"
       id="path3359"
       inkscape:connector-curvature="0" />
  </g>
</svg>
