<?xml version="1.0" encoding="UTF-8" standalone="no"?>
<!-- Created with Inkscape (http://www.inkscape.org/) -->

<svg
   xmlns:dc="http://purl.org/dc/elements/1.1/"
   xmlns:cc="http://creativecommons.org/ns#"
   xmlns:rdf="http://www.w3.org/1999/02/22-rdf-syntax-ns#"
   xmlns:svg="http://www.w3.org/2000/svg"
   xmlns="http://www.w3.org/2000/svg"
   xmlns:sodipodi="http://sodipodi.sourceforge.net/DTD/sodipodi-0.dtd"
   xmlns:inkscape="http://www.inkscape.org/namespaces/inkscape"
   id="svg3518"
   version="1.1"
   inkscape:version="0.91 r13725"
   width="919.6875"
   height="163.125"
   viewBox="0 0 919.6875 163.125"
   sodipodi:docname="logo.svg">
  <metadata
     id="metadata3524">
    <rdf:RDF>
      <cc:Work
         rdf:about="">
        <dc:format>image/svg+xml</dc:format>
        <dc:type
           rdf:resource="http://purl.org/dc/dcmitype/StillImage" />
        <dc:title></dc:title>
      </cc:Work>
    </rdf:RDF>
  </metadata>
  <defs
     id="defs3522" />
  <sodipodi:namedview
     pagecolor="#ffffff"
     bordercolor="#666666"
     borderopacity="1"
     objecttolerance="10"
     gridtolerance="10"
     guidetolerance="10"
     inkscape:pageopacity="0"
     inkscape:pageshadow="2"
     inkscape:window-width="1366"
     inkscape:window-height="721"
     id="namedview3520"
     showgrid="false"
     inkscape:zoom="0.3196738"
     inkscape:cx="459.84375"
     inkscape:cy="81.5625"
     inkscape:window-x="-4"
     inkscape:window-y="-4"
     inkscape:window-maximized="1"
     inkscape:current-layer="svg3518" />
  <path
     style="fill:#010101"
     d="M 64.672902,160.76026 C 43.202804,157.4115 23.608158,145.47966 13.243136,129.44295 5.5400503,117.52478 1.9419993,102.06106 3.7919003,88.823369 7.1428113,64.844619 15.043997,47.533959 28.952721,33.698689 43.546876,19.181609 65.075258,8.9983185 89.309353,5.1489985 c 10.629825,-1.68843 32.329737,-1.92025 41.611447,-0.44452 8.21931,1.30682 14.39042,2.85385 14.39855,3.60957 0.004,0.32551 -1.12869,7.6947505 -2.51596,16.3760905 l -2.52233,15.78425 -2.40591,-0.43241 c -1.32326,-0.23782 -5.56998,-1.16201 -9.43717,-2.05375 -11.07788,-2.55447 -29.049086,-2.23045 -40.385585,0.72815 -29.438051,7.68273 -49.614417,29.27121 -49.614417,53.08685 0,15.249121 7.414512,26.857001 20.550612,32.173271 4.461581,1.80564 6.953637,2.11688 16.949388,2.11688 15.434747,0 17.205615,-0.7252 18.443156,-7.55277 l 0.925041,-5.10348 -13.434099,0 c -15.754913,0 -14.329276,2.02346 -11.559098,-16.406251 1.007549,-6.70312 1.841603,-12.71484 1.853454,-13.35937 0.01679,-0.91339 6.845537,-1.17188 30.959048,-1.17188 28.36336,0 30.9375,0.13121 30.9375,1.57695 0,0.86732 -1.28452,11.05487 -2.85447,22.638991 -1.56996,11.58414 -2.73011,21.59674 -2.57813,22.25024 0.15199,0.6535 11.45604,-27.03315 25.1201,-61.525871 l 24.84375,-62.7140605 23.20312,-0.0194 c 21.45975,-0.0179 23.20729,0.10389 23.25857,1.62125 0.20145,5.9611405 15.70101,124.1728215 16.13354,123.0468715 0.29712,-0.77344 9.74639,-29.14453 20.99837,-63.046871 L 282.646,4.6870985 l 18.3958,0 18.3958,0 1.92882,12.4218805 c 1.06085,6.83203 3.72358,24.44531 5.91716,39.14062 2.19359,14.69531 4.26342,27.04788 4.59963,27.45014 0.33622,0.40227 7.58743,-17.10555 16.1138,-38.90625 L 363.49951,5.1558485 384.25,4.9035385 c 11.41276,-0.13877 20.75197,-0.13877 20.75379,0 0.002,0.13877 2.11119,34.1768605 4.6875,75.6401805 2.57631,41.463331 4.68419,76.172061 4.68419,77.130531 0,1.6442 -0.96649,1.72821 -17.10938,1.48712 l -17.10937,-0.25552 -2.89323,-44.0625 c -2.22802,-33.931801 -3.1219,-43.523631 -3.88785,-41.718751 -0.54704,1.28906 -8.01244,20.43177 -16.58977,42.539331 -8.57734,22.10759 -16.02397,40.99684 -16.54808,41.97614 -0.88504,1.6537 -2.03493,1.76221 -16.142,1.52316 l -15.18907,-0.25738 -6.67774,-41.71875 c -3.67275,-22.945311 -6.93711,-41.085941 -7.25413,-40.312501 -0.31702,0.77344 -6.44367,19.54688 -13.61477,41.718751 l -13.03836,40.3125 -29.39501,0 -29.39499,0 -2.82993,-22.5 -2.82993,-22.5 -16.38882,-0.24863 -16.38882,-0.24863 -8.82447,22.983 -8.82447,22.98301 -17.50365,0 c -9.62701,0 -17.75798,-0.25432 -18.06881,-0.56514 -0.31083,-0.31084 -0.1584,-1.63497 0.33873,-2.94253 0.49714,-1.30756 0.72429,-2.55695 0.50482,-2.77644 -0.21949,-0.21949 -4.13275,0.91876 -8.69611,2.52942 -8.81095,3.10988 -26.991863,6.62761 -33.472329,6.47638 -2.140167,-0.05 -7.483935,-0.65117 -11.875039,-1.33606 z M 199.41587,78.515259 c -0.28983,-2.19141 -1.06214,-8.94141 -1.71625,-15 -0.65411,-6.0586 -1.42847,-11.01563 -1.72081,-11.01563 -0.50499,0 -11.29083,28.06084 -11.29083,29.37464 0,0.34395 3.43235,0.62536 7.62742,0.62536 l 7.62744,0 -0.52697,-3.98437 z m 216.874,79.227841 c 0.0217,-0.90735 4.7747,-35.61066 10.56231,-77.118471 l 10.52291,-75.4687505 45.26312,-0.2434 45.26312,-0.24341 -0.56073,3.05591 c -0.3084,1.68074 -1.49197,9.1730905 -2.63017,16.6496505 l -2.06947,13.59375 -27.28795,0.24834 -27.28796,0.24833 -1.53469,11.47042 c -0.84408,6.30873 -1.5336,11.99051 -1.53228,12.62619 0.002,0.87808 5.57743,1.21596 23.20552,1.40625 l 23.20313,0.25047 -2.23859,16.64063 -2.23859,16.64062 -23.77704,0 c -18.38078,0 -23.78377,0.26596 -23.80673,1.17188 -0.0163,0.64453 -0.63578,5.601561 -1.37655,11.015621 -0.74077,5.41406 -1.36021,10.99753 -1.37655,12.40772 l -0.0297,2.56396 26.96099,0.24854 26.96098,0.24853 -2.3516,16.875 -2.35162,16.875 -44.76562,0.24347 c -42.2078,0.22955 -44.76338,0.1492 -44.72624,-1.40625 z m 136.2208,-1.3426 c 0.30725,-1.71579 5.00965,-35.39306 10.44976,-74.838371 5.44011,-39.44531 10.12996,-72.8928405 10.42187,-74.3278305 l 0.53076,-2.60909 36.71559,0.26534 36.71558,0.26533 5.625,2.75247 c 7.05338,3.4514205 15.27986,11.5896705 18.59998,18.4005105 4.06884,8.34674 4.90164,14.93426 3.17934,25.14875 -1.88388,11.17278 -5.26465,18.15593 -10.61603,21.92793 l -4.06612,2.86606 3.3531,3.71148 c 1.8442,2.04131 4.65726,6.49841 6.25124,9.90467 5.31787,11.364021 4.58815,27.745481 -1.83538,41.202381 -5.86107,12.27856 -17.76195,22.0401 -31.81749,26.09789 -4.72998,1.36552 -11.34099,1.65722 -44.80725,1.97698 l -39.2586,0.37512 0.55865,-3.11962 z m 74.49669,-32.9794 c 7.11097,-2.57635 12.84363,-12.0529 10.58549,-17.49864 -3.02135,-7.286331 -6.50269,-8.422831 -25.80103,-8.422831 l -15.45637,0 -0.52306,3.046881 c -0.86143,5.01793 -3.31191,22.18139 -3.31191,23.19695 0,1.38051 30.59573,1.09468 34.50688,-0.32236 z m 3.58457,-61.790291 c 7.10957,-3.78787 10.1039,-10.65659 7.15826,-16.42039 -2.98077,-5.83255 -6.18343,-6.83767 -20.87471,-6.55127 l -12.65625,0.24673 -1.10504,8.4375 c -0.60778,4.64063 -1.37907,10.27824 -1.71399,12.52803 l -0.60894,4.09052 13.43274,-0.38364 c 10.17577,-0.29063 14.14441,-0.76282 16.36793,-1.94748 z m 92.6898,96.417761 c -38.61994,-8.92278 -54.41424,-42.91111 -42.24093,-90.899751 7.13512,-28.12744 21.57911,-48.33233 41.30343,-57.7769905 30.40639,-14.5596 65.10986,-3.67057 79.14195,24.8326505 10.74685,21.82994 9.93604,58.2731 -1.84476,82.915511 -9.50461,19.8812 -23.36578,32.5805 -42.60969,39.03805 -9.20843,3.09002 -24.78245,3.96241 -33.75,1.89053 z m 26.9718,-34.52596 c 15.33284,-7.08305 24.26578,-25.641051 24.48486,-50.866731 0.12156,-13.99829 -1.24453,-19.68617 -6.44954,-26.85312 -6.7337,-9.27189 -20.71694,-12.51817 -30.96318,-7.18827 -12.92138,6.72146 -22.02562,23.99947 -24.85321,47.16639 -2.41663,19.799771 3.68281,34.708431 16.0457,39.219981 6.09463,2.22408 15.03745,1.61587 21.73537,-1.47825 z m 66.30945,33.78606 c 0,-1.13628 2.10064,-17.48393 4.66808,-36.32812 2.56743,-18.84419 4.75892,-35.533201 4.86996,-37.086691 0.14107,-1.97349 -4.96788,-13.97854 -16.95615,-39.84375 -9.43693,-20.36058 -17.3722,-37.5552805 -17.63394,-38.2104505 -0.37755,-0.94505 3.52983,-1.13879 18.9077,-0.9375 l 19.38361,0.25372 8.94506,20.6250005 c 4.91977,11.34375 9.2212,20.92324 9.55873,21.28774 0.33753,0.36451 6.91114,-9.02221 14.60804,-20.85937 l 13.99434,-21.5221205 19.15538,0 c 18.69856,0 19.14367,0.0447 18.66468,1.87639 -0.26987,1.03202 -12.49926,20.5437405 -27.17641,43.3593805 l -26.68574,41.48298 -4.39757,33.230911 c -2.41868,18.277 -4.60714,33.56997 -4.86326,33.98437 -0.25611,0.41441 -8.24546,0.75347 -17.75409,0.75347 -17.19608,0 -17.28842,-0.011 -17.28842,-2.06596 z"
     id="path3528"
     inkscape:connector-curvature="0" />
</svg>
