<?xml version="1.0" encoding="UTF-8" standalone="no"?>
<!-- Created with Inkscape (http://www.inkscape.org/) -->

<svg
   xmlns:dc="http://purl.org/dc/elements/1.1/"
   xmlns:cc="http://creativecommons.org/ns#"
   xmlns:rdf="http://www.w3.org/1999/02/22-rdf-syntax-ns#"
   xmlns:svg="http://www.w3.org/2000/svg"
   xmlns="http://www.w3.org/2000/svg"
   xmlns:sodipodi="http://sodipodi.sourceforge.net/DTD/sodipodi-0.dtd"
   xmlns:inkscape="http://www.inkscape.org/namespaces/inkscape"
   id="svg3336"
   version="1.1"
   inkscape:version="0.91 r13725"
   width="1088.4375"
   height="534.375"
   viewBox="0 0 1088.4375 534.375"
   sodipodi:docname="logo.svg">
  <metadata
     id="metadata3342">
    <rdf:RDF>
      <cc:Work
         rdf:about="">
        <dc:format>image/svg+xml</dc:format>
        <dc:type
           rdf:resource="http://purl.org/dc/dcmitype/StillImage" />
        <dc:title></dc:title>
      </cc:Work>
    </rdf:RDF>
  </metadata>
  <defs
     id="defs3340" />
  <sodipodi:namedview
     pagecolor="#ffffff"
     bordercolor="#666666"
     borderopacity="1"
     objecttolerance="10"
     gridtolerance="10"
     guidetolerance="10"
     inkscape:pageopacity="0"
     inkscape:pageshadow="2"
     inkscape:window-width="1366"
     inkscape:window-height="721"
     id="namedview3338"
     showgrid="false"
     inkscape:zoom="0.29331837"
     inkscape:cx="942.9751"
     inkscape:cy="-17.365742"
     inkscape:window-x="-4"
     inkscape:window-y="-4"
     inkscape:window-maximized="1"
     inkscape:current-layer="svg3336" />
  <g
     id="g3346"
     transform="translate(0,7.658618e-5)">
    <path
       style="fill:#fd0303"
       d="m 321.14429,365.70678 c -0.60131,-0.97294 -0.83224,-89.14383 -0.23504,-89.74104 0.21365,-0.21363 23.12381,-0.41551 50.91147,-0.44859 l 50.52303,-0.0601 44.76562,44.65825 c 24.6211,24.56205 44.76563,45.06079 44.76563,45.55275 0,1.18186 -190.00037,1.22047 -190.73071,0.0387 z"
       id="path3350"
       inkscape:connector-curvature="0" />
    <path
       style="fill:#030303"
       d="m 233.90625,508.17291 c -4.64063,-0.40575 -9.49219,-1.01295 -10.78125,-1.34934 -1.28906,-0.33637 -5.29688,-1.01684 -8.90625,-1.51213 -19.05936,-2.6154 -47.75215,-12.1871 -67.32892,-22.46041 -12.2688,-6.4383 -29.56746,-17.33068 -36.35265,-22.89002 -1.33736,-1.09574 -4.07895,-3.25789 -6.09242,-4.80476 -19.819931,-15.22691 -45.650029,-45.35747 -58.602627,-68.3594 -2.589297,-4.59821 -10.490698,-20.60734 -12.068971,-24.4531 -0.423219,-1.03125 -1.434764,-3.39308 -2.24788,-5.24853 -2.078421,-4.74273 -7.175586,-19.42204 -8.106264,-23.34522 -0.428118,-1.80469 -1.469708,-5.8125 -2.314644,-8.90625 -4.243251,-15.53674 -6.211959,-31.37331 -6.759576,-54.375 -0.572416,-24.04327 1.563866,-44.38584 6.497822,-61.875 1.018259,-3.60938 2.166841,-8.25 2.552403,-10.3125 0.385563,-2.0625 1.238192,-5.01563 1.89473,-6.5625 1.538614,-3.62514 2.301032,-5.7065 3.777555,-10.3125 1.42076,-4.43206 4.291625,-10.94241 9.921811,-22.5 C 57.056637,121.81743 83.65965,90.9544 118.96351,66.125349 125.22005,61.725158 130.657,58.125 131.04563,58.125 c 0.38865,0 2.17564,-0.987653 3.97112,-2.194784 5.90776,-3.971899 27.81343,-14.585529 34.202,-16.571396 2.0625,-0.641122 4.17187,-1.463347 4.6875,-1.827167 0.51562,-0.363821 3.46875,-1.397279 6.5625,-2.296573 3.09375,-0.899295 6.67969,-1.979917 7.96875,-2.401383 10.34415,-3.382075 22.62818,-5.953354 37.66273,-7.883514 4.47231,-0.574163 8.44496,-1.360339 8.82812,-1.747058 0.38316,-0.386719 9.62633,-0.703125 20.5404,-0.703125 10.91407,0 20.15965,0.316406 20.54574,0.703125 0.3861,0.386719 4.35876,1.189215 8.82813,1.783326 14.8092,1.968576 30.59602,5.100721 32.7355,6.494806 l 2.10938,1.374467 0,63.673064 c 0,35.020182 -0.34236,63.884642 -0.76078,64.143242 -0.41844,0.25861 -4.95359,-1.60042 -10.07813,-4.13118 -5.12454,-2.53075 -10.04131,-4.61588 -10.92616,-4.63361 -0.88485,-0.0177 -2.99422,-0.61444 -4.6875,-1.32602 -5.93518,-2.49419 -9.77911,-3.37321 -21.38071,-4.88928 -22.16054,-2.89589 -44.70666,0.45544 -64.482,9.58483 -3.7656,1.7384 -7.10078,3.16073 -7.41151,3.16073 -0.31074,0 -1.94774,1.05469 -3.63779,2.34375 -1.69005,1.28906 -3.41737,2.35499 -3.8385,2.36873 -1.05647,0.0345 -10.19488,7.00763 -17.2011,13.12549 -9.95786,8.69527 -21.79994,24.61299 -27.87937,37.47453 -4.76355,10.07768 -5.76321,12.95607 -8.71411,25.09115 -2.56815,10.56108 -2.82835,13.06956 -2.82835,27.26668 0,15.03355 0.76709,21.23386 3.9611,32.01717 0.53456,1.80469 1.40758,4.75781 1.94007,6.5625 4.26153,14.44311 16.08354,33.66082 28.86234,46.91828 7.22537,7.49601 24.99667,20.31024 32.93686,23.74954 1.73629,0.75207 5.26626,2.30602 7.84439,3.4532 2.57812,1.14718 5.95312,2.41051 7.5,2.8074 1.54687,0.39688 5.34375,1.42533 8.4375,2.28542 7.4502,2.07123 22.05733,4.1642 29.0625,4.1642 7.00517,0 21.6123,-2.09297 29.0625,-4.1642 3.09375,-0.86009 6.89062,-1.90393 8.4375,-2.31964 4.20127,-1.12905 16.18607,-6.2927 19.82454,-8.54139 6.31096,-3.9004 5.95823,-7.59048 5.94236,62.16465 -0.007,34.69196 -0.3483,63.60218 -0.75646,64.24493 -1.25345,1.97391 -11.5805,4.4405 -30.63544,7.31721 -11.67634,1.76277 -41.47972,2.5333 -54.375,1.40581 z m 130.35338,-29.04426 c -0.34115,-0.55201 -1.75555,-1.00399 -3.14309,-1.00439 -4.03062,-9.4e-4 -14.39654,-5.42144 -18.24566,-9.54051 -7.66336,-8.20083 -10.74907,-20.85839 -8.23239,-33.76913 3.66903,-18.82233 21.38775,-28.94328 45.44259,-25.95685 13.98349,1.73606 22.37943,7.47514 28.13667,19.23296 2.36338,4.82665 2.6007,6.24175 2.55841,15.25534 -0.0488,10.40769 -0.87613,13.89331 -4.79328,20.19539 -4.22838,6.80278 -12.01265,12.06882 -21.71537,14.6904 -5.74464,1.55214 -19.2293,2.15656 -20.00788,0.89679 z M 376.875,461.68538 c 5.98835,-1.66304 10.3125,-9.35146 10.3125,-18.33582 0,-16.26351 -13.83089,-24.54712 -24.37271,-14.59733 -3.69557,3.48802 -4.98284,8.25278 -4.54928,16.83876 0.30542,6.04811 0.77426,7.69228 3.15597,11.06776 1.98406,2.8119 3.88745,4.29646 6.54727,5.10658 3.75245,1.14291 4.52799,1.13595 8.90625,-0.08 z m 337.5,17.41424 c -0.77344,-0.52025 -2.3825,-0.95237 -3.5757,-0.96027 -2.75171,-0.0182 -11.64992,-4.06345 -15.6508,-7.11507 -10.35237,-7.89614 -14.46463,-24.90272 -9.68416,-40.04969 5.20267,-16.48476 21.86155,-24.85529 44.14503,-22.1814 9.15228,1.09822 15.95466,4.15499 21.62293,9.71665 6.87537,6.74608 9.2068,13.18639 9.22356,25.47907 0.0116,8.50998 -0.26467,10.05998 -2.75708,15.46875 -4.29855,9.32823 -12.36197,15.71595 -23.67591,18.7557 -5.61282,1.50801 -17.8996,2.06224 -19.64787,0.88626 z m 17.06726,-20.41577 c 5.19161,-4.89568 6.86824,-15.68132 3.72446,-23.95908 -3.12201,-8.22041 -9.35723,-11.78705 -16.72813,-9.56874 -6.02368,1.81287 -8.86081,5.49168 -10.51277,13.63157 -1.29266,6.36953 0.34719,14.33717 3.91296,19.01214 4.31867,5.66207 14.07033,6.10187 19.60348,0.88411 z m 160.12024,20.41577 c -0.77344,-0.52025 -2.37862,-0.95237 -3.56706,-0.96027 -2.65419,-0.0176 -9.75551,-3.11953 -14.4871,-6.32805 -3.93709,-2.66975 -9.48213,-9.86718 -10.32659,-13.40386 -0.30385,-1.27253 -1.04384,-4.21213 -1.64442,-6.53244 -1.2661,-4.89153 -0.60031,-16.65314 1.2206,-21.5625 4.64711,-12.52905 14.49192,-19.84522 28.89053,-21.46998 20.47989,-2.31097 36.10916,4.00801 42.45271,17.16382 5.89427,12.22405 5.83108,24.15418 -0.18979,35.82352 -3.73077,7.23082 -12.68348,13.69206 -22.70101,16.3835 -5.61282,1.50801 -17.8996,2.06224 -19.64787,0.88626 z m 16.40625,-19.58211 c 4.19398,-3.58168 5.6251,-7.6923 5.62311,-16.15134 -0.002,-7.19536 -0.27213,-8.44843 -2.57413,-11.92697 -6.95403,-10.50827 -20.58234,-8.68427 -24.76081,3.31396 -2.63446,7.56468 -1.0183,18.69905 3.43058,23.63461 4.18839,4.64656 13.49013,5.22139 18.28125,1.12974 z m 127.57805,19.67135 c -0.2757,-0.44613 -1.9754,-1.05035 -3.777,-1.34273 -8.0851,-1.31202 -18.0955,-8.48131 -21.484,-15.38647 -0.959,-1.95438 -2.1125,-4.27592 -2.5633,-5.15899 -1.9065,-3.73479 -2.8983,-14.89632 -1.8557,-20.8837 1.361,-7.8152 2.934,-11.38977 7.3794,-16.76933 7.3208,-8.85913 20.0715,-12.80715 34.8016,-10.77568 11.0145,1.51902 17.9668,6.75335 23.9725,18.04863 2.06,3.87433 2.3547,5.5958 2.3547,13.75401 l 0,9.3254 -22.9982,0 c -25.9327,0 -25.9781,0.0137 -21.6653,6.5308 3.5177,5.31559 7.8412,7.06295 17.476,7.06295 7.1942,0 12.2865,-0.92904 18.5858,-3.39079 1.1989,-0.46848 2.57,-0.61058 3.0469,-0.31579 0.477,0.29479 0.8673,3.66432 0.8673,7.48784 0,6.76714 -0.074,6.99026 -2.7964,8.39789 -1.5379,0.79532 -4.7135,1.70882 -7.0568,2.03 -2.3433,0.32119 -4.4848,0.94692 -4.759,1.39054 -0.6524,1.05558 -18.8759,1.0513 -19.5285,-0.005 z m 18.3719,-43.04502 c 0.493,-0.49302 0.4113,-1.96196 -0.1982,-3.56515 -2.9724,-7.81794 -10.0887,-12.12616 -16.0935,-9.74302 -4.174,1.65647 -5.3143,2.62829 -7.9107,6.74131 -2.316,3.66878 -2.8754,6.92139 -1.2818,7.45427 2.0484,0.68501 24.7005,-0.10379 25.4842,-0.88741 z m -581.96085,40.57491 c -0.89943,-0.70106 -1.2783,-6.31133 -1.50219,-22.24514 l -0.29941,-21.30765 -2.59943,-2.5986 c -2.12925,-2.12858 -3.42566,-2.59861 -7.1672,-2.59861 -5.34871,0 -7.89127,1.81586 -10.50144,7.5 -1.48855,3.24161 -1.72479,6.32764 -1.74259,22.76323 l -0.0206,19.01323 -11.48438,-0.26323 -11.48437,-0.26323 0,-33.28125 0,-33.28125 10.3125,0 10.3125,0 0.28574,4.45312 c 0.15716,2.44922 0.61097,4.45313 1.00846,4.45313 0.39749,0 1.74547,-1.10516 2.99551,-2.45592 1.25003,-1.35076 3.96029,-3.56561 6.02279,-4.92188 3.42097,-2.24959 4.57464,-2.46595 13.14886,-2.46595 9.35547,0 9.42061,0.0159 14.10634,3.4556 2.5891,1.90058 5.28637,4.5373 5.99392,5.85937 1.68857,3.15512 2.33811,3.04592 5.88049,-0.98863 1.63821,-1.86582 4.68392,-4.50254 6.76823,-5.85937 3.46236,-2.2539 4.61261,-2.46697 13.31828,-2.46697 9.10204,0 9.71025,0.12766 13.58579,2.85149 2.23145,1.56833 5.00312,4.52145 6.15925,6.5625 4.36991,7.71463 4.94509,11.89782 4.94509,35.96468 l 0,22.59008 -11.71875,0 -11.71875,0 0,-21.36353 0,-21.36355 -2.70974,-3.24583 c -2.43407,-2.91562 -3.19082,-3.24584 -7.43844,-3.24584 -3.90158,0 -5.20791,0.4591 -7.46833,2.62473 -4.34036,4.15833 -5.24702,8.64578 -5.79368,28.67558 l -0.49606,18.17531 -9.74781,0.10594 c -5.36129,0.0582 -10.28905,-0.31594 -10.95059,-0.83156 z m 131.26106,0.18779 c -1.09751,-0.61225 -1.34487,-4.22198 -1.34914,-19.6875 -0.006,-19.71416 -0.66115,-24.58465 -3.67727,-27.3142 -3.02878,-2.74102 -8.93307,-2.9956 -12.5172,-0.53971 -5.4128,3.7089 -5.71023,5.05052 -6.08787,27.46008 l -0.3441,20.41894 -11.41855,-0.26269 -11.41853,-0.26271 -0.26179,-31.40625 c -0.14398,-17.27344 -0.0305,-32.35547 0.25224,-33.51563 0.49233,-2.02033 0.92807,-2.10937 10.32205,-2.10937 9.60228,0 9.82001,0.0477 10.37929,2.27609 0.31419,1.25184 0.33186,3.04481 0.0393,3.98438 -0.29259,0.93955 -0.13164,2.34109 0.35767,3.11453 0.75623,1.19532 1.1077,1.09677 2.34324,-0.65705 2.16354,-3.0711 3.79512,-4.54838 7.71505,-6.9855 3.10446,-1.93011 4.70405,-2.2012 12.98846,-2.2012 9.01857,0 9.61511,0.12622 13.125,2.77719 2.02237,1.52746 5.0102,4.25775 6.63964,6.06731 l 2.9626,3.2901 1.92809,-2.3173 c 1.06043,-1.27452 1.9421,-2.59752 1.95926,-2.94002 0.0172,-0.34248 2.24603,-2.02998 4.95306,-3.75 4.7343,-3.0081 5.27916,-3.12728 14.29688,-3.12728 7.74462,0 9.86411,0.32072 12.1875,1.84418 4.02674,2.64039 6.75415,5.67767 9.13299,10.17066 1.97202,3.72462 2.09415,5.2361 2.41894,29.93828 l 0.34207,26.01563 -11.33762,0 -11.33763,0 -0.045,-20.39063 c -0.0381,-17.23786 -0.29174,-20.89394 -1.64063,-23.64585 -2.67812,-5.46376 -8.93859,-7.23425 -14.32642,-4.05159 -5.66625,3.34714 -7.55166,11.67744 -7.3379,32.42117 0.0839,8.14102 -0.0985,15.05286 -0.40527,15.35964 -0.85443,0.85443 -19.31212,0.87773 -20.83835,0.0263 z m 186.34077,-1.20885 c -4.51888,-2.25185 -6.60947,-4.0194 -11.29464,-9.54937 -5.56457,-6.56796 -7.88154,-24.75725 -4.65941,-36.57867 1.73675,-6.37182 7.32039,-14.02264 12.61769,-17.289 10.55986,-6.51128 27.89306,-4.6475 34.72993,3.73438 2.56664,3.14667 3.10925,0.006 3.10925,-18.00131 0,-15.66335 0.20145,-18.20292 1.48293,-18.69467 2.79556,-1.07276 19.65074,-0.62288 20.82957,0.55595 1.31597,1.31597 1.63522,94.11936 0.33084,96.17516 -0.56289,0.88719 -3.34994,1.13526 -10.53252,0.9375 l -9.76707,-0.26891 -0.28644,-5.56763 -0.28644,-5.56762 -3.57581,3.69262 c -7.01725,7.2465 -10.71466,8.84888 -20.41829,8.84888 -6.09133,0 -8.27471,-0.43159 -12.27959,-2.42731 z m 28.73029,-17.96332 c 6.098,-5.82336 7.34646,-17.36843 2.77171,-25.63131 -2.49975,-4.51504 -6.09874,-6.47806 -11.87684,-6.47806 -3.97013,0 -5.28552,0.47494 -8.05846,2.90962 -1.82264,1.60029 -3.31388,3.68476 -3.31388,4.63217 0,0.9474 -0.42188,1.98329 -0.9375,2.30196 -0.51563,0.31867 -0.9375,3.90461 -0.9375,7.96875 0,4.06414 0.42187,7.65008 0.9375,7.96875 0.51562,0.31867 0.9375,1.36754 0.9375,2.33082 0,0.96328 1.57268,3.04776 3.49485,4.63218 2.91564,2.40331 4.30747,2.88075 8.39803,2.88075 4.38641,0 5.29117,-0.37052 8.58459,-3.51563 z m 134.16137,19.03125 c -1.09537,-1.09759 -1.18603,-64.22067 -0.0947,-65.94078 0.56287,-0.88719 3.34997,-1.13526 10.53253,-0.9375 l 9.76706,0.26891 0.28575,4.45312 c 0.15712,2.44922 0.53859,4.45313 0.84759,4.45313 0.309,0 1.95947,-1.63282 3.66769,-3.62849 1.70822,-1.99568 4.64878,-4.36068 6.53456,-5.25556 3.82453,-1.81482 14.24963,-2.32092 15.23391,-0.73955 0.33994,0.5461 0.40706,4.93483 0.14925,9.75275 l -0.46875,8.75985 -6.56841,0.0717 c -7.68534,0.0839 -10.63434,1.59925 -14.36559,7.38193 -2.41294,3.73948 -2.46759,4.18277 -2.81278,22.79801 -0.249,13.43247 -0.66656,18.99161 -1.42763,19.00913 -16.51087,0.37995 -20.53997,0.29539 -21.2805,-0.44663 z M 615,344.53125 l 0,-19.21875 -19.21875,0 -19.21875,0 0,-58.59375 0,-58.59375 19.19973,0 19.19973,0 0.25339,-19.45313 0.2534,-19.45312 77.8125,0 77.8125,0 0.2534,19.45312 0.25339,19.45313 -78.31929,0 -78.31929,0 0.25339,19.45312 0.2534,19.45313 58.35938,0.24147 58.35937,0.24147 0,19.21166 0,19.21165 19.6875,0 19.6875,0 0,19.6875 0,19.6875 -19.6875,0 -19.6875,0 0,19.21875 0,19.21875 -58.59375,0 -58.59375,0 0,-19.21875 z m 117.1875,-38.90625 0,-19.6875 -58.59375,0 -58.59375,0 0,19.6875 0,19.6875 58.59375,0 58.59375,0 0,-19.6875 z M 960,324.84375 l 0,-38.90625 -77.8125,0 -77.8125,0 0,-58.61277 0,-58.61277 19.45312,0.25339 19.45313,0.2534 0.24466,39.14062 0.24466,39.14063 58.10443,0 58.10447,0 0.24459,-39.14063 0.24469,-39.14062 19.45313,-0.2534 19.45312,-0.25339 0,97.51902 0,97.51902 -19.6875,0 -19.6875,0 0,-38.90625 z M 320.83016,255.14663 c -0.94881,-0.60207 -1.20075,-10.07751 -1.19948,-45.11428 8.8e-4,-24.39367 0.16059,-44.51113 0.35492,-44.70545 0.71747,-0.71747 190.48268,-0.3283 190.72249,0.39114 0.24939,0.74815 -86.19162,87.65199 -88.83309,89.30874 -1.73632,1.08903 -99.33506,1.20479 -101.04484,0.11985 z"
       id="path3348"
       inkscape:connector-curvature="0" />
  </g>
</svg>
