<?xml version="1.0" encoding="UTF-8" standalone="no"?>
<!-- Created with Inkscape (http://www.inkscape.org/) -->

<svg
   xmlns:dc="http://purl.org/dc/elements/1.1/"
   xmlns:cc="http://creativecommons.org/ns#"
   xmlns:rdf="http://www.w3.org/1999/02/22-rdf-syntax-ns#"
   xmlns:svg="http://www.w3.org/2000/svg"
   xmlns="http://www.w3.org/2000/svg"
   xmlns:sodipodi="http://sodipodi.sourceforge.net/DTD/sodipodi-0.dtd"
   xmlns:inkscape="http://www.inkscape.org/namespaces/inkscape"
   id="svg3336"
   version="1.1"
   inkscape:version="0.91 r13725"
   width="1070.8029"
   height="306.88217"
   viewBox="0 0 1070.8029 306.88217"
   sodipodi:docname="logo.svg">
  <metadata
     id="metadata3342">
    <rdf:RDF>
      <cc:Work
         rdf:about="">
        <dc:format>image/svg+xml</dc:format>
        <dc:type
           rdf:resource="http://purl.org/dc/dcmitype/StillImage" />
        <dc:title></dc:title>
      </cc:Work>
    </rdf:RDF>
  </metadata>
  <defs
     id="defs3340" />
  <sodipodi:namedview
     pagecolor="#ffffff"
     bordercolor="#666666"
     borderopacity="1"
     objecttolerance="10"
     gridtolerance="10"
     guidetolerance="10"
     inkscape:pageopacity="0"
     inkscape:pageshadow="2"
     inkscape:window-width="1366"
     inkscape:window-height="721"
     id="namedview3338"
     showgrid="false"
     inkscape:zoom="0.42164624"
     inkscape:cx="1003.4226"
     inkscape:cy="-89.758451"
     inkscape:window-x="-4"
     inkscape:window-y="-4"
     inkscape:window-maximized="1"
     inkscape:current-layer="svg3336" />
  <g
     id="g3346"
     transform="translate(9.57e-5,1.3669599e-4)">
    <path
       style="fill:#0585e1"
       d="m 574.94965,288.82479 -1.74483,-2.57249 -48.93296,-0.24294 -48.93297,-0.24294 0.11868,-8.91553 c 0.0925,-6.9541 0.66898,-10.54569 2.62001,-16.32526 6.10304,-18.07916 15.93663,-29.03782 41.30522,-46.031 22.0524,-14.77184 25.53151,-18.16348 29.18991,-28.45611 1.52181,-4.28146 1.61143,-5.6331 0.67088,-10.11721 -1.81812,-8.66796 -6.62749,-13.63635 -15.45368,-15.96465 -9.01602,-2.37838 -18.44114,1.07267 -27.10154,9.92335 -6.22261,6.35935 -9.53748,12.70411 -9.74689,18.65586 -0.0836,2.3767 -0.54411,4.51341 -1.02331,4.74825 -1.03489,0.50717 -16.24601,-24.11844 -16.31116,-26.40649 -0.0248,-0.8685 0.74636,-1.83025 1.71355,-2.13723 0.96719,-0.30697 4.01145,-3.18605 6.76503,-6.39797 7.24509,-8.45103 11.85136,-12.52734 18.22306,-16.12646 17.53511,-9.90487 37.35509,-7.51466 52.70353,6.35582 1.98281,1.7919 5.26327,6.48237 7.28989,10.42329 3.48873,6.78409 3.70735,7.71356 4.10934,17.47015 0.77417,18.78967 -2.75123,28.38407 -14.40691,39.20855 -3.71697,3.45189 -10.41268,8.38774 -14.87935,10.96856 -22.46089,12.97775 -27.34745,16.08741 -32.08735,20.41941 -5.44691,4.97816 -10.31408,12.19177 -9.31584,13.80696 0.39303,0.63594 12.93672,0.96654 36.67336,0.96654 35.3057,0 36.11774,-0.0418 38.03115,-1.95516 1.07535,-1.07535 2.14136,-1.76898 2.36894,-1.5414 0.22757,0.22758 0.29795,7.75886 0.15641,16.73618 -0.25611,16.24321 -0.26582,16.30994 -2.00217,13.74992 z M 407.19987,287.7004 c -0.22672,-0.22672 -3.55563,-1.06764 -7.39758,-1.8687 -7.96822,-1.66143 -16.3859,-5.57024 -23.62188,-10.96901 -2.74005,-2.04435 -5.98344,-3.96836 -7.20755,-4.2756 -2.11336,-0.53041 -2.20623,-0.87181 -1.84081,-6.7668 0.42382,-6.83718 6.91442,-26.67723 8.5491,-26.13234 0.52265,0.17421 1.53011,2.3053 2.23879,4.73574 3.86533,13.25618 28.41919,25.0607 46.34279,22.27976 11.72974,-1.81992 18.18319,-5.91203 21.63699,-13.7199 3.60633,-8.15271 2.12714,-17.46782 -3.73589,-23.52652 -5.28085,-5.4571 -10.63571,-7.31017 -22.24435,-7.69776 -10.01515,-0.33439 -10.47139,-0.2631 -13.24307,2.06911 -1.57882,1.32848 -3.14034,2.14566 -3.47005,1.81594 -1.05601,-1.05601 -0.69214,-30.31794 0.37699,-30.31794 0.53706,0 2.19869,0.90362 3.69251,2.00804 2.45638,1.81609 3.55175,1.96024 11.45835,1.50798 12.65709,-0.72399 17.91855,-3.51271 21.49796,-11.39452 4.06745,-8.95647 0.45109,-18.357 -9.00173,-23.39942 -5.35105,-2.8544 -19.34829,-2.72588 -26.70977,0.24526 -10.57683,4.26886 -18.36656,12.25023 -19.3749,19.85156 -0.33955,2.55964 -0.92424,4.84354 -1.29932,5.07535 -0.37506,0.23181 -2.93619,-3.68408 -5.69139,-8.70198 -2.7552,-5.0179 -5.98234,-10.69874 -7.17142,-12.62409 -2.82345,-4.57173 -2.84208,-7.28056 -0.0504,-7.3269 1.23658,-0.0205 4.44487,-2.21457 7.74244,-5.29482 9.81922,-9.17209 17.66261,-13.51808 28.4503,-15.76417 23.05947,-4.80118 43.26072,4.03102 52.06051,22.76141 2.58115,5.49396 3.01109,7.5376 3.3256,15.8075 0.54967,14.45316 -2.2946,21.85527 -10.40054,27.06705 -3.41721,2.19712 -3.25991,4.39802 0.46924,6.56541 6.46658,3.75843 13.08125,13.34942 15.38248,22.30398 2.37435,9.23909 1.35136,22.40081 -2.35704,30.32547 -5.57246,11.90809 -16.95322,20.91493 -30.75736,24.34169 -5.25136,1.3036 -26.57846,2.08978 -27.64902,1.01922 z m 320.12024,-86.40944 0,-34.26691 31.67362,0.2471 31.67362,0.2471 7.71147,15.48488 c 4.24131,8.51668 7.7254,16.45815 7.74244,17.64769 0.017,1.18954 -3.35214,9.12014 -7.48705,17.62355 -5.93101,12.1971 -8.02403,15.65314 -9.9151,16.37213 -1.366,0.51934 -15.0869,0.91137 -31.89805,0.91137 l -29.50095,0 0,-34.26691 z m 49.32346,8.40679 c 1.77721,-3.89982 3.23129,-7.85909 3.23129,-8.79838 0,-0.93928 -1.46745,-4.92788 -3.26098,-8.86354 l -3.26098,-7.15575 -10.34694,0 -10.34695,0 0,15.95412 0,15.95412 10.37664,0 10.37665,0 3.23127,-7.09057 z m 31.30741,25.46987 c -0.21507,-0.21464 -0.27511,-15.63497 -0.13341,-34.2674 l 0.25763,-33.87715 30.17756,0.24759 30.17756,0.24759 2.43221,4.22315 c 5.1187,8.88783 9.62739,19.73 9.0919,21.86353 -0.29325,1.16843 -3.08087,5.06784 -6.1947,8.66537 -3.11383,3.59753 -5.66297,6.93674 -5.66475,7.42046 -0.002,0.48372 2.84739,5.91461 6.33149,12.06866 l 6.33472,11.18917 0.24663,-32.94979 0.24663,-32.94979 13.13838,0 13.13839,0 -0.24633,34.01981 -0.24632,34.01981 -25.68322,0 -25.68321,0 -9.66653,-15.95411 c -13.92613,-22.98436 -12.54677,-22.8045 -12.59573,-1.64234 l -0.0418,18.06569 -12.51303,0 c -6.88218,0 -12.68901,-0.17561 -12.90407,-0.39025 z m 43.63106,-40.40373 c 2.37511,-3.11393 2.42265,-3.39843 1.09776,-6.56935 l -1.38488,-3.31446 -8.96342,0 -8.96342,0 0,6.56935 0,6.56934 7.86567,0 7.86567,0 2.48262,-3.25488 z m 75.17097,30.70535 c -14.248,-22.12175 -16.18925,-25.18152 -17.22766,-27.15415 -0.67934,-1.29053 -1.07907,-7.47108 -1.07907,-16.68447 l 0,-14.63458 12.90407,0.26111 12.90406,0.2611 0.46924,11.73097 0.46924,11.73097 7.03858,10.0409 c 3.87122,5.5225 7.51693,10.80144 8.1016,11.73097 0.58467,0.92954 1.25052,1.47891 1.47979,1.22083 0.22918,-0.25808 4.07956,-5.82457 8.55629,-12.36997 l 8.1397,-11.90073 0,-11.32659 0,-11.32659 13.21939,0 13.21949,0 -0.31608,15.25026 -0.31599,15.25026 -4.86553,7.50782 c -2.67607,4.1293 -6.97317,10.88634 -9.54911,15.01564 -2.57593,4.1293 -5.98448,9.30266 -7.57454,11.49635 l -2.89089,3.98853 -18.09244,0 -18.09232,0 -6.49782,-10.08863 z m 69.35017,8.7829 c -0.27553,-0.71815 -0.36788,-11.59276 -0.20515,-24.1658 l 0.2959,-22.86006 5.63087,-9.85402 5.6309,-9.85401 29.7966,-0.24781 29.7967,-0.24779 0,8.92871 0,8.92872 -20.6135,0 c -19.4194,0 -20.6698,0.10515 -21.585,1.81526 -2.5501,4.76484 -2.5966,4.75409 20.6135,4.75409 l 21.585,0 0,3.2669 c 0,1.79679 -1.3536,6.0118 -3.0079,9.36668 l -3.0079,6.09976 -19.7502,0.25273 -19.7502,0.25272 0,2.81543 0,2.81543 22.7581,0.25131 22.7581,0.2513 0,9.36809 0,9.36809 -35.2224,0 c -29.2203,0 -35.30767,-0.2225 -35.72342,-1.30573 z M 518.36133,103.70177 c 0.004,-4.129298 0.1684,-5.701821 0.36666,-3.49448 0.19824,2.20733 0.19546,5.58585 -0.007,7.50782 -0.20165,1.92196 -0.36386,0.11596 -0.36045,-4.01334 z m 23.95899,-11.496347 c -1.16734,-1.488478 -1.13415,-1.521672 0.35433,-0.354327 1.56327,1.225998 2.06041,1.996662 1.28801,1.996662 -0.19488,0 -0.93393,-0.739051 -1.64234,-1.642335 z m -23.95899,-6.334724 c 0.004,-4.129301 0.1684,-5.701819 0.36666,-3.494484 0.19824,2.207335 0.19546,5.585854 -0.007,7.50782 C 518.5197,91.806002 518.3575,90 518.3609,85.870699 Z m 124.02656,-3.877387 c 6.73226,-0.699025 14.54969,-0.758748 14.54811,-0.111143 -9.4e-4,0.387122 -3.90812,0.636272 -8.68262,0.553667 -4.77451,-0.08261 -7.41398,-0.281741 -5.86549,-0.442524 z M 522.8061,80.31804 c -0.0407,-0.989312 0.18106,-1.5436 0.4929,-1.231752 0.31185,0.311848 0.34518,1.121285 0.0741,1.798749 -0.29958,0.748654 -0.52196,0.526275 -0.56699,-0.566997 z M 409.17622,41.3484 c 0,-0.485701 0.41748,-1.141107 0.92773,-1.456459 0.53199,-0.328785 0.68931,0.04792 0.36883,0.883091 -0.62389,1.625835 -1.29656,1.923304 -1.29656,0.573368 z m 109.18511,-8.970923 c 0.004,-4.129302 0.1684,-5.701819 0.36666,-3.494485 0.19824,2.207335 0.19546,5.585855 -0.007,7.507821 -0.20129,1.921967 -0.36349,0.115965 -0.36009,-4.013336 z m 4.44477,5.709071 c -0.0407,-0.989311 0.18106,-1.543599 0.4929,-1.231752 0.31185,0.311849 0.34518,1.121286 0.0741,1.798749 -0.29958,0.748655 -0.52196,0.526276 -0.56699,-0.566997 z m -73.20125,-3.75391 c -0.0407,-0.989311 0.18106,-1.5436 0.4929,-1.231752 0.31185,0.311849 0.34518,1.121286 0.074,1.798749 -0.29958,0.748655 -0.52196,0.526276 -0.56699,-0.566997 z m 68.75648,-19.786235 c 0.004,-4.129302 0.1684,-5.7018196 0.36666,-3.494485 0.19824,2.207335 0.19546,5.585855 -0.007,7.507821 -0.20129,1.921966 -0.36349,0.115965 -0.36009,-4.013336 z m 13.75545,1.876955 c 0.64256,-0.774244 1.37946,-1.407717 1.63754,-1.407717 0.25808,0 -0.0565,0.633473 -0.69906,1.407717 -0.64257,0.774244 -1.37946,1.407716 -1.63754,1.407716 -0.25809,0 0.0565,-0.633472 0.69906,-1.407716 z M 406.61495,7.8793014 c 0.31185,-0.3118483 1.12129,-0.3451889 1.79875,-0.07409 0.74866,0.2995867 0.52628,0.521965 -0.567,0.5669968 -0.9893,0.04075 -1.54359,-0.1810583 -1.23175,-0.4929066 z"
       id="path3352"
       inkscape:connector-curvature="0" />
    <path
       style="fill:#f4170e"
       d="m 584.72886,284.12409 c 0.0315,-0.6452 1.7647,-2.44004 3.85146,-3.98853 3.08435,-2.28875 6.19891,-7.11666 16.64921,-25.80813 27.36782,-48.95023 25.72705,-45.66526 24.25764,-48.56573 -0.71925,-1.41971 -5.46193,-9.97181 -10.5393,-19.00466 -5.07737,-9.03285 -12.17663,-21.70229 -15.77612,-28.15433 -7.27162,-13.03424 -8.43379,-14.61494 -12.16329,-16.54354 -1.42067,-0.73465 -2.58303,-1.95836 -2.58303,-2.71935 0,-1.16792 2.63338,-1.38362 16.8926,-1.38362 9.29093,0 16.89259,0.23892 16.89259,0.53094 0,0.29202 -0.45481,1.38076 -1.01069,2.41944 -0.85601,1.59946 0.60253,4.78592 9.52972,20.81943 12.21806,21.94405 12.37942,22.2156 13.20092,22.2156 0.34208,0 3.88905,-5.80683 7.88218,-12.90407 3.99312,-7.09724 8.93678,-15.86027 10.98592,-19.47341 3.78502,-6.67394 4.39395,-9.02279 3.10208,-11.96559 -0.67175,-1.53021 0.43921,-1.64234 16.27203,-1.64234 18.65172,0 20.0368,0.48707 13.56395,4.76978 -2.45643,1.62527 -5.08387,5.19692 -9.26318,12.59206 -24.28475,42.971 -28.59255,50.9265 -28.5964,52.81092 -0.003,1.17323 1.84306,5.39638 4.10104,9.38478 4.40411,7.77924 14.16114,25.21939 26.37111,47.13694 5.89682,10.58509 8.35712,14.11191 11.0756,15.87673 6.54136,4.24662 5.1288,4.76978 -12.87884,4.76978 l -16.37363,0 0.0748,-3.5193 c 0.0553,-2.60068 -1.23134,-5.84642 -4.92935,-12.43482 -16.08436,-28.65615 -20.43206,-36.08082 -21.2968,-36.36906 -0.76058,-0.25353 -18.99502,30.37068 -18.99502,31.90157 0,0.21627 -1.87849,3.68952 -4.17442,7.71834 -3.21489,5.64142 -4.05078,7.94324 -3.6366,10.01421 l 0.53782,2.68906 -16.54067,0 c -12.63746,0 -16.52714,-0.27683 -16.48333,-1.1731 z M 3.7539103,234.09547 c 0,-0.28816 4.9164346,-8.62888 10.9254107,-18.53493 6.008975,-9.90605 14.197888,-23.50281 18.197584,-30.21501 3.999695,-6.71219 8.125385,-13.25807 9.168201,-14.5464 l 1.896027,-2.3424 32.461133,-0.2476 32.461134,-0.2476 0,11.74395 c 0,6.45917 0.31673,11.71008 0.70386,11.66868 0.38712,-0.0414 3.02659,-4.7215 5.86548,-10.40024 2.83889,-5.67872 5.75365,-10.81821 6.47723,-11.42108 0.92192,-0.76812 9.81864,-1.18139 29.73108,-1.3811 l 28.41548,-0.28499 0.3002,9.04823 c 0.16511,4.97653 0.12424,9.22234 -0.0908,9.43514 -0.21506,0.21281 -9.54378,0.38692 -20.73048,0.38692 l -20.33945,0 -1.08911,2.39035 c -0.59902,1.31469 -1.08913,2.58929 -1.08913,2.83242 0,0.24314 9.99502,0.32884 22.21116,0.19046 l 22.21116,-0.2516 0.90193,-2.70735 c 0.49606,-1.48905 3.06491,-6.53148 5.70855,-11.20542 4.05042,-7.1611 5.2787,-8.61986 7.80731,-9.27228 1.65038,-0.42582 15.58677,-0.66232 30.96976,-0.52555 l 27.96907,0.24866 0.2686,9.15015 0.2686,9.15016 -22.44187,0 -22.44188,0 -1.99253,4.63174 c -1.63192,3.79351 -1.99252,6.51101 -1.99252,15.01564 l 0,10.3839 13.60793,0 13.60792,0 0,-2.81543 0,-2.81543 -7.03858,0 c -4.15866,0 -7.03858,-0.39167 -7.03858,-0.95723 0,-0.52648 1.90466,-4.74963 4.23257,-9.38478 l 4.23256,-8.42755 15.00623,0 c 11.2758,0 15.05448,0.29163 15.20033,1.1731 0.10676,0.64521 0.42349,-4.73931 0.70385,-11.96559 l 0.50976,-13.13868 20.78416,0 c 23.58925,0 22.22269,-0.4117 28.03678,8.44629 1.69397,2.58082 7.32396,10.81596 12.51111,18.30032 5.18715,7.48436 11.73924,16.98644 14.56021,21.11574 2.82097,4.1293 6.87686,9.93613 9.0131,12.90407 l 3.88406,5.39625 -14.84012,0 -14.84013,0 -4.13665,-6.10011 -4.13665,-6.1001 -11.70655,0 c -10.04851,0 -11.88313,-0.23261 -12.95326,-1.64234 -1.0692,-1.40849 -1.25096,-0.53993 -1.27656,6.10011 l -0.0299,7.74244 -12.66945,0 -12.66944,0 -0.19644,-19.94265 -0.19643,-19.94265 -0.50742,18.76955 c -0.27909,10.32325 -0.84909,19.29745 -1.26668,19.94265 -0.58559,0.90479 -8.96748,1.1731 -36.64754,1.1731 -37.41696,0 -38.14065,-0.0758 -38.14065,-3.997 0,-0.95955 -0.42232,-1.48364 -0.93848,-1.16463 -0.51616,0.31901 -0.93848,1.61088 -0.93848,2.87082 l 0,2.29081 -47.86235,0 -47.862359,0 -0.02984,-19.94265 c -0.02694,-18.00495 -0.167756,-19.76028 -1.449188,-18.0657 -0.780638,1.03233 -6.307048,10.00652 -12.28091,19.94265 l -10.861572,18.0657 -12.935437,0 -12.935437,0 13.984463,-23.20895 c 7.691455,-12.76493 13.984463,-23.53396 13.984463,-23.93118 0,-0.39723 -1.031953,-0.72223 -2.293231,-0.72223 -2.406206,0 -2.446028,0.0606 -23.883123,36.36601 l -6.788207,11.49635 -12.610524,0 c -6.9357883,0 -12.6105237,-0.23577 -12.6105237,-0.52393 z M 182.06465,206.93431 c 0,-5.93587 -0.38158,-10.79249 -0.84795,-10.79249 -0.46635,0 -2.43337,3.37851 -4.37113,7.50782 l -3.52321,7.50782 -19.15313,0 -19.15313,0 0.29695,2.58081 0.29696,2.58081 22.52346,0.4949 c 12.3879,0.2722 22.8402,0.58893 23.22732,0.70386 0.38712,0.11492 0.70386,-4.64766 0.70386,-10.58353 z m 114.49426,-3.78406 c 0,-0.77464 -10.35185,-15.36164 -11.33107,-15.96683 -0.50876,-0.31443 -0.86914,2.98791 -0.86914,7.96453 l 0,8.50169 6.10011,0 c 3.35505,0 6.1001,-0.22472 6.1001,-0.49939 z"
       id="path3350"
       inkscape:connector-curvature="0" />
    <path
       style="fill:#040404"
       d="m 376.3295,103.70177 0,-7.038579 20.20741,0 c 21.56414,0 24.54903,-0.504629 29.40828,-4.971799 5.79816,-5.330313 7.53661,-16.696833 3.61318,-23.624015 -2.86457,-5.05767 -6.75658,-7.451835 -16.14623,-9.932321 -13.4056,-3.541387 -17.36468,-7.383224 -17.3711,-16.856684 -0.005,-6.923611 2.29288,-11.138349 7.53798,-13.827903 3.87126,-1.985079 5.25855,-2.111574 23.15789,-2.111574 l 19.03993,0 0,7.038582 0,7.038582 -17.77568,0 c -17.29324,0 -20.54938,0.52791 -18.1368,2.94048 0.49498,0.49499 4.56338,1.763568 9.04088,2.819062 6.2192,1.46607 9.28866,2.781492 13.00318,5.572523 10.92706,8.210433 15.30984,21.41545 11.65729,35.122575 -1.76758,6.633238 -3.90583,10.389501 -8.56836,15.052031 -8.33178,8.33178 -14.37715,9.81762 -39.94449,9.81762 l -18.72336,0 0,-7.03858 z m 94.15976,5.3014 c -8.40369,-2.9041 -14.1136,-8.36624 -18.34954,-17.553273 -2.06871,-4.486701 -2.13973,-5.528405 -2.13973,-31.387332 0,-18.882093 0.34908,-27.895267 1.18718,-30.653101 1.68212,-5.535125 6.72996,-12.474342 11.64254,-16.004897 6.87833,-4.9432866 12.57473,-5.8967463 35.22981,-5.8967463 l 19.9801,0 0,7.0385823 0,7.038581 -20.41189,0.02061 c -23.71967,0.02395 -26.32979,0.663826 -30.90769,7.577047 l -2.64288,3.991096 -0.27838,24.706511 c -0.31641,28.083038 0.14102,30.444752 6.89528,35.600066 l 3.55529,2.713639 21.89513,0.282829 21.89514,0.282839 0,6.990359 0,6.99037 -21.35037,-0.0307 c -18.00562,-0.0258 -22.11011,-0.29318 -26.19999,-1.70655 z m 76.17392,0.87018 c -8.18581,-1.99793 -15.68906,-8.09456 -19.69751,-16.004832 -3.532,-6.97006 -4.52255,-16.900302 -4.0181,-40.28111 0.39517,-18.315123 0.64642,-20.812582 2.60344,-25.878611 2.74685,-7.110603 9.63985,-14.54786 16.23041,-17.511922 4.68003,-2.1048143 5.97738,-2.2088965 31.39375,-2.5186167 l 26.51199,-0.3230711 0,7.1148988 0,7.114898 -24.33932,0 c -14.91518,0 -25.36226,0.386495 -26.98123,0.998182 -3.75598,1.41911 -7.7553,5.425002 -9.77822,9.794311 -1.54102,3.328441 -1.74034,6.374353 -1.75861,26.874064 l -0.0206,23.120154 2.62816,5.030874 c 1.81789,3.479843 3.7709,5.678135 6.33472,7.130306 3.49706,1.98077 4.78074,2.100313 22.71073,2.114878 l 19.00417,0.01544 0,-19.708029 0,-19.708029 -15.48488,0 -15.48487,0 0,-7.056201 0,-7.056202 21.35036,0.252239 21.35036,0.252239 0.46924,32.080194 0.46924,32.080196 15.83252,-44.749644 c 8.70788,-24.612302 16.64758,-46.100877 17.64376,-47.752387 6.47043,-10.7269352 24.03611,-9.8422043 29.82356,1.502122 0.97746,1.915971 6.92122,18.029596 13.20837,35.808057 6.28714,17.778461 13.48594,38.131305 15.99732,45.228542 l 4.56614,12.90406 -30.47014,0 -30.47014,0 0,-6.1001 0,-6.100102 21.69444,0 c 20.20518,0 21.6639,-0.112739 21.24959,-1.642335 -2.24433,-8.285779 -26.49403,-73.242252 -27.67801,-74.13973 -2.19581,-1.664445 -5.33734,-1.452662 -7.08418,0.47757 -0.82161,0.907867 -8.23125,20.862247 -16.4659,44.343066 l -14.97206,42.692401 -31.77653,0.1447 c -17.47708,0.0796 -33.04347,-0.16452 -34.59196,-0.54247 z m 84.76948,-41.323305 c 9.11884,-26.444265 15.07855,-42.393676 15.96858,-42.735214 0.78099,-0.299697 1.91483,-0.0015 2.51962,0.662677 0.60481,0.664169 4.51783,10.920824 8.69562,22.792565 4.17779,11.871742 9.50242,26.9695 11.83252,33.550574 l 4.23654,11.965589 -19.13007,0 c -17.45753,0 -19.16125,-0.143587 -19.48684,-1.642336 -0.19623,-0.903284 -1.79511,2.686392 -3.55305,7.97706 l -3.19627,9.61939 -6.21762,0 -6.21762,0 14.54859,-42.190305 z m 25.254,12.862885 c -0.24664,-0.645203 -1.99747,-6.029718 -3.89072,-11.965589 -1.89326,-5.93587 -3.68503,-11.425964 -3.98171,-12.200208 -0.50051,-1.306174 -6.84642,15.890345 -8.29098,22.467394 l -0.63069,2.8715 8.62127,0 c 6.51054,0 8.51149,-0.287208 8.17283,-1.173097 z m -280.35716,4.457769 0,-7.038582 17.77569,0 c 9.77663,0 17.9839,-0.3369 18.23839,-0.748667 0.99572,-1.611119 -1.10443,-2.786987 -7.85975,-4.400641 -12.54442,-2.996506 -18.19595,-7.033774 -22.72533,-16.234239 -2.86307,-5.815731 -3.0828,-6.9324 -3.0828,-15.666584 0,-8.259707 0.30888,-10.063665 2.53745,-14.81945 3.36584,-7.182734 10.49172,-14.035927 17.39437,-16.728731 4.87955,-1.9035754 7.44425,-2.1493811 26.2882,-2.5195051 l 20.88112,-0.4101373 0,7.1404104 0,7.140411 -19.26893,0 c -21.28924,0 -23.74689,0.490645 -29.2796,5.845393 -3.68901,3.57034 -5.20352,7.840446 -5.14366,14.502305 0.0889,9.889796 6.5204,16.561312 18.70603,19.404026 3.19672,0.745744 7.61138,2.348376 9.81037,3.561407 10.69906,5.901937 8.83119,23.808232 -2.82112,27.04466 -1.89315,0.525821 -11.99396,0.958394 -22.44626,0.961272 l -19.00417,0.0052 0,-7.038582 z m 98.44431,4.919433 c -5.46587,-3.632364 -7.41198,-8.918771 -7.41198,-20.133928 l 0,-9.655161 21.58498,0 21.58498,0 0,7.038582 0,7.038582 -15.39701,0 c -14.93498,0 -15.3823,0.05633 -14.90619,1.876955 0.47007,1.797565 1.2801,1.876955 19.15093,1.876955 l 18.6601,0 0,7.038582 0,7.038582 -20.03849,0 c -19.23476,0 -20.16638,-0.085 -23.22732,-2.119149 z m 74.44032,0.558383 c -7.47437,-3.683971 -8.92766,-9.719628 -8.4995,-35.299196 0.37282,-22.273585 1.14723,-24.937638 8.31335,-28.59885 3.95737,-2.021835 5.12166,-2.111574 27.3961,-2.111574 l 23.26308,0 0,7.021896 0,7.021898 -22.75808,0.251304 -22.75808,0.251304 0,19.238791 0,19.23879 7.2732,0.274096 c 6.78698,0.255772 7.2732,0.145978 7.2732,-1.642336 0,-1.733033 -0.58377,-1.916431 -6.1001,-1.916431 l -6.1001,0 0,-7.038582 0,-7.038582 13.60792,0 13.60792,0 0,15.954119 0,15.954119 -15.71949,-0.02137 c -12.55356,-0.01706 -16.33981,-0.327104 -18.79942,-1.539397 z m -81.8523,-43.756543 c 0,-8.162681 0.3264,-10.293948 2.11157,-13.787604 3.97315,-7.775626 4.57818,-7.954986 27.98593,-8.296472 l 20.58029,-0.300238 0,7.1042 0,7.104201 -18.2673,0 c -17.3068,0 -18.32011,0.09869 -19.27181,1.876955 -0.98569,1.84178 -0.7137,1.876955 14.51339,1.876955 l 15.51789,0 0,7.038582 0,7.038582 -21.58498,0 -21.58498,0 0,-9.655161 z"
       id="path3348"
       inkscape:connector-curvature="0" />
  </g>
</svg>
