<?xml version="1.0" encoding="UTF-8" standalone="no"?>
<!-- Created with Inkscape (http://www.inkscape.org/) -->

<svg
   xmlns:dc="http://purl.org/dc/elements/1.1/"
   xmlns:cc="http://creativecommons.org/ns#"
   xmlns:rdf="http://www.w3.org/1999/02/22-rdf-syntax-ns#"
   xmlns:svg="http://www.w3.org/2000/svg"
   xmlns="http://www.w3.org/2000/svg"
   xmlns:sodipodi="http://sodipodi.sourceforge.net/DTD/sodipodi-0.dtd"
   xmlns:inkscape="http://www.inkscape.org/namespaces/inkscape"
   id="svg3374"
   version="1.1"
   inkscape:version="0.91 r13725"
   width="530.625"
   height="173.4375"
   viewBox="0 0 530.625 173.4375"
   sodipodi:docname="logo.svg">
  <metadata
     id="metadata3380">
    <rdf:RDF>
      <cc:Work
         rdf:about="">
        <dc:format>image/svg+xml</dc:format>
        <dc:type
           rdf:resource="http://purl.org/dc/dcmitype/StillImage" />
        <dc:title></dc:title>
      </cc:Work>
    </rdf:RDF>
  </metadata>
  <defs
     id="defs3378" />
  <sodipodi:namedview
     pagecolor="#ffffff"
     bordercolor="#666666"
     borderopacity="1"
     objecttolerance="10"
     gridtolerance="10"
     guidetolerance="10"
     inkscape:pageopacity="0"
     inkscape:pageshadow="2"
     inkscape:window-width="1366"
     inkscape:window-height="721"
     id="namedview3376"
     showgrid="false"
     inkscape:zoom="0.5540636"
     inkscape:cx="265.3125"
     inkscape:cy="86.71875"
     inkscape:window-x="-4"
     inkscape:window-y="-4"
     inkscape:window-maximized="1"
     inkscape:current-layer="svg3374" />
  <path
     style="fill:#040404"
     d="m 225.9255,170.72239 c 0,-0.45548 0.83359,-1.04615 1.85242,-1.31257 1.01882,-0.26643 2.35404,-1.58536 2.96713,-2.93096 0.96718,-2.12271 0.66445,-3.5931 -2.28719,-11.10929 -1.87105,-4.76452 -3.67327,-9.40105 -4.00494,-10.3034 -0.40302,-1.09649 -0.14149,-1.64062 0.78857,-1.64062 0.90201,0 2.46196,2.96843 4.43401,8.4375 1.67333,4.64062 3.15406,8.4375 3.2905,8.4375 0.13645,0 1.6551,-3.79688 3.3748,-8.4375 1.71968,-4.64063 3.66569,-8.4375 4.32445,-8.4375 0.65876,0 1.19775,0.11986 1.19775,0.26636 0,1.59423 -9.60837,24.68762 -10.83613,26.04429 -1.66467,1.83944 -5.10137,2.50382 -5.10137,0.98619 z m -52.5,-20.65622 0,-14.14062 7.2914,0 c 8.33498,0 10.90599,1.22133 11.78102,5.59646 1.23851,6.19254 -2.55347,9.40354 -11.10495,9.40354 l -5.0693,0 -0.27721,6.25341 c -0.17551,3.95923 -0.70714,6.39546 -1.44909,6.64063 -0.90282,0.29831 -1.17187,-2.8594 -1.17187,-13.75342 z m 14.94761,-2.4827 c 0.47147,-0.48217 1.13456,-2.00026 1.47355,-3.37355 0.99751,-4.04112 -2.12564,-6.40937 -8.45241,-6.40937 l -5.15625,0 0,5.73768 0,5.73768 5.63896,-0.40789 c 3.10142,-0.22434 6.02469,-0.80238 6.49615,-1.28455 z m 8.17739,15.84208 c -0.34375,-0.34375 -0.625,-6.67187 -0.625,-14.0625 0,-11.31944 0.22165,-13.4375 1.40625,-13.4375 1.1875,0 1.40625,2.1875 1.40625,14.0625 0,12.84967 -0.38855,15.23646 -2.1875,13.4375 z m 8.75,-1.25 c -4.15094,-4.15094 -1.55192,-8.27969 6.18415,-9.82404 3.92568,-0.78369 5.62524,-1.57344 5.84639,-2.71671 0.90106,-4.65816 -6.83886,-6.09867 -9.93455,-1.84898 -1.10659,1.51911 -2.05335,2.09218 -2.43534,1.4741 -0.34371,-0.55614 0.35802,-2.15391 1.55939,-3.55061 1.73932,-2.02207 2.99844,-2.53944 6.1802,-2.53944 5.97396,0 7.06806,1.62322 7.46159,11.07003 0.18182,4.36461 0.70916,7.93565 1.17188,7.93565 0.46271,0 0.84129,0.42187 0.84129,0.9375 0,1.51926 -3.49819,1.07094 -4.11133,-0.52689 -0.50942,-1.32752 -0.75735,-1.32752 -2.65266,0 -2.93289,2.05427 -7.84563,1.85477 -10.11101,-0.41061 z m 11.01255,-2.50153 c 0.64622,-0.88376 1.17495,-2.74069 1.17495,-4.1265 0,-2.51174 -0.014,-2.51673 -4.45313,-1.58757 -5.10481,1.0685 -6.79687,2.1621 -6.79687,4.39289 0,0.86499 0.52734,2.11128 1.17187,2.76954 1.55835,1.59153 7.3719,0.64579 8.90318,-1.44836 z m 32.81556,3.36393 c -1.44464,-0.84142 -4.45311,-5.50948 -4.45311,-6.90959 0,-1.58301 2.99378,-0.16057 3.72832,1.77144 2.43834,6.41331 14.08418,5.34861 14.08418,-1.28762 0,-3.34834 -1.50037,-4.57271 -7.5634,-6.17211 -5.27049,-1.39033 -9.3116,-4.48632 -9.3116,-7.13383 0,-5.13017 3.92028,-8.31819 10.22877,-8.31819 3.97835,0 8.52123,3.56678 8.52123,6.69034 0,2.52948 -1.77044,2.14422 -2.81889,-0.6134 -2.60492,-6.85146 -14.8644,-3.67936 -12.65718,3.275 0.41531,1.30853 2.45305,2.40743 6.9447,3.7451 7.01741,2.08988 9.46887,4.09878 9.46887,7.75948 0,3.69932 -0.91192,5.3321 -3.81705,6.83441 -3.0376,1.5708 -9.93041,1.77107 -12.35484,0.35897 z m 22.71119,-1.39218 c -0.50287,-1.32263 -0.9143,-5.54138 -0.9143,-9.375 0,-5.57075 -0.28235,-6.97022 -1.40625,-6.97022 -0.77344,0 -1.40625,-0.42188 -1.40625,-0.9375 0,-0.51563 0.63281,-0.9375 1.40625,-0.9375 0.9375,0 1.40625,-0.9375 1.40625,-2.8125 0,-1.875 0.46875,-2.8125 1.40625,-2.8125 0.9375,0 1.40625,0.9375 1.40625,2.8125 0,2.1875 0.41666,2.8125 1.875,2.8125 1.03125,0 1.875,0.42187 1.875,0.9375 0,0.51562 -0.84375,0.9375 -1.875,0.9375 -1.72955,0 -1.875,0.625 -1.875,8.05652 0,7.26808 0.1835,8.1045 1.875,8.54684 2.65957,0.69549 2.327,2.14664 -0.49195,2.14664 -1.67815,0 -2.63303,-0.69982 -3.28125,-2.40478 z m 11.4818,0.94537 c -2.54068,-1.77956 -2.77351,-6.0684 -0.44298,-8.15972 0.90235,-0.80971 3.32813,-1.75569 5.39063,-2.10216 6.09131,-1.02324 7.03125,-1.44491 7.03125,-3.15439 0,-4.53706 -7.1343,-5.44864 -10.1579,-1.29791 -2.19729,3.01641 -3.74789,2.22668 -2.21852,-1.1299 1.2582,-2.76147 6.02528,-4.28474 9.96675,-3.18477 3.8174,1.06534 4.25397,2.13261 4.27032,10.43955 0.0111,5.61017 0.33914,7.41969 1.4206,7.83468 2.04408,0.78439 1.7224,2.21403 -0.49817,2.21403 -1.04744,0 -2.14493,-0.62675 -2.43889,-1.39278 -0.47277,-1.23203 -0.76395,-1.23203 -2.52292,0 -2.58278,1.80905 -7.16677,1.77788 -9.80017,-0.0667 z m 9.67776,-2.71673 c 1.26562,-1.26563 2.30114,-3.3355 2.30114,-4.59973 0,-2.46491 0.25336,-2.44853 -7.62692,-0.49299 -3.83619,0.95198 -5.24339,3.76462 -3.00391,6.0041 2.07972,2.07973 5.73896,1.67936 8.32969,-0.91138 z m 12.59044,1.77136 c -0.50287,-1.32263 -0.9143,-5.54138 -0.9143,-9.375 0,-5.57075 -0.28235,-6.97022 -1.40625,-6.97022 -0.77344,0 -1.40625,-0.42188 -1.40625,-0.9375 0,-0.51563 0.63281,-0.9375 1.40625,-0.9375 0.9375,0 1.40625,-0.9375 1.40625,-2.8125 0,-1.875 0.46875,-2.8125 1.40625,-2.8125 0.9375,0 1.40625,0.9375 1.40625,2.8125 0,2.1875 0.41666,2.8125 1.875,2.8125 1.03125,0 1.875,0.42187 1.875,0.9375 0,0.51562 -0.84375,0.9375 -1.875,0.9375 -1.72955,0 -1.875,0.625 -1.875,8.05652 0,7.26808 0.1835,8.1045 1.875,8.54684 2.65957,0.69549 2.327,2.14664 -0.49195,2.14664 -1.67815,0 -2.63303,-0.69982 -3.28125,-2.40478 z m 10.3357,-7.8296 c 0,-8.71296 0.23217,-10.39062 1.43797,-10.39062 1.21905,0 1.39745,1.52261 1.17187,10.00186 -0.18546,6.97104 -0.6212,10.11966 -1.43797,10.39062 -0.8904,0.29539 -1.17187,-2.10701 -1.17187,-10.00186 z m 10.97555,8.34472 c -3.22787,-2.53904 -4.58142,-7.00187 -3.51871,-11.60163 0.99794,-4.31944 2.43546,-5.9452 6.18137,-6.99082 6.93782,-1.93658 11.67429,2.38996 11.67429,10.66392 0,3.54399 -0.50129,4.83871 -2.74039,7.0778 -3.32507,3.32507 -8.01367,3.66903 -11.59656,0.85073 z m 8.98158,-1.31617 c 2.13051,-1.61603 3.60915,-6.69491 2.86469,-9.8397 -0.88964,-3.75802 -3.10508,-5.70447 -6.49283,-5.70447 -5.77569,0 -8.73626,6.95909 -5.56747,13.08685 2.01076,3.88839 5.92868,4.93536 9.19561,2.45732 z m 9.10537,-7.10667 c 0,-5.67188 0.38672,-10.3125 0.85938,-10.3125 0.47265,0 1.03685,0.52734 1.25379,1.17187 0.30885,0.91767 0.72704,0.89732 1.92776,-0.0937 0.84335,-0.69609 3.10985,-1.26562 5.03667,-1.26562 5.53873,0 6.8599,2.40334 6.8599,12.47886 0,4.5835 -0.36897,8.33364 -0.81994,8.33364 -0.45096,0 -1.00653,-3.5551 -1.23459,-7.90023 -0.45698,-8.7065 -1.52665,-10.84977 -5.41496,-10.84977 -4.37583,0 -6.07574,2.98769 -6.45529,11.34554 -0.50393,11.09671 -2.01272,8.91676 -2.01272,-2.90809 z M 315.9255,137.3318 c 0,-0.77344 0.63281,-1.40625 1.40625,-1.40625 0.77344,0 1.40625,0.63281 1.40625,1.40625 0,0.77344 -0.63281,1.40625 -1.40625,1.40625 -0.77344,0 -1.40625,-0.63281 -1.40625,-1.40625 z M 5.613,82.488046 l 0,-28.125 78.75,0 78.75,0 0,-16.875 0,-16.875 -78.75,0 -78.75,0 0,-5.625 0,-5.6250001 84.375,0 84.375,0 0,28.1250001 0,28.125 -78.75,0 -78.75,0 0,22.5 0,22.500004 -5.625,0 -5.625,0 0,-28.125004 z m 179.0625,22.500004 0,-5.625004 39.375,0 39.375,0 0,-45 0,-45.0000001 45,0 45,0 0,5.6250001 0,5.625 -39.375,0 -39.375,0 0,45 0,45.000004 -45,0 -45,0 0,-5.625 z m 180.51562,4.7448 c 0.48985,-0.48412 16.50001,-11.678774 35.57813,-24.877034 19.07812,-13.19825 34.6875,-24.39373 34.6875,-24.87884 0,-0.48511 -16.20388,-12.07169 -36.00863,-25.74797 l -36.00863,-24.8659601 11.32837,0 11.32836,0 30.53965,21.1518701 c 16.79679,11.63353 30.52876,21.44213 30.51545,21.79688 -0.0133,0.35475 -2.12267,2.06849 -4.6875,3.80832 -2.56482,1.73982 -4.66332,3.52954 -4.66332,3.97716 0,0.44763 2.10116,2.1882 4.66926,3.86794 2.56809,1.67975 4.54676,3.44619 4.39705,3.92542 -0.14971,0.47924 -13.85452,10.28783 -30.45512,21.79688 l -30.18292,20.925534 -10.96413,0 c -6.84101,0 -10.62922,-0.331 -10.07352,-0.8802 z m 115.7287,-19.085554 c -15.72969,-10.9329 -29.59113,-20.58207 -30.8032,-21.4426 l -2.20376,-1.56461 5.25632,-3.49 c 2.89098,-1.9195 5.25632,-3.79242 5.25632,-4.16204 0,-0.36962 -2.34819,-2.23115 -5.21821,-4.13673 l -5.21821,-3.46469 2.17134,-1.65434 c 1.19423,-0.90988 15.12671,-10.60372 30.96106,-21.54187 l 28.78973,-19.8875301 10.93145,0.26445 10.93144,0.26446 -35.7368,24.7326201 c -19.65524,13.60293 -35.7368,25.06119 -35.7368,25.46279 0,0.4016 15.71484,11.58224 34.92187,24.84585 19.20704,13.26361 35.32266,24.481134 35.8125,24.927824 0.50669,0.46205 -3.93898,0.79325 -10.3125,0.7683 l -11.20312,-0.0439 -28.59943,-19.877994 z"
     id="path3388"
     inkscape:connector-curvature="0" />
</svg>
