<?xml version="1.0" encoding="UTF-8" standalone="no"?>
<!-- Created with Inkscape (http://www.inkscape.org/) -->

<svg
   xmlns:dc="http://purl.org/dc/elements/1.1/"
   xmlns:cc="http://creativecommons.org/ns#"
   xmlns:rdf="http://www.w3.org/1999/02/22-rdf-syntax-ns#"
   xmlns:svg="http://www.w3.org/2000/svg"
   xmlns="http://www.w3.org/2000/svg"
   xmlns:sodipodi="http://sodipodi.sourceforge.net/DTD/sodipodi-0.dtd"
   xmlns:inkscape="http://www.inkscape.org/namespaces/inkscape"
   id="svg3542"
   version="1.1"
   inkscape:version="0.91 r13725"
   width="750"
   height="88.125"
   viewBox="0 0 750 88.125"
   sodipodi:docname="logo.svg">
  <metadata
     id="metadata3548">
    <rdf:RDF>
      <cc:Work
         rdf:about="">
        <dc:format>image/svg+xml</dc:format>
        <dc:type
           rdf:resource="http://purl.org/dc/dcmitype/StillImage" />
        <dc:title></dc:title>
      </cc:Work>
    </rdf:RDF>
  </metadata>
  <defs
     id="defs3546" />
  <sodipodi:namedview
     pagecolor="#ffffff"
     bordercolor="#666666"
     borderopacity="1"
     objecttolerance="10"
     gridtolerance="10"
     guidetolerance="10"
     inkscape:pageopacity="0"
     inkscape:pageshadow="2"
     inkscape:window-width="1366"
     inkscape:window-height="721"
     id="namedview3544"
     showgrid="false"
     inkscape:zoom="0.392"
     inkscape:cx="375"
     inkscape:cy="44.0625"
     inkscape:window-x="-4"
     inkscape:window-y="-4"
     inkscape:window-maximized="1"
     inkscape:current-layer="svg3542" />
  <g
     id="g3552"
     transform="translate(-1.9105583e-4,1.9825534e-4)">
    <path
       style="fill:#d5ae07"
       d="m 638.4375,80.961608 c -2.32031,-0.832351 -5.56928,-2.520007 -7.21993,-3.750346 -2.8472,-2.1222 -2.97297,-2.475144 -2.45144,-6.878686 0.5189,-4.381349 0.36384,-4.827603 -2.76445,-7.955892 -1.8228,-1.822801 -3.93398,-3.314184 -4.69152,-3.314184 -1.95657,0 -2.66241,-5.664977 -1.49363,-11.987543 2.13227,-11.53448 9.6904,-21.311094 20.33177,-26.299575 4.70228,-2.204345 6.46417,-2.494132 15.1642,-2.494132 8.71788,0 10.45687,0.287371 15.20444,2.512553 2.94837,1.381904 7.4261,4.444502 9.95048,6.805774 3.90671,3.654263 4.74833,5.082574 5.65494,9.596931 0.58582,2.917039 1.06514,8.983811 1.06514,13.481717 0,8.166204 -0.006,8.185938 -4.04434,13.671854 -2.22438,3.021615 -6.38861,7.108406 -9.25383,9.081758 -10.83274,7.460796 -26.41695,10.770797 -35.45183,7.529771 z M 660.74048,61.960859 C 667.47916,58.494641 671.25,52.852146 671.25,46.234925 c 0,-2.603808 -0.77392,-4.104426 -3.54686,-6.87738 -2.96283,-2.962824 -4.41335,-3.655126 -8.80894,-4.204319 -9.87353,-1.233616 -17.38211,2.209068 -20.57861,9.435287 -2.91905,6.598971 -0.54967,13.238303 6.21566,17.417212 3.77363,2.330945 11.63269,2.309192 16.20923,-0.04487 z"
       id="path3566"
       inkscape:connector-curvature="0" />
    <path
       style="fill:#68a31c"
       d="m 586.39707,83.198662 c -2.23558,-1.922965 -2.57725,-3.1716 -3.78391,-13.828125 -0.72953,-6.442858 -1.68746,-18.25335 -2.12871,-26.245537 -0.6787,-12.292674 -1.21357,-15.692055 -3.47203,-22.066377 l -2.66972,-7.535127 1.81303,-3.7148732 c 3.34091,-6.8455117 9.33287,-7.6325263 14.99577,-1.9696241 4.58517,4.5851743 5.98612,10.7218573 6.5538,28.7082723 0.56184,17.801111 1.02275,25.305772 1.58894,25.87197 0.21896,0.218963 2.70564,-0.395792 5.52595,-1.366121 11.39761,-3.921352 17.41304,-3.40038 21.86788,1.89389 3.39542,4.035234 3.0959,10.565918 -0.59017,12.86791 -1.04869,0.654915 -5.76769,1.963633 -10.48668,2.908263 -4.71898,0.94463 -11.53309,2.804767 -15.14247,4.133639 -8.10091,2.982531 -10.92202,3.051063 -14.07168,0.341841 z M 687.48757,51.5625 c 0,-3.351563 0.17015,-4.722656 0.37812,-3.046875 0.20795,1.675781 0.20795,4.417969 0,6.09375 -0.20797,1.675781 -0.37812,0.304687 -0.37812,-3.046875 z m -2.10105,-17.265625 c -0.0407,-0.988281 0.18087,-1.541992 0.49239,-1.230469 0.31152,0.311524 0.34482,1.120117 0.074,1.796875 -0.29927,0.747875 -0.52142,0.525728 -0.5664,-0.566406 z"
       id="path3564"
       inkscape:connector-curvature="0" />
    <path
       style="fill:#5f5f5f"
       d="m 43.378906,85.683593 c 0.311524,-0.311522 1.120117,-0.344829 1.796875,-0.07402 0.747875,0.299274 0.525728,0.521421 -0.566406,0.566406 -0.988281,0.04071 -1.541992,-0.18087 -1.230469,-0.492393 z m 19.199219,-1.062257 c 2.707031,-0.189377 7.136719,-0.189377 9.84375,0 2.707031,0.189377 0.492187,0.344322 -4.921875,0.344322 -5.414063,0 -7.628906,-0.154945 -4.921875,-0.344322 z m 48.794515,-0.007 c 4.27839,-0.174107 11.02839,-0.173137 15,0.0022 3.97161,0.175294 0.47111,0.317747 -7.77889,0.31656 -8.25,-0.0012 -11.4995,-0.14461 -7.22111,-0.318718 z m 45.8647,0.01314 c 2.17584,-0.196616 5.97272,-0.198953 8.4375,-0.0052 2.46477,0.19376 0.68453,0.354627 -3.95609,0.357485 -4.64063,0.0028 -6.65726,-0.155674 -4.48141,-0.35229 z m 31.57343,-0.631943 c -0.27795,-0.724352 -0.33224,-2.728258 -0.12061,-4.453125 0.35015,-2.853926 0.39827,-2.780763 0.5348,0.813073 l 0.15004,3.949186 8.67187,0.30936 8.67188,0.30936 -8.70129,0.19457 c -6.74163,0.15075 -8.81513,-0.102039 -9.20669,-1.122433 z m 39.89487,0.614275 c 16.13794,-0.198367 22.18191,-0.577283 22.72002,-1.424392 0.51381,-0.80886 0.73743,-0.663318 0.74749,0.486495 0.0133,1.523682 -1.60617,1.625212 -22.72003,1.424392 l -22.73437,-0.216233 21.98689,-0.270262 z m 55.12248,0.0035 c 5.28516,-0.167107 13.9336,-0.167107 19.21875,0 5.28516,0.167107 0.96094,0.30383 -9.60937,0.30383 -10.57031,0 -14.89453,-0.136723 -9.60938,-0.30383 z m 77.36328,0.132857 c 0.31152,-0.311523 1.12012,-0.34483 1.79688,-0.07402 0.74787,0.299274 0.52573,0.521422 -0.56641,0.566407 -0.98827,0.04071 -1.54199,-0.18087 -1.23047,-0.492394 z m 8.4375,0 c 0.31152,-0.311523 1.12012,-0.34483 1.79688,-0.07402 0.74787,0.299274 0.52573,0.521422 -0.56641,0.566407 -0.98827,0.04071 -1.54199,-0.18087 -1.23047,-0.492394 z m 40.26155,-0.121409 c 2.43193,-0.192419 6.65068,-0.194415 9.375,-0.0044 2.72432,0.189976 0.73455,0.34741 -4.4217,0.34985 -5.15625,0.0024 -7.38523,-0.152994 -4.9533,-0.345412 z m 99.85733,0.07287 c 0.63472,-0.256802 1.90034,-0.272434 2.8125,-0.03473 0.91216,0.237698 0.39284,0.447809 -1.15403,0.466914 -1.54688,0.01911 -2.29318,-0.175373 -1.65847,-0.432176 z m 185.64284,-0.006 c 0.64454,-0.260074 1.69922,-0.260074 2.34375,0 0.64454,0.260074 0.11719,0.472861 -1.17187,0.472861 -1.28906,0 -1.81641,-0.212787 -1.17188,-0.472861 z M 274.83552,81.5625 c 0,-1.289063 0.2128,-1.816406 0.47287,-1.171875 0.26007,0.644531 0.26007,1.699219 0,2.34375 -0.26007,0.644531 -0.47287,0.117187 -0.47287,-1.171875 z m 148.9885,-0.390625 c -0.0407,-0.988281 0.18087,-1.541992 0.49239,-1.230469 0.31152,0.311524 0.34482,1.120117 0.074,1.796875 -0.29927,0.747875 -0.52142,0.525728 -0.5664,-0.566406 z m 303.55639,-0.3125 c -1.16613,-1.486927 -1.13297,-1.520087 0.35396,-0.353958 1.56165,1.224721 2.05827,1.994583 1.28667,1.994583 -0.19467,0 -0.93296,-0.738281 -1.64063,-1.640625 z M 205.53,78.75 c 0,-1.804688 0.19294,-2.542969 0.42875,-1.640625 0.2358,0.902344 0.2358,2.378906 0,3.28125 C 205.72294,81.292969 205.53,80.554687 205.53,78.75 Z m -102.25698,0 c 0,-1.289063 0.2128,-1.816406 0.47287,-1.171875 0.26007,0.644531 0.26007,1.699219 0,2.34375 -0.26007,0.644531 -0.47287,0.117187 -0.47287,-1.171875 z m 242.19573,-1.875 c -1.482,-1.546875 -2.48361,-2.8125 -2.22579,-2.8125 0.25781,0 1.68129,1.265625 3.16329,2.8125 1.482,1.546875 2.48361,2.8125 2.22579,2.8125 -0.25781,0 -1.68129,-1.265625 -3.16329,-2.8125 z M 11.199532,75.234375 7.96875,71.71875 11.484375,74.949532 C 13.417969,76.726462 15,78.308493 15,78.465157 c 0,0.715893 -0.793327,0.04148 -3.800468,-3.230782 z m 241.061988,1.25 c -0.0407,-0.988281 0.18087,-1.541992 0.49239,-1.230469 0.31152,0.311524 0.34482,1.120117 0.074,1.796875 -0.29927,0.747875 -0.52142,0.525728 -0.5664,-0.566406 z m 213.55639,-0.3125 c -1.16613,-1.486927 -1.13297,-1.520087 0.35396,-0.353958 1.56165,1.224721 2.05827,1.994583 1.28667,1.994583 -0.19467,0 -0.93296,-0.738281 -1.64063,-1.640625 z M 747.37027,75.46875 c -0.0191,-1.546875 0.17536,-2.293185 0.43217,-1.658468 0.2568,0.634719 0.27243,1.900344 0.0348,2.8125 -0.23774,0.912158 -0.44785,0.392843 -0.46695,-1.154032 z M 275.77302,75 c 0,-1.289063 0.2128,-1.816406 0.47287,-1.171875 0.26007,0.644531 0.26007,1.699219 0,2.34375 -0.26007,0.644531 -0.47287,0.117187 -0.47287,-1.171875 z m 148.9885,-1.328125 c -0.0407,-0.988281 0.18087,-1.541992 0.49239,-1.230469 0.31152,0.311524 0.34482,1.120117 0.074,1.796875 -0.29927,0.747875 -0.52142,0.525728 -0.5664,-0.566406 z m -216.5625,-0.9375 c -0.0407,-0.988281 0.18086,-1.541992 0.49239,-1.230469 0.31152,0.311524 0.34482,1.120117 0.074,1.796875 -0.29927,0.747875 -0.52142,0.525728 -0.5664,-0.566406 z m 508.86889,-0.3125 c -1.16613,-1.486927 -1.13297,-1.520087 0.35396,-0.353958 1.56165,1.224721 2.05827,1.994583 1.28667,1.994583 -0.19467,0 -0.93296,-0.738281 -1.64063,-1.640625 z M 102.33552,71.25 c 0,-1.289063 0.2128,-1.816406 0.47287,-1.171875 0.26007,0.644531 0.26007,1.699219 0,2.34375 -0.26007,0.644531 -0.47287,0.117187 -0.47287,-1.171875 z m 150.9375,-1.875 c 0,-1.289063 0.2128,-1.816406 0.47287,-1.171875 0.26007,0.644531 0.26007,1.699219 0,2.34375 -0.26007,0.644531 -0.47287,0.117187 -0.47287,-1.171875 z M 119.0625,69.43033 c 0,-0.485194 0.41705,-1.139918 0.92677,-1.454941 0.53143,-0.328443 0.68859,0.04787 0.36844,0.882171 -0.62324,1.624141 -1.29521,1.9213 -1.29521,0.57277 z m 68.70563,-4.274078 c 0.007,-2.578125 0.18912,-3.521543 0.4046,-2.096484 0.21549,1.425058 0.20973,3.534433 -0.0128,4.6875 -0.22257,1.153066 -0.39888,-0.01289 -0.39185,-2.591016 z M 276.71052,67.5 c 0,-1.289063 0.2128,-1.816406 0.47287,-1.171875 0.26007,0.644531 0.26007,1.699219 0,2.34375 -0.26007,0.644531 -0.47287,0.117187 -0.47287,-1.171875 z m 434.73239,0.234375 c -1.16613,-1.486927 -1.13297,-1.520087 0.35396,-0.353958 1.56165,1.224721 2.05827,1.994583 1.28667,1.994583 -0.19467,0 -0.93296,-0.738281 -1.64063,-1.640625 z m -676.070128,0.08818 c 0.634719,-0.256803 1.900344,-0.272434 2.8125,-0.03473 0.912158,0.237696 0.392843,0.447808 -1.154032,0.466913 -1.546875,0.01911 -2.293185,-0.175373 -1.658468,-0.432176 z m 457.049088,-0.068 c 1.9336,-0.202261 5.09766,-0.202261 7.03125,0 1.9336,0.20226 0.35157,0.367746 -3.51562,0.367746 -3.86719,0 -5.44922,-0.165486 -3.51563,-0.367746 z M 64.07351,66.053318 c -0.30533,-0.795676 -0.345669,-1.656159 -0.08964,-1.912185 0.256026,-0.256026 0.690523,0.394981 0.965549,1.446683 0.584203,2.233996 -0.06489,2.57896 -0.875906,0.465501 z m 361.62551,0.118557 c -0.0407,-0.988281 0.18087,-1.541992 0.49239,-1.230469 0.31152,0.311524 0.34482,1.120117 0.074,1.796875 -0.29927,0.747875 -0.52142,0.525728 -0.5664,-0.566406 z m -216.5625,-0.9375 c -0.0407,-0.988281 0.18086,-1.541992 0.49239,-1.230469 0.31152,0.311524 0.34482,1.120117 0.074,1.796875 -0.29927,0.747875 -0.52142,0.525728 -0.5664,-0.566406 z m 85.3125,0 c -0.0407,-0.988281 0.18087,-1.541992 0.49239,-1.230469 0.31152,0.311524 0.34482,1.120117 0.074,1.796875 -0.29927,0.747875 -0.52142,0.525728 -0.5664,-0.566406 z m 63.60502,-1.25 -2.27279,-2.578125 2.57812,2.272794 c 1.41797,1.250038 2.57813,2.410194 2.57813,2.578125 0,0.735257 -0.75919,0.136852 -2.88346,-2.272794 z m 188.76236,2.011718 c 0.31152,-0.311522 1.12013,-0.344829 1.79688,-0.07402 0.74787,0.299274 0.52573,0.521421 -0.56641,0.566406 -0.98827,0.04071 -1.54199,-0.18087 -1.23047,-0.492393 z M 25.192917,63.984375 c -1.166129,-1.486928 -1.13297,-1.520087 0.353958,-0.353958 0.902344,0.707666 1.640625,1.445948 1.640625,1.640625 0,0.771595 -0.769862,0.274972 -1.994583,-1.286667 z M 204.61142,62.34375 c -0.0104,-2.0625 0.17307,-3.016638 0.40772,-2.120305 0.23464,0.896331 0.24316,2.583831 0.0189,3.75 -0.22425,1.166167 -0.41625,0.432805 -0.42665,-1.629695 z m 109.45108,1.875 c 0.6419,-0.773438 1.37802,-1.40625 1.63583,-1.40625 0.25782,0 -0.0564,0.632812 -0.69833,1.40625 -0.6419,0.773437 -1.37802,1.40625 -1.63583,1.40625 -0.25782,0 0.0564,-0.632813 0.69833,-1.40625 z M 101.32402,62.980342 c -0.0725,-2.13129 -0.24526,-2.169738 -8.425052,-1.875 C 88.3059,61.270841 84.74486,61.089844 84.985546,60.703125 85.226232,60.316406 88.997437,60 93.366002,60 c 8.079568,0 9.785198,0.791895 8.515198,3.953448 -0.26574,0.661541 -0.51648,0.223643 -0.55718,-0.973106 z M 376.875,63.28125 c 0.6419,-0.773438 1.37802,-1.40625 1.63583,-1.40625 0.25782,0 -0.0564,0.632812 -0.69833,1.40625 -0.6419,0.773437 -1.37802,1.40625 -1.63583,1.40625 -0.25782,0 0.0564,-0.632813 0.69833,-1.40625 z M 687.44284,60.9375 c 0,-2.320313 0.18283,-3.269531 0.40628,-2.109375 0.22346,1.160156 0.22346,3.058594 0,4.21875 -0.22345,1.160156 -0.40628,0.210937 -0.40628,-2.109375 z M 705.9375,63.75 c -0.84496,-0.546056 -0.96059,-0.914518 -0.28971,-0.923144 0.6141,-0.0079 1.37729,0.407519 1.69596,0.923144 0.71934,1.16393 0.3948,1.16393 -1.40625,0 z M 118.19902,61.484375 c -0.0407,-0.988281 0.18086,-1.541992 0.49239,-1.230469 0.31152,0.311524 0.34482,1.120117 0.074,1.796875 -0.29927,0.747875 -0.52142,0.525728 -0.5664,-0.566406 z M 40.3125,60.9375 33.28125,60.337796 40.546875,60.168898 c 4.331348,-0.100687 7.265625,0.209718 7.265625,0.768602 0,0.515625 -0.105469,0.861496 -0.234375,0.768602 C 47.449219,61.613208 44.179687,61.267337 40.3125,60.9375 Z M 277.64802,60 c 0,-1.289063 0.2128,-1.816406 0.47287,-1.171875 0.26007,0.644531 0.26007,1.699219 0,2.34375 -0.26007,0.644531 -0.47287,0.117187 -0.47287,-1.171875 z m 148.9885,-1.328125 c -0.0407,-0.988281 0.18087,-1.541992 0.49239,-1.230469 0.31152,0.311524 0.34482,1.120117 0.074,1.796875 -0.29927,0.747875 -0.52142,0.525728 -0.5664,-0.566406 z M 1.9490132,57.734375 c -0.040707,-0.988281 0.1808696,-1.541992 0.4923931,-1.230469 0.3115234,0.311524 0.3448293,1.120117 0.074013,1.796875 -0.2992747,0.747875 -0.5214213,0.525728 -0.5664062,-0.566406 z m 31.8749998,0 c -0.04071,-0.988281 0.18087,-1.541992 0.492394,-1.230469 0.311522,0.311524 0.344829,1.120117 0.07402,1.796875 -0.299274,0.747875 -0.521421,0.525728 -0.566406,-0.566406 z m 30.9375,0 c -0.04071,-0.988281 0.18087,-1.541992 0.492394,-1.230469 0.311522,0.311524 0.344829,1.120117 0.07402,1.796875 -0.299274,0.747875 -0.521421,0.525728 -0.566406,-0.566406 z m 145.312507,0 c -0.0407,-0.988281 0.18086,-1.541992 0.49239,-1.230469 0.31152,0.311524 0.34482,1.120117 0.074,1.796875 -0.29927,0.747875 -0.52142,0.525728 -0.5664,-0.566406 z m 85.3125,0 c -0.0407,-0.988281 0.18087,-1.541992 0.49239,-1.230469 0.31152,0.311524 0.34482,1.120117 0.074,1.796875 -0.29927,0.747875 -0.52142,0.525728 -0.5664,-0.566406 z M 580.59343,53.4375 c 0,-2.835938 0.17575,-3.996094 0.39055,-2.578125 0.21481,1.417969 0.21481,3.738281 0,5.15625 -0.2148,1.417969 -0.39055,0.257812 -0.39055,-2.578125 z m -265.71302,0.234375 c -1.16613,-1.486928 -1.13297,-1.520087 0.35396,-0.353958 1.56165,1.224721 2.05827,1.994583 1.28667,1.994583 -0.19467,0 -0.93296,-0.738281 -1.64063,-1.640625 z M 457.7175,52.5 c 0,-1.804688 0.19294,-2.542969 0.42875,-1.640625 0.2358,0.902344 0.2358,2.378906 0,3.28125 -0.23581,0.902344 -0.42875,0.164062 -0.42875,-1.640625 z m -340.45598,0.546875 c -0.0407,-0.988281 0.18086,-1.541992 0.49239,-1.230469 0.31152,0.311524 0.34482,1.120117 0.074,1.796875 -0.29927,0.747875 -0.52142,0.525728 -0.5664,-0.566406 z m 161.25,0 c -0.0407,-0.988281 0.18087,-1.541992 0.49239,-1.230469 0.31152,0.311524 0.34482,1.120117 0.074,1.796875 -0.29927,0.747875 -0.52142,0.525728 -0.5664,-0.566406 z m -259.687507,-0.9375 c -0.04071,-0.988281 0.18087,-1.541992 0.492394,-1.230469 0.311522,0.311524 0.344829,1.120117 0.07401,1.796875 -0.299274,0.747875 -0.521421,0.525728 -0.566406,-0.566406 z M 186.81784,49.6875 c 0,-2.320313 0.18283,-3.269531 0.40628,-2.109375 0.22346,1.160156 0.22346,3.058594 0,4.21875 -0.22345,1.160156 -0.40628,0.210937 -0.40628,-2.109375 z m 47.28379,2.119389 c 3.20122,-0.182509 8.68559,-0.183851 12.1875,-0.003 3.50192,0.180869 0.88274,0.330196 -5.82038,0.331836 -6.70313,0.0016 -9.56832,-0.146345 -6.36712,-0.328854 z m 66.60149,0.0067 c 2.19141,-0.197377 5.77735,-0.197377 7.96875,0 2.19141,0.197376 0.39844,0.358866 -3.98437,0.358866 -4.38281,0 -6.17578,-0.16149 -3.98438,-0.358866 z m 52.91715,-1.657296 c -0.0191,-1.546875 0.17536,-2.293185 0.43217,-1.658468 0.2568,0.634719 0.27243,1.900344 0.0348,2.8125 -0.23774,0.912158 -0.44785,0.392843 -0.46695,-1.154032 z m 73.95375,1.015625 c -0.0407,-0.988281 0.18087,-1.541992 0.49239,-1.230469 0.31152,0.311524 0.34482,1.120117 0.074,1.796875 -0.29927,0.747875 -0.52142,0.525728 -0.5664,-0.566406 z m -361.875007,-0.9375 c -0.04071,-0.988281 0.18087,-1.541992 0.492394,-1.230469 0.311522,0.311524 0.344829,1.120117 0.07402,1.796875 -0.299274,0.747875 -0.521421,0.525728 -0.566406,-0.566406 z m 465.937507,0 c -0.0407,-0.988281 0.18087,-1.541992 0.49239,-1.230469 0.31152,0.311524 0.34482,1.120117 0.074,1.796875 -0.29927,0.747875 -0.52142,0.525728 -0.5664,-0.566406 z m -130.3125,-1.875 c -0.0407,-0.988281 0.18087,-1.541992 0.49239,-1.230469 0.31152,0.311524 0.34482,1.120117 0.074,1.796875 -0.29927,0.747875 -0.52142,0.525728 -0.5664,-0.566406 z M 203.655,45.9375 c 0,-1.804688 0.19294,-2.542969 0.42875,-1.640625 0.2358,0.902344 0.2358,2.378906 0,3.28125 -0.23581,0.902344 -0.42875,0.164062 -0.42875,-1.640625 z m 48.60652,1.484375 c -0.0407,-0.988281 0.18087,-1.541992 0.49239,-1.230469 0.31152,0.311524 0.34482,1.120117 0.074,1.796875 -0.29927,0.747875 -0.52142,0.525728 -0.5664,-0.566406 z m 132.1875,0 c -0.0407,-0.988281 0.18087,-1.541992 0.49239,-1.230469 0.31152,0.311524 0.34482,1.120117 0.074,1.796875 -0.29927,0.747875 -0.52142,0.525728 -0.5664,-0.566406 z m -365.625007,-0.9375 c -0.04071,-0.988281 0.18087,-1.541992 0.492394,-1.230469 0.311522,0.311524 0.344829,1.120117 0.07401,1.796875 -0.299274,0.747875 -0.521421,0.525728 -0.566406,-0.566406 z M 279.52302,45.9375 c 0,-1.289063 0.2128,-1.816406 0.47287,-1.171875 0.26007,0.644531 0.26007,1.699219 0,2.34375 -0.26007,0.644531 -0.47287,0.117187 -0.47287,-1.171875 z m 57.1135,0.546875 c -0.0407,-0.988281 0.18087,-1.541992 0.49239,-1.230469 0.31152,0.311524 0.34482,1.120117 0.074,1.796875 -0.29927,0.747875 -0.52142,0.525728 -0.5664,-0.566406 z m -220.3125,-0.9375 c -0.0407,-0.988281 0.18086,-1.541992 0.49239,-1.230469 0.31152,0.311524 0.34482,1.120117 0.074,1.796875 -0.29927,0.747875 -0.52142,0.525728 -0.5664,-0.566406 z M 1.9490132,44.609375 c -0.040707,-0.988281 0.1808696,-1.541992 0.4923931,-1.230469 0.3115234,0.311524 0.3448293,1.120117 0.074013,1.796875 -0.2992747,0.747875 -0.5214213,0.525728 -0.5664062,-0.566406 z m 408.7500068,0 c -0.0407,-0.988281 0.18087,-1.541992 0.49239,-1.230469 0.31152,0.311524 0.34482,1.120117 0.074,1.796875 -0.29927,0.747875 -0.52142,0.525728 -0.5664,-0.566406 z m -198.75,-0.9375 c -0.0407,-0.988281 0.18086,-1.541992 0.49239,-1.230469 0.31152,0.311524 0.34482,1.120117 0.074,1.796875 -0.29927,0.747875 -0.52142,0.525728 -0.5664,-0.566406 z m -47.8125,-0.9375 c -0.0407,-0.988281 0.18086,-1.541992 0.49239,-1.230469 0.31152,0.311524 0.34482,1.120117 0.074,1.796875 -0.29927,0.747875 -0.52142,0.525728 -0.5664,-0.566406 z m 190.3125,-0.9375 c -0.0407,-0.988281 0.18087,-1.541992 0.49239,-1.230469 0.31152,0.311524 0.34482,1.120117 0.074,1.796875 -0.29927,0.747875 -0.52142,0.525728 -0.5664,-0.566406 z M 734.0625,39.84375 c 1.74917,-1.804688 3.39125,-3.28125 3.64906,-3.28125 0.25781,0 -0.96239,1.476562 -2.71156,3.28125 -1.74917,1.804687 -3.39125,3.28125 -3.64906,3.28125 -0.25781,0 0.96239,-1.476563 2.71156,-3.28125 z m -480.86348,1.015625 c -0.0407,-0.988281 0.18087,-1.541992 0.49239,-1.230469 0.31152,0.311524 0.34482,1.120117 0.074,1.796875 -0.29927,0.747875 -0.52142,0.525728 -0.5664,-0.566406 z m -68.4828,-0.07813 c 0,-0.515625 0.40894,-1.570313 0.90878,-2.34375 0.49984,-0.773438 0.90878,-0.984375 0.90878,-0.46875 0,0.515625 -0.40894,1.570312 -0.90878,2.34375 -0.49984,0.773437 -0.90878,0.984375 -0.90878,0.46875 z m 200.8327,-2.8125 c -0.0104,-2.0625 0.17307,-3.016638 0.40772,-2.120305 0.23464,0.896331 0.24316,2.583831 0.0189,3.75 -0.22426,1.166167 -0.41626,0.432805 -0.42666,-1.629695 z M 98.585522,38.4375 c 0,-1.289063 0.212794,-1.816406 0.472865,-1.171875 0.260072,0.644531 0.260072,1.699219 0,2.34375 -0.260071,0.644531 -0.472865,0.117187 -0.472865,-1.171875 z m 181.874998,0 c 0,-1.289063 0.2128,-1.816406 0.47287,-1.171875 0.26007,0.644531 0.26007,1.699219 0,2.34375 -0.26007,0.644531 -0.47287,0.117187 -0.47287,-1.171875 z m 405.8635,-0.390625 c -0.0407,-0.988281 0.18087,-1.541992 0.49239,-1.230469 0.31152,0.311524 0.34482,1.120117 0.074,1.796875 -0.29927,0.747875 -0.52142,0.525728 -0.5664,-0.566406 z m -570.9375,-0.9375 c -0.0407,-0.988281 0.18086,-1.541992 0.49239,-1.230469 0.31152,0.311524 0.34482,1.120117 0.074,1.796875 -0.29927,0.747875 -0.52142,0.525728 -0.5664,-0.566406 z m 463.82395,-0.852334 c -0.3488,-1.71077 -0.21814,-2.327209 0.36887,-1.740205 0.49995,0.499951 0.74301,1.692094 0.54014,2.649208 -0.27321,1.288892 -0.50895,1.053146 -0.90901,-0.909003 z m -416.01145,-0.08516 c -0.0407,-0.98828 0.18086,-1.541991 0.49239,-1.230468 0.31152,0.311523 0.34482,1.120117 0.074,1.796875 -0.29927,0.747875 -0.52142,0.525727 -0.5664,-0.566407 z m 49.6875,0 c -0.0407,-0.98828 0.18086,-1.541991 0.49239,-1.230468 0.31152,0.311523 0.34482,1.120117 0.074,1.796875 -0.29927,0.747875 -0.52142,0.525727 -0.5664,-0.566407 z M 202.7175,30 c 0,-1.804688 0.19294,-2.542969 0.42875,-1.640625 0.2358,0.902344 0.2358,2.378906 0,3.28125 C 202.91044,32.542969 202.7175,31.804687 202.7175,30 Z m 78.68052,0.9375 c 0,-1.289063 0.2128,-1.816406 0.47287,-1.171875 0.26007,0.644531 0.26007,1.699219 0,2.34375 -0.26007,0.644531 -0.47287,0.117187 -0.47287,-1.171875 z M 97.60875,31.24855 c -0.05981,-0.602358 -0.381778,-1.867983 -0.715481,-2.8125 -0.470757,-1.33244 -0.346003,-1.476991 0.556668,-0.645006 0.639872,0.589761 0.961838,1.855386 0.715482,2.8125 -0.246357,0.957113 -0.496856,1.247366 -0.556669,0.645006 z m 623.32875,-0.7798 c 0.6419,-0.773438 1.37802,-1.40625 1.63583,-1.40625 0.25782,0 -0.0564,0.632812 -0.69833,1.40625 -0.6419,0.773438 -1.37802,1.40625 -1.63583,1.40625 -0.25782,0 0.0564,-0.632812 0.69833,-1.40625 z m -693.75,-0.9375 c 0.641896,-0.773438 1.378021,-1.40625 1.635833,-1.40625 0.257813,0 -0.05644,0.632812 -0.698333,1.40625 -0.641896,0.773438 -1.378021,1.40625 -1.635833,1.40625 -0.257813,0 0.05644,-0.632812 0.698333,-1.40625 z m 87.26152,0.07812 c -0.0407,-0.988281 0.18086,-1.541992 0.49239,-1.230469 0.31152,0.311524 0.34482,1.120118 0.074,1.796875 -0.29927,0.747875 -0.52142,0.525728 -0.5664,-0.566406 z m 47.8125,0 c -0.0407,-0.988281 0.18086,-1.541992 0.49239,-1.230469 0.31152,0.311524 0.34482,1.120118 0.074,1.796875 -0.29927,0.747875 -0.52142,0.525728 -0.5664,-0.566406 z m 541.98375,-1.01562 c -0.0191,-1.546875 0.17536,-2.293185 0.43217,-1.658468 0.2568,0.634719 0.27243,1.900344 0.0348,2.8125 -0.23774,0.912158 -0.44785,0.392843 -0.46695,-1.154032 z m -405.10875,0.07812 c -0.0407,-0.988281 0.18087,-1.541992 0.49239,-1.230469 0.31152,0.311524 0.34482,1.120118 0.074,1.796875 -0.29927,0.747875 -0.52142,0.525728 -0.5664,-0.566406 z M 487.5,26.71875 c 1.21102,-1.289063 2.41278,-2.34375 2.67059,-2.34375 0.25781,0 -0.52207,1.054687 -1.73309,2.34375 -1.21102,1.289062 -2.41278,2.34375 -2.67059,2.34375 -0.25781,0 0.52207,-1.054688 1.73309,-2.34375 z M 282.33552,24.375 c 0,-1.289063 0.2128,-1.816406 0.47287,-1.171875 0.26007,0.644531 0.26007,1.699219 0,2.34375 -0.26007,0.644531 -0.47287,0.117187 -0.47287,-1.171875 z m 222.85739,0.234375 c -1.16613,-1.486928 -1.13297,-1.520087 0.35396,-0.353958 1.56165,1.224721 2.05827,1.994583 1.28667,1.994583 -0.19467,0 -0.93296,-0.738281 -1.64063,-1.640625 z M 335.8425,22.5 c 0,-1.804688 0.19294,-2.542969 0.42875,-1.640625 0.2358,0.902344 0.2358,2.378906 0,3.28125 -0.23581,0.902344 -0.42875,0.164062 -0.42875,-1.640625 z m 26.97,0.46875 c 0.6419,-0.773438 1.37802,-1.40625 1.63583,-1.40625 0.25782,0 -0.0564,0.632812 -0.69833,1.40625 -0.6419,0.773437 -1.37802,1.40625 -1.63583,1.40625 -0.25782,0 0.0564,-0.632813 0.69833,-1.40625 z m 17.25468,-0.703125 -1.78593,-2.109375 2.10937,1.785926 c 1.16016,0.982259 2.10938,1.931478 2.10938,2.109375 0,0.750237 -0.75449,0.196366 -2.43282,-1.785926 z m 326.10469,1.463132 c 0.90235,-0.235807 2.37891,-0.235807 3.28125,0 0.90235,0.235807 0.16407,0.42874 -1.64062,0.42874 -1.80469,0 -2.54297,-0.192933 -1.64063,-0.42874 z M 113.51152,21.171875 c -0.0407,-0.988281 0.18086,-1.541992 0.49239,-1.230469 0.31152,0.311524 0.34482,1.120117 0.074,1.796875 -0.29927,0.747875 -0.52142,0.525728 -0.5664,-0.566406 z M 259.83552,18.75 c 0,-1.289063 0.2128,-1.816406 0.47287,-1.171875 0.26007,0.644531 0.26007,1.699219 0,2.34375 -0.26007,0.644531 -0.47287,0.117187 -0.47287,-1.171875 z M 52.265625,19.025875 c 1.160156,-0.223456 3.058594,-0.223456 4.21875,0 1.160156,0.223456 0.210937,0.406284 -2.109375,0.406284 -2.320313,0 -3.269531,-0.182828 -2.109375,-0.406284 z M 283.27302,16.875 c 0,-1.289062 0.2128,-1.816406 0.47287,-1.171875 0.26007,0.644531 0.26007,1.699219 0,2.34375 -0.26007,0.644531 -0.47287,0.117187 -0.47287,-1.171875 z m -122.8865,-1.328125 c -0.0407,-0.988281 0.18086,-1.541992 0.49239,-1.230469 0.31152,0.311524 0.34482,1.120117 0.074,1.796875 -0.29927,0.747875 -0.52142,0.525728 -0.5664,-0.566406 z m 41.4124,-1.953125 c -0.0104,-2.0625 0.17307,-3.016638 0.40772,-2.120305 0.23464,0.896331 0.24316,2.583831 0.0189,3.75 -0.22425,1.166167 -0.41625,0.432805 -0.42665,-1.629695 z M 70.386513,14.609375 c -0.04071,-0.988281 0.18087,-1.541992 0.492394,-1.230469 0.311522,0.311524 0.344829,1.120117 0.07402,1.796875 -0.299274,0.747875 -0.521421,0.525728 -0.566406,-0.566406 z m 145.312507,0 c -0.0407,-0.988281 0.18086,-1.541992 0.49239,-1.230469 0.31152,0.311524 0.34482,1.120117 0.074,1.796875 -0.29927,0.747875 -0.52142,0.525728 -0.5664,-0.566406 z M 18.75,13.59375 c 0.641896,-0.773437 1.378021,-1.40625 1.635833,-1.40625 0.257813,0 -0.05644,0.632813 -0.698333,1.40625 C 19.045604,14.367188 18.309479,15 18.051667,15 17.793854,15 18.108104,14.367188 18.75,13.59375 Z m 93.82402,-0.859375 c -0.0407,-0.988281 0.18086,-1.541992 0.49239,-1.230469 0.31152,0.311524 0.34482,1.120117 0.074,1.796875 -0.29927,0.747875 -0.52142,0.525728 -0.5664,-0.566406 z m 148.199,-0.546875 c 0,-1.289062 0.2128,-1.816406 0.47287,-1.171875 0.26007,0.644531 0.26007,1.699219 0,2.34375 -0.26007,0.644531 -0.47287,0.117188 -0.47287,-1.171875 z m 23.4375,-2.8125 c 0,-1.2890625 0.2128,-1.8164063 0.47287,-1.171875 0.26007,0.6445313 0.26007,1.6992188 0,2.34375 -0.26007,0.644531 -0.47287,0.117188 -0.47287,-1.171875 z m 46.60739,0.234375 c -1.16613,-1.4869271 -1.13297,-1.5200868 0.35396,-0.3539581 1.56165,1.2247211 2.05827,1.9945831 1.28667,1.9945831 -0.19467,0 -0.93296,-0.738281 -1.64063,-1.640625 z m -171.36889,-0.625 c -0.0407,-0.9882812 0.18086,-1.5419922 0.49239,-1.2304688 0.31152,0.3115235 0.34482,1.1201172 0.074,1.7968751 -0.29927,0.7478747 -0.52142,0.5257277 -0.5664,-0.5664063 z m -88.125007,-0.9375 c -0.04071,-0.9882812 0.18087,-1.5419922 0.492394,-1.2304688 0.311522,0.3115235 0.344829,1.1201172 0.07402,1.7968751 C 71.591148,9.3611557 71.369001,9.139009 71.324016,8.046875 Z m 145.312507,-0.9375 c -0.0407,-0.9882812 0.18086,-1.5419922 0.49239,-1.2304688 0.31152,0.3115235 0.34482,1.1201172 0.074,1.796875 -0.29927,0.7478745 -0.52142,0.5257278 -0.5664,-0.5664062 z M 261.71052,5.625 c 0,-1.2890625 0.2128,-1.8164062 0.47287,-1.171875 0.26007,0.6445312 0.26007,1.6992187 0,2.34375 -0.26007,0.6445312 -0.47287,0.1171875 -0.47287,-1.171875 z m -150.074,-0.390625 c -0.0407,-0.9882812 0.18086,-1.5419922 0.49239,-1.2304688 0.31152,0.3115235 0.34482,1.1201172 0.074,1.796875 -0.29927,0.7478745 -0.52142,0.5257278 -0.5664,-0.5664062 z M 707.12227,4.9522676 c 1.42505,-0.2154885 3.53443,-0.2097299 4.6875,0.012797 1.15306,0.2225268 -0.0128,0.3988356 -2.59102,0.3917973 -2.57813,-0.00704 -3.52154,-0.1891058 -2.09648,-0.4045942 z M 88.949547,2.5470202 C 89.355262,2.1431936 94.714622,1.934175 100.85923,2.0825342 L 112.03125,2.3522781 100.12157,2.816764 C 93.571241,3.0722313 88.543833,2.9508466 88.949547,2.5470202 Z M 149.53125,2.8125 l -9.375,-0.5743753 9.60937,-0.1815624 c 5.9023,-0.1115196 9.60938,0.1801044 9.60938,0.7559377 0,0.515625 -0.10547,0.855797 -0.23438,0.7559377 C 159.01172,3.4685784 154.6875,3.1284065 149.53125,2.8125 Z M 284.99823,2.578125 c 9.4e-4,-0.3867187 7.91193,-0.6204964 17.57989,-0.5195059 17.58079,0.183647 15.50332,0.5168319 -6.09552,0.9775979 -6.31738,0.1347682 -11.48535,-0.071373 -11.48437,-0.458092 z M 403.125,2.8125 393.28125,2.2420235 402.83529,2.0585118 c 5.56559,-0.1069025 9.79593,0.2078597 10.13346,0.7539882 0.31867,0.515625 0.44904,0.8549198 0.28971,0.7539882 C 413.09912,3.4655568 408.53906,3.1262621 403.125,2.8125 Z m 42.1875,0 -9.84375,-0.5704765 9.55404,-0.1835117 c 5.56559,-0.1069025 9.79593,0.2078597 10.13346,0.7539882 0.31867,0.515625 0.44904,0.8549198 0.28971,0.7539882 C 455.28662,3.4655568 450.72656,3.1262621 445.3125,2.8125 Z M 46.191406,2.2460937 c 0.311524,-0.3115234 1.120117,-0.3448293 1.796875,-0.074013 0.747875,0.2992747 0.525728,0.5214213 -0.566406,0.5664062 -0.988281,0.040707 -1.541992,-0.1808696 -1.230469,-0.4923931 z m 15.9375,0 C 62.44043,1.9345703 63.249023,1.9012644 63.925781,2.1720807 64.673656,2.4713554 64.451509,2.693502 63.359375,2.7384869 62.371094,2.7791939 61.817383,2.5576173 62.128906,2.2460938 Z M 185.85937,2.1196985 c 2.96485,-0.1860476 7.81641,-0.1860476 10.78125,0 2.96485,0.1860474 0.53907,0.3382682 -5.39062,0.3382682 -5.92969,0 -8.35547,-0.1522208 -5.39063,-0.3382682 z m 42.65625,-0.00751 c 6.31641,-0.1621935 16.65235,-0.1621935 22.96875,0 6.31641,0.1621935 1.14844,0.2948973 -11.48437,0.2948973 -12.63281,0 -17.80078,-0.1327038 -11.48438,-0.2948973 z"
       id="path3562"
       inkscape:connector-curvature="0" />
    <path
       style="fill:#412b90"
       d="M 535.89163,81.457215 C 531.66172,80.464198 521.25,75.114828 521.25,73.934584 c 0,-0.442301 -1.41068,-2.387429 -3.13485,-4.322508 -5.82676,-6.539534 -6.72978,-13.651752 -3.09672,-24.390134 4.19904,-12.411303 12.16497,-21.405398 23.61805,-26.666424 6.93452,-3.185407 17.85478,-2.972666 24.53203,0.477916 6.46432,3.340544 11.02667,7.451864 14.13295,12.735771 2.31561,3.938951 2.57143,5.335713 2.8691,15.66507 0.29298,10.166284 0.11621,11.75336 -1.70722,15.327575 -7.27278,14.255821 -26.1571,22.548869 -42.57171,18.695365 z m 18.63962,-16.857106 c 2.46112,-1.031715 4.27132,-2.597555 6.8189,-5.898414 2.36537,-3.064783 2.79947,-9.692817 1.04799,-16.001454 -1.33122,-4.794921 -6.36532,-9.887741 -9.77375,-9.887741 -7.80562,0 -16.90937,6.272287 -19.6966,13.570516 -4.77821,12.511582 8.50136,23.70957 21.60346,18.217093 z"
       id="path3560"
       inkscape:connector-curvature="0" />
    <path
       style="fill:#b50431"
       d="m 482.25629,84.406211 c -9.40204,-2.010961 -16.55246,-7.307544 -20.84474,-15.440472 -2.29772,-4.35366 -2.5053,-5.646164 -2.5053,-15.598918 l 0,-10.851929 3.93576,-7.898071 c 2.16466,-4.343939 6.71684,-11.398745 10.11596,-15.677347 12.6402,-15.9107217 26.80801,-20.578676 41.41744,-13.6460498 6.4595,3.0652371 8.86488,11.5871508 5.0408,17.8588308 -3.37357,5.532813 -11.52807,5.182882 -14.85026,-0.637264 -0.87846,-1.538975 -2.16447,-3.017759 -2.8578,-3.286187 -4.03358,-1.561634 -16.20864,8.125437 -21.01059,16.717056 -7.69497,13.767787 -7.01932,25.509217 1.73209,30.100557 3.3152,1.739288 5.10818,1.901676 18.82981,1.705396 l 15.16572,-0.216936 2.41241,2.866992 c 2.65553,3.155924 2.96256,5.177453 1.33041,8.759622 -2.17515,4.773945 -4.70833,5.508851 -19.987,5.798466 -7.74799,0.146867 -15.81411,-0.102319 -17.92471,-0.553746 z"
       id="path3558"
       inkscape:connector-curvature="0" />
    <path
       style="fill:#007a68"
       d="m 733.60303,85.111439 c -2.05136,-1.18916 -8.16511,-6.093516 -19.81128,-15.892298 -4.18797,-3.523653 -7.83609,-6.406641 -8.10693,-6.406641 -0.27082,0 -0.64117,3.555316 -0.82299,7.900702 -0.41261,9.86122 -2.29462,13.055212 -7.9243,13.448428 -5.18523,0.362172 -9.34315,-2.429798 -10.78488,-7.241857 -0.96366,-3.216419 -0.87815,-4.649742 0.56097,-9.402824 2.24042,-7.399604 1.54684,-24.875833 -1.46344,-36.874293 -1.75471,-6.994025 -1.90593,-8.821991 -0.98429,-11.898198 1.45062,-4.841703 7.5257,-9.9577938 14.09053,-11.8662428 7.13725,-2.0748523 20.44618,-1.347824 26.80318,1.4641795 11.24131,4.9725653 16.4029,9.8950073 16.4029,15.6429063 0,7.667401 -6.55809,16.964182 -15.81608,22.420949 -2.62444,1.546875 -4.76211,3.234375 -4.75038,3.75 0.0117,0.515625 2.21566,2.625 4.89762,4.6875 2.68196,2.0625 8.57024,6.818001 13.08506,10.567779 7.01098,5.822954 8.20878,7.231912 8.20878,9.655931 0,7.660513 -7.77694,13.410566 -13.58447,10.043979 z M 716.87267,33.305577 c 5.49647,-2.487078 7.64331,-5.252784 5.47457,-7.052686 -1.89024,-1.568755 -16.34816,-3.251968 -17.55621,-2.043919 -0.5681,0.568099 -0.66963,3.197257 -0.25982,6.728216 l 0.67267,5.795734 3.41369,-0.618333 c 1.87752,-0.340083 5.59232,-1.604139 8.2551,-2.809012 z"
       id="path3556"
       inkscape:connector-curvature="0" />
    <path
       style="fill:#010101"
       d="M 28.297867,84.847514 C 25.557007,84.075827 21.455988,82.355295 19.184491,81.02411 13.347322,77.6033 6.1173525,69.355194 4.2772956,64.017657 -2.285549,44.980515 6.9589552,20.374502 24.546397,10.067574 31.252067,6.13779 42.143154,2.8959315 50.748649,2.2681704 58.330153,1.7151083 69.916332,2.9310698 71.319099,4.427025 71.695189,4.8280987 71.608994,7.8984375 71.127555,11.25 69.619236,21.750256 69.721858,21.531092 66.717002,20.669311 44.78117,14.378197 21.382295,27.083742 19.086275,46.532707 c -1.575071,13.34199 8.147648,23.082489 21.298956,21.337906 5.537121,-0.734525 6.065156,-1.109779 6.787661,-4.823738 L 47.765625,60 l -6.835458,0 -6.835458,0 0.999521,-7.734375 0.99952,-7.734375 15.234375,-0.257598 c 11.867086,-0.20066 15.22781,0.0066 15.204671,0.9375 -0.01634,0.657304 -0.635783,5.624785 -1.376546,11.038848 -0.740763,5.414063 -1.345543,10.898437 -1.343955,12.1875 0.0016,1.289062 5.648558,-12.84375 12.548823,-31.40625 l 12.545936,-33.75 11.204966,-0.2622449 11.20496,-0.2622448 0.49209,2.6059948 c 0.27066,1.4332972 2.09552,16.6215289 4.05526,33.7516259 1.95974,17.130096 3.70458,31.004212 3.87742,30.831369 0.17284,-0.172844 3.27714,-9.969627 6.89843,-21.770631 3.62129,-11.801003 8.27217,-26.850276 10.33529,-33.44283 l 3.75112,-11.9864612 9.08911,0.2677111 9.08912,0.2677111 2.97345,21.09375 c 1.63539,11.601562 3.0231,21.304687 3.08379,21.5625 0.10927,0.464203 4.383,-10.823829 12.15683,-32.109375 l 4.02309,-11.015625 10.21025,0 10.21027,0 0,3.335735 c 0,3.889871 3.49882,66.043755 4.12654,73.30489 l 0.42548,4.921875 -8.36975,0 c -4.60337,0 -8.37169,-0.316406 -8.37405,-0.703125 -0.0203,-3.332158 -2.95245,-45.691101 -3.17847,-45.917118 -0.16212,-0.162127 -4.04748,10.255411 -8.63414,23.150086 l -8.33936,23.444862 -7.73438,0.01265 c -4.2539,0.0069 -7.73437,-0.105925 -7.73437,-0.250846 0,-1.393111 -6.51114,-43.122648 -6.76869,-43.380204 -0.18879,-0.18878 -3.27822,9.551464 -6.8654,21.644986 l -6.52216,21.988222 -14.61975,0.0052 -14.61974,0.0052 -1.31776,-11.953125 -1.31775,-11.953125 -8.4375,0 -8.4375,0 -4.21875,11.950481 -4.21875,11.950482 -8.671875,0.0026 c -7.34103,0.0023 -8.671875,-0.228542 -8.671875,-1.503889 0,-1.069523 -0.475922,-1.308789 -1.640625,-0.82481 -9.098295,3.780688 -21.435852,4.96847 -29.124008,2.803876 z M 98.897653,36.328125 C 98.527772,32.074219 97.986787,28.195957 97.695469,27.709765 97.235391,26.941937 91.875,41.315473 91.875,43.316973 c 0,0.41004 1.731409,0.745527 3.847575,0.745527 l 3.847575,0 -0.672497,-7.734375 z M 360.306,84.372219 C 348.47347,81.91517 339.92043,72.410356 337.49226,59.01981 334.8258,44.315195 341.60493,21.112535 351.43737,11.290388 358.19321,4.5416242 363.53642,2.3408938 373.125,2.3578009 c 9.4924,0.016737 13.35237,1.5739909 19.78756,7.9830271 5.98411,5.959783 8.45843,12.770119 9.01592,24.815422 1.25092,27.028004 -12.32239,47.689506 -32.55348,49.553411 -2.83594,0.261277 -6.91699,0.109428 -9.069,-0.337442 z m 13.33374,-18.36313 c 7.24255,-3.436812 11.84975,-13.874901 11.96277,-27.102839 0.0796,-9.316591 -1.91609,-14.971383 -6.29666,-17.841638 -11.86165,-7.772054 -24.80713,6.463793 -25.17592,27.685388 -0.14777,8.502889 1.31006,13.21425 5.06708,16.375569 3.36506,2.83151 9.54143,3.209343 14.44273,0.88352 z M 207.51888,81.328125 C 208.18309,77.580784 217.5,5.2365997 217.5,3.8265024 217.5,3.127858 224.45016,2.8125 239.84754,2.8125 l 22.34755,0 -1.23355,8.203125 c -0.67845,4.511719 -1.24265,8.519531 -1.25379,8.90625 -0.0112,0.386719 -6.08009,0.703125 -13.48658,0.703125 l -13.46631,0 -0.59619,4.349598 c -1.2948,9.446611 -2.10968,8.775402 10.65383,8.775402 8.37436,0 11.25031,0.299545 11.2512,1.171875 6.6e-4,0.644531 -0.48515,4.652344 -1.07957,8.90625 l -1.08077,7.734375 -11.55882,0 c -13.14403,0 -11.87334,-0.937909 -13.01895,9.609375 l -0.58551,5.390625 13.48589,0 13.4859,0 -1.1585,8.671875 c -0.63718,4.769531 -1.1911,8.777344 -1.23094,8.90625 -0.0398,0.128906 -10.03344,0.234375 -22.20801,0.234375 l -22.13559,0 0.54005,-3.046875 z m 72.80182,-37.5 5.23549,-40.546875 18.01051,-0.254644 c 19.55894,-0.2765365 20.71787,-0.048858 25.84391,5.0771838 4.22422,4.2242232 6.21439,9.0130142 6.21439,14.9532182 0,6.908396 -1.63983,12.218373 -4.7067,15.240909 l -2.46067,2.425091 2.88056,4.637953 c 2.63837,4.248001 2.87883,5.314567 2.86,12.685372 -0.0165,6.437179 -0.42955,8.819617 -2.06456,11.906608 -3.20166,6.044891 -6.4653,9.389526 -11.7147,12.005417 -4.76167,2.372836 -5.2165,2.416642 -25.09165,2.416642 l -20.24207,0 5.23549,-40.546875 z m 34.21504,20.471364 c 3.10776,-3.107756 3.83875,-6.583396 1.98095,-9.418756 -1.7832,-2.721508 -5.33385,-3.538703 -13.64032,-3.139369 -6.78365,0.326124 -6.70567,0.227627 -7.8372,9.899261 l -0.57583,4.921875 8.90469,0 c 8.16362,0 9.09303,-0.188334 11.16771,-2.263011 z m 0.80658,-32.492533 c 2.89971,-2.280918 3.33767,-6.794502 0.91863,-9.467511 -1.2474,-1.378366 -2.96768,-1.714445 -8.77567,-1.714445 l -7.22411,0 -0.59119,4.921875 C 298.6222,34.27013 298.22291,33.75 305.96732,33.75 c 5.56586,0 7.38383,-0.376788 9.375,-1.943044 z m 91.16191,49.521169 c 0.24687,-1.675781 1.43905,-10.818656 2.64929,-20.317501 l 2.20044,-17.270625 -7.47105,-17.416875 c -4.10907,-9.57928 -8.05453,-18.8025559 -8.76769,-20.4961671 l -1.29663,-3.079293 9.52491,0.266793 9.52492,0.2667931 4.1107,10.3125 c 2.26089,5.671875 4.45439,10.669371 4.87446,11.105546 0.42007,0.436176 3.81508,-4.309918 7.54447,-10.546875 l 6.78072,-11.339921 9.35467,0 c 8.02132,0 9.27602,0.2049335 8.80293,1.4377973 -0.30345,0.7907886 -6.26594,10.9920627 -13.24998,22.6694967 -6.98404,11.677434 -12.88333,22.104645 -13.10954,23.171577 -0.39462,1.861224 -4.22685,32.379851 -4.22685,33.661228 0,0.342321 -3.98129,0.622401 -8.84731,0.622401 l -8.84731,0 0.44885,-3.046875 z"
       id="path3554"
       inkscape:connector-curvature="0" />
  </g>
</svg>
