<?xml version="1.0" encoding="UTF-8" standalone="no"?>
<!-- Created with Inkscape (http://www.inkscape.org/) -->

<svg
   xmlns:dc="http://purl.org/dc/elements/1.1/"
   xmlns:cc="http://creativecommons.org/ns#"
   xmlns:rdf="http://www.w3.org/1999/02/22-rdf-syntax-ns#"
   xmlns:svg="http://www.w3.org/2000/svg"
   xmlns="http://www.w3.org/2000/svg"
   xmlns:sodipodi="http://sodipodi.sourceforge.net/DTD/sodipodi-0.dtd"
   xmlns:inkscape="http://www.inkscape.org/namespaces/inkscape"
   id="svg3586"
   version="1.1"
   inkscape:version="0.91 r13725"
   width="532.5"
   height="144.375"
   viewBox="0 0 532.5 144.375"
   sodipodi:docname="logo.svg">
  <metadata
     id="metadata3592">
    <rdf:RDF>
      <cc:Work
         rdf:about="">
        <dc:format>image/svg+xml</dc:format>
        <dc:type
           rdf:resource="http://purl.org/dc/dcmitype/StillImage" />
        <dc:title></dc:title>
      </cc:Work>
    </rdf:RDF>
  </metadata>
  <defs
     id="defs3590" />
  <sodipodi:namedview
     pagecolor="#ffffff"
     bordercolor="#666666"
     borderopacity="1"
     objecttolerance="10"
     gridtolerance="10"
     guidetolerance="10"
     inkscape:pageopacity="0"
     inkscape:pageshadow="2"
     inkscape:window-width="1366"
     inkscape:window-height="721"
     id="namedview3588"
     showgrid="false"
     inkscape:zoom="0.55211268"
     inkscape:cx="266.25"
     inkscape:cy="72.1875"
     inkscape:window-x="-4"
     inkscape:window-y="-4"
     inkscape:window-maximized="1"
     inkscape:current-layer="svg3586" />
  <path
     style="fill:#ba6630"
     d="m 45.481331,140.04176 c -0.780357,-1.86766 -1.418831,-3.65168 -1.418831,-3.96449 0,-0.57354 -4.165119,-12.13111 -5.625,-15.60852 -0.78013,-1.85826 -1.568783,-4.02721 -9.715221,-26.718747 -2.313917,-6.44532 -4.487666,-12.43863 -4.830555,-13.31847 -0.484243,-1.24256 -2.017398,-1.66118 -6.866954,-1.875 l -6.24352,-0.27528 -4.9081088,-12.1875 c -2.6994599,-6.70313 -4.91430368,-12.62696 -4.92187508,-13.16408 -0.027441,-1.94666 10.15459488,-6.05467 15.00700288,-6.05467 5.237336,0 5.524171,-0.53138 3.239043,-6.00046 -1.12681,-2.69684 -1.176203,-3.50526 -0.234375,-3.83603 0.656322,-0.2305 11.52925,-0.53736 24.162063,-0.68192 15.907873,-0.18204 23.545148,-0.61204 24.84375,-1.39875 2.717168,-1.64611 26.420588,-9.73459 36.5625,-12.47646 57.88572,-15.6494603 105.14229,-21.99889035 163.125,-21.91763035 29.52507,0.0414 58.49085,1.89253005 81.09375,5.18256005 11.9997,1.74665 34.03382,5.4366003 37.96875,6.3584503 2.0625,0.48319 7.125,1.59424 11.25,2.469 20.05446,4.25281 44.88457,11.58985 66.90849,19.77078 5.68807,2.11286 7.07627,2.21796 29.29688,2.21796 15.40951,0 23.32588,0.32839 23.32588,0.96761 0,0.53218 -0.63281,2.48214 -1.40625,4.33324 -1.99135,4.76597 -1.86563,5.01165 2.56467,5.01165 5.14139,0 13.84158,4.25932 13.84158,6.77638 0,1.53559 -1.76948,6.50986 -4.75958,13.37987 -0.44885,1.03125 -1.61916,3.98437 -2.6007,6.5625 l -1.78461,4.6875 -6.3394,0.46875 -6.33942,0.46875 -2.75548,7.5 c -1.51551,4.125 -3.09431,8.34375 -3.50844,9.375 -1.01838,2.53593 -4.40962,11.841777 -11.35965,31.171877 l -5.81452,16.17187 -220.16902,0 -220.169017,0 -1.418832,-3.39574 z M 307.6599,120.99307 c 5.68598,-2.6842 12.41303,-9.54981 15.47622,-15.79499 7.79585,-15.894037 0.15379,-36.983517 -16.10487,-44.443947 -7.02241,-3.2223 -19.58209,-3.09454 -26.71875,0.2718 -6.59451,3.1106 -12.76429,9.29206 -15.81913,15.84907 -2.81815,6.04895 -3.74085,16.41726 -2.05635,23.10701 2.38631,9.476917 11.01937,18.771487 20.68798,22.273197 6.00143,2.17356 18.63354,1.52373 24.5349,-1.26214 z m -20.91871,-18.65428 c -4.95839,-3.183957 -6.94975,-7.482077 -6.16776,-13.312317 0.98781,-7.36464 6.9382,-11.75168 14.90161,-10.9865 12.36781,1.18839 16.24376,16.9496 5.90956,24.030707 -5.07723,3.47898 -9.51655,3.56026 -14.64341,0.26811 z m -207.270972,-2.31374 0.251468,-22.318687 3.871803,0.28744 c 6.634587,0.49256 7.531693,6.2069 1.150004,7.32525 -2.681886,0.46999 -2.715281,0.55511 -2.983734,7.60551 -0.28777,7.557777 0.339018,9.800157 6.559309,23.466357 l 2.922834,6.42158 9.222798,0 c 5.99519,0 9.2228,-0.35535 9.2228,-1.01539 0,-0.55847 -2.17621,-6.47734 -4.83602,-13.15307 l -4.83601,-12.137657 2.44254,-2.55007 c 6.90342,-7.20735 7.27955,-19.02456 0.84481,-26.54211 -5.611689,-6.55599 -8.546592,-7.36986 -26.662195,-7.39361 l -15.703125,-0.0206 0,30.78125 c 0,16.929687 0.295957,31.077197 0.657681,31.438927 0.361724,0.36172 4.475005,0.5375 9.140625,0.39063 l 8.482944,-0.26706 0.251468,-22.3187 z m 72.205592,13.64683 0.26955,-8.67188 -7.88914,0 c -6.05443,0 -8.17572,-0.34532 -9.12144,-1.48483 -0.89135,-1.07401 -0.96114,-1.91703 -0.25224,-3.04688 0.73231,-1.167157 2.85157,-1.680537 8.38314,-2.030787 l 7.40307,-0.46875 0,-7.03125 0,-7.03125 -6.7148,-0.27379 c -7.34624,-0.29954 -9.99133,-1.79314 -7.81645,-4.41371 0.81126,-0.97751 2.9666,-1.40625 7.06937,-1.40625 9.01466,0 8.86813,0.15776 8.86813,-9.54794 l 0,-8.40984 -12.49862,0.30701 c -12.11466,0.29759 -12.60741,0.39008 -16.03955,3.01068 -6.23685,4.76215 -7.04566,7.94944 -7.04566,27.76509 0,19.575107 0.83951,23.038667 6.65366,27.451247 4.54578,3.44995 8.51543,4.30693 19.08642,4.12041 l 9.375,-0.16541 0.26956,-8.67188 z m 36.54419,-13.55302 0.25124,-22.224897 6.78001,-0.27511 6.78,-0.2751 0.26956,-8.67188 0.26955,-8.67187 -23.47268,0 -23.47268,0 0,8.3372 c 0,9.58078 -0.0948,9.4753 8.51418,9.4753 l 5.54832,0 0,21.87499 c 0,12.031257 0.29596,22.170957 0.65768,22.532687 0.36172,0.36172 4.475,0.5375 9.14063,0.39063 l 8.48294,-0.26706 0.25125,-22.22489 z m 40.31272,-0.0938 0.25146,-22.318687 3.87181,0.28744 c 6.63458,0.49256 7.53169,6.2069 1.15,7.32525 -2.68188,0.46999 -2.71528,0.55511 -2.98373,7.60551 -0.28778,7.557777 0.33902,9.800157 6.55931,23.466357 l 2.92283,6.42158 9.2228,0 c 6.04918,0 9.2228,-0.35275 9.2228,-1.02514 0,-0.56383 -2.16604,-6.49332 -4.81342,-13.17664 l -4.81342,-12.151507 2.41994,-2.52647 c 6.88063,-7.18358 7.24739,-19.01217 0.82222,-26.51854 -5.61169,-6.55599 -8.54659,-7.36986 -26.66219,-7.39361 L 210,60.000003 l 0,30.78125 c 0,16.929687 0.29596,31.077197 0.65768,31.438927 0.36172,0.36172 4.475,0.5375 9.14063,0.39063 l 8.48294,-0.26706 0.25147,-22.3187 z m 144.98435,22.2184 C 374.81033,121.74718 375,118.89329 375,99.930943 c 0,-22.89963 0.19564,-23.99344 4.29146,-23.99344 4.62791,0 5.2435,5.33434 0.84677,7.33763 -2.19571,1.00043 -2.32573,1.48174 -2.32573,8.60919 0,8.878667 0.46115,9.308447 8.23755,7.67732 11.92286,-2.50084 18.07643,-12.54308 15.29687,-24.96349 -2.76468,-12.35391 -16.87767,-19.60127 -29.44255,-15.11946 -5.56178,1.98384 -10.4262,5.80564 -12.91085,10.14357 -2.21456,3.86638 -2.28257,4.58835 -2.5694,27.27898 -0.16204,12.819117 -0.0698,23.893337 0.20495,24.609367 0.36831,0.95978 2.45803,1.30189 7.95233,1.30189 4.09902,0 8.12007,-0.25607 8.93567,-0.56905 z m 55.63619,-31.071587 0.24701,-31.17187 -9.38763,0 -9.38764,0 0,30.78125 c 0,16.929687 0.29596,31.077197 0.65768,31.438927 0.36172,0.36172 4.475,0.5375 9.14063,0.39063 l 8.48294,-0.26706 0.24701,-31.171877 z m 45.02777,30.842847 c 0.8726,-0.55358 1.13529,-2.97943 0.9375,-8.65752 L 474.84375,105.46875 466.97224,105 c -8.21593,-0.48926 -10.45379,-1.71488 -9.18211,-5.028827 0.47762,-1.24466 2.01485,-1.53367 8.15738,-1.53367 l 7.56886,0 -0.27381,-7.26563 -0.27381,-7.26562 -7.03125,-0.46875 c -6.75,-0.45 -7.03125,-0.5625 -7.03125,-2.8125 0,-2.23502 0.28269,-2.35488 6.09375,-2.58355 10.82872,-0.42612 10.3125,0.0601 10.3125,-9.7138 l 0,-8.51162 -12.49247,0.32636 c -11.43918,0.29884 -12.77542,0.52035 -15.8485,2.62725 -6.34096,4.34736 -6.77895,5.93006 -7.12476,25.74557 -0.17021,9.75368 -0.0585,19.071757 0.24824,20.706817 0.87701,4.67488 6.49636,10.53568 11.6106,12.1095 4.74236,1.45938 20.49703,1.93827 22.47542,0.68319 z"
     id="path3596"
     inkscape:connector-curvature="0" />
</svg>
