<?xml version="1.0" encoding="UTF-8" standalone="no"?>
<!-- Created with Inkscape (http://www.inkscape.org/) -->

<svg
   xmlns:dc="http://purl.org/dc/elements/1.1/"
   xmlns:cc="http://creativecommons.org/ns#"
   xmlns:rdf="http://www.w3.org/1999/02/22-rdf-syntax-ns#"
   xmlns:svg="http://www.w3.org/2000/svg"
   xmlns="http://www.w3.org/2000/svg"
   xmlns:sodipodi="http://sodipodi.sourceforge.net/DTD/sodipodi-0.dtd"
   xmlns:inkscape="http://www.inkscape.org/namespaces/inkscape"
   id="svg3392"
   version="1.1"
   inkscape:version="0.91 r13725"
   width="1069.6875"
   height="306.5625"
   viewBox="0 0 1069.6875 306.5625"
   sodipodi:docname="genesis.svg">
  <metadata
     id="metadata3398">
    <rdf:RDF>
      <cc:Work
         rdf:about="">
        <dc:format>image/svg+xml</dc:format>
        <dc:type
           rdf:resource="http://purl.org/dc/dcmitype/StillImage" />
        <dc:title></dc:title>
      </cc:Work>
    </rdf:RDF>
  </metadata>
  <defs
     id="defs3396" />
  <sodipodi:namedview
     pagecolor="#ffffff"
     bordercolor="#666666"
     borderopacity="1"
     objecttolerance="10"
     gridtolerance="10"
     guidetolerance="10"
     inkscape:pageopacity="0"
     inkscape:pageshadow="2"
     inkscape:window-width="1366"
     inkscape:window-height="721"
     id="namedview3394"
     showgrid="false"
     inkscape:zoom="0.27484663"
     inkscape:cx="534.84375"
     inkscape:cy="153.28125"
     inkscape:window-x="-4"
     inkscape:window-y="-4"
     inkscape:window-maximized="1"
     inkscape:current-layer="svg3392" />
  <g
     id="g3402">
    <path
       style="fill:#0060a7"
       d="m 20.625,226.88213 0,-47.80535 9.609375,-7.5912 c 15.062839,-11.89932 20.382602,-16.13975 23.547547,-18.76997 5.716539,-4.75071 3.261844,-4.59185 70.609568,-4.56976 60.3822,0.0198 63.47731,0.10224 61.58854,1.64062 -1.0938,0.89088 -5.94536,4.68774 -10.78125,8.43747 -4.8359,3.74973 -12.56579,9.76145 -17.17754,13.35937 l -8.38502,6.54169 -41.0801,0 -41.080106,0 0.246368,33.04687 0.246368,33.04688 29.0625,0 29.0625,0 0.26956,-8.67188 0.26955,-8.67187 -23.99676,0 c -14.111479,0 -23.780361,-0.35014 -23.471451,-0.84997 0.288918,-0.46747 6.958346,-5.82804 14.820954,-11.91236 7.862607,-6.08433 14.506587,-11.31398 14.764397,-11.62147 0.25781,-0.30748 1.98514,-1.69692 3.83849,-3.08763 l 3.36974,-2.52857 28.73964,0 28.73963,0 0,24.68005 0,24.68007 -5.85938,4.66958 c -3.22265,2.56828 -7.75781,6.11151 -10.07812,7.87385 -2.32031,1.76234 -4.42969,3.44396 -4.6875,3.73694 -0.25781,0.29298 -3.88108,3.15153 -8.0517,6.35235 l -7.58296,5.81966 -58.276419,0 -58.276421,0 0,-47.80537 z m 165,-0.75198 0,-48.55737 4.45312,-3.31221 c 6.05896,-4.50663 28.87468,-20.58512 33.57309,-23.65933 l 3.80747,-2.49125 55.71295,0.24188 55.71295,0.24188 -10.30167,7.93774 c -5.66591,4.36575 -13.47128,10.52009 -17.34527,13.67631 -3.87398,3.15622 -7.95952,6.22877 -9.07899,6.82789 -1.43821,0.76971 -11.96557,1.08931 -35.88097,1.08931 l -33.84557,0 0.26832,9.14062 0.26832,9.14063 41.13824,0.46875 41.13825,0.46875 -9.732,7.47749 c -5.35259,4.11262 -13.82302,10.75715 -18.82317,14.76563 l -9.09119,7.28813 -22.58462,0 -22.58462,0 0.26955,8.67187 0.26956,8.67188 52.40498,0.46875 52.405,0.46875 -11.50936,8.90625 c -6.33015,4.89844 -14.93583,11.53229 -19.12374,14.7419 l -7.61438,5.83565 -56.95312,0.0237 -56.95313,0.0237 0,-48.55735 z m 163.35277,-14.48953 0.24098,-63.04687 24.12776,-0.25017 24.12776,-0.25018 4.69075,3.29705 c 2.57991,1.81338 4.89144,3.29705 5.13672,3.29705 0.41409,0 8.91324,5.42336 27.22951,17.37534 4.125,2.6917 10.34766,6.62885 13.82812,8.74922 l 6.32813,3.85523 0,-18.27115 0,-18.27114 23.90625,0 23.90625,0 0,63.28125 0,63.28125 -23.90625,0 -23.90625,0 -0.0297,-21.32812 -0.0297,-21.32813 -5.82968,-4.02651 c -3.20633,-2.21458 -7.98276,-5.58958 -10.61429,-7.5 -2.63153,-1.91041 -10.64715,-7.67536 -17.8125,-12.81098 -7.16529,-5.13562 -13.23878,-9.58714 -13.49659,-9.89228 -1.28807,-1.52449 -9.29769,-6.31629 -9.7694,-5.84459 -0.2987,0.29871 -0.5431,19.03529 -0.5431,41.63686 l 0,41.09375 -23.91285,0 -23.91285,0 0.24097,-63.04688 z m 166.64723,14.45435 0,-48.59254 5.02539,-3.67308 c 2.76398,-2.0202 8.28228,-5.99341 12.26291,-8.82935 3.98061,-2.83594 9.92707,-7.16016 13.21433,-9.60938 3.28726,-2.44921 6.23659,-4.45312 6.55407,-4.45312 0.31748,0 1.21004,-0.63281 1.98348,-1.40625 1.21882,-1.21882 8.91964,-1.40625 57.77679,-1.40625 31.809,0 55.98247,0.35361 55.4799,0.81156 -0.48984,0.44635 -6.79687,5.39284 -14.01562,10.9922 -7.21875,5.59937 -15.35626,11.98417 -18.08335,14.18846 l -4.95837,4.00778 -34.18226,0 -34.18227,0 0,9.36525 0,9.36525 41.40754,0.24412 41.40753,0.24413 -10.95955,8.4375 c -6.02775,4.64062 -12.36217,9.49219 -14.07649,10.78125 -1.71431,1.28906 -5.43471,4.13672 -8.26755,6.32812 l -5.15061,3.98438 -22.18044,0 -22.18043,0 0,8.90625 0,8.90625 52.68073,0 52.68073,0 -2.75885,2.27293 c -1.51738,1.25012 -8.0323,6.32152 -14.47761,11.26977 -6.44531,4.94827 -12.35156,9.52242 -13.125,10.16477 -0.77344,0.64237 -2.92264,2.32097 -4.77599,3.73024 l -3.36974,2.56229 -56.86464,0 -56.86463,0 0,-48.59253 z m 148.54073,47.74082 c 0.28951,-0.46844 5.48238,-4.66089 11.5397,-9.31656 6.05733,-4.65567 14.29212,-11.0224 18.29956,-14.14829 l 7.28623,-5.68344 34.19815,0 34.19813,0 0,-8.90625 0,-8.90625 -52.5,0 -52.5,0 0.004,-24.14063 0.004,-24.14062 5.85588,-4.64285 c 3.22073,-2.55356 8.32815,-6.56137 11.34982,-8.90625 3.02168,-2.34487 7.02949,-5.63248 8.90625,-7.30579 1.87677,-1.67332 3.67154,-3.04441 3.98839,-3.04688 0.31685,-0.003 2.00435,-1.2746 3.75,-2.82696 1.74565,-1.55237 4.01767,-3.04 5.04892,-3.30583 1.03125,-0.26582 27.28751,-0.3668 58.34725,-0.22439 l 56.47225,0.25895 -5.84725,4.67324 c -3.21599,2.57029 -6.05819,4.91179 -6.316,5.20333 -0.25782,0.29155 -6.11162,4.83312 -13.00846,10.09239 l -12.54022,9.56229 -34.60361,0 -34.60361,0 0.26832,9.14062 0.26832,9.14063 52.26562,0.24225 52.26563,0.24224 0,24.18334 0,24.18334 -6.72398,5.10567 c -3.69818,2.80811 -7.17865,5.5335 -7.73437,6.05642 -0.55572,0.52291 -5.96762,4.84713 -12.02644,9.60937 l -11.01603,8.65862 -57.71116,0 c -34.36012,0 -57.49819,-0.34462 -57.18479,-0.85171 z m 167.39677,-62.42954 0,-63.28125 23.4375,0 23.4375,0 0,63.28125 0,63.28125 -23.4375,0 -23.4375,0 0,-63.28125 z m 64.73302,62.07956 c 0.79846,-0.62813 4.17346,-3.2402 7.5,-5.80461 3.32653,-2.5644 7.09861,-5.623 8.3824,-6.79688 1.28379,-1.17387 2.62476,-2.13432 2.97991,-2.13432 0.35516,0 1.20322,-0.53904 1.88458,-1.19787 0.68137,-0.65884 4.65117,-3.8229 8.82179,-7.03125 l 7.58296,-5.83338 33.90143,0 33.90141,0 0,-8.90625 0,-8.90625 -52.5,0 -52.5,0 0.0281,-24.14063 0.0281,-24.14062 8.50972,-6.5625 c 4.68034,-3.60938 9.62474,-7.4837 10.98753,-8.6096 1.36281,-1.1259 6.2747,-5.02166 10.91533,-8.65724 l 8.4375,-6.61015 58.01709,-0.0146 58.01703,-0.0146 -2.7045,2.09475 c -1.4875,1.15211 -3.1264,2.42006 -3.6421,2.81766 -0.5156,0.39759 -4.5234,3.59035 -8.9062,7.09501 -4.3828,3.50468 -11.3811,8.98673 -15.5517,12.18236 l -7.5831,5.81021 -34.37019,0 -34.37016,0 0,9.375 0,9.375 52.03125,0 52.0313,0 0,24.3202 0,24.32022 -5.8594,4.49671 c -3.2226,2.4732 -6.7031,5.20682 -7.7343,6.07472 -1.0313,0.86789 -6.7266,5.40589 -12.6563,10.08443 l -10.7813,8.50644 -58.125,-0.0249 c -45.86378,-0.0197 -57.81876,-0.26583 -56.67323,-1.16698 z M 414.6289,110.05859 c 0.31152,-0.31152 1.12012,-0.34482 1.79688,-0.074 0.74787,0.29927 0.52573,0.52142 -0.56641,0.5664 -0.98827,0.0407 -1.54199,-0.18086 -1.23047,-0.49239 z m 58.125,0 c 0.31152,-0.31152 1.12012,-0.34482 1.79688,-0.074 0.74787,0.29927 0.52573,0.52142 -0.56641,0.5664 -0.98827,0.0407 -1.54199,-0.18086 -1.23047,-0.49239 z m 45.06748,-6.46484 c 0.004,-4.125 0.16823,-5.695884 0.36628,-3.49085 0.19803,2.20504 0.19525,5.58004 -0.007,7.5 -0.20144,1.91997 -0.36347,0.11585 -0.36007,-4.00915 z m 28.99502,6.46484 c 0.31152,-0.31152 1.12013,-0.34482 1.79688,-0.074 0.74787,0.29927 0.52573,0.52142 -0.56641,0.5664 -0.98827,0.0407 -1.54199,-0.18086 -1.23047,-0.49239 z m -13.49849,-6.69921 c -1.16613,-1.48694 -1.13297,-1.5201 0.35396,-0.35397 1.56165,1.22472 2.05827,1.99459 1.28667,1.99459 -0.19467,0 -0.93296,-0.73828 -1.64063,-1.64062 z m 53.95392,-26.01563 c 7.6e-4,-10.828125 0.13723,-15.129414 0.30326,-9.558421 0.16604,5.570993 0.16541,14.430368 -9.4e-4,19.6875 -0.16725,5.257132 -0.30309,0.699046 -0.30232,-10.129079 z m -45.95465,14.296875 -1.78593,-2.109375 2.10937,1.785926 c 1.16016,0.982259 2.10938,1.931478 2.10938,2.109375 0,0.750237 -0.75449,0.196366 -2.43282,-1.785926 z m -23.4958,-5.859375 c 0.004,-4.125 0.16823,-5.69588 0.36628,-3.490844 0.19803,2.205036 0.19525,5.580036 -0.007,7.5 -0.20107,1.919964 -0.36311,0.115844 -0.35971,-4.009156 z M 449.21052,83.4375 c 0,-1.289063 0.2128,-1.816406 0.47287,-1.171875 0.26007,0.644531 0.26007,1.699219 0,2.34375 -0.26007,0.644531 -0.47287,0.117187 -0.47287,-1.171875 z m -5.699,-0.390625 c -0.0407,-0.988281 0.18087,-1.541992 0.49239,-1.230469 0.31152,0.311524 0.34482,1.120117 0.074,1.796875 -0.29927,0.747875 -0.52142,0.525728 -0.5664,-0.566406 z m 198.20723,-1.138973 c 6.72524,-0.698297 14.53453,-0.757957 14.53296,-0.111027 -9.4e-4,0.386719 -3.90405,0.635609 -8.67359,0.55309 -4.76953,-0.08252 -7.40625,-0.281448 -5.85937,-0.442063 z M 522.59291,59.0625 c 0,-12.632813 0.13271,-17.800781 0.2949,-11.484375 0.1622,6.316406 0.1622,16.652344 0,22.96875 -0.16219,6.316406 -0.2949,1.148437 -0.2949,-11.484375 z m 17.48111,19.296875 c -0.0407,-0.988281 0.18087,-1.541992 0.49239,-1.230469 0.31152,0.311524 0.34482,1.120117 0.074,1.796875 -0.29927,0.747875 -0.52142,0.525728 -0.5664,-0.566406 z m -128.92,-2.147068 c -0.50876,-1.336123 -0.40108,-1.443808 0.52481,-0.524807 0.64071,0.635938 0.92876,1.392413 0.64011,1.681057 -0.28865,0.288645 -0.81286,-0.231667 -1.16492,-1.15625 z m 15.4825,-2.540432 c -0.0407,-0.988281 0.18087,-1.541992 0.49239,-1.230469 0.31152,0.311524 0.34482,1.120117 0.074,1.796875 -0.29927,0.747875 -0.52142,0.525728 -0.5664,-0.566406 z m 8.29252,-20 -2.27279,-2.578125 2.57812,2.272794 c 1.41797,1.250038 2.57813,2.410194 2.57813,2.578125 0,0.735257 -0.75919,0.136852 -2.88346,-2.272794 z M 479.6875,43.4375 c -0.34375,-0.34375 -0.61854,-1.082031 -0.61065,-1.640625 0.008,-0.620441 0.29793,-0.569291 0.74314,0.131457 0.51171,0.805421 5.18464,1.231897 15.68876,1.431837 l 14.96,0.284755 -15.07812,0.208788 c -8.29298,0.114834 -15.35938,-0.07246 -15.70313,-0.416212 z m 86.79687,-0.07509 c 6.0586,-0.163299 15.97266,-0.163299 22.03125,0 6.0586,0.163299 1.10157,0.296909 -11.01562,0.296909 -12.11719,0 -17.07422,-0.13361 -11.01563,-0.296909 z M 391.08552,41.25 c 0,-1.289063 0.2128,-1.816406 0.47287,-1.171875 0.26007,0.644531 0.26007,1.699219 0,2.34375 -0.26007,0.644531 -0.47287,0.117187 -0.47287,-1.171875 z M 408.75,41.30533 c 0,-0.485194 0.41705,-1.139918 0.92677,-1.454941 0.53143,-0.328443 0.68859,0.04787 0.36844,0.882171 -0.62324,1.624141 -1.29521,1.9213 -1.29521,0.57277 z m 131.32402,-1.383453 c -0.0407,-0.988281 0.18087,-1.541992 0.49239,-1.230469 0.31152,0.311524 0.34482,1.120117 0.074,1.796875 -0.29927,0.747875 -0.52142,0.525728 -0.5664,-0.566406 z M 517.82138,32.34375 c 0.004,-4.125 0.16823,-5.69588 0.36628,-3.490844 0.19803,2.205036 0.19525,5.580036 -0.007,7.5 -0.20107,1.919964 -0.36311,0.115844 -0.35971,-4.009156 z m -68.61086,2.34375 c 0,-1.289063 0.2128,-1.816406 0.47287,-1.171875 0.26007,0.644531 0.26007,1.699219 0,2.34375 -0.26007,0.644531 -0.47287,0.117187 -0.47287,-1.171875 z m 68.61086,-20.15625 c 0.004,-4.125 0.16823,-5.6958798 0.36628,-3.490844 0.19803,2.205036 0.19525,5.580036 -0.007,7.5 -0.20107,1.919964 -0.36311,0.115844 -0.35971,-4.009156 z m 13.74112,1.875 C 532.2044,15.632813 532.94052,15 533.19833,15 c 0.25782,0 -0.0564,0.632813 -0.69833,1.40625 -0.6419,0.773437 -1.37802,1.40625 -1.63583,1.40625 -0.25782,0 0.0564,-0.632813 0.69833,-1.40625 z M 406.64062,7.8166118 c 0.64454,-0.260074 1.69922,-0.260074 2.34375,0 0.64454,0.2600741 0.11719,0.4728619 -1.17187,0.4728619 -1.28906,0 -1.81641,-0.2127878 -1.17188,-0.4728619 z m 67.98828,0.054482 c 0.31152,-0.3115234 1.12012,-0.3448293 1.79688,-0.074013 0.74787,0.2992747 0.52573,0.5214213 -0.56641,0.5664062 -0.98827,0.040707 -1.54199,-0.1808696 -1.23047,-0.4923931 z m 74.0625,0 c 0.31152,-0.3115234 1.12013,-0.3448293 1.79688,-0.074013 0.74787,0.2992747 0.52573,0.5214213 -0.56641,0.5664062 -0.98827,0.040707 -1.54199,-0.1808696 -1.23047,-0.4923931 z m 94.6875,0 c 0.31152,-0.3115234 1.12013,-0.3448293 1.79688,-0.074013 0.74787,0.2992747 0.52573,0.5214213 -0.56641,0.5664062 -0.98827,0.040707 -1.54199,-0.1808696 -1.23047,-0.4923931 z m 5.625,0 c 0.31152,-0.3115234 1.12013,-0.3448293 1.79688,-0.074013 0.74787,0.2992747 0.52573,0.5214213 -0.56641,0.5664062 -0.98827,0.040707 -1.54199,-0.1808696 -1.23047,-0.4923931 z"
       id="path3406"
       inkscape:connector-curvature="0" />
    <path
       style="fill:#040404"
       d="m 375.9375,103.68279 0,-7.12029 20.39062,-0.02062 c 22.69721,-0.02287 25.58352,-0.628575 30.42697,-6.384692 5.42288,-6.444721 6.06021,-17.792647 1.34638,-23.972796 -3.18507,-4.175843 -6.28142,-5.809017 -16.1729,-8.530439 -4.26386,-1.173103 -9.09138,-3.086307 -10.72784,-4.251565 -7.9457,-5.657846 -7.28374,-20.714641 1.13192,-25.746171 2.82301,-1.687814 5.12495,-1.905056 23.05797,-2.176068 l 19.92188,-0.30107 0,7.077701 0,7.077701 -18.04688,0.254618 c -15.3035,0.21595 -18.04687,0.468426 -18.04687,1.660906 0,0.837352 1.51706,1.838971 3.75,2.475887 2.0625,0.588301 6.45819,1.836891 9.76821,2.774646 7.6072,2.155186 15.66656,9.176497 18.7437,16.329511 7.58851,17.639988 -1.18379,38.871501 -18.85692,45.639161 -3.1782,1.21704 -8.53796,1.62679 -25.35812,1.93855 l -21.32812,0.39534 0,-7.1203 z m 95.625,5.6578 c -7.9435,-2.18016 -14.9237,-8.09951 -19.0367,-16.143511 -2.8794,-5.631383 -3.64634,-14.572471 -3.26463,-38.059499 0.34051,-20.953385 0.54131,-23.226889 2.48681,-28.157248 2.67991,-6.791545 8.85845,-13.218327 15.85795,-16.495085 5.2653,-2.4649053 5.76772,-2.5164473 27.62844,-2.8343292 L 517.5,7.3271483 l 0,7.0695137 0,7.069514 -21.87233,0.282537 -21.87232,0.282537 -3.54221,2.703668 c -6.59275,5.032035 -7.04697,7.244645 -7.04697,34.327582 0,25.977355 0.45502,28.650374 5.69453,33.453176 3.97548,3.64413 6.76924,4.046824 28.07533,4.046824 l 20.56397,0 0,7.03125 0,7.03125 -20.85938,-0.0633 c -13.45786,-0.0408 -22.3563,-0.47412 -25.07812,-1.22114 z m 74.75107,0.26436 c -8.68698,-2.04663 -16.23624,-8.30062 -20.27032,-16.79245 -2.44311,-5.142789 -2.45021,-5.227472 -2.72324,-32.437733 -0.25861,-25.7729 -0.1651,-27.571864 1.69102,-32.53278 2.58356,-6.905202 9.00318,-13.941374 15.73652,-17.247896 l 5.3462,-2.625341 26.48437,-0.3208933 26.48438,-0.3208933 0,7.0753706 0,7.075371 -25.6179,0.276772 c -25.56422,0.276193 -25.62517,0.281685 -29.08775,2.620523 -2.08851,1.410719 -4.41108,4.250921 -5.83422,7.134516 l -2.36437,4.790766 0.28024,23.802984 c 0.31407,26.674819 0.71755,28.567714 7.13341,33.465277 l 3.30806,2.525207 20.48544,0.285272 20.48544,0.285262 -0.25355,-19.504017 -0.25355,-19.504017 -15.70313,-0.257043 -15.70312,-0.257043 0,-6.539832 0,-6.539832 21.55019,0 21.55019,0 0.24669,31.927132 0.24668,31.927138 15.34372,-43.411513 c 8.43906,-23.876328 16.45469,-45.489373 17.8125,-48.028986 3.19204,-5.970234 7.59621,-8.3590997 15.27765,-8.2867446 7.49022,0.070553 12.28644,3.1775816 15.32197,9.9256736 1.20082,2.669453 8.59229,22.994175 16.42551,45.16605 7.83321,22.171875 14.81022,41.89453 15.50447,43.82813 l 1.26225,3.51562 -30.42716,0 -30.42716,0 0,-6.09375 0,-6.09375 21.5625,0 c 11.85937,0 21.5625,-0.367762 21.5625,-0.817247 0,-2.582137 -26.51126,-73.908821 -27.83418,-74.885878 -2.10478,-1.554522 -5.46653,-1.487235 -7.0958,0.142027 -0.72264,0.722645 -6.92337,17.281239 -13.77939,36.796875 -6.85602,19.515635 -13.71761,38.963442 -15.24798,43.217353 l -2.78248,7.73437 -31.0832,-0.0942 c -17.09578,-0.0518 -32.6718,-0.46844 -34.6134,-0.92588 z m 70.54521,0.31693 c -0.0515,-2.23129 28.75011,-83.704927 29.72222,-84.077964 0.64748,-0.248461 1.73884,0.109854 2.42525,0.796257 0.6864,0.686401 5.18203,12.375508 9.99028,25.97579 4.80826,13.600283 10.1469,28.630131 11.86364,33.399662 l 3.12137,8.671875 -19.11307,0 c -18.99261,0 -19.11495,-0.01303 -19.41264,-2.068177 -0.17724,-1.223538 -1.61927,2.030883 -3.53096,7.968747 l -3.2314,10.03693 -5.90923,0 c -3.25009,0 -5.91654,-0.31641 -5.92546,-0.70312 z m 38.88173,-29.531255 c -3.17766,-10.5416 -7.31131,-22.872932 -7.86691,-23.468164 -0.62478,-0.669355 -8.4986,22.042792 -8.4986,24.514341 0,0.714427 2.78856,1.063198 8.50068,1.063198 8.37891,0 8.49156,-0.03022 7.86483,-2.109375 z m -279.80301,5.410868 0,-7.011006 18.04687,-0.254619 c 15.30351,-0.215912 18.04688,-0.468388 18.04688,-1.660868 0,-0.987447 -2.37322,-1.984396 -7.96875,-3.347543 -12.94288,-3.153056 -18.12108,-6.834266 -22.70166,-16.138729 -2.86008,-5.809674 -3.07959,-6.92518 -3.07959,-15.650265 0,-8.231758 0.31115,-10.058566 2.51353,-14.75753 2.93512,-6.262321 9.32845,-12.840656 15.27926,-15.721393 5.99463,-2.9019491 14.71992,-3.8435238 32.88434,-3.5486588 l 15.88537,0.2578688 0.27443,6.746724 0.27444,6.746724 -20.98254,0.284526 -20.98253,0.284526 -3.8683,2.682778 c -10.56333,7.325964 -10.69807,25.185508 -0.24315,32.227637 1.77229,1.193765 5.56917,2.814971 8.4375,3.60268 13.30187,3.652998 17.10148,6.239758 18.88289,12.855431 1.96468,7.296258 -1.29085,14.604243 -7.82773,17.571643 -3.49621,1.587095 -6.265,1.802337 -23.41814,1.820492 l -19.45312,0.02059 0,-7.011007 z m 99.84375,5.696149 c -6.46323,-2.852936 -8.80701,-8.515893 -8.8651,-21.419517 l -0.0412,-9.140625 21.5625,0 21.5625,0 0,7.03125 0,7.03125 -15.56905,0 c -13.81178,0 -15.50483,0.167377 -15,1.482925 0.31298,0.81561 0.56905,1.65936 0.56905,1.875 0,0.215641 8.4375,0.392075 18.75,0.392075 l 18.75,0 0,7.03125 0,7.03125 -19.45313,-0.03669 C 484.013,92.74933 477.81018,92.393264 475.7812,91.497648 Z m 72.86079,-0.244282 c -7.40968,-3.652088 -8.96403,-10.233193 -8.48865,-35.94086 0.32206,-17.416103 0.44796,-18.474157 2.66038,-22.357534 3.96517,-6.959959 4.71531,-7.134379 32.1081,-7.465706 l 24.14063,-0.291991 0,7.072198 0,7.072198 -22.73438,0.251042 -22.73437,0.251043 0,19.21875 0,19.21875 7.26562,0.27381 c 6.77991,0.255505 7.26563,0.145826 7.26563,-1.640625 C 568.125,75.183207 567.54184,75 562.03125,75 l -6.09375,0 0,-7.03125 0,-7.03125 13.59375,0 13.59375,0 0,15.9375 0,15.9375 -15.70313,-0.02135 C 554.8814,92.774109 551.09909,92.46439 548.64204,91.25336 Z M 467.04709,46.640625 c 0.41955,-11.817028 1.57644,-15.085425 6.61064,-18.676089 2.94337,-2.099371 3.84473,-2.194814 23.45164,-2.483211 L 517.5,25.1814 l 0,7.0968 0,7.0968 -18.6497,0 c -16.18304,0 -18.72536,0.197184 -19.22179,1.490852 -0.31465,0.819968 -0.33489,1.874656 -0.045,2.34375 0.28995,0.469094 7.25225,0.852898 15.47182,0.852898 l 14.94467,0 0,6.5625 0,6.5625 -21.66368,0 -21.66368,0 0.37445,-10.546875 z"
       id="path3404"
       inkscape:connector-curvature="0" />
  </g>
</svg>
