<?xml version="1.0" encoding="UTF-8" standalone="no"?>
<!-- Created with Inkscape (http://www.inkscape.org/) -->

<svg
   xmlns:dc="http://purl.org/dc/elements/1.1/"
   xmlns:cc="http://creativecommons.org/ns#"
   xmlns:rdf="http://www.w3.org/1999/02/22-rdf-syntax-ns#"
   xmlns:svg="http://www.w3.org/2000/svg"
   xmlns="http://www.w3.org/2000/svg"
   xmlns:sodipodi="http://sodipodi.sourceforge.net/DTD/sodipodi-0.dtd"
   xmlns:inkscape="http://www.inkscape.org/namespaces/inkscape"
   id="svg3408"
   version="1.1"
   inkscape:version="0.91 r13725"
   width="1069.6875"
   height="306.5625"
   viewBox="0 0 1069.6875 306.5625"
   sodipodi:docname="mastersystem.svg">
  <metadata
     id="metadata3414">
    <rdf:RDF>
      <cc:Work
         rdf:about="">
        <dc:format>image/svg+xml</dc:format>
        <dc:type
           rdf:resource="http://purl.org/dc/dcmitype/StillImage" />
        <dc:title></dc:title>
      </cc:Work>
    </rdf:RDF>
  </metadata>
  <defs
     id="defs3412" />
  <sodipodi:namedview
     pagecolor="#ffffff"
     bordercolor="#666666"
     borderopacity="1"
     objecttolerance="10"
     gridtolerance="10"
     guidetolerance="10"
     inkscape:pageopacity="0"
     inkscape:pageshadow="2"
     inkscape:window-width="1366"
     inkscape:window-height="721"
     id="namedview3410"
     showgrid="false"
     inkscape:zoom="0.27484663"
     inkscape:cx="534.84375"
     inkscape:cy="153.28125"
     inkscape:window-x="-4"
     inkscape:window-y="-4"
     inkscape:window-maximized="1"
     inkscape:current-layer="svg3408" />
  <g
     id="g3418"
     transform="translate(-3.8674217e-4,3.2241966e-4)">
    <path
       style="fill:#a32b29"
       d="M 628.35241,303.82252 C 623.92901,301.75887 622.5,299.1978 622.5,293.33386 c 0,-2.69485 0.62873,-4.36031 2.26301,-5.9946 5.14102,-5.14101 11.40863,-3.38493 17.71084,4.9623 l 3.87966,5.13856 4.3995,-4.99003 c 5.32047,-6.03462 12.31618,-17.41247 15.39928,-25.04545 l 2.26363,-5.60419 -9.25855,-22.85336 c -25.75794,-63.57964 -25.58926,-63.25553 -35.01675,-67.28813 -4.04876,-1.73186 -4.45312,-2.19036 -4.45312,-5.04924 0,-7.92564 -6.95923,-23.48239 -13.75459,-30.74718 -5.90668,-6.31472 -10.60159,-8.36291 -20.64427,-9.00621 -9.42731,-0.60389 -12.77357,0.36769 -18.45893,5.3595 -6.92318,6.07864 -8.96088,14.92513 -5.66555,24.59641 3.17764,9.32588 10.92396,15.07606 31.14214,23.11718 26.48925,10.53521 36.3871,18.55091 39.99073,32.3862 5.9407,22.80785 -8.54998,44.77572 -33.39975,50.63402 -12.11887,2.85701 -25.17136,1.35338 -39.92432,-4.59923 -8.91739,-3.59804 -8.20137,-3.69735 -11.74816,1.62955 -1.17373,1.7628 -5.98267,2.8339 -6.7983,1.51418 -0.83654,-1.35356 -1.25692,-7.59778 -1.84556,-27.4138 l -0.57964,-19.5134 3.46682,0.29465 c 3.36069,0.28564 3.54424,0.49673 5.99615,6.89553 6.29637,16.43178 14.93315,27.37959 25.34823,32.13089 6.82534,3.11369 20.07764,3.94226 26.88577,1.68096 5.3916,-1.7908 10.9436,-6.10776 13.19881,-10.26272 2.33954,-4.31033 2.29141,-21.38816 -0.0726,-25.75288 -4.63835,-8.56393 -10.45081,-12.57071 -28.8958,-19.91918 -33.39055,-13.30275 -42.06331,-22.72323 -40.89615,-44.42204 0.55705,-10.35624 2.67838,-15.36035 9.74902,-22.99749 8.72261,-9.42146 20.47802,-13.76092 35.03008,-12.9312 6.50611,0.37097 9.66215,1.12952 16.44778,3.95322 11.8377,4.92603 11.29659,4.86999 14.44821,1.49618 2.22715,-2.38417 3.40311,-2.92244 5.86704,-2.68547 1.69487,0.163 3.13431,0.8237 3.19877,1.46824 0.0645,0.64453 0.16992,10.24218 0.23437,21.32812 L 628.125,165 l 17.87477,0 17.87477,0 -0.29665,2.48821 c -0.24929,2.09105 -1.08798,2.74522 -5.25449,4.09847 -2.72681,0.88564 -5.22018,1.8726 -5.54083,2.19324 -0.32064,0.32065 -0.0518,2.37868 0.59723,4.57341 1.63298,5.52131 19.46529,49.80759 22.36892,55.55292 l 2.36903,4.6875 3.16832,-6.94721 c 7.19555,-15.77772 19.36807,-47.65017 19.76134,-51.7429 l 0.41959,-4.36681 -6.20225,-3.05337 c -5.0331,-2.47778 -6.20225,-3.4709 -6.20225,-5.26841 l 0,-2.21505 19.45931,0 c 10.83981,0 20.91001,-0.43463 22.73438,-0.98122 7.13469,-2.13758 23.50336,-0.91426 32.0334,2.39403 1.07131,0.4155 2.07451,-0.15946 3.15469,-1.80804 1.80102,-2.7487 6.67576,-3.39789 7.59169,-1.01102 0.40746,1.0618 2.12249,1.40625 7.00183,1.40625 l 6.4622,0 0,-15 0,-15 8.4375,0 8.4375,0 0,15 0,15 14.0625,0 14.0625,0 0,4.21875 0,4.21875 -14.0625,0 -14.0625,0 0.006,30.70312 c 0.007,36.4871 0.48749,40.72209 5.1113,45 l 3.29324,3.04688 10.35569,0 c 8.72263,0 10.44851,0.24186 10.94422,1.53367 0.99184,2.58469 -1.03263,4.46227 -7.3009,6.77116 -7.15829,2.63674 -20.8591,3.70832 -26.79936,2.09607 -4.66723,-1.26674 -10.99572,-7.87834 -11.90825,-12.44096 -0.32786,-1.63928 -0.81723,-17.35479 -1.0875,-34.92335 -0.27026,-17.56857 -0.71805,-34.15768 -0.99508,-36.86472 l -0.5037,-4.92187 -5.65867,0 -5.65867,0 0.67583,9.4423 0.67582,9.4423 -3.0551,-0.30167 c -2.75786,-0.27233 -3.24363,-0.80335 -4.99299,-5.45793 -2.82108,-7.50617 -9.95654,-14.3968 -17.041,-16.45631 -10.71829,-3.11589 -20.96578,0.33048 -24.20216,8.13954 -2.20327,5.31628 -1.61459,9.51967 1.98863,14.19924 3.34467,4.34379 5.03711,5.28403 18.96573,10.53641 26.15681,9.86354 32.17419,15.72901 32.20674,31.39362 0.0236,11.38484 -4.99721,19.75522 -15.01878,25.03808 -12.74854,6.7204 -26.41768,6.50898 -40.55445,-0.62723 l -5.54104,-2.79711 -1.8336,3.10771 c -2.07805,3.52203 -5.66291,4.03803 -6.85834,0.98718 -0.38844,-0.99131 -0.7359,-8.23597 -0.77214,-16.09926 l -0.0661,-14.29687 2.29263,0 c 1.89545,0 2.90599,1.17748 5.83316,6.79687 3.99728,7.67371 12.00113,16.27703 17.65546,18.97779 4.5877,2.19129 15.02027,2.95316 19.62571,1.43323 9.67491,-3.193 14.39494,-13.51099 10.47377,-22.89567 -2.01561,-4.824 -6.84002,-7.80677 -22.15029,-13.69474 -17.7777,-6.83689 -23.53659,-10.27114 -27.45039,-16.36972 -2.56508,-3.99698 -3.04466,-5.6929 -3.3159,-11.72591 -0.29501,-6.562 0.17342,-8.99552 3.16229,-16.4281 0.75367,-1.87418 0.75306,-1.87418 -1.37505,-0.003 -2.93772,2.583 -8.10333,13.76549 -22.52083,48.75303 -21.03694,51.05117 -31.73563,70.71079 -42.33956,77.80196 -5.44556,3.6416 -14.28439,4.29043 -20.28859,1.4893 z M 188.27472,263.45715 c -16.79233,-5.06943 -22.17163,-24.76553 -11.03525,-40.40513 2.55537,-3.58869 10.90971,-7.76046 28.54178,-14.25243 7.73437,-2.84774 16.07809,-5.94733 18.54158,-6.88798 l 4.47909,-1.71029 -0.50653,-7.05378 C 227.06304,175.98664 221.27473,168.75 208.78071,168.75 c -5.24911,0 -11.55901,1.81301 -13.40356,3.85122 -1.44913,1.60127 -1.49538,2.44276 -0.45441,8.26769 1.34114,7.50458 0.71439,9.44833 -3.96695,12.30275 -5.31108,3.2384 -10.74158,2.23768 -13.26286,-2.44403 -5.73604,-10.6512 4.86554,-22.79554 23.58589,-27.01814 17.78945,-4.01262 34.20816,0.8936 40.27145,12.03386 2.28479,4.19792 2.61954,6.03369 3.25091,17.82761 0.38712,7.23128 0.73085,22.87704 0.76384,34.76836 l 0.06,21.62057 2.77454,2.0513 c 1.526,1.12822 3.05361,2.05131 3.39469,2.05131 0.34108,0 0.42865,-5.50584 0.19459,-12.23522 l -0.42555,-12.23521 2.82685,0.28209 c 2.45448,0.24494 3.24723,1.11419 6.0184,6.59924 3.84948,7.61937 10.18118,14.88182 15.89286,18.22909 4.96794,2.91141 15.68773,4.04283 21.16798,2.23419 9.70626,-3.20336 14.60958,-14.23643 10.33257,-23.24956 -2.10285,-4.43142 -7.53889,-7.72158 -22.19277,-13.43215 -15.07375,-5.87419 -18.51751,-7.62447 -23.03933,-11.70966 -5.56536,-5.02797 -7.88085,-11.39675 -7.36751,-20.26441 0.37058,-6.40152 0.82,-7.87097 3.76288,-12.30327 4.07132,-6.13184 10.37344,-10.36664 18.54145,-12.45919 6.98873,-1.79043 13.88636,-1.37313 23.94377,1.44859 6.03285,1.69258 6.60561,1.71365 7.6902,0.28294 0.64453,-0.8502 1.17188,-1.88708 1.17188,-2.30415 0,-1.33761 5.3533,-0.80907 6.5625,0.64793 0.83445,1.00545 3.04152,1.40625 7.74371,1.40625 l 6.57664,0 -0.64195,-7.91163 c -0.35307,-4.35139 -0.3529,-11.10139 3.9e-4,-15 L 331.19612,135 l 7.83944,0 7.83944,0 0.0817,6.32812 c 0.045,3.48047 0.0306,10.23047 -0.032,15 L 346.81102,165 l 14.09449,0 14.0945,0 0,4.21875 0,4.21875 -12.89063,0.11102 c -7.08984,0.061 -13.18612,0.0681 -13.54727,0.0155 -1.1164,-0.16242 -0.89785,62.83995 0.23633,68.12842 0.76052,3.54618 1.86217,5.53023 4.22033,7.60072 3.9557,3.47315 7.91707,4.25794 17.47103,3.46117 l 7.45253,-0.62152 -0.29928,2.60548 c -0.21865,1.90339 -1.18347,3.03612 -3.58054,4.20365 -8.47865,4.12963 -23.13874,5.73926 -31.39529,3.44709 -4.79951,-1.33243 -9.31859,-6.1439 -10.61824,-11.30524 -0.58368,-2.31801 -1.30503,-19.82307 -1.6834,-40.85118 l -0.66208,-36.79508 -5.47676,0 -5.47674,0 0,9.375 0,9.375 -2.63138,0 c -2.3357,0 -2.99411,-0.75118 -5.85938,-6.68497 -3.89507,-8.06644 -9.47414,-13.35584 -16.19132,-15.35062 -8.84311,-2.62613 -16.01397,-1.23895 -21.3909,4.13798 -4.38886,4.38885 -5.38034,8.8957 -3.20824,14.58325 2.15251,5.63628 6.30158,8.50311 19.80363,13.68349 16.55118,6.35023 21.25439,8.66988 25.67362,12.66239 5.31665,4.80327 7.81025,9.95416 7.91134,16.34201 0.19536,12.34459 -3.22669,19.74493 -11.86514,25.65893 -12.60984,8.63286 -28.37111,9.34453 -42.98175,1.94076 -3.86626,-1.95919 -4.98939,-2.19777 -5.62503,-1.19497 -0.43683,0.68915 -0.8007,1.50169 -0.8086,1.80564 -0.0569,2.19189 -14.6638,4.46817 -21.02018,3.27571 -4.33811,-0.81384 -9.5067,-5.32503 -10.88464,-9.50021 -0.58709,-1.77891 -1.38286,-3.23439 -1.76837,-3.23439 -0.38551,0 -3.06633,1.83677 -5.95737,4.08172 -6.0691,4.71275 -10.41757,6.92989 -17.06211,8.69942 -5.1859,1.38106 -12.69447,1.5454 -16.60946,0.36351 z m 28.82584,-12.02173 c 2.02438,-1.04287 5.15426,-3.42999 6.95528,-5.30472 l 3.2746,-3.4086 0.57036,-14.25168 c 0.31371,-7.83842 0.37092,-15.80165 0.12715,-17.69607 l -0.44323,-3.44441 -9.46229,3.29362 c -11.55705,4.02274 -14.963,5.73965 -19.99314,10.07835 -5.36403,4.6267 -7.81679,10.02954 -7.81679,17.21853 0,9.04878 3.72719,14.66468 10.68263,16.09594 4.16131,0.8563 11.81357,-0.37001 16.10543,-2.58096 z m 185.08694,11.44756 c -18.77514,-4.98349 -28.9426,-16.78738 -32.88188,-38.17415 -1.4646,-7.95153 -1.22712,-19.68303 0.53325,-26.34114 6.52038,-24.6616 29.36584,-40.38537 51.2005,-35.23962 12.06114,2.84244 20.16045,8.78114 24.69412,18.10661 2.98811,6.14633 6.12942,19.30742 6.13852,25.71844 l 0.003,2.10938 -28.4629,0 c -15.65459,0 -30.42022,0.26828 -32.8125,0.59617 -4.29606,0.58885 -4.3496,0.6395 -4.3496,4.1152 0,5.65219 2.78601,18.74461 4.86933,22.88268 5.9112,11.74133 15.27561,17.6738 27.89811,17.6738 10.24424,0 15.64308,-2.61481 23.48636,-11.37508 l 5.98772,-6.68779 2.11981,1.99147 c 1.93428,1.81717 2.00622,2.21115 0.82189,4.50139 -1.79378,3.4688 -13.78651,14.62098 -18.06813,16.80177 -9.37029,4.77265 -21.02937,6.01451 -31.17759,3.32087 z m 29.81343,-60.87078 c 0.92107,-0.32288 1.06279,-1.86477 0.57888,-6.29799 -1.89115,-17.32499 -8.90053,-26.95942 -19.61106,-26.95548 -9.94023,0.004 -16.49026,3.96315 -21.36133,12.91291 -2.51923,4.62866 -5.31802,14.58537 -5.34356,19.00979 l -0.0139,2.40017 22.26563,-0.32093 c 12.24609,-0.17651 22.81448,-0.51332 23.4853,-0.74847 z m 429.09282,61.40467 c -8.13829,-1.63352 -14.59583,-4.82561 -20.13319,-9.95222 -11.97771,-11.08926 -15.46881,-20.15287 -15.47772,-40.1834 -0.006,-11.77252 0.24276,-13.80534 2.40654,-19.72726 3.17627,-8.69294 10.06048,-18.6015 16.00559,-23.03715 20.02745,-14.94248 51.94944,-8.14998 59.75609,12.71517 1.82105,4.86719 3.15567,11.39794 4.27286,20.90861 l 0.57816,4.92188 -32.94237,0 -32.94236,0 0.68175,7.73437 c 1.70812,19.37845 7.40719,29.42853 19.9422,35.16725 4.50707,2.0634 6.01568,2.27099 14.13419,1.94491 7.88737,-0.3168 9.68101,-0.71223 13.57091,-2.99187 2.46987,-1.44744 6.4179,-5.11928 8.7934,-8.17824 4.58379,-5.90262 5.31929,-6.27458 8.15883,-4.12627 1.63575,1.23756 1.67968,1.60162 0.46875,3.88492 -0.73487,1.38567 -3.89829,5.12431 -7.02981,8.30809 -10.76077,10.94035 -25.52218,15.56613 -40.24382,12.61121 z m 27.44215,-61.32836 c 1.06696,-1.06785 0.36899,-10.65691 -1.23015,-16.90061 -2.67574,-10.44718 -8.12851,-15.59256 -17.22102,-16.25025 -14.36162,-1.03883 -24.47881,10.14932 -26.86761,29.71169 l -0.61735,5.0556 22.62665,-0.4665 c 12.44466,-0.25657 22.93392,-0.77405 23.30948,-1.14993 z m -888.17586093,59.06 c -1.24043505,-3.23252 0.11795411,-4.69669 5.74236863,-6.18955 8.5625953,-2.27273 11.2490753,-4.04904 13.7234563,-9.07401 l 2.205386,-4.4787 0.282627,-47.8125 C 22.519522,158.80437 22.293494,144.69126 21.484046,141.77948 19.836087,135.85142 14.8259,131.25453 7.5,128.949 2.1004652,127.24972 1.3722769,126.73569 1.1080377,124.4369 l -0.29821224,-2.59437 23.60631354,0.25062 23.606314,0.2506 1.903186,5.15625 c 5.16648,13.99741 27.445696,72.56965 32.60179,85.71039 l 5.857822,14.92915 1.628944,-3.2104 c 2.714353,-5.34956 35.338475,-90.90724 37.067835,-97.21143 l 1.6119,-5.87604 22.13741,0.25104 22.13741,0.25104 0,2.34375 c 0,2.14148 -0.60679,2.48955 -7.03125,4.03327 -9.76211,2.34571 -10.37774,3.14501 -11.45195,14.86846 -1.24404,13.577 -0.47373,101.74629 0.91758,105.02565 1.33506,3.14676 3.73934,4.48842 11.47187,6.40163 5.3755,1.33002 6.1275,1.79205 6.38007,3.91991 l 0.28633,2.41217 -22.78633,0.65144 c -12.53247,0.35829 -26.16132,0.51189 -30.28632,0.34133 l -7.5,-0.31011 -0.27937,-2.8537 -0.27936,-2.8537 6.99278,-1.00742 c 8.40871,-1.21139 12.31886,-3.64925 13.74025,-8.56665 0.6739,-2.3314 0.91212,-20.68017 0.72664,-55.96853 l -0.27594,-52.5 -4.36794,8.90625 c -2.40238,4.89844 -12.66172,29.5456 -22.79855,54.77149 -21.558508,53.64914 -23.33963,57.72851 -25.205278,57.72851 -1.584706,0 -3.460714,-4.63693 -21.240428,-52.5 -10.801152,-29.07675 -20.431649,-54.36698 -24.900687,-65.39063 -0.888407,-2.1914 -1.93257,-3.98437 -2.320361,-3.98437 -1.471458,0 -2.028338,21.02769 -1.569943,59.28079 0.303288,25.30938 0.854949,40.85077 1.52694,43.01699 2.441965,7.87188 7.478597,12.1167 17.907497,15.09228 3.460375,0.98732 4.269489,1.64034 4.501007,3.6327 l 0.282257,2.42901 -15.666362,0.61786 c -26.610449,1.04949 -38.78464513,0.8227 -39.38186293,-0.73362 z M 460.54687,261.79838 c -16.3546,-0.28332 -17.43654,-0.54425 -15.41937,-3.71865 0.39808,-0.62646 2.881,-1.60166 5.51758,-2.1671 8.61183,-1.8469 8.22175,-0.0777 8.54063,-38.7351 0.15369,-18.63299 0.0484,-34.79895 -0.2341,-35.92435 -0.92996,-3.7052 -5.13065,-7.64143 -9.81546,-9.19747 -3.57734,-1.1882 -4.65626,-2.02549 -5.0127,-3.89004 -0.2527,-1.32192 0.0143,-2.51988 0.60181,-2.7004 0.58079,-0.17845 7.85472,-0.59731 16.16428,-0.93079 17.37232,-0.69722 16.29796,-1.25868 16.29796,8.51738 l 0,6.0235 6.6685,-5.59911 c 8.28227,-6.9541 13.84254,-9.69952 20.50544,-10.12472 8.64059,-0.55141 14.23921,4.6579 14.22661,13.23737 -0.0115,7.85409 -3.37545,12.10428 -9.5802,12.10428 -2.37199,0 -4.80187,-0.71389 -6.34742,-1.86484 -2.21055,-1.64618 -2.53668,-2.59557 -2.78139,-8.0966 -0.23425,-5.26599 -0.53794,-6.23174 -1.95964,-6.23174 -3.06034,0 -12.70621,5.47635 -16.51549,9.37652 l -3.74766,3.83707 -0.32292,26.86748 c -0.1776,14.77711 -0.0355,29.55128 0.31577,32.83148 0.57539,5.37291 0.92957,6.14091 3.57363,7.74885 1.61422,0.98167 4.84712,2.0618 7.18424,2.4003 5.7922,0.83893 7.53053,1.90714 7.53053,4.62753 l 0,2.31077 -9.60938,-0.21073 c -5.28515,-0.1159 -16.88671,-0.3368 -25.78125,-0.49089 z m 448.53386,0.004 c -6.83838,-0.29927 -7.30595,-0.45212 -7.03125,-2.29855 0.21799,-1.4653 1.5759,-2.39448 5.2391,-3.58497 9.39954,-3.05472 8.74958,0.0898 8.44594,-40.86146 l -0.26577,-35.84554 -2.2662,-2.41129 c -1.24642,-1.3262 -4.41048,-3.20824 -7.03125,-4.1823 -3.8814,-1.44259 -4.82016,-2.22722 -5.06221,-4.23109 -0.17332,-1.43486 0.21738,-2.6205 0.9375,-2.845 0.67906,-0.2117 8.09013,-0.61989 16.46903,-0.90709 l 15.23438,-0.52216 0,7.47157 0,7.47158 8.61994,-6.54443 c 9.14822,-6.94547 13.65403,-8.87506 22.90884,-9.81067 8.62584,-0.87201 18.94838,3.6019 23.69109,10.26802 4.91494,6.90827 3.82988,6.87235 11.96813,0.39611 10.6027,-8.43738 14.9079,-10.22065 24.687,-10.22547 11.2828,-0.006 14.5779,1.12799 20.2853,6.97855 3.8631,3.95995 5.0404,5.9372 5.9471,9.98785 0.6614,2.95513 1.4481,18.65137 1.8964,37.83338 0.8758,37.47168 0.1568,34.75495 9.9515,37.60235 4.23,1.2297 5.0447,1.81773 5.0447,3.64133 l 0,2.1748 -18.0469,0.65248 c -9.9258,0.35886 -20.3672,0.51043 -23.2031,0.3368 -4.7636,-0.29164 -5.1563,-0.49088 -5.1563,-2.61658 0,-1.97458 0.7098,-2.50639 5.0052,-3.75 9.0754,-2.62757 8.7411,-1.09416 8.4087,-38.57256 l -0.2888,-32.5625 -2.8365,-4.06327 c -4.101,-5.87484 -7.8565,-7.54694 -15.9136,-7.08534 -7.9291,0.45428 -11.5459,2.15385 -18.04683,8.48054 l -4.92187,4.78998 0,31.27484 0,31.27484 2.27569,2.03844 c 1.25156,1.12113 4.48871,2.89071 7.19381,3.93239 5.2177,2.0093 6.0255,2.89932 4.6327,5.10381 -0.7203,1.13989 -4.4948,1.37272 -22.25048,1.37246 -11.76066,-1.5e-4 -21.87075,-0.30192 -22.46681,-0.67057 -2.4226,-1.49818 -0.15732,-4.271 4.37812,-5.35904 8.29472,-1.98986 7.95572,-0.39797 7.95572,-37.36086 l 0,-32.47976 -2.34375,-4.18247 c -3.52284,-6.28657 -7.38703,-8.4782 -14.90428,-8.45319 -7.31053,0.0243 -12.195,1.96062 -17.86294,7.08132 -6.74925,6.09751 -6.60778,5.26551 -6.60778,38.85997 l 0,30.1175 2.14955,1.91465 c 1.18224,1.05305 4.45176,2.83807 7.26557,3.96671 3.56691,1.43067 5.20107,2.63031 5.39654,3.96161 0.26493,1.80434 -0.35016,1.94346 -11.16284,2.52486 -6.29376,0.33841 -13.5918,0.53039 -16.21788,0.42663 -2.62608,-0.10377 -8.07117,-0.33294 -12.10021,-0.50927 z M 414.14062,110.00411 c 0.64454,-0.26007 1.69922,-0.26007 2.34375,0 0.64454,0.26007 0.11719,0.47287 -1.17187,0.47287 -1.28906,0 -1.81641,-0.2128 -1.17188,-0.47287 z m 59.0625,0 c 0.64454,-0.26007 1.69922,-0.26007 2.34375,0 0.64454,0.26007 0.11719,0.47287 -1.17187,0.47287 -1.28906,0 -1.81641,-0.2128 -1.17188,-0.47287 z m 44.61826,-6.41036 c 0.004,-4.125 0.16823,-5.695884 0.36628,-3.49085 0.19803,2.20504 0.19525,5.58004 -0.007,7.5 -0.20144,1.91997 -0.36347,0.11585 -0.36007,-4.00915 z m 28.99502,6.46484 c 0.31152,-0.31152 1.12013,-0.34482 1.79688,-0.074 0.74787,0.29927 0.52573,0.52142 -0.56641,0.5664 -0.98827,0.0407 -1.54199,-0.18086 -1.23047,-0.49239 z m -13.49849,-6.69921 c -1.16613,-1.48694 -1.13297,-1.5201 0.35396,-0.35397 1.56165,1.22472 2.05827,1.99459 1.28667,1.99459 -0.19467,0 -0.93296,-0.73828 -1.64063,-1.64062 z M 587.27321,76.875 c 0,-11.085938 0.13562,-15.621094 0.30136,-10.078125 0.16575,5.542969 0.16575,14.613281 0,20.15625 -0.16574,5.542969 -0.30136,1.007812 -0.30136,-10.078125 z m -45.95603,14.765625 -1.78593,-2.109375 2.10937,1.785926 c 1.16016,0.982259 2.10938,1.931478 2.10938,2.109375 0,0.750237 -0.75449,0.196366 -2.43282,-1.785926 z m -23.4958,-5.859375 c 0.004,-4.125 0.16823,-5.69588 0.36628,-3.490844 0.19803,2.205036 0.19525,5.580036 -0.007,7.5 -0.20107,1.919964 -0.36311,0.115844 -0.35971,-4.009156 z M 449.21052,83.4375 c 0,-1.289063 0.2128,-1.816406 0.47287,-1.171875 0.26007,0.644531 0.26007,1.699219 0,2.34375 -0.26007,0.644531 -0.47287,0.117187 -0.47287,-1.171875 z m -5.699,-0.390625 c -0.0407,-0.988281 0.18087,-1.541992 0.49239,-1.230469 0.31152,0.311524 0.34482,1.120117 0.074,1.796875 -0.29927,0.747875 -0.52142,0.525728 -0.5664,-0.566406 z m 203.33363,-1.247668 c 4.85161,-0.195036 8.21835,-0.758836 8.65751,-1.449801 0.49109,-0.772664 0.72317,-0.611196 0.73299,0.509969 0.0127,1.458904 -0.94617,1.619489 -8.65753,1.449802 l -8.67187,-0.190825 7.9389,-0.319145 z M 522.59291,59.0625 c 0,-12.632813 0.13271,-17.800781 0.2949,-11.484375 0.1622,6.316406 0.1622,16.652344 0,22.96875 -0.16219,6.316406 -0.2949,1.148437 -0.2949,-11.484375 z m 17.80788,0 c 0,-11.601563 0.13458,-16.347656 0.29906,-10.546875 0.16448,5.800781 0.16448,15.292969 0,21.09375 -0.16448,5.800781 -0.29906,1.054687 -0.29906,-10.546875 z M 411.15402,76.212307 c -0.50876,-1.336123 -0.40108,-1.443808 0.52481,-0.524807 0.64071,0.635938 0.92876,1.392413 0.64011,1.681057 -0.28865,0.288645 -0.81286,-0.231667 -1.16492,-1.15625 z M 479.30264,75.9375 c 0.32003,-1.175348 2.91014,-1.41245 15.7745,-1.444008 l 15.39161,-0.03776 -14.96,0.296926 c -10.43086,0.207032 -15.20658,0.644205 -15.77449,1.444009 -0.58805,0.828159 -0.70805,0.756102 -0.43162,-0.259168 z m -52.66612,-2.265625 c -0.0407,-0.988281 0.18087,-1.541992 0.49239,-1.230469 0.31152,0.311524 0.34482,1.120117 0.074,1.796875 -0.29927,0.747875 -0.52142,0.525728 -0.5664,-0.566406 z m 131.39356,0.658257 c 1.40874,-0.213913 3.93999,-0.218219 5.625,-0.0096 1.68502,0.208651 0.53242,0.383671 -2.56133,0.388933 -3.09375,0.0053 -4.4724,-0.165452 -3.06367,-0.379365 z m -123.10104,-20.658257 -2.27279,-2.578125 2.57812,2.272794 c 1.41797,1.250038 2.57813,2.410194 2.57813,2.578125 0,0.735257 -0.75919,0.136852 -2.88346,-2.272794 z M 391.155,41.25 c 0,-1.804688 0.19294,-2.542969 0.42875,-1.640625 0.2358,0.902344 0.2358,2.378906 0,3.28125 C 391.34794,43.792969 391.155,43.054687 391.155,41.25 Z m 88.5325,2.1875 c -0.34375,-0.34375 -0.61854,-1.082031 -0.61065,-1.640625 0.008,-0.620441 0.29793,-0.569291 0.74314,0.131457 0.51171,0.805421 5.18464,1.231897 15.68876,1.431837 l 14.96,0.284755 -15.07812,0.208788 c -8.29298,0.114834 -15.35938,-0.07246 -15.70313,-0.416212 z m 86.79687,-0.07509 c 6.0586,-0.163299 15.97266,-0.163299 22.03125,0 6.0586,0.163299 1.10157,0.296909 -11.01562,0.296909 -12.11719,0 -17.07422,-0.13361 -11.01563,-0.296909 z M 408.75,41.305328 c 0,-0.485194 0.41705,-1.139918 0.92677,-1.454941 0.53143,-0.328443 0.68859,0.04787 0.36844,0.882171 -0.62324,1.624141 -1.29521,1.9213 -1.29521,0.57277 z m 35.94638,-8.961578 c 0.004,-4.125 0.16823,-5.69588 0.36628,-3.490844 0.19803,2.205036 0.19525,5.580036 -0.007,7.5 -0.20107,1.919964 -0.36311,0.115844 -0.35971,-4.009156 z m 73.125,0 c 0.004,-4.125 0.16823,-5.69588 0.36628,-3.490844 0.19803,2.205036 0.19525,5.580036 -0.007,7.5 -0.20107,1.919964 -0.36311,0.115844 -0.35971,-4.009156 z m -68.61086,2.34375 c 0,-1.289063 0.2128,-1.816406 0.47287,-1.171875 0.26007,0.644531 0.26007,1.699219 0,2.34375 -0.26007,0.644531 -0.47287,0.117187 -0.47287,-1.171875 z m 95.47698,-5.15625 c 1.21102,-1.289063 2.41278,-2.34375 2.67059,-2.34375 0.25781,0 -0.52207,1.054687 -1.73309,2.34375 -1.21102,1.289062 -2.41278,2.34375 -2.67059,2.34375 -0.25781,0 0.52207,-1.054688 1.73309,-2.34375 z m -148.125,-2.8125 c 0.6419,-0.773438 1.37802,-1.40625 1.63583,-1.40625 0.25782,0 -0.0564,0.632812 -0.69833,1.40625 -0.6419,0.773437 -1.37802,1.40625 -1.63583,1.40625 -0.25782,0 0.0564,-0.632813 0.69833,-1.40625 z m 9.6289,-1.035157 c 0.31152,-0.311522 1.12012,-0.344829 1.79688,-0.07401 0.74787,0.299274 0.52573,0.521421 -0.56641,0.566406 -0.98827,0.04071 -1.54199,-0.18087 -1.23047,-0.492393 z m 71.25,0 c 0.31152,-0.311522 1.12012,-0.344829 1.79688,-0.07401 0.74787,0.299274 0.52573,0.521421 -0.56641,0.566406 -0.98827,0.04071 -1.54199,-0.18087 -1.23047,-0.492393 z M 444.69638,14.53125 c 0.004,-4.125 0.16823,-5.6958798 0.36628,-3.490844 0.19803,2.205036 0.19525,5.580036 -0.007,7.5 -0.20107,1.919964 -0.36311,0.115844 -0.35971,-4.009156 z m 73.125,0 c 0.004,-4.125 0.16823,-5.6958798 0.36628,-3.490844 0.19803,2.205036 0.19525,5.580036 -0.007,7.5 -0.20107,1.919964 -0.36311,0.115844 -0.35971,-4.009156 z m 13.74112,1.875 C 532.2044,15.632813 532.94052,15 533.19833,15 c 0.25782,0 -0.0564,0.632813 -0.69833,1.40625 -0.6419,0.773437 -1.37802,1.40625 -1.63583,1.40625 -0.25782,0 0.0564,-0.632813 0.69833,-1.40625 z M 406.64062,7.8166118 c 0.64454,-0.260074 1.69922,-0.260074 2.34375,0 0.64454,0.2600741 0.11719,0.4728619 -1.17187,0.4728619 -1.28906,0 -1.81641,-0.2127878 -1.17188,-0.4728619 z m 68.4375,0 c 0.64454,-0.260074 1.69922,-0.260074 2.34375,0 0.64454,0.2600741 0.11719,0.4728619 -1.17187,0.4728619 -1.28906,0 -1.81641,-0.2127878 -1.17188,-0.4728619 z m 73.61328,0.054482 c 0.31152,-0.3115234 1.12013,-0.3448293 1.79688,-0.074013 0.74787,0.2992747 0.52573,0.5214213 -0.56641,0.5664062 -0.98827,0.040707 -1.54199,-0.1808696 -1.23047,-0.4923931 z m 96.55587,-0.1063261 c 1.42505,-0.2154885 3.53443,-0.2097299 4.6875,0.012797 1.15306,0.2225268 -0.0128,0.3988356 -2.59102,0.3917973 -2.57813,-0.00704 -3.52154,-0.1891058 -2.09648,-0.4045942 z"
       id="path3422"
       inkscape:connector-curvature="0" />
    <path
       style="fill:#040404"
       d="m 375.9375,103.69403 0,-7.13153 20.39062,-0.02062 c 22.69721,-0.02287 25.58352,-0.628575 30.42697,-6.384692 5.42288,-6.444721 6.06021,-17.792647 1.34638,-23.972796 -3.18847,-4.180302 -6.43286,-5.89444 -16.30727,-8.61577 -8.96423,-2.470491 -12.52334,-4.700193 -14.64737,-9.17625 -3.30218,-6.958838 -0.72434,-17.140786 5.25513,-20.756634 2.74098,-1.657498 5.13347,-1.888124 22.51991,-2.170821 l 19.45313,-0.316262 0,7.113175 0,7.113175 -17.28842,0 c -16.85163,0 -20.04985,0.536725 -17.62822,2.958356 0.50598,0.505992 4.21228,1.763393 8.23621,2.794227 9.59199,2.457239 13.26315,4.422321 18.13424,9.706833 5.08011,5.511281 7.52472,11.010858 8.22424,18.501956 1.08147,11.581162 -4.38501,24.243447 -13.19881,30.573033 -7.73583,5.55546 -10.19228,6.03038 -33.58862,6.49374 l -21.32812,0.42241 0,-7.13152 z m 97.5,6.07005 c -9.35961,-1.84069 -17.94547,-9.27113 -21.75406,-18.82658 -1.87511,-4.704526 -2.08711,-7.172763 -2.41985,-28.173924 -0.38575,-24.347305 0.25623,-31.118057 3.60676,-38.039328 2.76839,-5.718734 8.66556,-11.398498 14.79648,-14.250989 5.1718,-2.40625 5.84836,-2.4753976 27.56754,-2.817525 L 517.5,7.3049989 l 0,7.0805881 0,7.080589 -21.87233,0.282537 -21.87232,0.282537 -3.54221,2.703668 c -6.59863,5.03653 -7.04424,7.217972 -7.06755,34.599305 -0.0187,21.946332 0.14405,24.49902 1.76317,27.65625 2.15321,4.198684 5.26833,7.224818 8.82415,8.57208 1.5774,0.597656 10.91219,0.999947 23.20312,0.999947 l 20.56397,0 0,7.03125 0,7.03125 -20.39063,-0.10781 c -11.21484,-0.0593 -21.86718,-0.3982 -23.67187,-0.75311 z m 72.87607,-0.15913 c -8.68698,-2.04663 -16.23624,-8.30062 -20.27032,-16.79245 -2.44311,-5.142789 -2.45021,-5.227472 -2.72324,-32.437733 -0.25861,-25.7729 -0.1651,-27.571864 1.69102,-32.53278 2.58356,-6.905202 9.00318,-13.941374 15.73652,-17.247896 l 5.3462,-2.625341 26.48437,-0.3208933 26.48438,-0.3208933 0,7.1177686 0,7.117768 -24.54776,0 c -22.61999,0 -24.8515,0.147036 -28.41547,1.872326 -2.12724,1.029779 -4.7546,3.071921 -5.83859,4.538091 -3.73888,5.057103 -4.16508,8.779703 -3.84568,33.589534 l 0.30375,23.593701 2.8125,3.965553 c 4.98223,7.024817 6.59303,7.440795 28.8135,7.440795 l 19.46775,0 0,-19.6875 0,-19.6875 -15.9375,0 -15.9375,0 0,-6.5625 0,-6.5625 21.55019,0 21.55019,0 0.24669,31.982888 0.24668,31.982892 15.36028,-43.467267 c 8.44815,-23.906994 16.46378,-45.538463 17.8125,-48.06993 3.40327,-6.387715 7.08962,-8.2489541 15.58135,-7.8670076 7.42395,0.3339191 11.59479,2.5493846 14.16824,7.5258886 0.8183,1.582428 8.23786,21.904636 16.48789,45.160463 8.25004,23.255828 15.57107,43.865353 16.26895,45.798953 l 1.26887,3.51562 -30.42717,0 -30.42716,0 0,-6.09375 0,-6.09375 21.5625,0 c 12.45937,0 21.5625,-0.363178 21.5625,-0.860259 0,-0.9135 -23.37602,-66.184065 -25.66627,-71.665386 -1.45304,-3.477621 -4.08851,-4.849465 -7.61567,-3.964201 -2.60074,0.652744 -1.5506,-1.977747 -18.83646,47.183048 -7.02743,19.985926 -13.19348,37.498208 -13.70233,38.916178 l -0.92519,2.57812 -31.08017,-0.0942 c -17.09409,-0.0518 -32.66874,-0.46844 -34.61034,-0.92588 z m 70.54817,0.31693 c -0.0381,-2.0179 28.76195,-83.706061 29.62952,-84.041069 0.56239,-0.21716 1.54827,-0.06991 2.19085,0.327227 1.10288,0.68162 24.36817,64.80906 24.41903,67.307587 0.0183,0.8991 -4.32537,1.171875 -18.66094,1.171875 -18.551,0 -18.68694,-0.01481 -18.98437,-2.068177 -0.17724,-1.223538 -1.61927,2.030883 -3.53096,7.968747 l -3.2314,10.03693 -5.90923,0 c -3.25009,0 -5.9152,-0.31641 -5.9225,-0.70312 z M 656.25,81.798254 c 0,-1.307137 -7.72873,-24.136499 -8.43382,-24.912086 -0.62674,-0.689396 -8.44118,22.071504 -8.44118,24.586379 0,0.668829 2.94503,1.027453 8.4375,1.027453 4.64062,0 8.4375,-0.315786 8.4375,-0.701746 z m -280.3125,4.003239 0,-7.011006 18.04687,-0.254619 c 15.1474,-0.21371 18.04688,-0.476297 18.04688,-1.634387 0,-0.94903 -2.54483,-2.030734 -8.15174,-3.464977 -9.80701,-2.508625 -12.78282,-3.964817 -17.26795,-8.449943 -13.6637,-13.663698 -10.76617,-40.489843 5.52781,-51.177888 7.98814,-5.2398356 9.76038,-5.5779666 31.845,-6.0758096 l 20.39063,-0.4596562 0,7.1446468 0,7.144646 -19.54005,0 c -18.64845,0 -19.72857,0.09957 -23.67188,2.182162 -8.90199,4.701452 -12.50389,17.275982 -7.61703,26.591652 2.88094,5.491846 6.99654,8.284214 15.68513,10.642102 13.5988,3.690414 17.72153,7.504879 17.72909,16.403496 0.006,6.283536 -2.56383,10.624847 -7.88348,13.321213 -3.91894,1.986393 -5.29782,2.109375 -23.65043,2.109375 l -19.48885,0 0,-7.011007 z m 99.84375,5.696149 c -6.46323,-2.852936 -8.80701,-8.515893 -8.8651,-21.419517 l -0.0412,-9.140625 21.5625,0 21.5625,0 0,6.5625 0,6.5625 -14.94467,0 c -8.21957,0 -15.18187,0.383804 -15.4718,0.852898 -0.28991,0.469094 -0.26967,1.523782 0.045,2.34375 0.49641,1.293668 3.03873,1.490852 19.22177,1.490852 l 18.6497,0 0,7.03125 0,7.03125 -19.45313,-0.03669 C 484.013,92.74933 477.81018,92.393264 475.7812,91.497648 Z m 72.64163,-0.423362 c -1.79665,-0.95602 -4.20891,-3.381801 -5.36058,-5.390625 -2.00989,-3.505782 -2.09457,-4.578313 -2.10938,-26.71689 -0.015,-22.388196 0.0464,-23.155361 2.09396,-26.163798 4.77593,-7.017309 4.65202,-6.988726 31.70706,-7.313707 l 24.30856,-0.291991 0,7.072198 0,7.072198 -22.73438,0.251042 -22.73437,0.251043 0,19.21875 0,19.21875 7.26562,0.27381 c 6.6537,0.250749 7.26563,0.121021 7.26563,-1.540323 0,-2.275752 -1.73615,-2.952237 -7.57668,-2.952237 l -4.61082,0 0,-6.5625 0,-6.5625 13.59375,0 13.59375,0 0,15.9375 0,15.9375 -15.71775,0 c -13.50592,0 -16.17744,-0.244606 -18.98437,-1.73822 z M 467.01255,46.640625 c 0.38718,-12.013489 1.81522,-15.672837 7.39562,-18.951202 2.93969,-1.726998 5.1396,-1.936758 23.16995,-2.209242 L 517.5,25.179112 l 0,7.097944 0,7.097944 -18.6497,0 c -16.18304,0 -18.72536,0.197184 -19.22179,1.490852 -0.31465,0.819968 -0.33489,1.874656 -0.045,2.34375 0.28995,0.469094 7.25225,0.852898 15.47182,0.852898 l 14.94467,0 0,6.5625 0,6.5625 -21.66368,0 -21.66368,0 0.33991,-10.546875 z"
       id="path3420"
       inkscape:connector-curvature="0" />
  </g>
</svg>
