<?xml version="1.0" encoding="UTF-8" standalone="no"?>
<!-- Created with Inkscape (http://www.inkscape.org/) -->

<svg
   xmlns:dc="http://purl.org/dc/elements/1.1/"
   xmlns:cc="http://creativecommons.org/ns#"
   xmlns:rdf="http://www.w3.org/1999/02/22-rdf-syntax-ns#"
   xmlns:svg="http://www.w3.org/2000/svg"
   xmlns="http://www.w3.org/2000/svg"
   xmlns:sodipodi="http://sodipodi.sourceforge.net/DTD/sodipodi-0.dtd"
   xmlns:inkscape="http://www.inkscape.org/namespaces/inkscape"
   id="svg3363"
   version="1.1"
   inkscape:version="0.91 r13725"
   width="898.125"
   height="480"
   viewBox="0 0 898.125 480"
   sodipodi:docname="logo.svg">
  <metadata
     id="metadata3369">
    <rdf:RDF>
      <cc:Work
         rdf:about="">
        <dc:format>image/svg+xml</dc:format>
        <dc:type
           rdf:resource="http://purl.org/dc/dcmitype/StillImage" />
        <dc:title></dc:title>
      </cc:Work>
    </rdf:RDF>
  </metadata>
  <defs
     id="defs3367" />
  <sodipodi:namedview
     pagecolor="#ffffff"
     bordercolor="#666666"
     borderopacity="1"
     objecttolerance="10"
     gridtolerance="10"
     guidetolerance="10"
     inkscape:pageopacity="0"
     inkscape:pageshadow="2"
     inkscape:window-width="1366"
     inkscape:window-height="721"
     id="namedview3365"
     showgrid="false"
     inkscape:zoom="0.32734864"
     inkscape:cx="449.0625"
     inkscape:cy="-205.56493"
     inkscape:window-x="-4"
     inkscape:window-y="-4"
     inkscape:window-maximized="1"
     inkscape:current-layer="svg3363" />
  <path
     style="fill:#010101"
     d="M 238.39539,469.66338 C 174.32865,463.46158 117.54926,438.11158 74.664633,396.56348 31.536533,354.77941 8.0646817,303.8826 5.9215976,247.49972 3.6174655,186.8798 27.816111,128.88487 74.182768,83.903724 93.827621,64.845884 113.14626,51.279514 138.82859,38.506654 245.84381,-14.716356 378.94007,6.5100545 459.3867,89.629774 c 40.71627,42.069176 62.80117,94.948856 62.80117,150.369946 0,45.63568 -14.97673,89.70323 -43.65056,128.4375 -9.37529,12.66468 -34.44586,37.70566 -47.44717,47.39116 -37.64725,28.0458 -78.16834,44.6505 -126.87102,51.9891 -14.96381,2.2547 -51.12451,3.2688 -65.82373,1.8459 z m 25.51565,-183.80833 c 9.80092,-3.667 17.33955,-11.20459 21.00543,-21.00255 6.19495,-16.55746 4.24177,-38.22144 -4.48956,-49.79668 -3.57446,-4.7387 -11.2171,-9.99567 -16.97618,-11.67699 -5.53176,-1.61496 -16.11104,-2.08294 -22.04411,-0.97513 -20.25345,3.78168 -31.3534,19.34772 -31.39239,44.0232 -0.0357,22.60807 9.52821,36.79054 27.64239,40.99125 7.3801,1.71146 19.4179,0.99477 26.25443,-1.5631 z M 242.98559,275.5874 c -12.75332,-2.59557 -18.75327,-13.88695 -17.78386,-33.46769 0.5618,-11.34788 2.95782,-17.49036 8.84331,-22.67097 8.75528,-7.7067 23.56791,-7.46144 31.55177,0.52242 11.04049,11.04049 10.60505,41.17482 -0.73315,50.73681 -5.39879,4.55305 -14.02679,6.47733 -21.87807,4.87943 z m 109.06454,12.14206 c 19.5016,-3.60507 31.38774,-20.02714 31.38774,-43.36579 0,-19.05823 -6.40009,-31.86099 -19.2311,-38.46998 -11.50155,-5.92421 -29.35233,-5.5415 -40.28182,0.8636 -5.50868,3.2283 -12.33087,10.73064 -14.66285,16.12466 -5.90804,13.66575 -5.97596,33.37553 -0.15913,46.18027 6.69027,14.72749 23.86852,22.19411 42.94716,18.66724 z m -14.49554,-12.14514 c -7.06365,-1.46011 -13.7966,-8.21944 -16.20954,-16.27308 -1.86006,-6.20829 -1.51614,-23.52623 0.58721,-29.56931 2.5284,-7.26425 8.90809,-13.45699 15.48984,-15.03593 9.90456,-2.37607 20.74535,1.01241 25.59821,8.00119 8.2934,11.94364 6.79659,38.61509 -2.66442,47.47717 -5.22662,4.89576 -14.55403,7.10473 -22.8013,5.39996 z M 77.812862,236.24972 c 0.257812,-27.58594 0.732931,-49.52344 1.055818,-48.75 0.322888,0.77344 8.694573,22.5 18.603744,48.28125 9.909176,25.78125 18.631866,47.84299 19.383756,49.02609 1.23568,1.94434 1.96678,2.12456 7.60624,1.875 l 6.23916,-0.27609 20.19627,-50.15625 20.19627,-50.15625 0.46875,50.15625 0.46875,50.15625 7.03125,0 7.03125,0 0.24192,-54.60183 c 0.2857,-64.48068 1.537,-58.36692 -11.94588,-58.36692 -7.87483,0 -8.60747,0.1677 -11.26312,2.57812 -2.2504,2.04259 -6.44641,11.33775 -20.19995,44.74766 -9.54774,23.19324 -17.66491,42.47491 -18.03815,42.84815 -0.37324,0.37324 -8.01252,-17.97023 -16.97615,-40.76327 -8.963653,-22.79306 -17.180509,-42.78982 -18.259687,-44.43727 -2.729264,-4.16642 -5.088939,-4.97553 -14.462478,-4.95904 -8.749792,0.0154 -9.640197,0.28644 -11.299915,3.43964 -1.20431,2.288 -1.60677,108.20458 -0.41568,109.39568 0.364192,0.36419 3.633723,0.53997 7.265625,0.39063 l 6.603457,-0.27155 0.46875,-50.15625 z m 341.250008,21.23267 0.46875,-28.92358 5.68024,-5.33772 c 6.80733,-6.39684 10.98078,-8.53387 16.66604,-8.53387 5.20279,0 8.23522,1.08699 10.95515,3.92694 4.87001,5.0849 5.10353,6.67897 5.60482,38.26056 l 0.46875,29.53125 5.94123,0.28123 c 3.57319,0.16914 6.4691,-0.15686 7.26562,-0.81791 1.07818,-0.89481 1.32308,-5.56593 1.31728,-25.12498 -0.0109,-36.78594 -1.60105,-45.17449 -9.95785,-52.53043 -4.85983,-4.2778 -10.80078,-6.19274 -19.09753,-6.15571 -7.58066,0.0338 -14.33371,2.96898 -21.28221,9.2501 l -4.87595,4.40763 -0.2803,-5.84892 c -0.27456,-5.72949 -0.34251,-5.86498 -3.32716,-6.6349 -1.67579,-0.43228 -4.41797,-0.43077 -6.09375,0.004 l -3.04688,0.78934 -0.24468,40.25308 c -0.13457,22.1392 -0.0349,40.79984 0.22151,41.46809 0.33352,0.86925 2.27059,1.13603 6.80717,0.9375 l 6.341,-0.27787 0.46875,-28.92358 z m 442.96875,133.93157 c -0.51563,-0.17201 -2.08548,-0.56555 -3.48857,-0.87456 -3.63227,-0.79993 -4.93765,-3.64794 -3.23572,-7.05953 0.90631,-1.81677 1.03769,-3.0105 0.40134,-3.64685 -0.55025,-0.55025 -0.64712,-2.05332 -0.23156,-3.59278 0.39294,-1.45572 0.63099,-4.35049 0.52899,-6.4328 -0.29804,-6.08451 2.43769,-7.61356 12.82239,-7.16668 2.84047,0.12223 3.98438,0.57519 3.98438,1.57771 0,0.77344 -0.64085,1.40625 -1.42411,1.40625 -1.03622,0 -1.26986,0.61459 -0.85778,2.25643 0.56999,2.27103 -0.86553,6.06005 -2.78033,7.33859 -0.56735,0.37883 -2.8245,0.69523 -5.01591,0.70313 -2.7624,0.01 -3.98437,0.41251 -3.98437,1.31258 0,0.87861 1.74239,1.51246 5.39062,1.96102 5.88978,0.72416 8.67976,2.51525 8.65753,5.55793 -0.021,2.87496 -1.05002,4.06479 -4.91027,5.6777 -3.46771,1.44891 -4.12579,1.55924 -5.85663,0.98186 z m 4.12972,-3.39868 c 2.28808,-0.79763 2.93533,-1.52319 2.71801,-3.04688 -0.23669,-1.65954 -1.01724,-2.04751 -4.5861,-2.27945 -2.99264,-0.1945 -4.66424,0.15832 -5.4955,1.15994 -1.59537,1.92229 -0.66352,4.03462 2.00467,4.54419 1.19168,0.22759 2.20922,0.47125 2.26118,0.54147 0.0519,0.0702 1.44595,-0.34345 3.09774,-0.91927 z m 0.45748,-16.37349 c 1.85704,-4.83936 -1.54332,-8.24324 -5.58757,-5.59334 -2.52047,1.65147 -2.74994,2.57309 -1.3104,5.2629 1.20279,2.24744 6.07283,2.48073 6.89797,0.33044 z m -200.99345,11.85469 c -5.38023,-1.21208 -7.5,-4.2544 -7.5,-10.76408 0,-3.38158 0.56299,-4.8957 2.71656,-7.30596 2.24881,-2.51685 3.3959,-3.04036 6.662,-3.04036 5.01888,0 8.69651,3.68722 8.25064,8.27217 l -0.28545,2.93522 -6.79688,0.27545 c -7.29856,0.29578 -7.97363,0.90854 -5.26353,4.77775 1.35879,1.93995 2.10585,2.14167 6.5625,1.7721 3.73918,-0.31009 5.02916,-0.10127 5.02916,0.81409 0,0.67713 -1.16016,1.48534 -2.57813,1.79605 -1.41796,0.31071 -3,0.66182 -3.51562,0.78024 -0.51563,0.11844 -1.99219,-0.0223 -3.28125,-0.31267 z m 6.5625,-14.10015 c 0,-1.01936 -0.99774,-2.50713 -2.21721,-3.30616 -3.47414,-2.27634 -8.09529,0.17755 -8.09529,4.29873 0,0.47345 2.32031,0.86082 5.15625,0.86082 4.51121,0 5.15625,-0.23185 5.15625,-1.85339 z m 76.875,14.10015 c -5.2499,-1.18272 -7.5,-4.26266 -7.5,-10.26602 0,-5.22594 1.5861,-8.19251 5.33009,-9.96915 6.10811,-2.89849 12.904,1.23076 12.29367,7.46974 l -0.28001,2.86242 -6.79688,0.27545 c -7.29856,0.29578 -7.97363,0.90854 -5.26353,4.77775 1.35879,1.93995 2.10585,2.14167 6.5625,1.7721 3.73918,-0.31009 5.02916,-0.10127 5.02916,0.81409 0,0.67713 -1.16016,1.48534 -2.57813,1.79605 -1.41796,0.31071 -3,0.66182 -3.51562,0.78024 -0.51563,0.11844 -1.99219,-0.0223 -3.28125,-0.31267 z m 6.5625,-14.10015 c 0,-1.01936 -0.99774,-2.50713 -2.21721,-3.30616 -3.47414,-2.27634 -8.09529,0.17755 -8.09529,4.29873 0,0.47345 2.32031,0.86082 5.15625,0.86082 4.51121,0 5.15625,-0.23185 5.15625,-1.85339 z m -177.80363,12.11312 c -8.65418,-5.54414 -7.3751,-20.71049 2.13493,-25.31421 4.34291,-2.10237 9.53478,-2.05758 13.59861,0.11732 2.62167,1.40307 2.32914,4.08897 -0.35179,3.23 -3.73508,-1.19672 -8.13815,-1.63741 -10.48208,-1.04912 -3.60682,0.90525 -6.37489,5.59972 -6.37489,10.81144 0,7.70861 4.93326,12.2265 11.91947,10.91587 3.18489,-0.59748 3.29688,-0.76037 3.29688,-4.79476 l 0,-4.17627 -3.81874,0 c -3.13226,0 -3.76194,-0.29493 -3.50279,-1.64063 0.25512,-1.32474 1.30625,-1.64062 5.45937,-1.64062 l 5.14341,0 0.2756,6.8044 c 0.26651,6.58007 0.19495,6.83507 -2.17041,7.73438 -4.20508,1.59877 -11.86285,1.09367 -15.12757,-0.9978 z m 24.58935,0.45455 c -2.03357,-2.03356 -1.84582,-6.33647 0.36374,-8.3361 1.01032,-0.91433 3.75251,-1.87833 6.09375,-2.14223 3.11009,-0.35055 4.25293,-0.88891 4.24244,-1.9985 -0.0318,-3.35741 -1.49251,-4.16722 -6.45652,-3.57931 -3.75903,0.4452 -4.77913,0.28332 -4.77913,-0.75842 0,-1.95531 6.67504,-3.70504 9.96711,-2.61269 3.8327,1.27173 5.0033,4.34248 5.01907,13.1661 0.0127,7.11398 -0.13657,7.73437 -1.86118,7.73437 -1.03125,0 -1.875,-0.50625 -1.875,-1.125 0,-0.875 -0.25,-0.875 -1.125,0 -1.61475,1.61475 -7.85284,1.38823 -9.58928,-0.34822 z m 8.90091,-2.30976 c 1.03987,-0.55652 1.81337,-1.95616 1.81337,-3.28125 0,-1.92813 -0.45303,-2.31077 -2.73582,-2.31077 -1.50471,0 -3.40315,0.25607 -4.21875,0.56905 -1.47464,0.56587 -2.05141,4.17497 -0.85793,5.36845 0.92982,0.92982 3.94014,0.75646 5.99913,-0.34548 z m 12.12587,-6.52952 c 0,-8.54167 0.24148,-10.3125 1.40625,-10.3125 0.77344,0 1.40625,0.69819 1.40625,1.55155 0,1.41591 0.14343,1.42229 1.64062,0.073 2.89246,-2.60663 6.16441,-2.86068 8.92064,-0.69265 l 2.51134,1.97544 2.67871,-1.98046 c 1.93465,-1.43035 3.38024,-1.80438 5.20432,-1.34656 4.21096,1.05688 5.29437,3.67943 5.29437,12.81574 0,7.6039 -0.14241,8.2289 -1.875,8.2289 -1.7244,0 -1.875,-0.625 -1.875,-7.78125 0,-7.91907 -0.79467,-10.03125 -3.77408,-10.03125 -0.83824,0 -2.44137,0.97641 -3.5625,2.1698 -1.70246,1.81218 -2.03842,3.28006 -2.03842,8.90625 0,5.36296 -0.28672,6.73645 -1.40625,6.73645 -1.10188,0 -1.42647,-1.36966 -1.4997,-6.32812 -0.12508,-8.46996 -0.89819,-10.94477 -3.53792,-11.32534 -4.19179,-0.60431 -5.74363,2.17827 -5.74363,10.29877 0,6.7297 -0.15934,7.3547 -1.875,7.3547 -1.76137,0 -1.875,-0.625 -1.875,-10.3125 z m 68.20312,9.29991 c -2.52026,-1.46792 -2.14488,-4.05274 0.46875,-3.22785 7.31781,2.30956 11.01563,1.21069 11.01563,-3.27349 0,-2.3089 -0.65177,-3.0876 -3.98438,-4.76032 -5.92155,-2.97216 -8.20773,-5.41924 -8.17331,-8.74854 0.0378,-3.65166 1.73741,-5.89786 5.4392,-7.18831 3.9396,-1.37335 9.53099,0.38912 9.53099,3.00429 0,1.55859 -0.28922,1.6805 -1.91832,0.80863 -2.67446,-1.43133 -7.53404,-0.76865 -8.76359,1.19505 -1.44512,2.30801 -0.0422,4.14465 5.54381,7.25759 7.30922,4.07326 8.64013,9.20758 3.58658,13.83616 -2.51025,2.29917 -9.62921,2.91178 -12.74536,1.09679 z m 23.2701,-0.46063 c -1.08784,-1.08783 -1.47322,-3.389 -1.47322,-8.79691 0,-6.53524 -0.20185,-7.37647 -1.875,-7.81401 -1.03125,-0.26968 -1.875,-0.95169 -1.875,-1.51559 0,-0.5639 0.84375,-1.02527 1.875,-1.02527 1.45834,0 1.875,-0.625 1.875,-2.8125 0,-2.1875 0.41666,-2.8125 1.875,-2.8125 1.45834,0 1.875,0.625 1.875,2.8125 0,2.5 0.3125,2.8125 2.8125,2.8125 1.875,0 2.8125,0.46875 2.8125,1.40625 0,0.94182 -0.94188,1.40625 -2.85193,1.40625 l -2.85194,0 0.27381,7.26563 c 0.26953,7.15185 0.31418,7.27027 2.85193,7.56226 1.47563,0.16979 2.57813,0.87138 2.57813,1.64063 0,1.86646 -6.00429,1.76826 -7.90178,-0.12924 z m 12.58928,-8.83928 c 0,-9.6875 0.11363,-10.3125 1.875,-10.3125 1.03125,0 1.875,0.4316 1.875,0.95911 0,0.52751 1.05143,0.27019 2.33651,-0.57183 2.59946,-1.70323 5.16349,-1.21185 5.16349,0.98955 0,0.8975 -0.85865,1.43567 -2.29059,1.43567 -3.67519,0 -5.20941,3.23662 -5.20941,10.98985 0,6.19765 -0.17176,6.82265 -1.875,6.82265 -1.76137,0 -1.875,-0.625 -1.875,-10.3125 z m 38.03572,8.83928 c -2.03357,-2.03356 -1.84582,-6.33647 0.36374,-8.33611 1.01032,-0.91432 3.75251,-1.87832 6.09375,-2.14222 4.23623,-0.47748 4.88772,-1.25093 3.68774,-4.37802 -0.659,-1.71732 -6.03568,-2.02804 -8.86758,-0.51245 -1.50579,0.80588 -1.81337,0.65919 -1.81337,-0.86479 0,-2.31349 5.39367,-4.26138 9.37708,-3.38648 4.50201,0.9888 5.62292,3.55328 5.62292,12.86439 0,6.47444 -0.28316,8.2289 -1.32813,8.2289 -0.73046,0 -1.52148,-0.52734 -1.75781,-1.17188 -0.34374,-0.9375 -0.67812,-0.9375 -1.67187,0 -1.75059,1.6515 -7.94598,1.45916 -9.70647,-0.30134 z m 9.58928,-2.46428 c 0.61875,-0.61875 1.125,-2.12077 1.125,-3.33785 0,-1.9743 -0.36874,-2.18147 -3.42068,-1.92187 -3.67245,0.31238 -5.67836,2.37106 -4.72669,4.85104 0.69348,1.80718 5.35272,2.07833 7.02237,0.40868 z m 11.4375,-6.375 c 0,-9.6875 0.11363,-10.3125 1.875,-10.3125 1.03125,0 1.875,0.43271 1.875,0.96158 0,0.5482 1.2056,0.33813 2.80441,-0.48865 3.18549,-1.64728 7.08385,-1.06452 8.3807,1.25282 0.7682,1.3727 1.03486,1.34797 2.81263,-0.26089 2.74143,-2.48096 7.42886,-2.30602 9.58585,0.35775 1.39279,1.72002 1.72891,3.76862 1.72891,10.53749 0,7.49635 -0.17691,8.36868 -1.64063,8.0898 -1.37428,-0.26182 -1.71672,-1.68082 -2.10937,-8.74061 -0.44244,-7.95513 -0.59145,-8.44542 -2.65544,-8.73775 -4.23309,-0.59955 -5.78206,2.1594 -5.78206,10.29876 0,6.7297 -0.15934,7.3547 -1.875,7.3547 -1.70978,0 -1.875,-0.625 -1.875,-7.09288 0,-8.08339 -1.00987,-10.71962 -4.10644,-10.71962 -3.92381,0 -5.26856,2.71083 -5.26856,10.62069 0,6.56681 -0.16295,7.19181 -1.875,7.19181 -1.76137,0 -1.875,-0.625 -1.875,-10.3125 z m 35.625,0 c 0,-9.6875 0.11363,-10.3125 1.875,-10.3125 1.76137,0 1.875,0.625 1.875,10.3125 0,9.6875 -0.11363,10.3125 -1.875,10.3125 -1.76137,0 -1.875,-0.625 -1.875,-10.3125 z m 10.3125,0 c 0,-9.6875 0.11363,-10.3125 1.875,-10.3125 1.1197,0 1.875,0.625 1.875,1.55155 0,1.39198 0.19407,1.37592 1.8871,-0.15625 2.56021,-2.31696 7.12258,-2.17728 9.59358,0.29372 1.67062,1.6706 2.06845,3.40139 2.40635,10.46875 0.3888,8.13206 0.32606,8.46723 -1.58485,8.46723 -1.83663,0 -1.98968,-0.5001 -1.98968,-6.50147 0,-8.17356 -1.1059,-11.31103 -3.98694,-11.31103 -1.1871,0 -3.09598,0.65674 -4.24196,1.45941 -1.85578,1.29983 -2.0836,2.27367 -2.0836,8.90625 0,6.82184 -0.15737,7.44684 -1.875,7.44684 -1.76137,0 -1.875,-0.625 -1.875,-10.3125 z m -9.14063,-14.74748 c -0.64453,-0.22483 -1.17187,-1.2467 -1.17187,-2.27085 0,-1.3927 0.5293,-1.78656 2.09979,-1.5625 1.1549,0.16477 2.2303,0.98478 2.38978,1.82224 0.31137,1.63501 -1.40801,2.67726 -3.3177,2.01111 z m -274.92187,-25.09627 0,-4.21875 172.96875,0 172.96875,0 0,4.21875 0,4.21875 -172.96875,0 -172.96875,0 0,-4.21875 z m 137.12784,-8.90449 c -4.74497,-0.99925 -11.5178,-3.90468 -15.1785,-6.51132 -8.38125,-5.96797 -7.70427,-21.29473 1.32723,-30.0484 l 3.29691,-3.19549 -3.44092,-3.52383 c -2.90022,-2.97009 -3.5063,-4.31229 -3.85703,-8.54156 -0.44858,-5.40928 2.1359,-13.1851 5.34879,-16.09273 1.55168,-1.40425 1.49743,-1.7623 -1.02419,-6.76146 -3.40529,-6.75103 -3.69431,-16.24923 -0.73511,-24.1584 2.53247,-6.76863 9.03576,-12.73195 16.41654,-15.05349 6.03547,-1.89839 9.85305,-1.99345 33.68719,-0.83883 l 16.875,0.8175 0,5.15625 0,5.15625 -6.95067,0.46875 c -5.94475,0.40091 -6.73234,0.64879 -5.44201,1.71278 2.61745,2.15831 4.71001,10.19167 4.17931,16.04439 -1.27165,14.02389 -9.55128,22.72414 -24.14377,25.37026 -6.82868,1.23828 -12.7153,0.632 -18.51226,-1.90662 l -3.99439,-1.74925 -1.45709,2.22381 c -2.21096,3.37433 -1.40775,8.80984 1.6362,11.0727 2.14546,1.59493 4.72827,1.96579 18.08959,2.59744 19.44675,0.91934 24.50352,2.31651 30.67312,8.47493 4.89804,4.88918 5.93779,8.11611 5.25766,16.31757 -0.80173,9.66784 -8.49137,18.07521 -19.81917,21.66905 -5.59325,1.7745 -26.05915,2.59974 -32.23243,1.2997 z m 27.03127,-11.73874 c 9.65645,-3.29028 14.09379,-12.39704 9.12098,-18.71894 -3.11101,-3.95503 -6.69862,-4.9368 -20.75811,-5.68061 l -12.94677,-0.68494 -3.30509,3.17636 c -4.37971,4.20913 -5.95762,7.42146 -5.95762,12.12867 0,3.11224 0.5617,4.41388 2.81176,6.51575 1.54647,1.44462 4.39413,3.04684 6.32812,3.56049 5.61593,1.49153 19.96414,1.31918 24.70673,-0.29678 z m -3.98753,-60.8464 c 6.85049,-3.54253 9.75193,-15.95543 5.59995,-23.95767 -3.01175,-5.80463 -7.08927,-7.9902 -14.907,-7.9902 -5.31051,0 -6.64486,0.36469 -9.61036,2.62658 -3.99181,3.04471 -5.77446,6.13246 -6.67663,11.56471 -1.34394,8.09235 3.88799,17.39746 10.74989,19.11895 4.29938,1.0786 11.3806,0.42871 14.84415,-1.36237 z m 162.63442,42.56881 c -7.55872,-1.54681 -12.0056,-5.01457 -15.02524,-11.71698 -1.476,-3.27614 -1.72047,-7.23588 -1.98159,-32.09658 l -0.29788,-28.35937 -5.99891,0 c -6.54832,0 -7.93988,-1.06801 -7.93988,-6.09375 0,-5.03811 1.38618,-6.09375 8.00173,-6.09375 l 6.06077,0 0,-10.2122 c 0,-11.44274 -0.0573,-11.3503 7.03125,-11.3503 7.08851,0 7.03125,-0.0924 7.03125,11.3503 l 0,10.2122 11.1497,0 c 12.35629,0 12.2878,-0.036 12.2878,6.45168 0,1.91719 -0.50625,3.99207 -1.125,4.61082 -0.74359,0.74359 -4.75302,1.125 -11.82609,1.125 l -10.70109,0 0.40585,25.54687 c 0.32851,20.67831 0.69117,26.20248 1.90298,28.98705 1.96964,4.52596 4.45311,5.74752 10.41839,5.1246 2.65717,-0.27747 6.09683,-0.63055 7.64371,-0.78463 l 2.8125,-0.28014 0,5.15625 c 0,4.97088 -0.11797,5.2123 -3.28125,6.71541 -4.16871,1.98086 -11.52746,2.73921 -16.569,1.70752 z m -236.556,-0.78372 -2.34375,-0.69249 0,-41.17265 0,-41.17265 3.10284,-0.88987 c 1.9046,-0.54624 4.43888,-0.55979 6.5625,-0.0351 l 3.45966,0.85477 0.24446,40.72429 c 0.13446,22.39835 -0.0765,41.04472 -0.46875,41.43638 -1.10635,1.10464 -7.94697,1.71846 -10.55696,0.94729 z m 126.09375,-0.005 -2.8125,-0.62117 -0.24138,-59.937 c -0.14788,-36.72082 0.10174,-60.2801 0.64444,-60.8228 1.37543,-1.37544 10.89323,-1.20838 12.61606,0.22143 1.31691,1.09293 1.51213,4.26128 1.51213,24.54009 l 0,23.28513 6.11818,-4.63083 c 7.69779,-5.82644 14.39456,-7.94085 22.37632,-7.06499 7.53433,0.82676 12.82842,3.4698 17.43678,8.70517 6.46979,7.35007 6.8724,9.79332 7.2833,44.19915 0.23537,19.70817 0.0298,30.68474 -0.5861,31.30068 -1.39662,1.39661 -10.912,1.3077 -12.62988,-0.11801 -1.25697,-1.0432 -1.50309,-5.33241 -1.7465,-30.43704 l -0.28335,-29.22308 -2.54616,-4.33113 c -3.00061,-5.1042 -7.12261,-7.38762 -13.336,-7.38762 -5.68505,0 -10.84981,2.70343 -17.09406,8.94769 l -4.99253,4.99253 -0.0143,27.95176 c -0.008,15.37347 -0.3243,28.42745 -0.70313,29.00883 -0.89533,1.37408 -7.40585,2.21494 -11.00127,1.42086 z M 559.377,291.73638 c -1.42275,-1.57214 -1.56413,-6.65464 -1.56413,-56.23093 0,-52.9256 0.0525,-54.53065 1.81337,-55.47306 2.2854,-1.22311 7.63923,-1.25101 10.78185,-0.0562 l 2.40478,0.9143 0,49.6931 0,49.6931 21.29359,0.25199 21.29358,0.25197 0.87329,3.04687 c 0.53942,1.88206 0.53935,4.21169 -2e-4,6.09375 l -0.87348,3.04688 -27.22925,0.24829 c -25.44791,0.23204 -27.33158,0.13521 -28.7934,-1.48007 z m 72.49837,-99.54916 c -1.375,-1.375 -1.875,-3.125 -1.875,-6.5625 0,-6.49669 2.04863,-8.4375 8.90625,-8.4375 3.90625,0 5.6108,0.45455 7.03125,1.875 2.58539,2.58539 2.54946,9.20221 -0.0681,12.52982 -1.6727,2.12648 -2.65101,2.47018 -7.03125,2.47018 -3.83821,0 -5.54883,-0.46062 -6.96321,-1.875 z"
     id="path3373"
     inkscape:connector-curvature="0" />
</svg>
