<?xml version="1.0" encoding="UTF-8" standalone="no"?>
<!-- Created with Inkscape (http://www.inkscape.org/) -->

<svg
   xmlns:dc="http://purl.org/dc/elements/1.1/"
   xmlns:cc="http://creativecommons.org/ns#"
   xmlns:rdf="http://www.w3.org/1999/02/22-rdf-syntax-ns#"
   xmlns:svg="http://www.w3.org/2000/svg"
   xmlns="http://www.w3.org/2000/svg"
   xmlns:sodipodi="http://sodipodi.sourceforge.net/DTD/sodipodi-0.dtd"
   xmlns:inkscape="http://www.inkscape.org/namespaces/inkscape"
   id="svg3336"
   version="1.1"
   inkscape:version="0.91 r13725"
   width="1070.8029"
   height="306.88217"
   viewBox="0 0 1070.8029 306.88217"
   sodipodi:docname="logo.svg">
  <metadata
     id="metadata3342">
    <rdf:RDF>
      <cc:Work
         rdf:about="">
        <dc:format>image/svg+xml</dc:format>
        <dc:type
           rdf:resource="http://purl.org/dc/dcmitype/StillImage" />
        <dc:title></dc:title>
      </cc:Work>
    </rdf:RDF>
  </metadata>
  <defs
     id="defs3340" />
  <sodipodi:namedview
     pagecolor="#ffffff"
     bordercolor="#666666"
     borderopacity="1"
     objecttolerance="10"
     gridtolerance="10"
     guidetolerance="10"
     inkscape:pageopacity="0"
     inkscape:pageshadow="2"
     inkscape:window-width="1366"
     inkscape:window-height="721"
     id="namedview3338"
     showgrid="false"
     inkscape:zoom="0.29814892"
     inkscape:cx="1308.0458"
     inkscape:cy="-136.76134"
     inkscape:window-x="-4"
     inkscape:window-y="-4"
     inkscape:window-maximized="1"
     inkscape:current-layer="svg3336" />
  <g
     id="g3348"
     transform="translate(4.0136449e-4,3.3579719e-5)">
    <path
       style="fill:#ec8534"
       d="m 638.71352,292.76996 c -9.03897,-1.42419 -19.31671,-4.5412 -26.77376,-8.11984 -10.42147,-5.00127 -22.83894,-17.59355 -28.05087,-28.44574 -4.57759,-9.53137 -8.23909,-22.65571 -9.11182,-32.66049 -1.78409,-20.45244 10.88172,-48.89992 27.68603,-62.18296 16.52183,-13.05976 37.7278,-21.50131 54.00196,-21.4968 8.80476,0.003 22.74123,1.68166 30.96976,3.73157 10.88431,2.71155 27.424,11.21253 33.53567,17.23649 13.55265,13.35817 25.94389,39.58364 26.03734,55.10682 0.0284,4.73187 -2.65157,7.05987 -6.77552,5.88545 -3.76502,-1.07219 -5.0693,-3.56674 -9.64943,-18.45527 -2.75621,-8.95951 -4.5076,-12.72107 -9.17614,-19.70803 -13.60952,-20.36804 -25.29472,-27.56298 -50.60891,-31.16147 -18.97242,-2.69699 -29.38825,-1.33668 -42.70599,5.57738 -17.28923,8.97592 -27.34066,18.81188 -34.4145,33.67674 -6.47522,13.60696 -7.82767,27.27 -4.28955,43.33482 5.24497,23.81461 17.83013,37.30928 40.79989,43.74839 10.86009,3.04441 29.29302,3.03816 38.00835,-0.0129 16.09885,-5.63587 28.42597,-15.21874 33.45137,-26.00446 2.33254,-5.00619 2.56543,-6.46554 2.45521,-15.38484 -0.0931,-7.53724 -0.76097,-12.31942 -2.84049,-20.34013 -4.46171,-17.2088 -11.52391,-26.34624 -25.52555,-33.02626 -6.09257,-2.90669 -8.12412,-3.39133 -15.58391,-3.71759 -10.67962,-0.46709 -17.08952,1.22041 -26.29452,6.92243 -6.72672,4.16684 -10.1183,8.16579 -15.52191,18.30158 -1.93558,3.63064 -2.22571,5.45937 -2.22571,14.02886 0,11.57763 1.52289,16.90401 6.83942,23.92128 2.44747,3.2304 5.28392,5.55865 9.1466,7.50782 5.00038,2.52329 6.50195,2.82363 14.04526,2.80936 7.42801,-0.0141 9.30311,-0.38397 15.55318,-3.06838 4.08143,-1.75299 8.4761,-4.46472 10.32325,-6.36997 3.21357,-3.31466 3.21638,-3.32549 3.21638,-12.41649 0,-7.83025 -0.32714,-9.75235 -2.3462,-13.78509 -3.01669,-6.02535 -8.07579,-9.55621 -15.73263,-10.98014 -5.06474,-0.9419 -6.33017,-0.87685 -9.15577,0.47059 -7.52899,3.59031 -9.43238,14.48236 -3.34725,19.15438 0.84411,0.64809 4.42661,1.15618 8.27137,1.1731 6.0787,0.0268 6.9332,0.26011 8.23662,2.24936 1.93034,2.94609 0.49254,6.83517 -3.03653,8.21339 -3.31796,1.29578 -14.28939,0.44837 -17.77751,-1.37308 -6.55223,-3.42152 -10.95194,-10.87517 -10.88738,-18.4446 0.0979,-11.47746 8.256,-21.05253 19.53635,-22.92959 5.25845,-0.875 15.68881,0.96031 21.74796,3.82674 11.27835,5.33551 16.16602,14.16339 16.93081,30.57956 0.44287,9.50649 0.32855,10.35624 -2.04655,15.21076 -4.51782,9.23411 -17.73238,16.99624 -32.83158,19.28502 -13.46984,2.04179 -26.28565,-1.52055 -35.08666,-9.75287 -5.75166,-5.38 -8.89975,-11.16013 -11.37812,-20.8911 -4.98217,-19.56178 -0.84229,-35.23596 12.97614,-49.12937 5.82401,-5.85562 8.84089,-8.00921 16.51087,-11.78624 l 9.38477,-4.62146 10.32326,0.0701 c 40.01015,0.27176 60.78172,23.59496 60.95134,68.43874 0.0491,12.96951 0.01,13.2231 -3.05447,19.69444 -1.7073,3.60567 -4.73823,8.72003 -6.73539,11.36525 -6.50724,8.61878 -20.42951,17.55802 -35.15567,22.57284 -7.50813,2.55681 -23.612,3.62251 -32.81887,2.17184 z M 254.79666,280.55191 c -29.84823,-7.22395 -45.8598,-33.83091 -39.34348,-65.37842 2.98193,-14.43645 12.42706,-27.87865 23.87691,-33.98135 17.24759,-9.19288 41.93001,-6.57095 52.94783,5.62446 6.87079,7.60515 11.73623,20.08881 11.77273,30.20634 l 0.0161,4.45777 -36.13139,0 -36.13138,0 0,8.34744 c 0,18.92825 9.45827,33.52373 24.41617,37.67772 10.50909,2.91848 26.79977,0.89081 37.98398,-4.72782 8.49779,-4.26905 8.26368,-4.81657 4.68948,10.96719 -0.37398,1.65148 -2.08044,2.5594 -8.67333,4.61465 -6.7367,2.10009 -10.31026,2.60724 -19.93872,2.82962 -6.45203,0.14901 -13.42023,-0.13791 -15.48488,-0.6376 z M 287.1689,208.1074 c -0.0194,-7.85759 -8.17255,-18.31793 -15.89912,-20.39848 -6.50825,-1.7525 -15.53235,-1.34758 -20.18722,0.9058 -6.83432,3.30844 -16.34945,15.13173 -16.44256,20.43116 -0.016,0.91104 5.84952,1.1731 26.25676,1.1731 l 26.27737,0 -0.006,-2.11158 z m 49.5061,72.47349 c -10.08539,-2.53865 -18.99348,-10.24848 -21.87901,-18.93601 -2.05829,-6.19695 -1.48352,-17.34234 1.20604,-23.38644 5.16611,-11.60949 13.87123,-16.42547 36.18499,-20.01883 16.67233,-2.68488 20.09987,-3.82144 23.13723,-7.67229 3.00325,-3.80761 2.49413,-13.18139 -0.91425,-16.83271 -4.19158,-4.49034 -9.10637,-6.33958 -18.05303,-6.79265 -10.18138,-0.5156 -17.86759,0.92368 -26.71673,5.00284 l -6.80396,3.1364 0,-7.39136 c 0,-4.06525 0.37543,-7.6234 0.83428,-7.90698 2.48126,-1.5335 16.17077,-3.57658 26.85081,-4.00732 14.57147,-0.58769 21.80477,0.87776 29.23477,5.92286 5.70201,3.87178 9.23816,8.65487 11.88904,16.08142 1.77603,4.97565 1.96929,8.24343 2.45617,41.53196 0.39508,27.01171 0.83478,36.66787 1.74203,38.25689 1.63624,2.86578 0.59349,3.18549 -9.26907,2.84198 l -7.89861,-0.27509 -0.2647,-4.22315 c -0.43091,-6.87504 -0.78704,-7.13022 -4.67078,-3.34692 -1.93095,1.88102 -5.83355,4.53051 -8.67245,5.88775 -4.37874,2.09343 -6.65622,2.50918 -15.01564,2.74109 -5.41971,0.15035 -11.43941,-0.1257 -13.37713,-0.61344 z m 21.88771,-11.78298 c 14.23589,-4.14351 19.64375,-13.7219 19.64375,-34.79301 l 0,-10.54339 -5.16356,2.36395 c -2.8987,1.32707 -9.17617,2.95946 -14.31178,3.72161 -17.27711,2.56405 -25.05843,6.37254 -28.49995,13.94904 -3.34495,7.3639 -1.87768,14.2766 4.33252,20.4116 6.10631,6.03237 14.32271,7.70659 23.99902,4.8902 z m 442.42789,12.09048 c -5.73196,-0.76072 -17.41803,-5.20038 -22.73629,-8.63773 -11.17409,-7.22217 -18.83221,-19.51237 -21.40165,-34.34659 -4.36177,-25.18195 7.01047,-47.41931 29.29699,-57.28754 3.00089,-1.32876 9.53984,-3.11392 14.53098,-3.96702 7.76848,-1.32781 10.47036,-1.3903 18.76955,-0.43415 5.33211,0.6143 11.80632,1.65382 14.38714,2.31001 l 4.69238,1.19309 0.27574,6.80396 c 0.15165,3.74218 0.0377,6.80396 -0.25327,6.80396 -0.29095,0 -3.09426,-1.04236 -6.22958,-2.31635 -20.5731,-8.3596 -42.79644,-3.50539 -52.21086,11.40433 -4.44506,7.03968 -6.25783,14.37109 -6.22268,25.16645 0.0858,26.34181 14.04356,41.6851 37.97854,41.74839 6.59526,0.0174 17.58873,-2.75851 25.10834,-6.34007 6.70426,-3.19321 6.63445,-3.30984 4.21387,7.03986 l -1.58711,6.78602 -4.84402,1.40819 c -9.63813,2.80189 -24.12364,3.94517 -33.76807,2.66519 z m 69.61399,-1.14199 c -13.4713,-4.42775 -20.43778,-13.65811 -20.60126,-27.29593 -0.16386,-13.67071 5.81276,-23.37472 17.789,-28.88329 4.79017,-2.20328 10.14669,-3.54696 21.30002,-5.34309 20.88133,-3.36273 24.98628,-5.73966 24.98334,-14.4664 -0.002,-6.10293 -2.45022,-10.34566 -7.90201,-13.69437 -4.46983,-2.74555 -4.98435,-2.83704 -15.95412,-2.83704 -11.86797,0 -16.4557,0.97964 -26.1032,5.57393 -2.44454,1.16412 -4.66169,1.89952 -4.927,1.6342 -1.13452,-1.1345 -0.44152,-13.11233 0.81917,-14.15861 4.07394,-3.38107 32.41575,-5.95288 42.95738,-3.89807 12.62537,2.46098 21.38913,10.02384 25.27102,21.80811 2.2151,6.72435 2.26667,7.61515 2.40811,41.59518 0.0941,22.60257 0.50359,35.6459 1.1731,37.36558 0.56571,1.45305 1.02856,2.82557 1.02856,3.05005 0,0.22448 -3.99102,0.40815 -8.86893,0.40815 l -8.86895,0 -0.6444,-5.69579 -0.64441,-5.69579 -3.39072,3.30055 c -1.8649,1.8153 -5.92461,4.47039 -9.02159,5.90019 -7.54894,3.48519 -22.3107,4.12373 -30.80311,1.33244 z m 25.77724,-11.32448 c 9.5504,-2.97772 15.66578,-10.28958 17.62291,-21.07082 1.21163,-6.67448 1.34784,-23.05496 0.19171,-23.05496 -0.45056,0 -2.70046,0.83218 -4.99981,1.84929 -2.29934,1.01711 -8.37102,2.51031 -13.4926,3.3182 -12.70846,2.00471 -20.56342,4.72743 -24.87431,8.62205 -4.35347,3.9331 -5.9027,8.26318 -5.34831,14.94843 0.52659,6.34994 4.02518,11.00196 11.03014,14.66662 6.01131,3.14483 11.46244,3.34267 19.87027,0.72119 z m 67.43463,12.19814 c -7.49102,-0.7779 -17.63418,-3.16162 -18.80259,-4.41879 -0.7856,-0.84526 -3.72087,-13.36454 -3.72087,-15.86983 0,-1.4515 0.15475,-1.46623 1.64233,-0.15635 2.86818,2.52561 11.09938,6.23595 18.1983,8.20316 15.73912,4.36153 29.09694,0.48902 33.76549,-9.78885 4.71876,-10.38815 -0.70076,-18.86778 -16.53626,-25.87365 -12.80055,-5.66315 -23.81753,-11.40555 -27.00845,-14.0776 -12.10654,-10.13799 -9.95471,-29.74001 4.18533,-38.12657 5.71289,-3.3883 15.18316,-5.95649 21.94461,-5.95098 5.34144,0.005 20.66462,2.35261 24.25225,3.71662 2.2769,0.86566 2.4344,1.32169 2.4344,7.04888 0,3.36783 -0.2746,6.12333 -0.6103,6.12333 -0.3357,0 -2.764,-1.05319 -5.39624,-2.34041 -9.11628,-4.45803 -24.60858,-4.88506 -31.41254,-0.86586 -3.98205,2.35225 -6.80518,7.1874 -6.99034,11.97243 -0.26015,6.72033 2.55754,8.87512 23.76291,18.17275 13.91555,6.10135 21.41051,11.53337 25.29291,18.33114 5.1726,9.05693 4.6688,20.39774 -1.3071,29.427 -7.3888,11.16416 -23.65997,16.55395 -43.69384,14.47358 z m 82.11674,0.0426 c -4.5905,-1.12253 -10.4698,-4.51329 -12.6659,-7.30491 -5.1245,-6.51384 -5.1131,-6.42013 -5.6259,-46.71544 l -0.4777,-37.5391 -5.8655,-0.27941 -5.8655,-0.27939 0,-5.11685 0,-5.11685 6.1001,0 6.1001,0 -0.023,-7.74244 c -0.021,-7.22194 -0.7252,-12.1058 -2.292,-15.89161 -0.5412,-1.30758 0.5159,-1.92822 6.134,-3.60136 3.7334,-1.11184 8.2021,-2.25101 9.9304,-2.53149 l 3.1426,-0.50996 0,15.13843 0,15.13843 12.2002,0 12.2003,0 0,5.52159 0,5.52159 -12.2003,-0.49482 -12.2002,-0.49482 0,37.07816 c 0,35.97981 0.057,37.15074 1.9273,39.5283 2.3029,2.92765 8.0287,4.66261 12.8676,3.89899 1.9281,-0.30425 4.9394,-0.77518 6.692,-1.04653 l 3.1866,-0.49336 -0.5235,5.77315 c -0.288,3.17522 -0.714,5.96369 -0.947,6.19659 -0.7453,0.74537 -11.3402,2.23601 -15.2259,2.1422 -2.0647,-0.0498 -5.0209,-0.40044 -6.5693,-0.77909 z M 1.8906131,279.50136 c 0.00751,-0.68352 0.7430691,-3.14317 1.6345719,-5.46591 1.4620125,-3.80914 1.6497347,-10.0552 1.9149056,-63.71445 0.2694462,-54.52439 -0.1896047,-70.55113 -2.1600943,-75.41485 -0.6254222,-1.54372 1.1298823,-1.64217 29.2316927,-1.63969 16.443388,0.002 33.697903,0.46648 38.343367,1.0334 26.521986,3.23665 47.246054,16.662 57.683754,37.36837 7.3744,14.62938 9.75263,37.12158 5.62039,53.15502 -7.01076,27.20229 -25.88463,45.81921 -53.919368,53.1853 -6.836328,1.79623 -10.676428,2.00678 -42.935349,2.35412 -28.9722313,0.31194 -35.4250392,0.15501 -35.4138699,-0.86131 z M 75.547444,264.32787 c 20.975086,-6.82963 34.054396,-21.61509 37.740016,-42.66306 1.69146,-9.65969 1.13412,-28.66202 -1.07891,-36.78473 -4.96697,-18.23082 -17.682678,-31.12252 -35.722629,-36.21703 -7.380886,-2.08438 -33.366887,-2.89642 -42.639166,-1.33245 l -6.630906,1.11844 0,58.99025 0,58.99025 4.927008,0.40161 c 2.709854,0.22088 11.895203,0.29804 20.411887,0.17146 13.763189,-0.20455 16.319638,-0.50195 22.9927,-2.67474 z m 76.158946,12.41531 c 1.11661,-3.241 1.3024,-11.57171 1.07329,-48.1259 -0.25231,-40.25575 -0.426,-44.47902 -1.94351,-47.25649 -0.91654,-1.67753 -1.33885,-3.05165 -0.93848,-3.05362 0.40037,-0.002 4.52879,-0.62806 9.17426,-1.39134 12.80537,-2.10397 11.72238,-2.7711 11.78616,7.2604 0.0455,7.15724 0.2514,8.35147 1.1731,6.80396 0.61484,-1.03233 3.36547,-4.08654 6.11251,-6.78714 8.17523,-8.03705 19.03193,-10.40613 33.06309,-7.21481 3.58599,0.81563 6.51998,1.96803 6.51998,2.56091 0,0.59289 -1.10646,3.97355 -2.45881,7.51261 -2.17007,5.67902 -2.69355,6.36577 -4.45776,5.8482 -16.3464,-4.79559 -26.12688,-3.40654 -33.4768,4.75446 -6.24005,6.92864 -6.63586,9.85998 -6.33107,46.88778 0.14839,18.02786 0.48096,33.4114 0.73904,34.18564 0.39601,1.18802 -1.23614,1.44885 -10.45806,1.67126 l -10.92731,0.26354 1.35037,-3.91946 z m 258.40831,3.50699 c 0,-0.19505 0.63347,-1.87074 1.40771,-3.72377 1.17903,-2.82182 1.40772,-10.08694 1.40772,-44.7219 0,-39.20574 -0.0999,-41.64926 -1.92383,-47.06356 -1.05811,-3.14094 -1.79716,-5.79264 -1.64234,-5.89268 0.77251,-0.49913 20.61366,-2.88523 20.97627,-2.52261 0.23154,0.23153 0.42097,3.03024 0.42097,6.21934 l 0,5.79839 3.68588,-3.5063 c 8.54746,-8.131 21.44751,-11.18525 33.85322,-8.01517 5.80152,1.48248 15.95412,6.71557 15.95412,8.22344 0,0.38894 0.86017,1.16752 1.91149,1.73018 1.58879,0.85029 2.52582,0.53644 5.55026,-1.85896 16.21058,-12.83901 42.94878,-11.89283 55.92425,1.979 8.03953,8.5949 7.89426,7.71774 7.91769,47.80929 0.0167,28.51163 0.28867,36.16203 1.41817,39.8853 0.76865,2.53381 1.40212,4.92366 1.40772,5.31078 0.006,0.38712 -4.68456,0.70386 -10.42256,0.70386 -10.38557,0 -10.42978,-0.01 -9.78433,-2.11158 2.24352,-7.30648 2.5158,-12.38198 2.21542,-41.29671 -0.31612,-30.42985 -0.3789,-31.32257 -2.54149,-36.13452 -4.20323,-9.35257 -12.50839,-14.05695 -23.07441,-13.07028 -7.0948,0.66253 -12.37547,3.10652 -15.99997,7.40509 -5.52298,6.55013 -5.56698,6.86319 -5.90178,41.97987 -0.28659,30.06157 0.0291,35.89755 2.25553,41.69958 0.52144,1.35884 -0.63494,1.52855 -10.41575,1.52855 l -11.0023,0 0.74006,-2.58082 c 1.1667,-4.06864 1.57162,-69.40038 0.4622,-74.57346 -1.43383,-6.68567 -4.47347,-10.73948 -10.16208,-13.55257 -4.28433,-2.11866 -5.8096,-2.38925 -11.26173,-1.99787 -10.94003,0.78531 -18.46028,6.40622 -21.2816,15.90667 -2.0691,6.96739 -2.13664,67.10244 -0.0819,72.92614 l 1.36609,3.87191 -11.68934,0 c -6.42913,0 -11.68933,-0.15958 -11.68933,-0.35463 z m 5.88503,-170.07682 c 0.31185,-0.31184 1.12128,-0.34518 1.79875,-0.074 0.74865,0.29958 0.52628,0.52196 -0.567,0.56699 -0.98931,0.0407 -1.5436,-0.18105 -1.23175,-0.49291 z m 57.24713,0 c 0.31185,-0.31184 1.12128,-0.34518 1.79875,-0.074 0.74865,0.29958 0.52628,0.52196 -0.567,0.56699 -0.9893,0.0407 -1.5436,-0.18105 -1.23175,-0.49291 z m 45.11447,-6.47158 c 0.004,-4.129298 0.1684,-5.701821 0.36666,-3.49448 0.19824,2.20733 0.19546,5.58585 -0.007,7.50782 -0.20165,1.92196 -0.36386,0.11596 -0.36045,-4.01334 z m 28.08678,6.47158 c 0.31185,-0.31184 1.12129,-0.34518 1.79875,-0.074 0.74865,0.29958 0.52628,0.52196 -0.567,0.56699 -0.9893,0.0407 -1.5436,-0.18105 -1.23175,-0.49291 z m 41.43608,-32.748949 c 7.7e-4,-10.839416 0.13738,-15.145191 0.30358,-9.568388 0.16622,5.576802 0.16559,14.445415 -9.4e-4,19.708029 -0.16742,5.262613 -0.30341,0.699775 -0.30264,-10.139641 z m -45.56387,14.781022 c -1.16734,-1.488478 -1.13415,-1.521672 0.35433,-0.354327 1.56327,1.225998 2.06041,1.996662 1.28801,1.996662 -0.19488,0 -0.93393,-0.739051 -1.64234,-1.642335 z m -23.95899,-6.334724 c 0.004,-4.129301 0.1684,-5.701819 0.36666,-3.494484 0.19824,2.207335 0.19546,5.585854 -0.007,7.50782 C 518.5197,91.806002 518.3575,90 518.3609,85.870699 Z m 65.75768,-8.915537 c 0,-9.032847 0.14076,-12.728102 0.3128,-8.211679 0.17203,4.516423 0.17203,11.906934 0,16.423358 -0.17204,4.516423 -0.3128,0.821168 -0.3128,-8.211679 z M 449.60485,84.07195 c -0.0407,-0.989311 0.18106,-1.5436 0.4929,-1.231752 0.31185,0.311849 0.34518,1.121286 0.074,1.798749 -0.29958,0.748655 -0.52196,0.526276 -0.56699,-0.566997 z m 73.53403,-24.478623 c -5.7e-4,-12.904067 0.1316,-18.313168 0.29372,-12.020223 0.16213,6.292944 0.1626,16.850816 9.4e-4,23.46194 -0.16144,6.611122 -0.29409,1.462349 -0.29466,-11.441717 z m 13.74438,21.66319 c -0.0407,-0.989311 0.18106,-1.543599 0.49291,-1.231752 0.31184,0.311849 0.34518,1.121286 0.074,1.798749 -0.29958,0.748655 -0.52196,0.526276 -0.56699,-0.566997 z m 105.50463,0.736795 c 6.73226,-0.699025 14.54969,-0.758748 14.54811,-0.111143 -9.4e-4,0.387122 -3.90812,0.636272 -8.68262,0.553667 -4.77451,-0.08261 -7.41398,-0.281741 -5.86549,-0.442524 z M 540.63717,78.441084 c -0.0407,-0.989311 0.18106,-1.543599 0.49291,-1.231751 0.31184,0.311848 0.34518,1.121285 0.074,1.798749 -0.29958,0.748654 -0.52196,0.526275 -0.56699,-0.566998 z M 411.58275,76.291778 c -0.5093,-1.337516 -0.4015,-1.445313 0.52536,-0.525355 0.64137,0.636602 0.92972,1.393866 0.64077,1.682811 -0.28895,0.288946 -0.81371,-0.231909 -1.16613,-1.157456 z m 13.42787,-13.17916 c -1.16734,-1.488478 -1.13415,-1.521672 0.35434,-0.354327 1.56326,1.225998 2.0604,1.996662 1.288,1.996662 -0.19488,0 -0.93393,-0.739051 -1.64234,-1.642335 z m -27.65454,-7.97706 -1.78779,-2.111574 2.11158,1.787788 c 1.16136,0.983283 2.11157,1.933492 2.11157,2.111575 0,0.751019 -0.75528,0.19657 -2.43536,-1.787789 z m 82.81751,-11.73097 c -0.24073,-0.387122 4.27423,-0.5931 10.03325,-0.45773 18.98272,0.446206 21.01878,0.804062 5.59932,0.984137 -8.35718,0.0976 -15.39184,-0.139285 -15.63257,-0.526407 z m 86.90148,0.003 c 6.06491,-0.163469 15.98931,-0.163469 22.05422,0 6.06491,0.16347 1.10271,0.297219 -11.02711,0.297219 -12.12982,0 -17.09202,-0.133749 -11.02711,-0.297219 z M 391.49332,41.293014 c 0,-1.290407 0.21302,-1.818301 0.47336,-1.173097 0.26034,0.645203 0.26034,1.70099 0,2.346194 -0.26034,0.645203 -0.47336,0.117309 -0.47336,-1.173097 z m 3.75391,0 c 0,-1.290407 0.21302,-1.818301 0.47336,-1.173097 0.26034,0.645203 0.26034,1.70099 0,2.346194 -0.26034,0.645203 -0.47336,0.117309 -0.47336,-1.173097 z m 13.92899,0.05539 c 0,-0.485701 0.41748,-1.141107 0.92773,-1.456459 0.53199,-0.328785 0.68931,0.04792 0.36883,0.883091 -0.62389,1.625835 -1.29656,1.923304 -1.29656,0.573368 z m 131.46095,-1.384897 c -0.0407,-0.989311 0.18106,-1.543599 0.49291,-1.231751 0.31184,0.311848 0.34518,1.121285 0.074,1.798749 -0.29958,0.748654 -0.52196,0.526275 -0.56699,-0.566998 z m -22.27584,-7.586026 c 0.004,-4.129302 0.1684,-5.701819 0.36666,-3.494485 0.19824,2.207335 0.19546,5.585855 -0.007,7.507821 -0.20129,1.921967 -0.36349,0.115965 -0.36009,-4.013336 z m 18.52193,4.770594 c -0.0407,-0.989311 0.18106,-1.5436 0.49291,-1.231752 0.31184,0.311848 0.34518,1.121285 0.074,1.798749 -0.29958,0.748654 -0.52196,0.526276 -0.56699,-0.566997 z m -87.27841,-2.815433 c -0.0407,-0.989311 0.18106,-1.5436 0.4929,-1.231752 0.31185,0.311849 0.34518,1.121286 0.074,1.798749 -0.29958,0.748655 -0.52196,0.526276 -0.56699,-0.566997 z m 19.16469,-8.055266 c 0.93425,-1.032325 1.90979,-1.876955 2.16787,-1.876955 0.25808,0 -0.29514,0.84463 -1.22939,1.876955 -0.93424,1.032326 -1.90978,1.876956 -2.16786,1.876956 -0.25809,0 0.29514,-0.84463 1.22938,-1.876956 z m 49.59179,-11.730969 c 0.004,-4.129302 0.1684,-5.7018196 0.36666,-3.494485 0.19824,2.207335 0.19546,5.585855 -0.007,7.507821 -0.20129,1.921966 -0.36349,0.115965 -0.36009,-4.013336 z m 13.75545,1.876955 c 1.21228,-1.290407 2.41529,-2.346194 2.67337,-2.346194 0.25809,0 -0.52262,1.055787 -1.73489,2.346194 -1.21228,1.290406 -2.4153,2.346194 -2.67338,2.346194 -0.25808,0 0.52262,-1.055788 1.7349,-2.346194 z M 406.61495,7.8793014 c 0.31185,-0.3118483 1.12129,-0.3451889 1.79875,-0.07409 0.74866,0.2995867 0.52628,0.521965 -0.567,0.5669968 -0.9893,0.04075 -1.54359,-0.1810583 -1.23175,-0.4929066 z m 68.50887,0 c 0.31184,-0.3118483 1.12128,-0.3451889 1.79875,-0.07409 0.74865,0.2995867 0.52628,0.521965 -0.567,0.5669968 -0.98931,0.04075 -1.5436,-0.1810583 -1.23175,-0.4929066 z m 73.20124,0 c 0.31185,-0.3118483 1.1213,-0.3451889 1.79876,-0.07409 0.74865,0.2995867 0.52628,0.521965 -0.567,0.5669968 -0.98931,0.04075 -1.5436,-0.1810583 -1.23176,-0.4929066 z"
       id="path3352"
       inkscape:connector-curvature="0" />
    <path
       style="fill:#040404"
       d="m 376.3295,103.70177 0,-7.038579 20.20741,0 c 21.56414,0 24.54903,-0.504629 29.40828,-4.971799 5.79816,-5.330313 7.53661,-16.696833 3.61318,-23.624015 -2.84483,-5.022832 -6.6668,-7.393744 -15.90141,-9.864249 -13.35973,-3.574083 -17.60948,-7.60599 -17.61592,-16.712882 -0.005,-6.976472 2.74615,-12.03258 7.79399,-14.324319 3.44603,-1.564511 6.2885,-1.788365 22.93764,-1.806421 l 19.00417,-0.02061 0,7.038582 0,7.038582 -17.77568,0 c -17.29324,0 -20.54938,0.52791 -18.1368,2.94048 0.49498,0.49499 4.56338,1.763568 9.04088,2.819062 6.2192,1.46607 9.28866,2.781492 13.00318,5.572523 10.92706,8.210433 15.30984,21.41545 11.65729,35.122575 -1.76758,6.633238 -3.90583,10.389501 -8.56836,15.05203 -8.33178,8.33178 -14.37715,9.81762 -39.94449,9.81762 l -18.72336,0 0,-7.03858 z m 95.67832,5.7604 c -8.67292,-2.33911 -15.21697,-8.17472 -19.56674,-17.448543 l -2.44109,-5.20445 0,-26.746612 c 0,-18.570779 0.35491,-27.911069 1.16105,-30.556049 2.61842,-8.591154 10.27266,-16.732718 18.84879,-20.048842 2.51309,-0.9717329 9.51491,-1.4419997 25.74094,-1.7288518 l 22.28885,-0.3940335 0,7.1250973 0,7.125098 -20.41189,0.02061 c -23.71967,0.02395 -26.32979,0.663826 -30.90769,7.577047 l -2.64288,3.991096 -0.27838,24.706511 c -0.31641,28.083038 0.14102,30.444752 6.89528,35.600066 l 3.55529,2.713639 21.89513,0.282829 21.89514,0.282839 0,6.990359 0,6.99037 -20.88113,-0.0633 c -13.35328,-0.0405 -22.42034,-0.47848 -25.15067,-1.21485 z m 74.65536,0.40375 c -8.14847,-2.01033 -15.64522,-8.13177 -19.94273,-16.28415 l -2.58073,-4.895638 -0.28507,-27.749665 c -0.27427,-26.698429 -0.20651,-27.959632 1.78868,-33.292246 2.63084,-7.031561 9.50618,-14.464687 16.13809,-17.447346 4.68003,-2.1048143 5.97738,-2.2088965 31.39375,-2.5186167 l 26.51199,-0.3230711 0,7.1148988 0,7.114898 -24.33932,0 c -14.91518,0 -25.36226,0.386495 -26.98123,0.998182 -3.75598,1.41911 -7.7553,5.425002 -9.77822,9.794311 -1.54102,3.328441 -1.74034,6.374353 -1.75861,26.874064 l -0.0206,23.120154 2.62816,5.030874 c 1.81789,3.479843 3.7709,5.678135 6.33472,7.130306 3.5056,1.985612 4.76342,2.100275 23.19901,2.114878 l 19.49246,0.01544 -0.25367,-19.47341 -0.25366,-19.47341 -15.7195,-0.25731 -15.71949,-0.257311 0,-6.546652 0,-6.546652 21.57266,0 21.57266,0 0.24694,31.843715 0.24694,31.843707 15.83252,-44.747774 c 8.70788,-24.61128 16.64758,-46.099017 17.64376,-47.750527 4.64622,-7.7026918 17.49108,-9.8778636 25.10389,-4.251141 3.91329,2.892347 5.8702,7.425862 17.91727,41.508319 6.29442,17.807612 13.49863,38.184306 16.00933,45.281543 l 4.5649,12.90406 -30.47014,0 -30.47014,0 0,-6.1001 0,-6.100102 21.58498,0 c 11.87174,0 21.58499,-0.323014 21.58499,-0.717804 0,-2.460847 -26.62111,-74.112207 -27.88913,-75.064261 -2.21604,-1.663848 -5.35196,-1.452886 -7.099,0.47757 -0.82161,0.907867 -8.23125,20.862247 -16.4659,44.343066 l -14.97206,42.692401 -31.77653,0.1447 c -17.47708,0.0796 -33.04347,-0.16787 -34.59196,-0.5499 z m 84.76948,-41.315875 c 9.11884,-26.444265 15.07855,-42.393676 15.96858,-42.735214 0.78099,-0.299697 1.91239,-0.0015 2.51422,0.662677 0.60183,0.664169 4.80766,11.765454 9.3463,24.66952 4.53863,12.904067 9.87109,28.001825 11.8499,33.550574 l 3.59782,10.088634 -19.14203,0 c -17.46894,0 -19.17322,-0.14355 -19.49882,-1.642336 -0.19623,-0.903284 -1.79511,2.686392 -3.55305,7.97706 l -3.19627,9.61939 -6.21762,0 -6.21762,0 14.54859,-42.190305 z m 25.254,12.862885 c -0.24664,-0.645203 -1.99747,-6.029718 -3.89072,-11.965589 -1.89326,-5.93587 -3.68503,-11.425964 -3.98171,-12.200208 -0.50051,-1.306174 -6.84642,15.890345 -8.29098,22.467394 l -0.63069,2.8715 8.62127,0 c 6.51054,0 8.51149,-0.287208 8.17283,-1.173097 z m -280.35716,4.478033 0,-7.018317 18.0657,-0.254884 c 15.31946,-0.216138 18.06569,-0.468876 18.06569,-1.6626 0,-0.988477 -2.37569,-1.986465 -7.97706,-3.351033 -12.95638,-3.156344 -18.13997,-6.841393 -22.72533,-16.155559 -2.86307,-5.815731 -3.0828,-6.9324 -3.0828,-15.666584 0,-8.230913 0.31271,-10.071646 2.5059,-14.750545 3.00846,-6.418165 9.09912,-12.755734 15.00761,-15.615981 6.32027,-3.0595892 13.2789,-3.8961159 32.46042,-3.9022037 l 17.12721,-0.00544 0,7.0385827 0,7.038581 -19.52377,0 c -18.91751,0 -19.6679,0.07236 -24.16579,2.330176 -10.4133,5.227194 -13.43667,18.354583 -6.60487,28.678135 2.8022,4.234423 7.09154,6.679801 15.57076,8.876987 3.29314,0.853338 7.63211,2.390526 9.64216,3.415975 7.492,3.822137 9.37394,15.260606 3.67023,22.307737 -4.06895,5.027309 -6.78526,5.564045 -28.56265,5.643889 l -19.47341,0.0714 0,-7.018318 z m 98.44431,4.899169 c -5.46587,-3.632364 -7.41198,-8.918771 -7.41198,-20.133928 l 0,-9.655161 21.58498,0 21.58498,0 0,7.038582 0,7.038582 -15.58528,0 c -13.82618,0 -15.521,0.167552 -15.01564,1.484471 0.31331,0.816461 0.56964,1.661091 0.56964,1.876956 0,0.215865 8.4463,0.392483 18.76955,0.392483 l 18.76956,0 0,7.038582 0,7.038582 -20.03849,0 c -19.23476,0 -20.16638,-0.085 -23.22732,-2.119149 z m 74.44032,0.558383 c -7.41276,-3.653607 -8.96976,-10.238811 -8.50664,-35.978338 0.38719,-21.519648 1.21221,-24.288045 8.32049,-27.919708 3.95737,-2.021835 5.12166,-2.111574 27.3961,-2.111574 l 23.26308,0 0,7.021896 0,7.021898 -22.75808,0.251304 -22.75808,0.251304 0,19.238791 0,19.23879 7.2732,0.274096 c 6.78698,0.255772 7.2732,0.145978 7.2732,-1.642336 0,-1.733033 -0.58377,-1.916431 -6.1001,-1.916431 l -6.1001,0 0,-7.038582 0,-7.038582 13.60792,0 13.60792,0 0,15.954119 0,15.954119 -15.71949,-0.02137 C 555.45999,92.87085 551.67374,92.560808 549.21413,91.348515 Z M 467.49952,46.68926 c 0.37292,-11.571218 1.62882,-15.098028 6.73249,-18.906072 2.46958,-1.842652 4.02668,-1.995182 23.22732,-2.275292 l 20.58029,-0.300238 0,7.1042 0,7.104201 -18.2673,0 c -16.87832,0 -18.33865,0.133333 -19.20577,1.753561 -0.51616,0.964458 -0.6718,2.020246 -0.34584,2.346194 0.32595,0.325948 7.27928,0.592632 15.45186,0.592632 l 14.85922,0 0,6.569344 0,6.569343 -21.68627,0 -21.68626,0 0.34026,-10.557873 z"
       id="path3350"
       inkscape:connector-curvature="0" />
  </g>
</svg>
