<?xml version="1.0" encoding="UTF-8" standalone="no"?>
<!-- Created with Inkscape (http://www.inkscape.org/) -->

<svg
   xmlns:dc="http://purl.org/dc/elements/1.1/"
   xmlns:cc="http://creativecommons.org/ns#"
   xmlns:rdf="http://www.w3.org/1999/02/22-rdf-syntax-ns#"
   xmlns:svg="http://www.w3.org/2000/svg"
   xmlns="http://www.w3.org/2000/svg"
   xmlns:sodipodi="http://sodipodi.sourceforge.net/DTD/sodipodi-0.dtd"
   xmlns:inkscape="http://www.inkscape.org/namespaces/inkscape"
   id="svg3410"
   version="1.1"
   inkscape:version="0.91 r13725"
   width="1389.375"
   height="335.625"
   viewBox="0 0 1389.375 335.625"
   sodipodi:docname="logo.svg">
  <metadata
     id="metadata3416">
    <rdf:RDF>
      <cc:Work
         rdf:about="">
        <dc:format>image/svg+xml</dc:format>
        <dc:type
           rdf:resource="http://purl.org/dc/dcmitype/StillImage" />
        <dc:title></dc:title>
      </cc:Work>
    </rdf:RDF>
  </metadata>
  <defs
     id="defs3414" />
  <sodipodi:namedview
     pagecolor="#ffffff"
     bordercolor="#666666"
     borderopacity="1"
     objecttolerance="10"
     gridtolerance="10"
     guidetolerance="10"
     inkscape:pageopacity="0"
     inkscape:pageshadow="2"
     inkscape:window-width="1366"
     inkscape:window-height="721"
     id="namedview3412"
     showgrid="false"
     inkscape:zoom="0.21160594"
     inkscape:cx="694.6875"
     inkscape:cy="167.8125"
     inkscape:window-x="-4"
     inkscape:window-y="-4"
     inkscape:window-maximized="1"
     inkscape:current-layer="svg3410" />
  <path
     style="fill:#040404"
     d="m 779.53129,315.47916 c -20.60268,-4.29216 -38.95067,-15.90134 -49.39453,-31.253 -1.63995,-2.41059 -3.24629,-4.59383 -3.56966,-4.85164 -0.62301,-0.49672 -6.34321,-12.29599 -7.49913,-15.46875 -10.08497,-27.68103 -8.39353,-62.845 4.29183,-89.22458 6.09931,-12.68369 18.20307,-26.06217 29.30389,-32.39007 16.8524,-9.60651 29.98319,-12.91628 51.2426,-12.91628 27.0914,0 45.44472,6.66043 60.87636,22.09207 11.88543,11.88543 18.9978,26.37659 23.20663,47.28261 1.641,8.15113 1.64053,38.90192 -7.1e-4,46.40625 -1.30817,5.98148 -4.37363,16.42219 -5.84917,19.92187 -4.68295,11.10702 -9.11412,17.88909 -17.13011,26.21829 -13.38391,13.90685 -26.11283,20.66066 -46.38352,24.61054 -6.69801,1.30515 -32.1119,1.02737 -39.09448,-0.42731 z m 37.22152,-23.81951 c 1.18441,-0.46192 4.05192,-1.3916 6.37223,-2.06593 11.84246,-3.44168 23.85212,-13.98325 28.73136,-25.2192 4.29976,-9.90153 4.68414,-11.00874 5.85838,-16.875 3.97744,-19.87056 2.85086,-42.81223 -2.82593,-57.54689 -0.97009,-2.51799 -1.76381,-4.9306 -1.76381,-5.36139 0,-1.71639 -8.5229,-13.73175 -12.34287,-17.40065 -4.84435,-4.65277 -11.85205,-8.83112 -17.65713,-10.52809 -2.32031,-0.67828 -5.18782,-1.61119 -6.37223,-2.07311 -2.79923,-1.09171 -25.70631,-1.09171 -28.50554,0 -1.18441,0.46192 -4.05192,1.39483 -6.37223,2.07311 -2.32031,0.67829 -6.24122,2.40972 -8.71313,3.84763 -2.47191,1.43792 -4.67546,2.61439 -4.89677,2.61439 -2.34218,0 -18.2651,19.42435 -18.2651,22.28157 0,0.44206 -0.77487,2.46502 -1.72194,4.49546 -0.94708,2.03045 -2.26405,6.22297 -2.92662,9.31672 -0.66256,3.09375 -1.57284,7.10156 -2.02283,8.90625 -1.34146,5.37999 -0.96987,26.97179 0.59312,34.46368 1.62002,7.7653 3.98924,15.27399 5.2325,16.58319 0.46517,0.48985 0.84577,1.46221 0.84577,2.16082 0,2.11999 7.01971,11.65238 12.33612,16.7518 5.39751,5.17721 12.79714,9.53469 19.53888,11.50603 2.32031,0.67848 5.0625,1.58212 6.09375,2.00809 2.55582,1.05571 26.10577,1.10605 28.78402,0.0615 z m 285.21749,23.34086 c -15.7558,-4.07558 -25.2395,-14.07973 -29.7737,-31.40724 -0.6061,-2.31618 -1.1837,-27.04958 -1.5107,-64.6875 l -0.5295,-60.9375 -15.4688,-0.46875 -15.4687,-0.46875 0,-11.71875 0,-11.71875 15.4687,-0.46875 15.4688,-0.46875 0.4687,-21.88451 0.4688,-21.884502 7.0312,-2.25808 c 3.8672,-1.24194 9.6179,-3.10094 12.7793,-4.13111 3.1615,-1.03018 6.2201,-1.87305 6.7969,-1.87305 0.7484,0 1.0488,7.51338 1.0488,26.233332 l 0,26.23333 22.7344,0.25105 22.7344,0.25104 0,11.71875 0,11.71875 -22.5,0.46875 -22.5,0.46875 -0.2959,51.09375 c -0.3596,62.06167 0.2924,68.696 7.5587,76.92251 6.3915,7.23611 24.8495,8.83846 34.1803,2.96723 1.1374,-0.71575 2.5085,-1.02916 3.0469,-0.69647 0.5864,0.36243 0.9787,4.8459 0.9787,11.18551 0,8.91953 -0.2575,10.79996 -1.6406,11.97777 -6.148,5.23559 -27.4895,7.09659 -41.0767,3.58194 z m 114.4361,0.40786 c -8.9395,-1.17498 -11.0554,-1.63228 -19.6875,-4.255 -2.0625,-0.62665 -7.8107,-1.31014 -12.7738,-1.51886 -7.8043,-0.3282 -9.6096,-0.10407 -13.3593,1.6585 -2.3847,1.1209 -4.3357,2.41342 -4.3357,2.87226 0,0.45884 -0.4219,0.83425 -0.9375,0.83425 -0.6088,0 -0.9375,-12.65625 -0.9375,-36.09375 0,-32.4617 0.466,-39.82948 2.179,-34.45313 0.6689,2.09927 6.6969,12.83771 9.1039,16.21809 1.0132,1.42284 1.8421,2.86142 1.8421,3.19683 0,0.33541 1.7678,3.22341 3.9283,6.41778 14.3334,21.19161 28.902,35.21291 43.4155,41.78446 1.5468,0.70041 3.545,1.64613 4.4403,2.1016 0.8954,0.45546 2.6884,0.82812 3.9844,0.82812 1.2961,0 2.3565,0.42187 2.3565,0.9375 0,1.22055 -7.4749,1.01494 -19.2187,-0.52865 z m 56.25,0.52865 c 0.3186,-0.51563 1.7504,-0.9375 3.1817,-0.9375 2.6854,0 12.8396,-2.96389 16.9745,-4.95466 9.0259,-4.34556 16.1141,-10.42132 21.4399,-18.37738 5.5896,-8.35038 7.5318,-13.08852 10.034,-24.48011 2.7107,-12.33988 1.1931,-22.37143 -5.5315,-36.56285 -4.6376,-9.78707 -10.9817,-15.33563 -25.9424,-22.68948 -6.9609,-3.42159 -14.7656,-7.14707 -17.3437,-8.27883 -11.0192,-4.83723 -13.3914,-5.89364 -18.2813,-8.14112 -9.7702,-4.49056 -14.5432,-6.65635 -18.75,-8.50779 -15.5383,-6.83865 -16.373,-7.23494 -21.9079,-10.40094 -3.8703,-2.21393 -16.6635,-10.73532 -19.2146,-12.79875 -0.8436,-0.68229 -2.9705,-2.41719 -4.7264,-3.85533 -4.3013,-3.52268 -16.1606,-17.17453 -17.8674,-20.56778 -0.7547,-1.5008 -2.0473,-3.78342 -2.8721,-5.07248 -0.8249,-1.28906 -2.0492,-4.24219 -2.7206,-6.5625 -0.6715,-2.32031 -1.5593,-5.27344 -1.9728,-6.5625 -1.2559,-3.91495 -1.7412,-16.01526 -0.9213,-22.968752 1.1051,-9.37038 2.0875,-12.51999 7.1022,-22.76799 3.7933,-7.75225 5.7244,-10.37422 12.9817,-17.62552 13.5588,-13.54777 21.4483,-18.7678 35.713,-23.62922 10.597,-3.61149 24.8437,-5.33673 24.8437,-3.00852 0,0.51563 -0.9175,0.9375 -2.0391,0.9375 -1.1214,0 -5.6341,1.76445 -10.028,3.921 -6.2771,3.08072 -9.6071,5.54247 -15.5392,11.48727 -8.0945,8.11202 -12.057,14.52746 -15.6712,25.37298 -3.0475,9.14427 -3.0579,27.81782 -0.021,37.193602 1.8143,5.60096 5.2331,12.64297 6.7483,13.90015 0.3107,0.25781 1.1732,1.35877 1.9169,2.44657 3.6552,5.34751 15.9921,13.61003 25.7268,17.23027 2.7857,1.03596 8.1132,3.25478 16.875,7.02822 6.9642,2.99922 11.7481,5.17189 30.9375,14.05051 5.1563,2.38571 10.2188,4.6924 11.25,5.12598 9.4869,3.98864 27.3458,13.19844 31.875,16.4379 7.1019,5.07949 16.2503,14.72105 20.1048,21.18863 7.2569,12.17664 9.8386,23.04166 8.8937,37.42942 -1.2002,18.2737 -5.1032,31.25052 -12.9706,43.125 -7.4007,11.17024 -24.6234,22.58098 -43.1626,28.59705 -10.7204,3.47886 -30.6243,5.71974 -29.1153,3.27795 z m -814.21886,-3.64837 c 0,-0.45973 0.94922,-1.08454 2.10937,-1.38849 3.22375,-0.84457 8.92626,-6.78295 11.1039,-11.56315 1.07311,-2.35564 2.35118,-6.86164 2.84014,-10.01336 1.33733,-8.61994 0.6593,-245.189572 -0.70966,-247.605382 -0.58437,-1.03125 -1.63904,-3.14062 -2.34371,-4.6875 -1.62887,-3.57562 -5.74783,-7.55349 -9.8246,-9.48804 -1.74649,-0.82877 -3.17551,-1.77518 -3.17558,-2.10315 -8e-5,-0.32797 17.08578,-0.59631 37.96857,-0.59631 24.88975,0 37.86419,0.32294 37.66529,0.9375 -0.16688,0.51563 -1.32726,1.43746 -2.57862,2.04852 -5.08993,2.48551 -10.40653,10.45508 -13.38484,20.06384 -1.49723,4.83045 -1.59968,11.56781 -1.31874,86.718742 l 0.30461,81.4814 2.21549,5.625 c 3.6078,9.15997 12.19543,20.07095 15.84713,20.1345 2.7274,0.0474 0.27697,2.27053 -3.81933,3.46495 -5.10338,1.48808 -9.22639,5.92718 -11.00047,11.84381 -0.64839,2.16245 -1.63829,5.17701 -2.19976,6.69901 -0.56147,1.52199 -1.03152,8.69386 -1.04454,15.9375 -0.0235,13.06657 9.4e-4,13.2202 3.11257,19.51911 3.18593,6.44946 8.50297,11.93237 11.57138,11.93237 0.91377,0 1.6614,0.42187 1.6614,0.9375 0,0.60937 -13.125,0.9375 -37.5,0.9375 -21.33527,0 -37.5,-0.36031 -37.5,-0.83587 z m 477.1875,-89.16413 0,-90 14.53125,0 14.53125,0 0,17.34375 c 0,11.28935 0.3375,17.34375 0.96694,17.34375 0.53175,0 1.18668,-0.73828 1.45537,-1.64063 1.96388,-6.59598 9.94041,-19.21499 14.71078,-23.27293 6.60066,-5.6148 7.71544,-6.35777 13.73879,-9.15662 5.75968,-2.67634 6.88938,-2.86527 17.40928,-2.91156 6.1875,-0.0272 12.4103,0.27493 13.8283,0.67147 l 2.5781,0.72099 0,14.51339 c 0,7.98236 -0.3427,14.51339 -0.7614,14.51339 -0.4188,0 -2.6337,-0.92569 -4.9219,-2.05708 -3.5425,-1.75146 -5.7294,-2.05608 -14.7196,-2.05028 -6.8898,0.005 -10.94585,0.39352 -11.67185,1.11959 -0.61209,0.61202 -1.69069,1.11277 -2.397,1.11277 -2.02153,0 -9.70809,5.4883 -13.62881,9.73119 -6.29738,6.81477 -11.90484,18.01064 -13.908,27.76881 -2.02613,9.87037 -2.5905,24.68813 -2.63344,69.14062 l -0.0456,47.10938 -14.53125,0 -14.53125,0 0,-90 z M 37.518519,294.12393 c -4.755024,-2.43881 -4.719274,-1.95928 -4.4699,-59.95821 l 0.232674,-54.11506 2.135586,-2.13494 2.135585,-2.13495 54.650281,0 c 59.067145,0 55.831005,-0.26953 58.586725,4.87958 1.54452,2.88596 1.54452,106.41738 0,109.30334 -2.74715,5.13309 0.30985,4.8608 -57.440632,5.11621 -41.835082,0.18503 -54.01221,-0.0235 -55.830319,-0.95597 z m 128.753711,0.27028 c -5.15033,-2.10866 -5.02219,-0.59722 -5.02219,-59.23851 l 0,-54.11412 2.26258,-2.63041 2.26257,-2.6304 54.38065,0 54.38064,0 2.41929,2.27279 2.41927,2.2728 0,54.98566 0,54.98566 -2.41876,2.2728 -2.41877,2.27279 -53.1281,0.18675 c -29.22047,0.1027 -54.0322,-0.18341 -55.13718,-0.63581 z m 127.52432,-0.55427 c -1.60724,-0.79964 -3.4002,-2.5029 -3.98438,-3.78502 -0.7511,-1.64847 -1.06213,-17.82544 -1.06213,-55.24098 l 0,-52.90984 2.7356,-3.06166 2.73559,-3.06167 54.42586,0 54.42586,0 2.13542,2.13542 2.13542,2.13542 0,55.26041 0,55.26041 -2.13493,2.13542 -2.13493,2.13542 -53.17757,0.22528 c -46.46704,0.19685 -53.54633,0.0418 -56.09981,-1.22861 z m 280.89099,-47.01261 c 0,-0.84353 3.19989,-2.90668 10.55611,-6.80612 10.13386,-5.37183 24.17393,-17.26362 31.7321,-26.87671 10.32382,-13.13072 20.16757,-33.82059 22.46018,-47.20748 2.72941,-15.93744 2.94135,-19.02702 2.36449,-34.46865 -0.3326,-8.90307 -0.97414,-17.12963 -1.42565,-18.28125 -0.45151,-1.15162 -1.32866,-4.6251 -1.94923,-7.71885 -1.61687,-8.060732 -4.80242,-16.733942 -9.64124,-26.250002 -4.8882,-9.61316 -6.60599,-12.64603 -8.1112,-14.32085 -0.79987,-0.89 -2.6967,-3.30533 -4.21518,-5.36741 -7.3228,-9.94431 -24.74734,-24.24884 -36.61413,-30.05809 l -5.625,-2.75365 3.75,-0.30876 c 5.34302,-0.43992 13.3307,1.2061 26.71875,5.50594 7.20573,2.31427 8.3813,2.77555 14.52563,5.69968 14.91927,7.10018 33.84973,21.98326 42.21182,33.18681 1.53073,2.05086 3.01679,3.93977 3.30238,4.19758 2.73595,2.46985 10.30694,16.34094 13.47857,24.69458 4.85561,12.788992 6.1691,20.717642 6.1691,37.238492 0,14.18498 -0.42134,17.12347 -4.34449,30.29873 -2.84933,9.56907 -5.99044,16.0033 -12.80228,26.22416 -5.53238,8.30105 -18.44708,22.15835 -25.50872,27.37051 -2.06208,1.522 -4.56741,3.50556 -5.5674,4.4079 -0.99998,0.90235 -2.37143,1.64063 -3.04763,1.64063 -0.67621,0 -1.23277,0.31641 -1.23679,0.70312 -0.004,0.38672 -0.95324,1.16865 -2.10938,1.73763 -1.15613,0.56898 -4.42237,2.2777 -7.25831,3.79715 -11.63905,6.23602 -25.40549,10.61574 -40.78125,12.97433 -2.0625,0.31638 -4.48828,0.79212 -5.39063,1.05719 -0.90234,0.26505 -1.64062,0.12258 -1.64062,-0.31661 z m -410.96591,-82.4244 -2.47159,-2.47159 0.0208,-54.48153 c 0.0192,-50.204852 0.148,-54.638512 1.64063,-56.481192 0.89088,-1.0998 2.54126,-2.4709 3.66752,-3.04687 1.43503,-0.73387 17.5092,-1.04723 53.71846,-1.04723 55.25984,0 55.64798,0.031 58.11229,4.63557 0.63019,1.17752 0.96529,20.65702 0.96529,56.112452 l 0,54.3088 -2.47159,2.47159 -2.47159,2.47159 -54.11932,0 -54.11932,0 -2.47159,-2.47159 z M 1341.5956,85.373648 c -0.5338,-0.99735 -0.9705,-2.49429 -0.9705,-3.32653 0,-0.83225 -0.8437,-3.25953 -1.875,-5.39397 -1.0312,-2.13445 -1.875,-4.20084 -1.875,-4.59199 0,-2.40198 -7.9746,-13.60744 -13.999,-19.67083 -9.8261,-9.88942 -22.048,-17.53089 -34.2822,-21.43418 -2.0625,-0.65804 -4.7191,-1.56435 -5.9036,-2.01403 -1.1843,-0.44968 -2.9773,-0.8176 -3.9844,-0.8176 -1.0069,0 -1.8308,-0.42187 -1.8308,-0.9375 0,-0.60739 11.7188,-0.9375 33.2813,-0.9375 l 33.2812,0 0,30.46875 c 0,16.75781 -0.1961,30.46875 -0.4357,30.46875 -0.2398,0 -0.8726,-0.81601 -1.4063,-1.81337 z"
     id="path3542"
     inkscape:connector-curvature="0" />
</svg>
