<?xml version="1.0" encoding="UTF-8" standalone="no"?>
<!-- Created with Inkscape (http://www.inkscape.org/) -->

<svg
   xmlns:dc="http://purl.org/dc/elements/1.1/"
   xmlns:cc="http://creativecommons.org/ns#"
   xmlns:rdf="http://www.w3.org/1999/02/22-rdf-syntax-ns#"
   xmlns:svg="http://www.w3.org/2000/svg"
   xmlns="http://www.w3.org/2000/svg"
   xmlns:sodipodi="http://sodipodi.sourceforge.net/DTD/sodipodi-0.dtd"
   xmlns:inkscape="http://www.inkscape.org/namespaces/inkscape"
   id="svg3656"
   version="1.1"
   inkscape:version="0.91 r13725"
   width="699.375"
   height="80.625"
   viewBox="0 0 699.375 80.625"
   sodipodi:docname="logo.svg">
  <metadata
     id="metadata3662">
    <rdf:RDF>
      <cc:Work
         rdf:about="">
        <dc:format>image/svg+xml</dc:format>
        <dc:type
           rdf:resource="http://purl.org/dc/dcmitype/StillImage" />
        <dc:title></dc:title>
      </cc:Work>
    </rdf:RDF>
  </metadata>
  <defs
     id="defs3660" />
  <sodipodi:namedview
     pagecolor="#ffffff"
     bordercolor="#666666"
     borderopacity="1"
     objecttolerance="10"
     gridtolerance="10"
     guidetolerance="10"
     inkscape:pageopacity="0"
     inkscape:pageshadow="2"
     inkscape:window-width="1366"
     inkscape:window-height="721"
     id="namedview3658"
     showgrid="false"
     inkscape:zoom="0.42037534"
     inkscape:cx="349.6875"
     inkscape:cy="40.3125"
     inkscape:window-x="-4"
     inkscape:window-y="-4"
     inkscape:window-maximized="1"
     inkscape:current-layer="svg3656" />
  <g
     id="g3666"
     transform="translate(-1.875,1.0130624)">
    <path
       style="fill:#d971a1"
       d="m 669.0625,57.5 c -1.17462,-1.174621 -0.62546,-5.196095 1.79176,-13.120914 1.92318,-6.305118 2.89539,-8.141392 4.76031,-8.991106 3.29366,-1.500696 5.5193,0.118161 5.34064,3.884612 l -0.13855,2.920667 3.57148,-2.828669 c 4.27338,-3.384578 9.32339,-5.61459 12.71463,-5.61459 2.23219,0 2.41198,0.253398 1.82934,2.578125 -0.35539,1.417969 -1.51302,4.594235 -2.5725,7.058369 -1.83897,4.277034 -1.98676,4.39397 -3.25863,2.578125 -3.15008,-4.497357 -10.64194,-1.084716 -15.1484,6.900288 -2.50941,4.446431 -3.37825,5.260093 -5.61684,5.260093 -1.45653,0 -2.92949,-0.28125 -3.27324,-0.625 z m -56.80098,-7.265625 c -0.0407,-0.988281 0.18087,-1.541992 0.49239,-1.230469 0.31152,0.311524 0.34482,1.120117 0.074,1.796875 -0.29927,0.747875 -0.52142,0.525728 -0.5664,-0.566406 z M 628.27302,24.375 c 0,-1.289063 0.2128,-1.816406 0.47287,-1.171875 0.26007,0.644531 0.26007,1.699219 0,2.34375 -0.26007,0.644531 -0.47287,0.117187 -0.47287,-1.171875 z"
       id="path3680"
       inkscape:connector-curvature="0" />
    <path
       style="fill:#f4a127"
       d="m 581.44928,58.650099 c -5.67403,-2.580398 -7.25167,-11.045021 -3.4344,-18.426813 2.21788,-4.2889 12.611,-8.658429 12.60965,-5.301411 -2.6e-4,0.644531 -0.84401,3.391244 -1.875,6.103807 -3.57427,9.404011 -1.99884,14.286818 4.60963,14.286818 5.09893,0 7.10959,-2.570034 7.10959,-9.087507 0,-4.199955 -0.386,-5.453218 -2.10938,-6.848724 -1.16015,-0.939436 -2.10937,-1.937021 -2.10937,-2.216852 0,-0.629319 6.43438,-2.459558 8.67187,-2.466689 3.31651,-0.01056 5.39063,3.401674 5.39063,8.868401 0,4.412131 -0.41078,5.591481 -2.95811,8.492732 -1.62697,1.853007 -4.61756,4.215685 -6.64575,5.250396 -4.92162,2.510825 -15.1292,3.224129 -19.25936,1.345842 z"
       id="path3678"
       inkscape:connector-curvature="0" />
    <path
       style="fill:#7386be"
       d="m 635.94098,58.494829 c -3.85006,-1.898856 -5.3417,-5.653663 -4.80707,-12.100521 0.45848,-5.528695 2.61556,-8.790228 7.49141,-11.327134 2.38103,-1.238849 7.31218,-1.834411 7.31218,-0.88313 0,0.238723 -0.87964,2.664504 -1.95475,5.390625 -2.32651,5.899231 -2.74819,12.053738 -0.97247,14.19335 0.7794,0.939117 2.67996,1.544481 4.84896,1.544481 4.87308,0 7.45326,-3.265664 7.45326,-9.433387 0,-3.769386 -0.40942,-4.81507 -2.54202,-6.492578 -2.96158,-2.329585 -2.13056,-3.282468 3.72556,-4.271853 4.07868,-0.689089 7.65522,1.093864 8.68167,4.32793 1.35097,4.256548 -0.45849,10.213175 -4.25613,14.010804 -5.9124,5.912403 -18.19053,8.39029 -24.9806,5.041413 z M 571.53041,35.825893 c -0.25038,-0.405134 0.32655,-0.736608 1.28209,-0.736608 0.95554,0 1.53247,0.331474 1.28209,0.736608 -0.25038,0.405134 -0.82733,0.736607 -1.28209,0.736607 -0.45476,0 -1.03171,-0.331473 -1.28209,-0.736607 z"
       id="path3676"
       inkscape:connector-curvature="0" />
    <path
       style="fill:#029de2"
       d="m 548.31643,58.581642 c -5.32397,-1.698836 -10.75911,-7.375745 -11.66018,-12.178837 -1.78227,-9.500285 2.02008,-15.852091 12.79452,-21.373267 7.67275,-3.931763 14.14147,-5.06978 22.72307,-3.99758 l 5.18916,0.648344 -0.53223,3.456723 c -0.88019,5.716694 -2.54368,10.019225 -3.87374,10.019225 -0.68945,0 -2.16418,-1.898438 -3.27717,-4.21875 -1.79647,-3.745229 -2.41188,-4.251032 -5.48285,-4.506356 -4.56364,-0.379427 -8.59908,1.822174 -12.03568,6.566269 -5.62121,7.75984 -5.79867,16.548104 -0.40552,20.08183 3.27857,2.148201 9.66004,1.014942 14.08455,-2.501219 3.78108,-3.004825 6.97214,-3.61185 6.97214,-1.32629 0,2.800996 -2.95962,5.893161 -7.51708,7.853729 -6.20111,2.667647 -11.73678,3.148926 -16.97899,1.476179 z"
       id="path3674"
       inkscape:connector-curvature="0" />
    <path
       style="fill:#f1343a"
       d="m 63.799268,61.90545 c -0.758935,-0.469048 -0.305701,-0.733575 1.256892,-0.733575 2.72761,0 3.051996,0.26915 1.186949,0.984835 -0.69129,0.265273 -1.791018,0.152206 -2.443841,-0.25126 z M 616.28442,57.712133 c -1.61389,-0.702337 -3.21591,-1.732588 -3.56007,-2.289447 -1.51251,-2.447281 5.48325,-29.733521 8.46908,-33.032833 1.02947,-1.137549 2.60178,-1.745921 4.07015,-1.574853 3.52414,0.410568 3.51364,3.858918 -0.0474,15.573783 -1.67477,5.509607 -3.07652,11.704967 -3.11498,13.767467 l -0.0699,3.75 3.98438,-0.08092 c 4.5033,-0.09145 5.2646,1.421636 1.90077,3.777755 -2.54152,1.780152 -7.68127,1.828334 -11.63198,0.109044 z M 41.503906,20.058593 c 0.311524,-0.311522 1.120117,-0.344829 1.796875,-0.07401 0.747875,0.299274 0.525728,0.521421 -0.566406,0.566406 -0.988281,0.04071 -1.541992,-0.18087 -1.230469,-0.492393 z"
       id="path3672"
       inkscape:connector-curvature="0" />
    <path
       style="fill:#fd0000"
       d="M 46.40625,78.336955 C 30.349882,74.257061 14.223261,62.876967 5.6071878,49.546227 3.5544845,46.370296 1.875,43.449088 1.875,43.054654 c 0,-0.394435 2.4257812,1.674877 5.390625,4.598471 6.102348,6.017446 11.713219,9.077742 18.444507,10.060055 l 4.616381,0.673679 -6.641394,-6.641395 C 19.230856,47.291201 16.012552,43.007496 13.912488,38.737658 11.152527,33.126123 10.78125,31.480326 10.78125,24.857497 c 0,-6.49438 0.347048,-8.104103 2.558094,-11.865257 C 16.395922,7.7927699 22.580609,3.4486637 29.327541,1.7621763 36.588274,-0.05274271 49.147682,0.19389195 55.3125,2.2724544 67.940752,6.530262 82.179304,15.960472 89.125396,24.666774 c 4.03781,5.061033 8.829001,13.628829 8.054485,14.403345 -0.2454,0.2454 -0.716756,-0.406331 -1.047469,-1.448292 C 95.2737,34.916264 86.103742,26.794117 81.362047,24.539208 79.151984,23.488214 75.300606,22.334717 72.803429,21.975882 l -4.54032,-0.652429 6.508464,6.508465 c 7.720589,7.720589 10.876433,12.791831 12.916939,20.756706 2.261205,8.826348 0.102804,17.296752 -5.807941,22.792609 -7.708709,7.167619 -22.910089,10.148271 -35.474321,6.955722 z M 66.369526,62.014103 c 0.782733,-0.496554 0.08781,-0.811995 -1.95832,-0.888916 -9.278153,-0.348802 -17.52094,-8.229023 -17.531403,-16.760268 -0.01228,-10.016578 13.788846,-10.543922 22.298443,-0.852027 2.985655,3.400473 5.257606,9.420823 4.24282,11.242877 -0.314125,0.564014 0.0044,0.490733 0.707854,-0.162849 0.787516,-0.731694 1.251727,-3.074502 1.208039,-6.09682 C 75.140485,34.903802 59.254622,20.334507 44.546761,20.257691 c -10.121119,-0.05286 -15.47414,4.86863 -15.480757,14.232782 -0.0074,10.490354 9.006051,21.677658 21.354973,26.505301 4.564614,1.784475 13.810277,2.374819 15.948549,1.018329 z"
       id="path3670"
       inkscape:connector-curvature="0" />
    <path
       style="fill:#000000"
       d="m 104.99218,56.484375 c -0.005,-0.386719 1.50175,-7.03125 3.34677,-14.765625 3.29423,-13.809467 3.41937,-14.108889 6.95448,-16.640625 3.74273,-2.68041 9.42187,-3.533649 9.35997,-1.40625 -0.0188,0.644531 -1.46312,7.286096 -3.20972,14.759033 -1.74659,7.472938 -3.06494,13.697833 -2.92967,13.833101 0.13527,0.135267 1.93416,-0.67879 3.99754,-1.809015 3.70181,-2.027679 3.78782,-2.197991 6.4794,-12.830178 C 132.27357,24.657949 133.96554,22.5 140.84979,22.5 c 2.45449,0 4.46271,0.363002 4.46271,0.80667 0,0.443669 -1.47656,6.771608 -3.28125,14.062087 -1.80469,7.290479 -3.28125,13.704837 -3.28125,14.25413 0,0.549294 1.6869,-0.188802 3.74868,-1.640211 3.92421,-2.762498 4.19058,-3.36023 7.01967,-15.752518 C 151.46872,25.686954 154.32168,22.5 160.01915,22.5 c 2.62127,0 4.03571,0.412159 4.02163,1.171875 -0.012,0.644531 -1.46776,6.867188 -3.23514,13.828125 -3.10445,12.227165 -3.35005,12.774492 -7.2439,16.143898 l -4.03049,3.487649 -22.26562,0.02798 c -12.2461,0.01539 -22.26915,-0.288429 -22.27345,-0.675148 z m 57.89844,-0.309468 c -2.04246,-1.189628 -2.07764,-3.933322 -0.12392,-9.667154 1.12725,-3.308301 2.71356,-5.397332 6.17793,-8.135755 l 4.66124,-3.684498 12.53908,0 c 11.85397,0 12.59776,0.109644 13.61305,2.006733 0.83875,1.567216 0.7251,3.295556 -0.51888,7.891204 -1.47575,5.451891 -1.96474,6.131386 -6.65156,9.243268 l -5.05871,3.358795 -11.49881,-0.02851 c -6.32433,-0.01568 -12.23707,-0.458518 -13.13942,-0.984085 z m 19.82252,-5.141416 c 2.51814,-2.11887 4.7663,-7.04932 4.78163,-10.486616 0.01,-2.163397 -7.3262,-1.425678 -9.7304,0.978523 -2.10459,2.1046 -3.97743,9.264651 -2.88546,11.031482 1.02151,1.652842 4.97256,0.884549 7.83423,-1.523389 z m 16.26513,4.982134 c 0.23589,-0.644531 1.63968,-5.707031 3.11955,-11.25 l 2.69068,-10.078125 15.02762,0.02981 c 19.94889,0.03958 20.57547,0.55397 17.24031,14.153196 l -2.03971,8.316992 -5.47711,0 c -6.21807,0 -6.07267,0.30035 -4.03651,-8.337611 0.77708,-3.296624 1.16461,-6.776112 0.86116,-7.732196 -0.6255,-1.970766 -3.62703,-2.972264 -7.54961,-2.51902 -2.44463,0.28247 -2.84232,0.906579 -4.87196,7.645609 -2.9532,9.805565 -4.02867,10.943218 -10.34509,10.943218 -3.64229,0 -4.92876,-0.326363 -4.61933,-1.171875 z m 43.59985,0.159282 c -2.03043,-1.182621 -2.10287,-4.796758 -0.20762,-10.359005 1.06446,-3.124028 2.62536,-5.095794 6.06939,-7.667005 4.40054,-3.285305 5.00168,-3.461397 11.81642,-3.461397 7.52479,0 8.07156,-0.267563 12.07094,-5.907036 0.975,-1.374824 2.27038,-1.635921 6.97684,-1.40625 l 5.77954,0.282036 -2.91993,3.963323 c -2.1726,2.94894 -3.50301,6.543757 -5.19807,14.045398 -1.25297,5.545142 -2.27813,10.406177 -2.27813,10.802302 0,1.089221 -30.2096,0.814154 -32.10937,-0.292366 z m 19.72069,-5.055733 c 1.96849,-1.656375 3.02126,-3.664008 3.68704,-7.03125 l 0.93187,-4.712924 -3.92044,0 c -5.27003,0 -7.85859,2.770514 -8.62359,9.229754 l -0.57236,4.832746 2.87115,0 c 1.6864,0 4.00806,-0.956636 5.62633,-2.318326 z m 18.55632,4.274971 c -1.53895,-1.700529 -1.53892,-2.092869 6.4e-4,-7.57981 1.43514,-5.114777 2.18786,-6.212483 6.48473,-9.456645 l 4.86113,-3.67019 12.70513,0 c 10.72059,0 12.79402,0.231634 13.27419,1.482925 1.30551,3.402112 0.48698,5.769035 -2.94658,8.520503 -5.58982,4.479393 -7.1603,4.996572 -15.17274,4.996572 -6.93663,0 -7.56163,0.154976 -7.56163,1.875 0,1.744662 0.6354,1.877168 9.14062,1.90619 l 9.14063,0.03119 -2.21323,1.84381 c -1.94581,1.621018 -3.65578,1.84381 -14.15158,1.84381 -10.56656,0 -12.12483,-0.206067 -13.56131,-1.793355 z m 25.11219,-12.337189 c 3.64785,-2.8694 3.05508,-3.681956 -2.68607,-3.681956 -3.90625,0 -5.6108,0.454545 -7.03125,1.875 -2.89013,2.890138 -2.27423,3.75 2.68607,3.75 3.19475,0 5.30104,-0.582059 7.03125,-1.943044 z m 12.19322,11.552419 c 2.73076,-14.165093 1.97004,-12.68057 8.43629,-16.463165 5.8624,-3.429362 6.00175,-3.45871 16.42318,-3.45871 14.14779,0 18.27811,2.016013 14.67358,7.162197 -1.82596,2.606914 -6.12556,4.292116 -10.0043,3.921118 -2.94029,-0.281237 -3.13803,-0.50996 -2.86796,-3.317097 0.24613,-2.558221 -0.0707,-3.105577 -2.09101,-3.612649 -3.09402,-0.77655 -8.11625,2.112499 -9.0917,5.230024 -0.40186,1.284337 -1.41488,4.760938 -2.25116,7.725782 l -1.52051,5.390625 -6.10171,0 -6.10172,0 0.49702,-2.578125 z m 28.24571,-0.234375 2.69454,-2.8125 16.63264,0 c 17.70099,0 19.57907,-0.456063 19.57907,-4.754465 C 385.3125,45.158597 384.58513,45 377.0203,45 c -9.78135,0 -11.3953,-1.046103 -11.3953,-7.386001 0,-4.787331 1.7655,-8.441329 5.66326,-11.721078 2.88377,-2.426532 3.0958,-2.455421 18.02157,-2.455421 l 15.10346,0 -2.69454,2.8125 c -2.60904,2.723257 -2.9664,2.8125 -11.26198,2.8125 -7.87898,0 -8.74076,0.184506 -10.72446,2.296049 -3.74102,3.982134 -2.13729,5.203951 6.83059,5.203951 6.54407,0 8.28837,0.327719 10.34192,1.943044 4.0866,3.21452 3.02789,9.946901 -2.45873,15.635081 l -2.9389,3.046875 -23.89775,0 -23.89773,0 2.69454,-2.8125 z m 53.41897,0.703125 c 0.26727,-1.160156 1.09602,-4.807704 1.84166,-8.105663 1.82542,-8.073833 5.72837,-12.284962 11.38589,-12.284962 l 3.93497,0 -2.28961,9.016765 c -1.25928,4.959221 -2.09794,9.208424 -1.86369,9.442676 0.23425,0.23425 2.09128,-0.625397 4.12675,-1.910328 3.23565,-2.042576 3.77812,-2.900091 4.31568,-6.821971 0.89463,-6.527054 4.23335,-9.727142 10.14853,-9.727142 2.48165,0 4.50364,0.316406 4.49331,0.703125 -0.0103,0.386719 -1.02073,4.605469 -2.24532,9.375 -1.22458,4.769531 -1.94688,8.671875 -1.60508,8.671875 0.34179,0 2.15694,-1.043403 4.03367,-2.318674 2.70502,-1.838105 3.55125,-3.141454 4.08293,-6.288468 0.86656,-5.129136 6.02103,-10.088999 10.51821,-10.121105 1.67579,-0.01196 3.03965,0.294653 3.03081,0.681372 -0.0318,1.389405 -3.50641,14.107788 -4.12983,15.116499 -0.3505,0.567116 -2.48472,2.302202 -4.74273,3.855748 l -4.10545,2.824628 -20.70832,0 -20.70832,0 0.48595,-2.109375 z m 55.47633,0.39493 C 454.33778,54.408107 453.75,52.147464 453.75,49.505736 c 0,-4.8652 1.92719,-7.861041 7.78808,-12.106646 l 3.74324,-2.71159 14.4909,0 c 11.19346,0 14.39457,0.266663 14.0676,1.171875 -0.2328,0.644531 -1.83793,5.707031 -3.56694,11.25 l -3.14365,10.078125 -5.90837,0 c -3.2496,0 -5.90836,-0.353838 -5.90836,-0.786308 0,-0.432468 1.09695,-4.271455 2.43767,-8.53108 2.76818,-8.794866 2.38039,-10.017527 -2.8652,-9.033449 -2.51583,0.471971 -4.10319,1.632327 -6.20812,4.538096 -3.74555,5.170576 -3.46773,8.746303 0.85908,11.056986 4.91656,2.625633 4.71662,2.755755 -4.23438,2.755755 -6.9941,0 -8.71554,-0.295131 -10,-1.714445 z m 35.32663,0.369017 c 0.28396,-0.739985 1.91114,-5.800195 3.61593,-11.244911 l 3.09964,-9.899484 15,0.02473 c 10.99207,0.01812 15.43837,0.357496 16.64062,1.270139 2.09367,1.589316 2.11495,5.675953 0.075,14.398082 l -1.58969,6.796875 -5.92232,0 c -3.25729,0 -5.91778,-0.316407 -5.9122,-0.703125 0.006,-0.386719 0.6384,-2.774081 1.40625,-5.305248 1.76141,-5.806322 1.78263,-10.316257 0.0553,-11.749828 -0.73745,-0.612032 -2.93835,-0.980095 -4.8909,-0.817917 l -3.55012,0.294863 -2.11375,7.39679 c -2.81214,9.840667 -3.85264,10.88446 -10.85007,10.88446 -4.46272,0 -5.47662,-0.269393 -5.06371,-1.345428 z"
       id="path3668"
       inkscape:connector-curvature="0" />
  </g>
</svg>
