<?xml version="1.0" encoding="UTF-8" standalone="no"?>
<!-- Created with Inkscape (http://www.inkscape.org/) -->

<svg
   xmlns:dc="http://purl.org/dc/elements/1.1/"
   xmlns:cc="http://creativecommons.org/ns#"
   xmlns:rdf="http://www.w3.org/1999/02/22-rdf-syntax-ns#"
   xmlns:svg="http://www.w3.org/2000/svg"
   xmlns="http://www.w3.org/2000/svg"
   xmlns:sodipodi="http://sodipodi.sourceforge.net/DTD/sodipodi-0.dtd"
   xmlns:inkscape="http://www.inkscape.org/namespaces/inkscape"
   id="svg3450"
   version="1.1"
   inkscape:version="0.91 r13725"
   width="384"
   height="67.800003"
   viewBox="0 0 384 67.800003"
   sodipodi:docname="logo.svg">
  <metadata
     id="metadata3456">
    <rdf:RDF>
      <cc:Work
         rdf:about="">
        <dc:format>image/svg+xml</dc:format>
        <dc:type
           rdf:resource="http://purl.org/dc/dcmitype/StillImage" />
        <dc:title></dc:title>
      </cc:Work>
    </rdf:RDF>
  </metadata>
  <defs
     id="defs3454" />
  <sodipodi:namedview
     pagecolor="#ffffff"
     bordercolor="#666666"
     borderopacity="1"
     objecttolerance="10"
     gridtolerance="10"
     guidetolerance="10"
     inkscape:pageopacity="0"
     inkscape:pageshadow="2"
     inkscape:window-width="1366"
     inkscape:window-height="721"
     id="namedview3452"
     showgrid="false"
     inkscape:zoom="0.765625"
     inkscape:cx="192"
     inkscape:cy="33.900002"
     inkscape:window-x="-4"
     inkscape:window-y="-4"
     inkscape:window-maximized="1"
     inkscape:current-layer="svg3450" />
  <g
     id="g3460"
     transform="translate(-1.4320754e-4,-6.3948242e-5)">
    <path
       style="fill:#f0bd1b"
       d="m 50.475,65.175417 c 3.09375,-0.04876 8.15625,-0.04876 11.25,0 3.09375,0.04876 0.5625,0.08865 -5.625,0.08865 -6.1875,0 -8.71875,-0.03989 -5.625,-0.08865 z m 34.8,0 c 3.09375,-0.04876 8.15625,-0.04876 11.25,0 3.09375,0.04876 0.5625,0.08865 -5.625,0.08865 -6.1875,0 -8.71875,-0.03989 -5.625,-0.08865 z M 43.887207,62.125587 C 39.259035,61.56309 39.052317,55.548275 43.629054,54.614144 L 44.55,54.426173 l 0.08342,-4.105542 0.08342,-4.105542 -1.110285,-0.463908 c -1.8945,-0.791574 -3.728091,-2.525727 -4.535661,-4.289691 -0.637251,-1.391946 -0.724752,-1.935417 -0.597639,-3.711987 0.12717,-1.777377 0.310275,-2.315577 1.253967,-3.685776 1.008474,-1.464262 1.758114,-2.109946 4.147785,-3.572599 l 0.825,-0.504958 0,-10.207983 c 0,-8.327052 0.08009,-10.3628663 0.434676,-11.0485514 0.631812,-1.2217903 2.376975,-2.6491543 3.682125,-3.0115969 1.564014,-0.4343308 47.802384,-0.4343308 49.366398,0 1.30515,0.3624426 3.050314,1.7898066 3.682124,3.0115969 C 102.21991,9.4153207 102.3,11.451135 102.3,19.778187 l 0,10.207983 0.825,0.504958 c 2.38967,1.462653 3.13931,2.108337 4.14778,3.572599 2.23197,3.24072 1.61173,7.633833 -1.42963,10.126002 -0.73668,0.603648 -1.83904,1.306302 -2.4497,1.561452 l -1.11028,0.463908 0.0834,4.105542 0.0834,4.105542 0.92095,0.187971 c 3.17529,0.64809 4.42675,4.33033 2.19757,6.466018 -1.19596,1.145802 -2.4478,1.264158 -13.691984,1.294527 l -9.373461,0.02531 -0.637452,-1.356117 c -1.82565,-3.883905 -6.887919,-5.705791 -11.772579,-4.236888 -2.004216,0.6027 -4.338267,2.663175 -5.110569,4.51155 l -0.45186,1.081455 -9.540306,-0.04224 C 49.743138,62.334543 44.746743,62.230053 43.887207,62.125587 Z M 62.47935,37.518071 c 7.661544,-1.959492 11.304732,-9.00662 8.182215,-15.827097 -0.861558,-1.881891 -3.047502,-4.114297 -5.131737,-5.24081 -2.228262,-1.204361 -5.695332,-1.831089 -8.049303,-1.45504 -3.75273,0.599502 -5.764674,1.659248 -8.191686,4.314787 -5.707407,6.244811 -2.241141,15.958097 6.511161,18.245807 2.569071,0.671511 3.936708,0.663804 6.67935,-0.03765 z M 55.95,36.036422 C 53.75769,35.402072 52.106427,34.383275 50.6403,32.760451 49.201542,31.167916 48.645801,30.057952 48.270372,28.02708 46.9812,21.053306 54.187194,14.908391 61.630146,16.634526 c 2.388924,0.554029 3.692262,1.259196 5.520111,2.986642 C 68.319471,20.72616 69.9,23.224881 69.9,23.968352 c 0,0.169541 -0.669096,0.219241 -1.624317,0.120653 -1.462728,-0.150967 -1.70148,-0.09048 -2.4,0.60804 -0.927369,0.927368 -1.051677,2.560193 -0.250134,3.285579 0.933327,0.844651 2.187069,1.171674 3.173556,0.827783 0.494004,-0.172211 0.974682,-0.236618 1.068174,-0.143128 0.09349,0.09349 -0.28032,1.038495 -0.830688,2.100008 -1.251438,2.413689 -3.658509,4.337395 -6.541428,5.227837 -2.353524,0.72693 -4.136742,0.73818 -6.545163,0.0413 z m 36.200838,1.197696 c 3.30879,-1.138389 5.949876,-3.465508 7.358937,-6.484117 0.717825,-1.537789 0.838615,-2.171465 0.829175,-4.35 -0.009,-2.109796 -0.14802,-2.846215 -0.80447,-4.265901 -2.442417,-5.282162 -8.353026,-8.171313 -14.250894,-6.965949 -5.155146,1.053571 -8.730372,4.288429 -9.877572,8.937202 -0.417798,1.693032 -0.446316,2.347409 -0.167604,3.846093 1.394409,7.498053 9.372303,11.876856 16.912428,9.282672 z M 84.589806,36.050582 C 82.292295,35.35784 80.325117,34.12838 79.106064,32.623315 77.938179,31.181431 77.1,29.652859 77.1,28.964899 c 0,-0.550588 0.02574,-0.554324 1.073682,-0.155894 C 79.878186,29.457057 81.9,28.10637 81.9,26.319613 c 0,-1.815057 -2.183532,-2.843302 -4.316109,-2.032497 -0.851964,0.323916 -0.845565,0.217993 0.117,-1.937115 1.740762,-3.897414 7.273347,-6.676629 11.728833,-5.89181 3.961221,0.697755 6.831987,2.721629 8.411487,5.930055 2.754819,5.595834 -0.597387,12.040167 -7.145706,13.737009 -2.279136,0.590583 -3.967845,0.569931 -6.105699,-0.07467 z M 120.1377,59.625003 c -0.0789,-0.20625 -0.10842,-8.045074 -0.0656,-17.419609 l 0.0779,-17.044608 7.8,0.02406 c 7.51233,0.02318 7.84969,0.0494 9.14725,0.711001 0.77155,0.393396 1.73302,1.235645 2.25,1.971008 l 0.90275,1.28407 0.091,12.799539 c 0.0681,9.577665 -0.003,13.08867 -0.28082,13.948173 -0.45619,1.409124 -2.48664,3.264505 -4.10227,3.748558 -1.70394,0.510513 -15.62391,0.490983 -15.82025,-0.0222 z M 130.44,50.640002 c 0.26166,-0.261663 0.36,-2.505171 0.36,-8.213268 0,-6.584808 -0.0721,-7.913076 -0.44618,-8.223561 -0.2454,-0.203664 -0.6504,-0.29193 -0.9,-0.196149 C 129.06403,34.156601 129,35.33936 129,42.390587 c 0,4.515177 0.09,8.299416 0.2,8.409414 0.30727,0.307275 0.84168,0.23832 1.24,-0.159999 z m 27.40355,9.039016 C 156.45767,59.12394 155.46108,58.189377 154.83523,56.857926 154.25444,55.622363 154.2,54.99203 154.2,49.503272 c 0,-4.413492 0.0938,-6.00327 0.35408,-6.00327 0.19475,0 1.1735,0.523557 2.175,1.16346 1.00151,0.639903 2.83342,1.767558 4.07092,2.505903 2.24344,1.338525 2.25044,1.346721 2.4,2.808936 0.11539,1.128099 0.28015,1.49121 0.71405,1.573614 0.31023,0.05892 0.67941,-0.07491 0.82041,-0.297396 0.40574,-0.640242 0.30701,-2.57019 -0.15512,-3.032322 -0.23137,-0.231363 -2.01142,-1.354758 -3.95568,-2.496429 C 154.25609,41.986715 154.05,41.623892 154.05,34.15253 l 0,-5.59747 0.92679,-1.15253 c 1.62408,-2.01965 2.22943,-2.171839 8.70344,-2.188119 3.51202,-0.0088 6.125,0.117296 6.75,0.325823 1.29346,0.431546 2.91933,1.925477 3.45554,3.175132 0.53795,1.253703 0.60805,13.584636 0.0772,13.584636 -0.18535,0 -2.27785,-1.282059 -4.65,-2.849022 C 165.17462,36.717305 165,36.560891 165,35.587712 c 0,-1.110177 -0.63359,-1.854136 -1.34618,-1.580688 -0.31869,0.122292 -0.45223,0.601272 -0.4485,1.608564 l 0.005,1.434414 4.71968,3.080079 c 6.46489,4.219008 6.21969,3.789009 6.21969,10.907061 l 0,5.630035 -1.02428,1.05654 c -1.98178,2.044197 -2.92686,2.278689 -9.09745,2.257269 -3.01305,-0.01047 -5.79617,-0.146343 -6.18472,-0.301968 z m 18.29067,-0.08779 c -0.24555,-0.295866 -0.31784,-5.081113 -0.26174,-17.325001 l 0.0775,-16.91623 4.575,-0.08281 4.575,-0.08281 0.005,4.732814 c 0.005,5.004887 0.22535,6.088238 1.02402,5.031353 0.35604,-0.471144 0.45434,-1.572289 0.46185,-5.17354 l 0.01,-4.575 4.5,0 4.5,0 0,6.491148 0,6.491152 -1.65,1.932843 c -0.9075,1.063065 -1.65,2.039073 -1.65,2.16891 0,0.129837 0.74175,1.16529 1.64833,2.301006 l 1.64832,2.064942 0.002,6.533019 0.002,6.533023 -4.425,-0.08302 -4.425,-0.08302 -0.15,-4.711072 c -0.0952,-2.990763 -0.27739,-4.838073 -0.49886,-5.058861 -0.8168,-0.814287 -1.00114,0.0982 -1.00114,4.955541 0,4.191592 -0.0686,4.926532 -0.47454,5.082295 -0.26099,0.100155 -2.20196,0.182097 -4.31326,0.182097 -2.87414,0 -3.92398,-0.102714 -4.17798,-0.408771 z m 39.29054,-0.0075 c -1.28837,-0.46572 -2.81801,-2.21067 -3.27501,-3.735976 -0.46037,-1.536603 -0.48409,-12.347784 -0.0271,-12.347784 0.31224,0 2.04461,0.98961 6.42734,3.671592 2.00766,1.228578 2.104,1.339971 2.19111,2.53338 0.0985,1.349424 0.67238,2.069163 1.42086,1.781946 0.36054,-0.138354 0.44853,-0.543231 0.37882,-1.743174 l -0.0908,-1.562967 -3.59058,-2.182452 c -4.7215,-2.869866 -5.14986,-3.204729 -6.18258,-4.833165 L 211.8,39.782534 l 0.005,-5.416266 c 0.005,-5.04864 0.0504,-5.496189 0.675,-6.59376 0.41773,-0.734066 1.16798,-1.440165 1.99225,-1.875 1.24567,-0.657136 1.64303,-0.697507 6.86521,-0.697507 3.4758,0 5.99585,0.135673 6.75724,0.363794 1.61647,0.484306 3.35569,2.184637 3.77052,3.686206 0.19031,0.688887 0.33223,3.738522 0.33319,7.15999 0.001,5.575506 -0.0329,5.950947 -0.53433,5.819823 -0.29479,-0.07709 -2.45284,-1.409085 -4.79566,-2.959989 -4.19623,-2.777826 -4.25973,-2.836314 -4.264,-3.927117 -0.005,-1.234734 -0.32097,-1.573078 -1.20703,-1.291854 C 220.921,34.20203 220.8,34.505876 220.8,35.550761 c 0,1.495248 -0.32567,1.206405 5.90503,5.237211 2.64104,1.708563 3.88944,2.718516 4.5,3.6405 0.81456,1.230048 0.84862,1.434033 0.94638,5.668614 0.14695,6.365334 -0.40954,7.842496 -3.46327,9.192997 -1.49933,0.663075 -1.95606,0.708414 -6.92169,0.687096 -3.41026,-0.01464 -5.68405,-0.155703 -6.34169,-0.393429 z M 235.7,59.800014 c -0.11,-0.11001 -0.2,-1.997439 -0.2,-4.194295 0,-4.720293 -0.53492,-4.273773 5.25,-4.382451 3.67558,-0.06905 3.9,-0.107793 3.9,-0.673266 0,-0.562071 -0.25,-0.609483 -3.95475,-0.75 -4.39391,-0.166656 -5.06524,-0.428013 -6.24525,-2.431359 -0.561,-0.952425 -0.6065,-1.659225 -0.70008,-10.873305 -0.055,-5.420065 -0.0179,-10.182313 0.0827,-10.582773 l 0.18274,-0.728109 4.56733,0.08277 4.56734,0.08277 0.15,7.8 c 0.14519,7.550002 0.16923,7.800001 0.75,7.800001 0.58044,0 0.6053,-0.254253 0.76276,-7.800001 0.0895,-4.29 0.19077,-7.837266 0.225,-7.882814 0.0342,-0.04555 2.12099,-0.04555 4.63724,0 l 4.575,0.08281 0.0831,15.150001 c 0.0457,8.3325 0.012,15.443346 -0.0749,15.801879 -0.26292,1.084735 -1.6917,2.533813 -3.0888,3.132679 -1.16619,0.499887 -2.1278,0.565443 -8.29425,0.565443 -3.83632,0 -7.06513,-0.09 -7.17513,-0.200001 z m 24.10214,-0.277893 c -1.5511,-0.672648 -2.32596,-1.53372 -2.99907,-3.332773 C 256.27896,54.788525 256.2,53.852336 256.2,49.038749 c 0,-4.363773 0.0833,-5.538747 0.39265,-5.538747 0.21595,0 1.1947,0.489474 2.175,1.087719 0.98029,0.598248 2.45735,1.489071 3.28235,1.979613 2.95642,1.757871 3.40738,2.221941 3.50786,3.609861 0.0766,1.057668 0.20623,1.28901 0.76714,1.368672 0.63395,0.09004 0.67481,-0.01032 0.67184,-1.65 l -0.003,-1.745865 -3.71121,-2.20197 C 256.34941,41.834432 256.2,41.58626 256.2,34.18355 c 0,-5.382822 0.0833,-5.797665 1.46166,-7.283121 1.41594,-1.525914 2.28671,-1.700428 8.48461,-1.700428 6.17811,0 7.1225,0.187825 8.7533,1.740915 1.55338,1.479355 1.70043,2.265919 1.70043,9.095722 0,4.899036 -0.0839,6.263364 -0.38519,6.263364 -0.21185,0 -2.3381,-1.31625 -4.725,-2.925 -4.20976,-2.837349 -4.34263,-2.959215 -4.43392,-4.066749 -0.10215,-1.239321 -0.69139,-1.701232 -1.40971,-1.10508 -0.46394,0.385032 -0.60021,2.004546 -0.21659,2.574003 0.12123,0.179949 2.11041,1.580973 4.42041,3.113391 6.88443,4.567023 6.75,4.34475 6.75,11.160969 0,5.258331 -0.15255,5.866192 -1.82544,7.27384 -1.80317,1.517268 -2.61103,1.675569 -8.4862,1.662885 -4.17588,-0.009 -5.68161,-0.117231 -6.48622,-0.466152 z m 22.70629,0.102894 c -0.45864,-0.339735 -0.5134,-1.545843 -0.58234,-12.825001 l -0.0761,-12.450012 -1.88294,-0.08952 -1.88293,-0.08952 0.0829,-4.410479 0.0829,-4.410479 8.4,-0.08415 c 4.62,-0.04628 8.70375,-0.01 9.075,0.08072 0.66133,0.161532 0.675,0.25282 0.675,4.509154 l 0,4.344285 -1.62546,0 c -2.82412,0 -2.57454,-1.250545 -2.57454,12.9 0,11.154271 -0.0523,12.555877 -0.47454,12.717904 -0.94112,0.361146 -8.68795,0.199011 -9.21703,-0.192903 z m 15.57555,-0.09462 c -0.27654,-0.720654 -0.21235,-33.521211 0.0665,-33.960466 0.18693,-0.294491 2.02692,-0.362051 8.17041,-0.3 l 7.92915,0.08007 0.0829,4.41477 0.083,4.414771 -3.23298,0.08523 -3.23295,0.08523 0,1.95 0,1.95 3.08295,0.08558 3.08298,0.08558 -0.083,4.414419 -0.083,4.414416 -3.07191,0.08546 c -3.4239,0.09525 -3.54597,0.18696 -3.3252,2.498028 l 0.0971,1.016511 3.15,0.15 3.15,0.15 0,4.35 0,4.350001 -7.84101,0.07991 c -6.95414,0.07087 -7.86184,0.02568 -8.02501,-0.399537 z m 29.41603,0.269622 C 327.39,59.690004 327.3,54.036533 327.3,47.236736 327.3,36.462164 327.24054,34.824122 326.83728,34.489451 325.7403,33.57904 325.6554,34.385549 325.5,47.189723 l -0.15,12.36028 -4.35,0 -4.35,0 0,-17.100001 0,-17.100001 6.77262,0 6.77265,0 1.23792,0.819705 c 0.80886,0.535591 1.30776,0.706732 1.4394,0.493762 0.11079,-0.179268 0.75852,-0.578921 1.43943,-0.888116 0.98283,-0.446308 1.96803,-0.563531 4.78014,-0.568762 1.94817,-0.0036 4.13751,0.143326 4.86519,0.326555 1.42974,0.360014 2.99937,1.650955 3.45069,2.838016 0.16137,0.424422 0.28851,7.302894 0.29775,16.109757 l 0.0162,15.369085 -4.66098,0.08262 -4.66098,0.08262 0,-12.617035 c 0,-10.985601 -0.0587,-12.639552 -0.45381,-12.791181 -0.2496,-0.09578 -0.6546,-0.0075 -0.9,0.196149 -0.38175,0.316824 -0.44619,2.162772 -0.44619,12.783561 l 0,12.413269 -4.44999,0 c -2.44752,0 -4.54002,-0.09 -4.65,-0.200001 z M 36.985803,58.350003 c 0.0024,-0.825 0.06052,-1.126893 0.129471,-0.670875 0.06896,0.456018 0.06711,1.131018 -0.0041,1.5 -0.07121,0.368982 -0.127626,-0.0041 -0.125376,-0.829125 z m 72.899997,0 c 0.002,-0.825 0.0605,-1.126893 0.12947,-0.670875 0.069,0.456018 0.0671,1.131018 -0.004,1.5 -0.0712,0.368982 -0.12762,-0.0041 -0.12537,-0.829125 z m 32.79922,0.883089 c -0.23985,-0.625032 -0.24266,-32.933807 -0.003,-33.558555 0.15481,-0.403223 0.85137,-0.474536 4.63517,-0.474536 3.54611,0 4.50185,0.08723 4.6929,0.428338 0.13195,0.235586 0.17241,7.964336 0.0899,17.175 l -0.15,16.746664 -4.53998,0.08263 c -3.94239,0.07175 -4.56433,0.01917 -4.725,-0.399537 z m -70.303771,-0.01434 c 0.09969,-0.09969 0.358437,-0.110343 0.575001,-0.02367 0.239319,0.09577 0.168234,0.166854 -0.181251,0.181248 -0.316248,0.01302 -0.493437,-0.05788 -0.39375,-0.157566 z m 1.5,0 c 0.09969,-0.09969 0.358437,-0.110343 0.575001,-0.02367 0.239319,0.09577 0.168234,0.166854 -0.181251,0.181248 -0.316248,0.01302 -0.493437,-0.05788 -0.39375,-0.157566 z M 35.123685,39.775001 c -0.01302,-0.316248 0.05788,-0.493437 0.157566,-0.39375 0.09969,0.09969 0.110343,0.358437 0.02367,0.575001 -0.09577,0.239319 -0.166854,0.168234 -0.181248,-0.181251 z m 76.500005,0 c -0.013,-0.316248 0.0579,-0.493437 0.15756,-0.39375 0.0997,0.09969 0.11034,0.358437 0.0237,0.575001 -0.0958,0.239319 -0.16685,0.168234 -0.18125,-0.181251 z M 35.147367,36.900002 c 0,-0.4125 0.06809,-0.58125 0.151317,-0.375 0.08322,0.20625 0.08322,0.54375 0,0.75 -0.08322,0.20625 -0.151317,0.0375 -0.151317,-0.375 z m 76.500003,0 c 0,-0.4125 0.0681,-0.58125 0.15131,-0.375 0.0832,0.20625 0.0832,0.54375 0,0.75 -0.0832,0.20625 -0.15131,0.0375 -0.15131,-0.375 z m 78.06078,-19.200001 c 0,-1.5675 0.0506,-2.20875 0.11236,-1.425 0.0618,0.78375 0.0618,2.06625 0,2.85 -0.0618,0.78375 -0.11236,0.1425 -0.11236,-1.425 z m -16.15815,1.2 c 0.29865,-0.33 0.61049,-0.6 0.69299,-0.6 0.0825,0 -0.0943,0.27 -0.39299,0.6 -0.29865,0.33 -0.61049,0.6 -0.69299,0.6 -0.0825,0 0.0943,-0.27 0.39299,-0.6 z m -20.325,-1.11172 c 0.37125,-0.07151 0.97875,-0.07151 1.35,0 0.37125,0.07151 0.0675,0.130011 -0.675,0.130011 -0.7425,0 -1.04625,-0.05851 -0.675,-0.130011 z m 58.35625,0.03047 c 0.0997,-0.09969 0.35844,-0.110346 0.575,-0.02369 0.23932,0.09577 0.16823,0.166855 -0.18125,0.18125 -0.31625,0.01303 -0.49344,-0.05788 -0.39375,-0.157566 z m 13.78835,-0.71875 c 0,-0.5775 0.0617,-0.81375 0.1372,-0.525 0.0754,0.28875 0.0754,0.76125 0,1.05 -0.0755,0.28875 -0.1372,0.0525 -0.1372,-0.525 z M 129.975,15.993203 c 0.28875,-0.07546 0.76125,-0.07546 1.05,0 0.28875,0.07546 0.0525,0.137197 -0.525,0.137197 -0.5775,0 -0.81375,-0.06174 -0.525,-0.137197 z m -6.45,-0.310221 c 0.53625,-0.06655 1.41375,-0.06655 1.95,0 0.53625,0.06655 0.0975,0.120996 -0.975,0.120996 -1.0725,0 -1.51125,-0.05445 -0.975,-0.120996 z m 42.42237,-1.282981 c 0,-0.4125 0.0681,-0.58125 0.15131,-0.375 0.0832,0.20625 0.0832,0.54375 0,0.75 -0.0832,0.20625 -0.15131,0.0375 -0.15131,-0.375 z m 11.07631,-0.125 c -0.013,-0.31625 0.0579,-0.493438 0.15757,-0.39375 0.0997,0.09969 0.11034,0.358437 0.0237,0.575 -0.0958,0.23932 -0.16685,0.168232 -0.18125,-0.18125 z m 48.35197,-2.125 c -0.003,-0.66 0.0554,-0.965325 0.13047,-0.678498 0.0751,0.286826 0.0778,0.826826 0.006,1.2 -0.0718,0.373173 -0.1332,0.138498 -0.13653,-0.521502 z M 172.575,11.785124 c 0.45375,-0.06874 1.19625,-0.06874 1.65,0 0.45375,0.06874 0.0825,0.124977 -0.825,0.124977 -0.9075,0 -1.27875,-0.05624 -0.825,-0.124977 z M 41.423685,9.7750003 c -0.01302,-0.3162498 0.05788,-0.4934373 0.157566,-0.39375 0.09969,0.099688 0.110343,0.3584376 0.02367,0.5750001 -0.09577,0.2393196 -0.166854,0.1682326 -0.181248,-0.1812501 z m 63.899995,0 c -0.013,-0.3162498 0.0579,-0.4934373 0.15757,-0.39375 0.0997,0.099688 0.11034,0.3584376 0.0237,0.5750001 -0.0958,0.2393196 -0.16685,0.1682326 -0.18125,-0.1812501 z M 61.125,2.4750925 c 6.80625,-0.044962 17.94375,-0.044962 24.75,0 6.80625,0.044962 1.2375,0.081748 -12.375,0.081748 -13.6125,0 -19.18125,-0.036787 -12.375,-0.081748 z"
       id="path3464"
       inkscape:connector-curvature="0" />
    <path
       style="fill:#121010"
       d="M 40.764381,64.261992 C 39.761685,63.738177 38.820888,62.940708 38.255124,62.13501 37.425834,60.95403 37.35,60.638955 37.35,58.374393 c 0,-2.251063 0.07576,-2.570944 0.84891,-3.584347 0.466899,-0.611985 1.378149,-1.446798 2.025,-1.855137 L 41.4,52.192475 l 0,-2.07177 c 0,-2.013159 -0.02757,-2.0889 -0.975,-2.677344 -1.26057,-0.782943 -2.952831,-2.566134 -3.920022,-4.130655 -1.549143,-2.505876 -1.665579,-6.853434 -0.25731,-9.60742 0.777384,-1.520232 2.812485,-3.808114 4.089294,-4.597226 L 41.35656,28.477913 41.45328,18.663957 41.55,8.8500004 42.479634,7.2000003 c 1.091094,-1.9365682 3.261615,-3.7132564 5.10273,-4.1768543 1.783782,-0.4491618 50.05149,-0.4491618 51.835272,0 1.841114,0.4635979 4.011634,2.2402861 5.102734,4.1768543 l 0.92963,1.6500001 0.0967,9.8139566 0.0967,9.813956 0.9919,0.613029 c 1.34991,0.834293 3.28528,2.981354 4.06489,4.509518 1.45955,2.860954 1.36858,7.1665 -0.20521,9.712246 -0.96719,1.564521 -2.65945,3.347712 -3.92002,4.130655 -0.94742,0.588444 -0.975,0.664185 -0.975,2.677344 l 0,2.07177 1.17609,0.742434 c 0.64685,0.408339 1.5581,1.243152 2.025,1.855137 0.77315,1.013403 0.84891,1.333284 0.84891,3.584347 0,2.264562 -0.0758,2.579637 -0.90512,3.760617 -0.56577,0.805698 -1.50656,1.603167 -2.50926,2.126982 l -1.60413,0.838011 -12.415747,0 c -11.622006,0 -12.416163,-0.03356 -12.422331,-0.525 -0.01227,-0.978672 -1.221027,-3.221016 -2.180076,-4.04427 -2.10768,-1.809243 -6.247758,-1.773189 -8.267985,0.072 -0.985767,0.900357 -2.126805,3.019584 -2.138763,3.972267 -0.0062,0.491436 -0.800325,0.525 -12.422331,0.525 l -12.415743,0 -1.604133,-0.838011 z m 24.218094,-2.943444 c 0.248526,-0.594798 1.104756,-1.734348 1.902738,-2.53233 4.202601,-4.202602 12.533925,-2.947006 14.98041,2.257668 l 0.637452,1.356117 9.373461,-0.02532 c 11.244184,-0.03037 12.496024,-0.148725 13.691984,-1.294527 2.22918,-2.135688 0.97772,-5.817928 -2.19757,-6.466018 l -0.92095,-0.187971 -0.0834,-4.105542 -0.0834,-4.105542 1.11028,-0.463908 c 1.8945,-0.791574 3.72809,-2.525727 4.53566,-4.289691 0.63725,-1.391946 0.72475,-1.935417 0.59764,-3.711987 -0.12717,-1.777377 -0.31027,-2.315577 -1.25397,-3.685776 -1.00847,-1.464262 -1.75811,-2.109946 -4.14778,-3.572599 l -0.825,-0.504952 0,-10.207983 c 0,-8.327052 -0.0801,-10.3628663 -0.43468,-11.0485514 -0.63181,-1.2217903 -2.376971,-2.6491543 -3.682121,-3.0115969 -1.564014,-0.4343308 -47.802384,-0.4343308 -49.366398,0 -1.30515,0.3624426 -3.050313,1.7898066 -3.682125,3.0115969 C 44.780094,9.4153207 44.7,11.451135 44.7,19.778187 l 0,10.207983 -0.825,0.504958 c -2.389671,1.462653 -3.139311,2.108337 -4.147785,3.572599 -2.231967,3.24072 -1.611726,7.633833 1.429638,10.126002 0.736674,0.603648 1.839036,1.306302 2.449695,1.561452 l 1.110285,0.463908 -0.08342,4.105542 -0.08342,4.105542 -0.920946,0.187971 c -3.181731,0.649404 -4.426389,4.330678 -2.18898,6.474253 1.185756,1.136025 2.066385,1.218522 13.550235,1.269366 l 9.540306,0.04224 0.45186,-1.081455 z M 55.8,37.555718 c -8.752302,-2.28771 -12.218568,-12.000996 -6.511161,-18.245807 2.427012,-2.655539 4.438956,-3.715285 8.191686,-4.314787 2.353971,-0.376049 5.821041,0.250679 8.049303,1.45504 6.051885,3.270999 8.106324,10.702217 4.425738,16.008562 -1.838349,2.650372 -4.135554,4.204948 -7.476216,5.059345 -2.742642,0.701451 -4.110279,0.709158 -6.67935,0.03765 z m 6.695163,-1.560594 c 2.882919,-0.890442 5.28999,-2.814148 6.541428,-5.227837 0.550368,-1.061513 0.924177,-2.006516 0.830688,-2.100008 -0.09349,-0.09349 -0.57417,-0.02908 -1.068174,0.143128 -0.986487,0.343891 -2.240229,0.01687 -3.173556,-0.827783 -0.801543,-0.725386 -0.677235,-2.358211 0.250134,-3.285579 0.69852,-0.698519 0.937272,-0.759007 2.4,-0.60804 0.955221,0.09859 1.624317,0.04889 1.624317,-0.120653 0,-0.743471 -1.580529,-3.242192 -2.749743,-4.347184 -1.827849,-1.727446 -3.131187,-2.432613 -5.520111,-2.986642 -4.787145,-1.110213 -9.879837,1.060728 -12.351993,5.265475 -1.394358,2.371589 -1.493613,6.252869 -0.222747,8.710452 1.276821,2.469105 3.952164,4.574569 6.894594,5.425969 2.408421,0.696882 4.191639,0.685632 6.545163,-0.0413 z M 84.45,37.529264 c -5.09448,-1.394034 -8.311761,-4.739224 -9.21159,-9.577818 -0.7857,-4.224877 1.673703,-8.950848 5.87232,-11.284209 5.467764,-3.038682 12.144597,-2.113736 16.224051,2.247528 2.157942,2.307016 2.990719,4.381975 3.004169,7.485236 0.009,2.178535 -0.11135,2.812211 -0.829175,4.35 -2.54871,5.460058 -9.101253,8.40973 -15.059775,6.779263 z m 6.245505,-1.404009 c 4.873095,-1.262745 8.092731,-5.148727 8.092731,-9.767622 0,-4.912799 -3.786261,-8.91791 -9.358512,-9.899442 -4.455486,-0.784819 -9.988071,1.994396 -11.728833,5.89181 -0.962565,2.155108 -0.968964,2.261031 -0.117,1.937115 2.132577,-0.810805 4.316109,0.21744 4.316109,2.032497 0,1.786757 -2.021814,3.137444 -3.726318,2.489392 C 77.125731,28.410575 77.1,28.414311 77.1,28.964899 c 0,1.398378 2.454771,4.58673 4.433511,5.758417 2.980056,1.764606 5.986863,2.224698 9.161994,1.401939 z M 120,22.650001 l 0,-0.75 58.2,0 c 33.5577,0 58.2,0.112413 58.2,0.265497 0,0.146023 -0.33275,0.483524 -0.73945,0.75 -0.67418,0.441744 -5.81054,0.484503 -58.2,0.484503 l -57.46055,0 0,-0.75 z m 47.73807,-2.392578 c -3.41301,-1.08205 -5.17627,-5.113221 -3.67858,-8.409996 0.98244,-2.1625752 3.41211,-3.746727 5.74051,-3.7428228 1.68649,0.00282 5.1,2.2355678 5.1,3.3358538 0,0.439919 -3.10637,0.273463 -3.73234,-0.199998 -1.41916,-1.073401 -4.05868,-0.04915 -4.87341,1.89111 -0.63424,1.510438 -0.076,3.208833 1.37511,4.183651 1.25431,0.842604 2.2504,0.864942 3.78064,0.08478 1.27931,-0.652228 2.99469,-0.794009 3.31602,-0.274078 0.23385,0.378379 -1.46794,2.244765 -2.56602,2.814199 -1.22668,0.636125 -3.04781,0.76563 -4.46193,0.317301 z M 210.3949,20.128902 C 208.42326,19.215033 208.2,18.496501 208.2,13.064899 l 0,-4.6648986 1.2,0 1.2,0 0,4.3035036 c 0,3.925415 0.0528,4.351306 0.60122,4.8476 0.49677,0.449572 0.7313,0.484826 1.35,0.202928 l 0.74878,-0.341168 0,-4.506432 0,-4.5064316 1.35,0 1.35,0 -6e-4,4.4250006 c -3e-4,3.619914 -0.0959,4.612157 -0.525,5.453674 -1.06524,2.089064 -3.02461,2.802751 -5.07964,1.850227 z m 12.5051,-5.568406 0,-6.1604956 3.15,0 3.15,0 0,1.35 0,1.3499996 -1.95,0 -1.95,0 0,1.050001 0,1.05 1.95,0 1.95,0 0,1.335685 0,1.335684 -1.875,0.08932 c -1.87491,0.08931 -1.87501,0.08936 -1.96901,1.064315 l -0.094,0.975 1.98626,0 1.98626,0 -0.0923,1.275 -0.0922,1.275 -3.075,0.08549 -3.075,0.0855 0,-6.160495 z m 6.6,-0.04539 0,-6.1848931 2.9514,0.1185438 c 3.27701,0.1316223 4.15885,0.4976535 5.1618,2.1425413 0.9982,1.6371 0.52608,4.479476 -0.89105,5.364489 -0.82153,0.513056 -0.7893,0.707738 0.43553,2.630309 0.57328,0.899855 1.04232,1.743605 1.04232,1.875001 0,0.131395 -0.59784,0.238901 -1.32854,0.238901 l -1.32853,0 -1.74647,-2.925 -1.74646,-2.925 -0.0859,2.925 -0.0859,2.925 -1.18913,0 -1.18914,0 0,-6.184892 z m 5.52857,-0.886537 c 1.15183,-1.151826 0.33599,-2.228571 -1.68857,-2.228571 l -1.44,0 0,1.149999 c 0,0.632501 0.09,1.240001 0.2,1.350001 0.3876,0.387601 2.46178,0.19536 2.92857,-0.271429 z M 120,14.400001 l 0,-6.0000006 3.3,0 3.3,0 0,1.2 0,1.1999996 -1.95,0 -1.95,0 0,1.200001 0,1.2 1.93189,0 1.93189,0 0.0931,1.085756 0.0931,1.085756 2.4894,-3.485756 c 2.35226,-3.293726 2.54645,-3.4857566 3.525,-3.4857566 l 1.0356,0 0,6.0000006 0,6 -1.2,0 c -1.13333,0 -1.2,-0.05 -1.2,-0.9 l 0,-0.9 -1.92826,0 c -1.79466,0 -1.97806,0.06365 -2.64716,0.918595 -0.64755,0.827415 -0.85956,0.909305 -2.13585,0.825 l -1.41694,-0.0936 1.51411,-2.145979 c 0.83276,-1.180289 1.5141,-2.226539 1.5141,-2.325001 0,-0.09846 -0.81,-0.17902 -1.8,-0.17902 l -1.8,0 0,2.4 0,2.4 -1.35,0 -1.35,0 0,-6 z m 11.38781,0.375 -0.0122,-1.425 -0.88781,1.038667 c -1.13562,1.32857 -1.13237,1.811333 0.0122,1.811333 0.87539,0 0.89967,-0.03896 0.88781,-1.425 z m 2.71219,-0.375 0,-6.0000006 1.46226,0 1.46225,0 1.56394,3.5250006 c 0.86016,1.93875 1.66721,3.633317 1.79345,3.765704 0.12623,0.132388 0.96344,-1.420112 1.86047,-3.45 l 1.63096,-3.6907046 1.41334,-0.091437 1.41333,-0.091437 0,6.0164376 0,6.016438 -1.18874,0 -1.18875,0 -0.0863,-2.775 -0.0863,-2.775 -1.32452,2.789829 -1.32453,2.78983 -1.17301,-0.08983 c -1.1653,-0.08924 -1.18026,-0.106592 -2.27548,-2.639829 l -1.10246,-2.55 -0.0867,2.625 -0.0867,2.625 -1.33832,0 -1.33832,0 0,-6 z m 12.9,0 0,-6.0000006 1.2,0 1.2,0 0,6.0000006 0,6 -1.2,0 -1.2,0 0,-6 z m 2.83356,5.615348 c -0.0812,-0.211559 -0.11069,-2.877809 -0.0656,-5.925001 l 0.082,-5.5403476 1.2673,-0.091873 1.26729,-0.091873 0.0827,4.7418736 0.0827,4.741873 1.425,0.09144 1.425,0.09144 0,1.183563 0,1.183563 -2.70941,0 c -1.92705,0 -2.75204,-0.111072 -2.85703,-0.384652 z M 156.3,18.126316 c 0,-2.189521 -0.0666,-2.40342 -1.8,-5.778524 -0.99,-1.927662 -1.8,-3.6045043 -1.8,-3.726316 0,-0.1218114 0.57375,-0.2205726 1.275,-0.2194686 1.27091,0.00201 1.27872,0.00884 2.43622,2.1340896 1.28456,2.358516 1.16351,2.377615 2.60547,-0.411097 0.88474,-1.7110595 0.90282,-1.7249996 2.23763,-1.7249996 0.74012,0 1.34568,0.088583 1.34568,0.1968516 0,0.1082685 -0.81,1.717978 -1.8,3.577131 -1.77239,3.32842 -1.8,3.417451 -1.8,5.803149 l 0,2.422869 -1.35,0 -1.35,0 0,-2.273685 z m 21.5411,1.66152 c -1.79305,-0.946972 -3.24374,-3.346229 -3.23943,-5.357602 0.003,-1.476046 0.64034,-3.075003 1.68705,-4.233586 4.32127,-4.7831334 12.31836,-0.0848 10.26985,6.033586 -0.51168,1.528252 -1.65274,2.903581 -2.964,3.572536 -1.55106,0.791291 -4.24013,0.784311 -5.75347,-0.01493 z m 4.45178,-2.278289 c 3.26726,-1.550416 2.03359,-6.713281 -1.60298,-6.708425 -1.2317,0.0016 -2.76304,1.061311 -3.26303,2.257974 -0.71539,1.712151 0.11239,3.780225 1.80885,4.519176 1.21741,0.53028 1.82356,0.516654 3.05716,-0.06872 z m 4.90712,-3.109546 0,-6.0000006 1.43672,0 1.43672,0 1.5923,3.9000006 c 0.87577,2.145 1.69214,3.9 1.81415,3.9 0.12202,0 0.93593,-1.755 1.8087,-3.9 l 1.58686,-3.9000006 1.31227,0 1.31228,0 0,6.0181096 0,6.01811 -1.125,-0.09311 -1.125,-0.09311 -0.15,-2.7 -0.15,-2.7 -1.15141,2.775 -1.1514,2.775 -1.25376,0 -1.25375,0 -1.02997,-2.569456 c -0.56648,-1.413201 -1.13791,-2.636169 -1.26984,-2.717706 -0.13193,-0.08154 -0.23987,1.074719 -0.23987,2.569457 l 0,2.717705 -1.2,0 -1.2,0 0,-6 z m 12.66866,0.075 0.0813,-5.9250006 2.1,-0.095011 c 4.00539,-0.181218 5.55,0.904062 5.55,3.8995706 0,2.503157 -1.35613,3.845441 -3.8851,3.845441 l -1.2149,0 0,2.1 0,2.1 -1.35634,0 -1.35634,0 0.0813,-5.925 z m 5.14942,-1.65 c 0.50657,-0.808725 -0.13312,-1.558352 -1.42346,-1.66811 l -1.09462,-0.09311 0,1.23622 0,1.236219 1.09462,-0.09311 c 0.63797,-0.05427 1.2318,-0.312124 1.42346,-0.618109 z m 13.08192,2.925 0,-4.650001 -0.9,0 c -0.8677,0 -0.9,-0.04883 -0.9,-1.3604945 l 0,-1.3604949 3.075,0.085495 3.075,0.085495 0,1.2 c 0,1.1345624 -0.0532,1.2051264 -0.975,1.2940074 l -0.975,0.09401 0,4.630992 0,4.630993 -1.2,0 -1.2,0 0,-4.65 z"
       id="path3462"
       inkscape:connector-curvature="0" />
  </g>
</svg>
