<?xml version="1.0" encoding="UTF-8" standalone="no"?>
<!-- Created with Inkscape (http://www.inkscape.org/) -->

<svg
   xmlns:dc="http://purl.org/dc/elements/1.1/"
   xmlns:cc="http://creativecommons.org/ns#"
   xmlns:rdf="http://www.w3.org/1999/02/22-rdf-syntax-ns#"
   xmlns:svg="http://www.w3.org/2000/svg"
   xmlns="http://www.w3.org/2000/svg"
   xmlns:sodipodi="http://sodipodi.sourceforge.net/DTD/sodipodi-0.dtd"
   xmlns:inkscape="http://www.inkscape.org/namespaces/inkscape"
   id="svg3390"
   version="1.1"
   inkscape:version="0.91 r13725"
   width="1032.1875"
   height="200.625"
   viewBox="0 0 1032.1875 200.625"
   sodipodi:docname="logo.svg">
  <metadata
     id="metadata3396">
    <rdf:RDF>
      <cc:Work
         rdf:about="">
        <dc:format>image/svg+xml</dc:format>
        <dc:type
           rdf:resource="http://purl.org/dc/dcmitype/StillImage" />
        <dc:title></dc:title>
      </cc:Work>
    </rdf:RDF>
  </metadata>
  <defs
     id="defs3394" />
  <sodipodi:namedview
     pagecolor="#ffffff"
     bordercolor="#666666"
     borderopacity="1"
     objecttolerance="10"
     gridtolerance="10"
     guidetolerance="10"
     inkscape:pageopacity="0"
     inkscape:pageshadow="2"
     inkscape:window-width="1366"
     inkscape:window-height="721"
     id="namedview3392"
     showgrid="false"
     inkscape:zoom="0.28483197"
     inkscape:cx="516.09375"
     inkscape:cy="100.3125"
     inkscape:window-x="-4"
     inkscape:window-y="-4"
     inkscape:window-maximized="1"
     inkscape:current-layer="svg3390" />
  <g
     id="g3448"
     transform="translate(0,4.4760657e-4)">
    <path
       style="fill:#fabd05"
       d="M 82.278546,81.220673 C 75.195807,78.57274 69.401386,76.195312 69.402053,75.9375 69.403553,75.374997 93.582438,66.25 95.071472,66.25 96.781406,66.25 120,75.274704 120,75.93933 c 0,0.337375 -3.69141,2.007477 -8.20312,3.711337 -4.51172,1.70386 -10.10157,3.83739 -12.42188,4.741179 L 95.15625,86.035097 82.278546,81.220673 Z M 964.07137,79.21875 c 0,-4.125 0.16829,-5.69588 0.36629,-3.490844 0.198,2.205036 0.19528,5.580036 -0.009,7.5 C 964.23,85.14787 964.068,83.34375 964.07137,79.21875 Z M 21.09375,57.586042 C 15.421875,55.326841 10.007838,53.141501 9.0625563,52.729732 7.7632777,52.163759 10.243383,50.862352 19.22562,47.39678 c 6.534968,-2.521354 12.37088,-4.573058 12.968694,-4.559341 0.597815,0.01371 6.429104,2.103362 12.958422,4.643656 l 11.871485,4.618716 -11.402735,4.375716 c -6.271505,2.406644 -12.035549,4.565265 -12.808986,4.796935 -0.773438,0.231671 -6.046875,-1.427218 -11.71875,-3.68642 z m 124.38493,-0.718331 -12.49007,-4.74353 12.49007,-4.853567 12.49007,-4.853567 4.6875,1.84759 c 2.57812,1.016175 8.16197,3.165246 12.40855,4.775712 l 7.72106,2.928122 -6.78356,2.698891 c -3.73096,1.48439 -9.3148,3.654013 -12.40855,4.821386 l -5.625,2.122494 -12.49007,-4.743531 z M 934.0039,50.058593 c 0.31152,-0.311522 1.12013,-0.344829 1.79688,-0.07402 0.74787,0.299274 0.52573,0.521421 -0.56641,0.566406 -0.98827,0.04071 -1.54199,-0.18087 -1.23047,-0.492393 z M 949.08797,30.9375 c 0,-4.898438 0.15797,-6.902344 0.35109,-4.453125 0.19313,2.449219 0.19313,6.457031 0,8.90625 -0.19312,2.449219 -0.35109,0.445312 -0.35109,-4.453125 z M 83.181685,32.852345 C 77.1113,30.400597 71.936299,28.186299 71.681683,27.931684 71.125716,27.375715 93.056244,18.75 95.025741,18.75 c 1.178231,0 23.037319,8.163918 23.858599,8.910693 0.27014,0.245643 -24.140215,9.953684 -24.50164,9.744341 -0.09019,-0.05223 -5.130629,-2.100941 -11.201015,-4.552689 z M 998.20312,23.6789 c 3.73828,-0.177948 9.85548,-0.177948 13.59378,0 3.7383,0.177948 0.6797,0.323543 -6.7969,0.323543 -7.47656,0 -10.53516,-0.145595 -6.79688,-0.323543 z"
       id="path3458"
       inkscape:connector-curvature="0" />
    <path
       style="fill:#fd291b"
       d="m 142.03125,161.51495 c -12.89753,-5.06302 -13.18639,-5.23962 -16.6672,-10.18993 l -3.54221,-5.03762 0.26096,-12.74787 0.26095,-12.74786 8.08236,10.6198 c 4.44529,5.84087 12.35344,16.20962 17.57367,23.04165 5.22022,6.83204 8.96598,12.37514 8.32389,12.318 -0.64208,-0.0571 -7.07367,-2.42241 -14.29242,-5.25617 z M 50.390625,96.427622 C 40.722656,78.091974 32.8125,62.709945 32.8125,62.245337 32.8125,61.521247 54.780646,52.5 56.543918,52.5 c 0.346021,0 3.169994,5.068705 6.275494,11.263789 L 68.465777,75.027578 68.217263,102.39638 67.96875,129.76517 50.390625,96.427622 Z M 921.49838,105.9679 c -21.18762,-3.77838 -31.3716,-27.535827 -22.82677,-53.250897 2.83263,-8.524573 5.39694,-12.596299 11.54363,-18.329451 7.85812,-7.329436 20.43157,-11.832885 33.14413,-11.871273 L 948.75,22.5 l 0,8.248051 0,8.248052 -8.32584,1.050908 c -11.59582,1.463667 -18.96993,5.746039 -21.5188,12.496641 l -0.90142,2.387402 4.46886,-2.211621 c 6.47344,-3.203664 15.32317,-3.087002 22.23179,0.293072 14.28066,6.98688 17.74435,27.97061 6.97228,42.239773 -6.24862,8.277172 -18.82041,12.741102 -30.17849,10.715622 z m 12.92414,-19.622165 c 5.8446,-8.700075 -0.67495,-22.570474 -9.56058,-20.340321 -4.63361,1.162961 -7.04944,4.583832 -7.04944,9.982163 0,8.963358 4.14259,14.285085 10.75065,13.81069 3.03961,-0.218215 4.11051,-0.849221 5.85937,-3.452532 z m 64.01498,10.216765 0,-9.375 -16.875,0 -16.875,0 0,-7.734375 0,-7.734375 13.21069,-23.671875 13.21068,-23.671875 13.50643,0 13.5064,0 0,22.96875 0,22.96875 4.2188,0 4.2187,0 0,8.4375 0,8.4375 -4.2187,0 -4.2188,0 0,9.375 0,9.375 -9.8437,0 -9.84378,0 0,-9.375 z M 998.3737,55.078125 C 998.3231,42.85974 998.09779,40.307749 997.23689,42.1875 c -0.59035,1.289062 -3.72591,7.986332 -6.96778,14.88282 -3.24197,6.896489 -5.89444,12.69727 -5.89444,12.890625 0,0.193356 3.16406,0.351555 7.03125,0.351555 l 7.03125,0 -0.0638,-15.234375 z"
       id="path3456"
       inkscape:connector-curvature="0" />
    <path
       style="fill:#0323a7"
       d="m 31.895121,139.8756 0.02012,-27.84435 5.213772,9.84375 c 12.409929,23.4303 18.09458,35.45891 16.974717,35.91818 -0.624239,0.25601 -5.881075,2.59425 -11.681856,5.19612 L 31.875,167.71995 31.895121,139.8756 Z m 89.414929,-6.7506 c 0,-7.47656 0.1456,-10.53516 0.32355,-6.79687 0.17795,3.73828 0.17795,9.85546 0,13.59374 -0.17795,3.73829 -0.32355,0.67969 -0.32355,-6.79687 z M 76.676645,70.078125 c 1.006262,-1.675781 5.515938,-9.679389 10.021503,-17.785796 L 94.890084,37.553407 106.98719,32.839204 C 113.6406,30.246392 119.29033,28.125 119.54215,28.125 c 0.25182,0 0.44548,8.753906 0.43037,19.453125 l -0.0275,19.453125 -2.76376,3.03788 -2.76377,3.037879 -9.64341,-3.72485 -9.643407,-3.724851 -9.62846,3.733846 c -5.295669,2.053615 -9.85948,3.733846 -10.14182,3.733846 -0.282341,0 0.309959,-1.371094 1.316222,-3.046875 z"
       id="path3454"
       inkscape:connector-curvature="0" />
    <path
       style="fill:#05922f"
       d="M 81.5625,188.5612 68.90625,183.17785 58.711769,163.54206 C 53.104804,152.74236 44.783913,136.73437 40.2209,127.96875 l -8.296389,-15.9375 -0.02476,27.80354 L 31.875,167.63833 19.6875,162.40946 7.5,157.18059 7.5,104.8403 C 7.5,76.053133 7.6792478,52.5 7.8983284,52.5 c 0.2190805,0 5.8089246,2.117422 12.4218756,4.705384 l 12.023546,4.705384 17.8125,33.93836 17.8125,33.938352 0.282422,-27.15936 0.282423,-27.15937 -5.781726,-11.757477 -5.781725,-11.757478 6.263911,-11.211272 c 3.445152,-6.1662 6.606531,-11.560466 7.025289,-11.987259 0.699274,-0.712691 22.151843,7.059137 23.69744,8.585099 0.371541,0.366824 -3.844475,8.768413 -9.368927,18.670199 -8.594721,15.404803 -10.41744,18.085166 -12.628657,18.570831 -1.42131,0.312172 -2.579853,0.850472 -2.57454,1.196221 0.0053,0.34575 5.698569,2.738011 12.65168,5.316136 l 12.642019,4.6875 0.0047,54.14062 c 0.0028,29.77735 -0.100894,54.11409 -0.2298,54.08165 -0.128906,-0.0324 -5.929688,-2.48148 -12.890625,-5.44232 z m 39.37309,-23.84051 0.46684,-18.93944 0.2571,18.21354 c 0.14142,10.01746 -0.0686,18.54021 -0.46682,18.93944 -0.39818,0.39925 -0.51388,-7.79685 -0.25712,-18.21354 z m 708.49969,-6.89813 c 0.63472,-0.2568 1.90035,-0.27243 2.8125,-0.0348 0.91216,0.2377 0.39285,0.44781 -1.15403,0.46692 -1.54687,0.0191 -2.29318,-0.17537 -1.65847,-0.43218 z m -613.52495,-2.89765 c 5.57099,-0.16604 14.43036,-0.16541 19.6875,9.4e-4 5.25713,0.1668 0.69905,0.30264 -10.12908,0.30187 -10.82812,-7.6e-4 -15.12941,-0.13723 -9.55842,-0.30326 z m 47.01972,-0.47179 c -0.24673,-0.64453 -0.33518,-23.74218 -0.19657,-51.32812 l 0.25205,-50.15625 0.22599,50.83615 0.22598,50.83616 15.23437,0.28249 15.23438,0.28251 -15.26379,0.20947 c -11.50499,0.15789 -15.37428,-0.0791 -15.71241,-0.9624 z m 51.75526,0.48527 c -0.24517,-0.3958 9.8467,-0.59983 22.42638,-0.45339 l 22.87213,0.26625 0.2548,-50.89125 0.25481,-50.89125 -0.0124,51.09375 -0.0124,51.09375 -22.66884,0.25089 c -12.46786,0.13799 -22.86943,-0.0729 -23.11461,-0.46875 z m 81.36779,-0.48751 c -0.2478,-0.64576 -0.33493,-17.62623 -0.19361,-37.73437 l 0.25693,-36.56026 0.22304,37.24621 0.22304,37.24622 18.98437,0.27431 18.98438,0.27432 -19.01379,0.21385 c -14.52614,0.16336 -19.12015,-0.0633 -19.46436,-0.96028 z m 112.74863,0.47627 37.708,-0.26064 0.30043,-12.41138 0.30044,-12.41138 -0.0397,12.65625 -0.0396,12.65625 -37.96875,0.0157 -37.96875,0.0157 37.70798,-0.26064 z m 59.08889,3.6e-4 c 4.25391,-0.17371 11.21485,-0.17371 15.46875,0 4.25391,0.17372 0.77344,0.31584 -7.73437,0.31584 -8.50781,0 -11.98828,-0.14212 -7.73438,-0.31584 z m 55.25792,-0.003 c 6.2864,-0.16196 16.83328,-0.16243 23.4375,-9.4e-4 6.60424,0.16138 1.46083,0.29389 -11.42979,0.29446 -12.89063,5.7e-4 -18.29409,-0.13147 -12.00771,-0.29342 z m 64.27333,-9.4e-4 c 7.08985,-0.15926 18.69141,-0.15926 25.78125,0 7.08985,0.15927 1.28907,0.28957 -12.89062,0.28957 -14.17969,0 -19.98047,-0.1303 -12.89063,-0.28957 z m 107.50717,-10.31439 -2.27279,-2.57812 2.57812,2.27279 c 1.41797,1.25004 2.57813,2.4102 2.57813,2.57813 0,0.73526 -0.75919,0.13685 -2.88346,-2.2728 z m 71.32096,0.23438 c 1.21102,-1.28906 2.41278,-2.34375 2.67059,-2.34375 0.25781,0 -0.52207,1.05469 -1.73309,2.34375 -1.21102,1.28906 -2.41278,2.34375 -2.67059,2.34375 -0.25781,0 0.52207,-1.05469 1.73309,-2.34375 z M 828.0664,131.6209 c 0.31152,-0.31152 1.12013,-0.34482 1.79688,-0.074 0.74787,0.29927 0.52573,0.52142 -0.56641,0.5664 -0.98827,0.0407 -1.54199,-0.18087 -1.23047,-0.49239 z m 3.75,0 c 0.31152,-0.31152 1.12013,-0.34482 1.79688,-0.074 0.74787,0.29927 0.52573,0.52142 -0.56641,0.5664 -0.98827,0.0407 -1.54199,-0.18087 -1.23047,-0.49239 z m -6.93599,-2.01172 c -1.16613,-1.48693 -1.13297,-1.52009 0.35396,-0.35396 1.56165,1.22472 2.05827,1.99459 1.28667,1.99459 -0.19467,0 -0.93296,-0.73828 -1.64063,-1.64063 z m 11.36959,0.23438 c 0.6419,-0.77344 1.37802,-1.40625 1.63583,-1.40625 0.25782,0 -0.0564,0.63281 -0.69833,1.40625 -0.6419,0.77344 -1.37802,1.40625 -1.63583,1.40625 -0.25782,0 0.0564,-0.63281 0.69833,-1.40625 z M 507.48757,122.8125 c 0,-3.35156 0.17015,-4.72266 0.37812,-3.04687 0.20795,1.67578 0.20795,4.41796 0,6.09375 -0.20797,1.67578 -0.37812,0.30468 -0.37812,-3.04688 z M 139.28,101.26346 C 129.58481,87.348991 121.2806,76.194202 120.82619,76.475041 120.37178,76.755879 120,76.546922 120,76.01069 c 0,-0.536233 -1.05469,-1.239677 -2.34375,-1.563211 -1.28906,-0.323534 -2.34375,-0.993476 -2.34375,-1.48876 0,-0.715294 9.40739,-11.805475 16.4991,-19.450451 1.06369,-1.14668 2.96708,-0.684655 13.46362,3.268137 l 12.22478,4.60362 0,32.591234 c 0,17.925191 -0.13328,32.591241 -0.29619,32.591241 -0.16291,0 -8.22862,-11.38457 -17.92381,-25.29904 z m 682.04402,19.28341 c -0.0407,-0.98827 0.18087,-1.54199 0.49239,-1.23047 0.31152,0.31153 0.34482,1.12012 0.074,1.79688 -0.29927,0.74787 -0.52142,0.52573 -0.5664,-0.56641 z m -0.66468,-16.48437 c 0,-5.414063 0.15495,-7.628906 0.34432,-4.921875 0.18938,2.707035 0.18938,7.136715 0,9.843755 -0.18937,2.70703 -0.34432,0.49218 -0.34432,-4.92188 z m -39.57382,6.5625 c 0,-1.28906 0.2128,-1.81641 0.47287,-1.17187 0.26007,0.64453 0.26007,1.69921 0,2.34375 -0.26007,0.64453 -0.47287,0.11718 -0.47287,-1.17188 z m 99.54836,-6.09375 c 0.004,-4.125 0.16823,-5.695884 0.36628,-3.49085 0.19803,2.20504 0.19525,5.58004 -0.007,7.5 -0.20144,1.91997 -0.36347,0.11585 -0.36007,-4.00915 z m -109.70125,0 c -0.004,-3.60937 0.16189,-5.200819 0.36899,-3.53653 0.20711,1.66428 0.21051,4.6174 0.008,6.5625 -0.20295,1.94509 -0.37239,0.58341 -0.37655,-3.02597 z m 70.30494,-0.46875 c 0,-3.35156 0.17015,-4.722656 0.37812,-3.04687 0.20795,1.67578 0.20795,4.41796 0,6.09375 -0.20797,1.67578 -0.37812,0.30468 -0.37812,-3.04688 z m -60.1173,-6.09375 c -0.0191,-1.546875 0.17536,-2.293181 0.43217,-1.658466 0.2568,0.634716 0.27243,1.900341 0.0348,2.8125 -0.23769,0.912156 -0.4478,0.392841 -0.46691,-1.154034 z M 507.57075,90.584006 c -0.27247,-0.710046 -0.33527,-3.346765 -0.13956,-5.859375 l 0.35584,-4.568381 0.16899,5.369939 0.16898,5.369938 17.57812,0.277039 17.57813,0.277038 -17.60754,0.212398 c -14.2333,0.171695 -17.7025,-0.03501 -18.10296,-1.078596 z m 218.43393,-11.130881 -1.78593,-2.109375 2.10937,1.785926 c 1.16016,0.982259 2.10938,1.931478 2.10938,2.109375 0,0.750237 -0.75449,0.196366 -2.43282,-1.785926 z M 371.62494,67.03125 c 9.4e-4,-7.734375 0.14653,-10.773686 0.32268,-6.754026 0.17616,4.019661 0.17509,10.347786 -0.003,14.0625 -0.17705,3.714715 -0.32118,0.425901 -0.31987,-7.308474 z M 545.99755,66.5625 c 0,-7.476563 0.1456,-10.535156 0.32355,-6.796875 0.17795,3.738281 0.17795,9.855469 0,13.59375 -0.17795,3.738281 -0.32355,0.679687 -0.32355,-6.796875 z m 172.38135,9.746093 c 0.31152,-0.311522 1.12013,-0.344829 1.79688,-0.07402 0.74787,0.299274 0.52573,0.521421 -0.56641,0.566406 -0.98827,0.04071 -1.54199,-0.18087 -1.23047,-0.492393 z m 9.375,-22.5 c 0.31152,-0.311522 1.12013,-0.344829 1.79688,-0.07402 0.74787,0.299274 0.52573,0.521421 -0.56641,0.566406 -0.98827,0.04071 -1.54199,-0.18087 -1.23047,-0.492393 z m 109.6875,-2.8125 c 0.31152,-0.311522 1.12013,-0.344829 1.79688,-0.07402 0.74787,0.299274 0.52573,0.521421 -0.56641,0.566406 -0.98827,0.04071 -1.54199,-0.18087 -1.23047,-0.492393 z"
       id="path3452"
       inkscape:connector-curvature="0" />
    <path
       style="fill:#020202"
       d="m 94.914272,140.0376 0.241978,-53.971888 8.4375,-3.191973 c 4.64063,-1.755585 10.61254,-4.013618 13.27092,-5.017851 l 4.83341,-1.82588 17.66659,25.355692 17.66658,25.3557 0.24644,-32.359703 0.24644,-32.359703 12.24585,-4.760997 C 176.50521,54.642449 182.19509,52.5 182.41417,52.5 c 0.21908,0 0.38911,23.519531 0.37783,52.26563 l -0.0205,52.26562 -12.10399,5.01615 c -6.65719,2.75887 -12.49656,4.77352 -12.97636,4.47698 -0.4798,-0.29653 -8.8402,-10.98784 -18.57864,-23.75847 l -17.70623,-23.21931 -0.46875,31.81204 -0.46875,31.81205 -11.30052,4.8063 c -6.21529,2.64347 -12.019493,5.0822 -12.89823,5.4194 -1.495584,0.57391 -1.582237,-2.83668 -1.355728,-53.35879 z m 721.305178,15.97509 c -16.50156,-3.99416 -28.75438,-16.89654 -33.08677,-34.8408 -2.06342,-8.5465 -2.04045,-25.905831 0.045,-33.98439 2.56705,-9.944193 6.55598,-17.384841 12.49883,-23.314363 9.40722,-9.386124 22.99855,-13.909596 38.69849,-12.879644 24.21457,1.58853 39.25936,13.986075 44.60562,36.756928 2.1614,9.205848 1.4182,30.489949 -1.33208,38.148999 -5.97497,16.63918 -16.47444,26.47012 -32.23995,30.18717 -7.31905,1.72561 -21.90722,1.68868 -29.18914,-0.0739 z m 19.80848,-25.27516 c 3.62462,-2.53878 5.20646,-10.46167 5.23218,-26.20628 0.0355,-21.719736 -2.3856,-28.59375 -10.07099,-28.59375 -8.17532,0 -10.31025,5.823798 -10.31025,28.125 0,16.85977 0.9575,22.2341 4.61242,25.88902 2.62175,2.62174 7.40619,2.97866 10.53663,0.78601 z M 206.25,104.0625 l 0,-50.625 19.21875,0 19.21875,0 0,50.625 0,50.625 -19.21875,0 -19.21875,0 0,-50.625 z m 57.1875,-0.0167 0,-50.641663 22.59326,0.251041 22.59326,0.251043 9.98487,28.288639 c 5.49168,15.558752 10.30127,28.60172 10.68798,28.98437 C 329.68359,111.5619 330,98.726541 330,82.656232 l 0,-29.218732 15,0 15,0 0,50.64167 0,50.64167 -22.67255,-0.25105 -22.67254,-0.25104 -9.90558,-28.28967 c -5.44807,-15.55931 -10.22199,-28.602283 -10.60871,-28.984371 -0.38671,-0.382087 -0.70312,12.453731 -0.70312,28.524041 l 0,29.21875 -15,0 -15,0 0,-50.64167 z m 133.125,13.61044 0,-37.03125 -12.1875,0 -12.1875,0 0,-13.59375 0,-13.59375 43.125,0 43.125,0 0,13.59375 0,13.59375 -12.1875,0 -12.1875,0 0,37.03125 0,37.03125 -18.75,0 -18.75,0 0,-37.03125 z m 74.0625,-13.59375 0,-50.625 37.5,0 37.5,0 0,13.59375 0,13.59375 -19.26553,0 -19.26554,0 0.28116,5.390625 0.28116,5.390625 17.57812,0.255061 17.57813,0.255062 0,12.635567 0,12.63556 -17.8125,0 -17.8125,0 0,5.625 0,5.625 19.6875,0 19.6875,0 0,13.125 0,13.125 -37.96875,0 -37.96875,0 0,-50.625 z m 90,0 0,-50.625 22.73522,0 22.73523,0 10.31164,29.296875 10.31166,29.296875 0.24773,-29.296875 0.24773,-29.296875 15.4554,0 15.45539,0 0,50.625 0,50.625 -22.86349,0 -22.86348,0 -5.79232,-16.64063 c -3.18578,-9.15234 -7.7683,-22.32011 -10.18339,-29.2617 l -4.39107,-12.621089 -0.24773,29.261709 -0.24773,29.26171 -15.4554,0 -15.45539,0 0,-50.625 z m 114.375,-0.0895 0,-50.714546 29.29687,0.414364 c 23.43225,0.331418 30.37913,0.723115 34.70326,1.956736 21.51293,6.137374 31.65015,21.763977 31.61101,48.728666 -0.0381,26.28442 -11.82982,43.15861 -34.16748,48.89453 -4.40415,1.13089 -11.50272,1.43478 -33.51563,1.43478 l -27.92803,0 0,-50.71455 z m 51.47498,25.01715 c 1.56705,-1.50133 3.17775,-4.41457 3.79409,-6.86229 1.30681,-5.18982 1.37738,-31.381885 0.0963,-35.758463 C 728.2849,79.261472 723.79681,75.9375 716.28011,75.9375 l -3.78011,0 0,28.23768 0,28.23768 5.62596,-0.40694 c 4.55627,-0.32958 6.14369,-0.90299 8.34902,-3.01582 z"
       id="path3450"
       inkscape:connector-curvature="0" />
  </g>
</svg>
