<?xml version="1.0" encoding="UTF-8" standalone="no"?>
<!-- Created with Inkscape (http://www.inkscape.org/) -->

<svg
   xmlns:dc="http://purl.org/dc/elements/1.1/"
   xmlns:cc="http://creativecommons.org/ns#"
   xmlns:rdf="http://www.w3.org/1999/02/22-rdf-syntax-ns#"
   xmlns:svg="http://www.w3.org/2000/svg"
   xmlns="http://www.w3.org/2000/svg"
   xmlns:sodipodi="http://sodipodi.sourceforge.net/DTD/sodipodi-0.dtd"
   xmlns:inkscape="http://www.inkscape.org/namespaces/inkscape"
   id="svg3336"
   version="1.1"
   inkscape:version="0.91 r13725"
   width="634.6875"
   height="221.25"
   viewBox="0 0 634.6875 221.25"
   sodipodi:docname="logo.svg">
  <metadata
     id="metadata3342">
    <rdf:RDF>
      <cc:Work
         rdf:about="">
        <dc:format>image/svg+xml</dc:format>
        <dc:type
           rdf:resource="http://purl.org/dc/dcmitype/StillImage" />
        <dc:title></dc:title>
      </cc:Work>
    </rdf:RDF>
  </metadata>
  <defs
     id="defs3340" />
  <sodipodi:namedview
     pagecolor="#ffffff"
     bordercolor="#666666"
     borderopacity="1"
     objecttolerance="10"
     gridtolerance="10"
     guidetolerance="10"
     inkscape:pageopacity="0"
     inkscape:pageshadow="2"
     inkscape:window-width="1366"
     inkscape:window-height="721"
     id="namedview3338"
     showgrid="false"
     inkscape:zoom="1.0060343"
     inkscape:cx="47.577132"
     inkscape:cy="-99.883058"
     inkscape:window-x="-4"
     inkscape:window-y="-4"
     inkscape:window-maximized="1"
     inkscape:current-layer="svg3336" />
  <g
     id="g3346"
     transform="translate(-1.9025585e-4,-2.3217474e-4)">
    <path
       style="fill:#fdcb02"
       d="m 532.03125,213.21091 c -15.73622,-2.41519 -31.71219,-8.52167 -41.94319,-16.03191 -12.90582,-9.47374 -23.23873,-28.68437 -23.37779,-43.46327 -0.0328,-3.48929 0.23606,-6.8227 0.59755,-7.40758 0.72801,-1.17797 31.39783,-1.34312 36.991,-0.19921 2.88552,0.59016 3.26338,1.07804 4.46179,5.76081 2.38765,9.32975 8.59892,17.19159 16.94696,21.45045 8.37594,4.27309 27.65604,6.04148 41.47993,3.80458 16.82259,-2.72212 26.71683,-12.61722 24.8779,-24.88006 -0.94506,-6.30217 -4.19495,-10.2233 -14.29267,-17.24472 -2.01941,-1.40418 -2.02086,-1.43488 -0.99176,-20.85937 0.56685,-10.69922 1.37609,-19.45313 1.79832,-19.45313 1.78901,0 21.25344,6.91936 25.59488,9.09865 12.09878,6.07329 21.58563,15.20267 25.61662,24.65135 4.82387,11.3072 5.74996,29.21104 2.10946,40.78125 -7.58707,24.11308 -29.63668,39.84488 -62.369,44.49859 -9.0827,1.29133 -27.39828,1.04398 -37.5,-0.50643 z m -19.6875,-96.1107 C 482.71153,107.0938 469.51841,89.535926 470.85799,61.889459 471.82167,42.000753 479.61945,27.012168 494.54307,16.362893 507.41529,7.177466 521.1416,2.9831866 541.04412,2.1537986 589.5537,0.13228257 622.32949,23.35768 626.80613,62.926012 l 0.62355,5.511488 -20.25947,0 -20.25949,0 -0.63445,-2.578125 c -2.21866,-9.015733 -9.48442,-18.348866 -17.41162,-22.365883 -5.83973,-2.95922 -14.83074,-5.02887 -21.8334,-5.025856 -14.56444,0.0063 -29.8233,6.449796 -33.89971,14.315201 -3.45096,6.658611 -3.30819,8.288017 2.09792,23.942222 4.82849,13.981629 5.07039,15.132845 5.07656,24.159721 0.007,9.97205 -0.79185,18.19922 -1.76157,18.14632 -0.31664,-0.0172 -3.10695,-0.88617 -6.2007,-1.93089 z M 328.45778,76.40625 c -0.003,-4.640625 0.15567,-6.657261 0.35228,-4.481412 0.19661,2.175848 0.19896,5.972723 0.006,8.4375 -0.19418,2.464776 -0.35506,0.684537 -0.3579,-3.956088 z M 315.2539,6.9335937 c 0.31152,-0.3115234 1.12012,-0.3448293 1.79688,-0.074013 0.74787,0.2992747 0.52573,0.5214213 -0.56641,0.5664062 -0.98827,0.040707 -1.54199,-0.1808696 -1.23047,-0.4923931 z m 37.94922,-0.9919819 c 0.64454,-0.260074 1.69922,-0.260074 2.34375,0 0.64454,0.2600741 0.11719,0.4728619 -1.17187,0.4728619 -1.28906,0 -1.81641,-0.2127878 -1.17188,-0.4728619 z"
       id="path3354"
       inkscape:connector-curvature="0" />
    <path
       style="fill:#7f007f"
       d="m 457.92189,216.47878 c -4.66639,-0.35364 -10.99452,-1.15612 -14.0625,-1.78328 -7.55063,-1.54352 -22.92189,-6.48786 -22.92189,-7.37308 0,-0.393 4.42748,-4.8317 9.83884,-9.86378 5.41136,-5.03208 12.05589,-12.32921 14.76562,-16.21586 l 4.92679,-7.06664 4.6875,0.56003 c 2.57812,0.30802 6.00299,0.5637 7.61081,0.56818 2.62161,0.007 3.29889,0.66111 6.5625,6.33494 4.2952,7.46727 17.24781,20.94204 25.08671,26.09804 l 5.51002,3.62418 -2.69752,1.12765 c -3.40521,1.42348 -17.80335,3.88637 -25.19752,4.31019 -3.09375,0.17733 -9.44296,0.0331 -14.10936,-0.32057 z m -105.65627,-5.22467 c 0.64454,-0.26007 1.69922,-0.26007 2.34375,0 0.64454,0.26007 0.11719,0.47287 -1.17187,0.47287 -1.28906,0 -1.81641,-0.2128 -1.17188,-0.47287 z m 15.48828,0.0545 c 0.31152,-0.31152 1.12012,-0.34482 1.79688,-0.074 0.74787,0.29927 0.52573,0.52142 -0.56641,0.5664 -0.98827,0.0407 -1.54199,-0.18087 -1.23047,-0.49239 z m -39.88112,-0.98603 c 0.63472,-0.2568 1.90035,-0.27243 2.8125,-0.0348 0.91216,0.23769 0.39285,0.4478 -1.15403,0.46691 -1.54688,0.0191 -2.29318,-0.17537 -1.65847,-0.43218 z m -23.41966,-0.94344 c 0.64454,-0.26007 1.69922,-0.26007 2.34375,0 0.64454,0.26007 0.11719,0.47287 -1.17187,0.47287 -1.28906,0 -1.81641,-0.2128 -1.17188,-0.47287 z M 181.01152,180.5469 c -0.0407,-0.98827 0.18086,-1.54199 0.49239,-1.23047 0.31152,0.31152 0.34482,1.12012 0.074,1.79688 -0.29927,0.74787 -0.52142,0.52573 -0.5664,-0.56641 z m 151.11738,-9.55078 c 0.31152,-0.31152 1.12012,-0.34482 1.79688,-0.074 0.74787,0.29927 0.52573,0.52142 -0.56641,0.5664 -0.98827,0.0407 -1.54199,-0.18087 -1.23047,-0.49239 z m 202.99394,-1.22643 c -6.57768,-2.12441 -13.30366,-5.98383 -15.23587,-8.74245 -2.3649,-3.37638 -1.70871,-8.40319 3.23803,-24.80487 4.36547,-14.47441 4.68638,-16.22566 4.67122,-25.49161 -0.0179,-10.933808 -1.31187,-18.296327 -5.69551,-32.406495 -3.93377,-12.662087 -4.72183,-18.043856 -3.18493,-21.750401 2.53412,-6.111509 14.77297,-10.636334 28.7694,-10.636334 l 8.22875,0 3.34725,6.646748 c 4.74094,9.414247 9.46428,24.123818 11.26257,35.074259 1.17622,7.16238 1.41836,12.910173 1.02674,24.372743 -0.69032,20.20624 -3.51176,32.27805 -11.94167,51.09375 l -3.5702,7.96875 -7.78494,0.20124 c -5.46774,0.14135 -9.37614,-0.31266 -13.13084,-1.52533 z M 372.87573,158.67187 c -8.32535,-22.49993 -10.85305,-45.0866 -7.72022,-68.985176 2.30137,-17.555794 7.34061,-32.51403 15.81046,-46.931019 5.4836,-9.333927 20.50658,-24.179044 30.12778,-29.771075 19.84097,-11.5319682 44.9623,-15.5632585 69.496,-11.1522189 12.44279,2.2371527 15.3381,3.0475909 15.22382,4.2613689 -0.0486,0.515625 -2.51089,3.046875 -5.47189,5.625 -7.37216,6.418897 -14.58402,14.834741 -18.47776,21.5625 l -3.25549,5.625 -7.6636,0.137888 c -21.88862,0.393835 -42.21525,16.525616 -48.84952,38.768362 -0.84586,2.835937 -3.14996,18.445312 -5.1202,34.6875 -3.98991,32.89168 -4.28339,33.93378 -12.31868,43.74091 -5.13955,6.27287 -9.62906,8.75909 -15.81679,8.75909 -3.61584,0 -3.62664,-0.0114 -5.96391,-6.32813 z m -299.985105,4.72901 c 1.160156,-0.22346 3.058594,-0.22346 4.21875,0 1.160156,0.22345 0.210937,0.40628 -2.109375,0.40628 -2.320313,0 -3.269531,-0.18283 -2.109375,-0.40628 z m -12.636719,-0.84229 c 0.311524,-0.31152 1.120117,-0.34482 1.796875,-0.074 0.747875,0.29927 0.525728,0.52142 -0.566406,0.5664 -0.988281,0.0407 -1.541992,-0.18087 -1.230469,-0.49239 z m 68.437494,-0.9375 c 0.31152,-0.31152 1.12012,-0.34482 1.79688,-0.074 0.74787,0.29927 0.52573,0.52142 -0.56641,0.5664 -0.98827,0.0407 -1.54199,-0.18087 -1.23047,-0.49239 z m -12.06172,-3.41797 -1.78593,-2.10937 2.10938,1.78593 c 1.98228,1.67833 2.53616,2.43282 1.78592,2.43282 -0.1779,0 -1.12712,-0.94922 -2.10937,-2.10938 z m -17.071914,-6.79687 c -0.01913,-1.54688 0.175368,-2.29318 0.432178,-1.65847 0.256796,0.63472 0.272426,1.90035 0.03469,2.8125 -0.23768,0.91216 -0.447793,0.39284 -0.466899,-1.15403 z m -70.545734,-3.98438 -3.230782,-3.51562 3.515625,3.23078 c 1.933594,1.77693 3.515625,3.35896 3.515625,3.51563 0,0.71589 -0.793327,0.0415 -3.800468,-3.23079 z M 328.54326,119.53125 c -3.8e-4,-16.5 0.12688,-23.382038 0.28278,-15.29341 0.15591,8.08862 0.15622,21.58862 6.9e-4,30 -0.15553,8.41137 -0.2831,1.79341 -0.28347,-14.70659 z m -215.96924,26.32812 c -0.0407,-0.98827 0.18086,-1.54199 0.49239,-1.23047 0.31152,0.31152 0.34482,1.12012 0.074,1.79688 -0.29927,0.74787 -0.52142,0.52573 -0.5664,-0.56641 z m -30.308395,-2.10526 c 0.644531,-0.26007 1.699219,-0.26007 2.34375,0 0.644531,0.26007 0.117187,0.47287 -1.171875,0.47287 -1.289063,0 -1.816406,-0.2128 -1.171875,-0.47287 z M 116.71875,136.875 c 0.93327,-1.03125 1.90779,-1.875 2.16561,-1.875 0.25781,0 -0.29484,0.84375 -1.22811,1.875 -0.93327,1.03125 -1.90779,1.875 -2.16561,1.875 -0.25781,0 0.29484,-0.84375 1.22811,-1.875 z M 13.199013,115.85937 c -0.04071,-0.98827 0.18087,-1.54199 0.492394,-1.23047 0.311522,0.31153 0.344829,1.12013 0.07401,1.79688 -0.299274,0.74787 -0.521421,0.52573 -0.566406,-0.56641 z m 24.375,-6.5625 c -0.04071,-0.98827 0.18087,-1.54199 0.492394,-1.23047 0.311522,0.31153 0.344829,1.12013 0.07402,1.79688 -0.299274,0.74787 -0.521421,0.52573 -0.566406,-0.56641 z M 37.648027,97.5 c 0,-1.289063 0.212787,-1.816406 0.472861,-1.171875 0.260074,0.644531 0.260074,1.699219 0,2.34375 C 37.860814,99.316406 37.648027,98.789062 37.648027,97.5 Z m 74.925993,-2.265628 c -0.0407,-0.988275 0.18086,-1.541989 0.49239,-1.230469 0.31152,0.311531 0.34482,1.120125 0.074,1.796878 -0.29927,0.747872 -0.52142,0.525731 -0.5664,-0.566409 z m 0,-4.687497 c -0.0407,-0.988281 0.18086,-1.541992 0.49239,-1.230469 0.31152,0.311524 0.34482,1.120117 0.074,1.796875 -0.29927,0.747875 -0.52142,0.525728 -0.5664,-0.566406 z m 14.69161,-13.396 c 1.16015,-0.223456 3.05859,-0.223456 4.21874,0 1.16016,0.223456 0.21094,0.406284 -2.10937,0.406284 -2.32031,0 -3.26953,-0.182828 -2.10937,-0.406284 z M 26.25,67.03125 c 0.641896,-0.773438 1.378021,-1.40625 1.635833,-1.40625 0.257813,0 -0.05644,0.632812 -0.698333,1.40625 -0.641896,0.773437 -1.378021,1.40625 -1.635833,1.40625 -0.257813,0 0.05644,-0.632813 0.698333,-1.40625 z m 38.691406,-1.972657 c 0.311524,-0.311522 1.120117,-0.344829 1.796875,-0.07402 0.747875,0.299274 0.525728,0.521421 -0.566406,0.566406 -0.988281,0.04071 -1.541992,-0.18087 -1.230469,-0.492393 z m 14.0625,0 c 0.311524,-0.311522 1.120117,-0.344829 1.796875,-0.07402 0.747875,0.299274 0.525728,0.521421 -0.566406,0.566406 -0.988281,0.04071 -1.541992,-0.18087 -1.230469,-0.492393 z m 13.882607,-0.761718 c -0.04071,-0.988281 0.18087,-1.541992 0.492394,-1.230469 0.311522,0.311524 0.344829,1.120117 0.07402,1.796875 -0.299274,0.747875 -0.521421,0.525728 -0.566406,-0.566406 z m 1.875003,-12.1875 c -0.04069,-0.988281 0.180862,-1.541992 0.492393,-1.230469 0.311522,0.311524 0.344822,1.120117 0.07397,1.796875 -0.299269,0.747875 -0.521419,0.525728 -0.5664,-0.566406 z m 74.062504,-5.625 c -0.0407,-0.988281 0.18086,-1.541992 0.49239,-1.230469 0.31152,0.311524 0.34482,1.120117 0.074,1.796875 -0.29927,0.747875 -0.52142,0.525728 -0.5664,-0.566406 z M 61.191406,46.308593 c 0.311524,-0.311522 1.120117,-0.344829 1.796875,-0.07402 0.747875,0.299274 0.525728,0.521421 -0.566406,0.566406 -0.988281,0.04071 -1.541992,-0.18087 -1.230469,-0.492393 z m 8.407039,-1.015231 c 0.896331,-0.234649 2.583831,-0.243163 3.75,-0.01892 1.166167,0.224242 0.432805,0.416228 -1.629695,0.426634 -2.0625,0.01041 -3.016638,-0.173067 -2.120305,-0.407716 z m 7.5,0 c 0.896331,-0.234649 2.583831,-0.243163 3.75,-0.01892 1.166167,0.224242 0.432805,0.416228 -1.629695,0.426634 -2.0625,0.01041 -3.016638,-0.173067 -2.120305,-0.407716 z M 167.96052,38.4375 c 0,-1.289063 0.2128,-1.816406 0.47287,-1.171875 0.26007,0.644531 0.26007,1.699219 0,2.34375 -0.26007,0.644531 -0.47287,0.117187 -0.47287,-1.171875 z m -12.59818,-5.37256 c 2.17584,-0.196617 5.97272,-0.198954 8.4375,-0.0052 2.46477,0.19376 0.68453,0.354628 -3.95609,0.357485 -4.64063,0.0028 -6.65726,-0.155674 -4.48141,-0.35229 z M 318.97344,6.8558623 c 0.89634,-0.2346493 2.58384,-0.243163 3.75,-0.01892 1.16617,0.224244 0.43281,0.4162298 -1.62969,0.4266355 -2.0625,0.010406 -3.01664,-0.1730665 -2.12031,-0.4077158 z m 39.85468,-0.9715457 c 1.67579,-0.2079625 4.41797,-0.2079625 6.09375,0 1.67579,0.2079626 0.30469,0.3781139 -3.04687,0.3781139 -3.35156,0 -4.72266,-0.1701513 -3.04688,-0.3781139 z"
       id="path3352"
       inkscape:connector-curvature="0" />
    <path
       style="fill:#a90101"
       d="m 329.53125,210.41529 c -14.4375,-0.64494 -29.73047,-1.21317 -33.98438,-1.26271 l -7.73437,-0.0901 0,-100.67141 0,-100.671424 37.26562,-0.6994709 c 20.4961,-0.384709 41.69532,-0.4675557 47.10938,-0.1841037 9.43882,0.4941673 23.81053,3.4744416 25.65651,5.3204116 0.54927,0.549275 -1.99455,3.918217 -6.75966,8.952222 -6.72472,7.104199 -18.89685,23.807228 -18.89685,25.930923 0,0.425069 -9.91406,0.772852 -22.03125,0.772852 l -22.03125,0 0.003,45.234375 c 0.002,24.878905 0.27866,52.505015 0.61575,61.391345 l 0.61288,16.15698 3.36863,0.65151 c 1.85274,0.35834 14.33737,0.68146 27.74362,0.71803 21.85898,0.0596 24.73257,-0.11133 27.83904,-1.65646 4.7507,-2.36294 12.47569,-10.29053 16.1703,-16.59442 6.10763,-10.42109 7.06956,-14.54044 9.51461,-40.74511 1.25088,-13.40625 2.72338,-26.595151 3.27223,-29.308669 1.60095,-7.915152 6.74495,-17.104722 12.80068,-22.86795 6.01362,-5.723141 13.72836,-10.636887 15.23668,-9.704688 2.95395,1.82564 10.31689,21.331445 12.82181,33.967353 2.04006,10.291007 2.27359,35.063934 0.42663,45.257704 -8.59455,47.4352 -38.73802,75.91673 -85.29068,80.58824 -5.33979,0.53585 -11.45698,0.90967 -13.59375,0.83072 -2.13672,-0.0789 -15.69749,-0.67121 -30.13499,-1.31617 z"
       id="path3350"
       inkscape:connector-curvature="0" />
    <path
       style="fill:#010101"
       d="M 181.19272,178.35121 C 179.68892,165.77617 175.63798,145.49157 166.2633,103.59375 157.31921,63.620414 151.88162,37.840471 151.87765,35.390625 151.87578,33.95979 152.86924,33.75 159.65028,33.75 l 7.77528,0 1.65869,12.242387 c 2.01822,14.895925 6.58745,37.315133 15.95791,78.298303 6.35692,27.80303 11.55327,51.6584 13.105,60.16243 l 0.55596,3.04688 -8.20815,0 -8.20816,0 -1.09409,-9.14879 z M 56.71875,161.61779 C 29.601238,156.02138 11.900602,132.12005 13.399437,103.12333 14.82741,75.497551 33.564735,52.597243 59.09627,47.273766 c 8.007665,-1.669646 24.668014,-1.849564 31.69618,-0.342292 4.658316,0.99903 4.914581,1.202889 4.460803,3.548598 -0.264787,1.368773 -0.980165,5.758209 -1.589719,9.754303 C 93.053979,64.230469 92.428374,67.5 92.273301,67.5 92.118228,67.5 89.117514,66.827345 85.60505,66.00521 76.23308,63.811588 63.913866,64.522324 57.125082,67.648312 34.735965,77.957687 30.536155,114.39499 49.517804,133.64861 c 9.819925,9.96063 23.673867,12.88537 42.654703,9.00494 l 8.266253,-1.68995 -0.649441,9.44008 c -0.357197,5.19203 -0.802322,9.61069 -0.989166,9.81922 -0.186834,0.20853 -3.192525,0.93131 -6.679304,1.60617 -8.311296,1.60863 -27.127836,1.49634 -35.402099,-0.21128 z m 65.48588,-0.43389 c -3.74762,-1.11178 -8.72401,-6.72284 -8.9085,-10.04465 -0.41421,-7.45795 1.12725,-11.62308 5.73716,-15.50205 5.37879,-4.52596 15.96667,-4.25653 20.39215,0.51891 6.13749,6.62282 3.8126,19.45835 -4.27385,23.59551 -3.52366,1.80277 -9.47779,2.46146 -12.94696,1.43228 z m 92.57148,-3.84207 c -0.47323,-1.20207 -1.98551,-4.69828 -3.36061,-7.76935 -2.13348,-4.76477 -2.30096,-5.72732 -1.14186,-6.5625 0.74707,-0.5383 12.14689,-6.25217 25.33291,-12.69748 15.95892,-7.8007 23.99237,-12.2134 24.02777,-13.19823 0.0367,-1.02248 -7.77619,-5.32218 -25.29342,-13.91974 C 212.16912,92.312507 209.06647,90.52687 209.57054,88.938692 210.61242,85.656018 215.63294,75 216.13768,75 c 0.2717,0 14.81928,8.121094 32.32795,18.046875 l 31.83395,18.046875 -0.0326,6.09375 -0.0326,6.09375 -31.53161,17.8125 c -17.34238,9.79687 -31.87689,17.95226 -32.2989,18.12307 -0.42201,0.17083 -1.15448,-0.67292 -1.62771,-1.875 z m -95.43372,-52.30388 c -8.20225,-5.0012 -8.23428,-18.628707 -0.0581,-24.72297 3.59054,-2.676277 13.10806,-3.323428 17.11797,-1.163948 6.58996,3.548929 8.66504,13.975886 4.11823,20.693487 -4.3775,6.467451 -14.86908,9.040261 -21.17809,5.193431 z"
       id="path3348"
       inkscape:connector-curvature="0" />
  </g>
</svg>
