<?xml version="1.0" encoding="UTF-8" standalone="no"?>
<!-- Created with Inkscape (http://www.inkscape.org/) -->

<svg
   xmlns:dc="http://purl.org/dc/elements/1.1/"
   xmlns:cc="http://creativecommons.org/ns#"
   xmlns:rdf="http://www.w3.org/1999/02/22-rdf-syntax-ns#"
   xmlns:svg="http://www.w3.org/2000/svg"
   xmlns="http://www.w3.org/2000/svg"
   xmlns:sodipodi="http://sodipodi.sourceforge.net/DTD/sodipodi-0.dtd"
   xmlns:inkscape="http://www.inkscape.org/namespaces/inkscape"
   id="svg3336"
   version="1.1"
   inkscape:version="0.91 r13725"
   width="937.5"
   height="234.375"
   viewBox="0 0 937.5 234.375"
   sodipodi:docname="logo.svg">
  <metadata
     id="metadata3342">
    <rdf:RDF>
      <cc:Work
         rdf:about="">
        <dc:format>image/svg+xml</dc:format>
        <dc:type
           rdf:resource="http://purl.org/dc/dcmitype/StillImage" />
        <dc:title></dc:title>
      </cc:Work>
    </rdf:RDF>
  </metadata>
  <defs
     id="defs3340" />
  <sodipodi:namedview
     pagecolor="#ffffff"
     bordercolor="#666666"
     borderopacity="1"
     objecttolerance="10"
     gridtolerance="10"
     guidetolerance="10"
     inkscape:pageopacity="0"
     inkscape:pageshadow="2"
     inkscape:window-width="1366"
     inkscape:window-height="721"
     id="namedview3338"
     showgrid="false"
     inkscape:zoom="0.17027131"
     inkscape:cx="132.40883"
     inkscape:cy="-1039.11"
     inkscape:window-x="-4"
     inkscape:window-y="-4"
     inkscape:window-maximized="1"
     inkscape:current-layer="svg3336" />
  <g
     id="g3346"
     transform="translate(-1.75e-4,0)">
    <path
       style="fill:#323b97"
       d="m 456.78228,233.67235 457.25103,-0.23675 0.27087,-26.01468 0.27087,-26.01467 -0.0219,26.25 -0.0219,26.25 -457.5,0.002 L -0.468825,233.91 456.7822,233.67323 Z M 196.94902,222.73437 c -0.0407,-0.98827 0.18086,-1.54199 0.49239,-1.23047 0.31152,0.31152 0.34482,1.12012 0.074,1.79688 -0.29927,0.74787 -0.52142,0.52573 -0.5664,-0.56641 z m 104.17125,-1.01562 c -0.0191,-1.54688 0.17536,-2.29318 0.43217,-1.65847 0.2568,0.63472 0.27243,1.90035 0.0348,2.8125 -0.23769,0.91216 -0.4478,0.39284 -0.46691,-1.15403 z m 132.07875,1.01562 c -0.0407,-0.98827 0.18087,-1.54199 0.49239,-1.23047 0.31152,0.31152 0.34482,1.12012 0.074,1.79688 -0.29927,0.74787 -0.52142,0.52573 -0.5664,-0.56641 z m 9.375,0 c -0.0407,-0.98827 0.18087,-1.54199 0.49239,-1.23047 0.31152,0.31152 0.34482,1.12012 0.074,1.79688 -0.29927,0.74787 -0.52142,0.52573 -0.5664,-0.56641 z m 8.4375,0 c -0.0407,-0.98827 0.18087,-1.54199 0.49239,-1.23047 0.31152,0.31152 0.34482,1.12012 0.074,1.79688 -0.29927,0.74787 -0.52142,0.52573 -0.5664,-0.56641 z m 97.574,-0.54687 c 0,-1.28906 0.2128,-1.81641 0.47287,-1.17188 0.26007,0.64454 0.26007,1.69922 0,2.34375 -0.26007,0.64454 -0.47287,0.11719 -0.47287,-1.17187 z m 119.13792,0.29336 c 0.89634,-0.23464 2.58384,-0.24316 3.75,-0.0189 1.16617,0.22425 0.43281,0.41624 -1.62969,0.42664 -2.0625,0.0104 -3.01664,-0.17307 -2.12031,-0.40772 z m 42.66718,0.0232 c 0.64454,-0.26007 1.69922,-0.26007 2.34375,0 0.64454,0.26007 0.11719,0.47287 -1.17187,0.47287 -1.28906,0 -1.81641,-0.2128 -1.17188,-0.47287 z m 46.875,-0.0407 c 1.16016,-0.22346 3.0586,-0.22346 4.21875,0 1.16016,0.22346 0.21094,0.40629 -2.10937,0.40629 -2.32031,0 -3.26953,-0.18283 -2.10938,-0.40629 z m 38.41966,0.0467 c 0.63472,-0.2568 1.90034,-0.27243 2.8125,-0.0348 0.91216,0.23769 0.39284,0.44781 -1.15403,0.46691 -1.54688,0.0191 -2.29318,-0.17537 -1.65847,-0.43217 z m 38.2109,-0.33884 c -0.35554,-0.57528 -0.39325,-1.29914 -0.0838,-1.60859 0.30945,-0.30944 0.56263,-0.0704 0.56263,0.53112 0,0.68533 1.7247,1.09376 4.61876,1.09376 3.58957,0 4.72653,-0.36558 5.10242,-1.64063 0.37684,-1.27826 0.44185,-1.22649 0.29434,0.23438 -0.15814,1.56606 -0.98503,1.92121 -5.01862,2.15546 -2.8389,0.16487 -5.0957,-0.15063 -5.47572,-0.7655 z m 39.85382,0.59139 c 0,-0.1993 1.24334,-0.54483 2.76299,-0.76787 1.51964,-0.22303 2.54943,-0.06 2.28842,0.36234 -0.46454,0.75165 -5.05141,1.11988 -5.05141,0.40553 z m 9.6289,-0.20407 c 0.31152,-0.31152 1.12013,-0.34482 1.79688,-0.074 0.74787,0.29927 0.52573,0.52142 -0.56641,0.5664 -0.98827,0.0407 -1.54199,-0.18087 -1.23047,-0.49239 z m 8.88672,-0.0545 c 0.64454,-0.26007 1.69922,-0.26007 2.34375,0 0.64454,0.26007 0.11719,0.47287 -1.17187,0.47287 -1.28906,0 -1.81641,-0.2128 -1.17188,-0.47287 z M 67.648027,219.375 c 0,-1.28906 0.212787,-1.81641 0.472861,-1.17188 0.260074,0.64454 0.260074,1.69922 0,2.34375 -0.260074,0.64454 -0.472861,0.11719 -0.472861,-1.17187 z m 641.175993,0.54687 c -0.0407,-0.98827 0.18087,-1.54199 0.49239,-1.23047 0.31152,0.31152 0.34482,1.12012 0.074,1.79688 -0.29927,0.74787 -0.52142,0.52573 -0.5664,-0.56641 z m -462.1875,-0.9375 c -0.0407,-0.98827 0.18087,-1.54199 0.49239,-1.23047 0.31152,0.31152 0.34482,1.12012 0.074,1.79688 -0.29927,0.74787 -0.52142,0.52573 -0.5664,-0.56641 z m 92.8125,0 c -0.0407,-0.98827 0.18087,-1.54199 0.49239,-1.23047 0.31152,0.31152 0.34482,1.12012 0.074,1.79688 -0.29927,0.74787 -0.52142,0.52573 -0.5664,-0.56641 z m 255,0 c -0.0407,-0.98827 0.18087,-1.54199 0.49239,-1.23047 0.31152,0.31152 0.34482,1.12012 0.074,1.79688 -0.29927,0.74787 -0.52142,0.52573 -0.5664,-0.56641 z m 206.25,0 c -0.0407,-0.98827 0.18087,-1.54199 0.49239,-1.23047 0.31152,0.31152 0.34482,1.12012 0.074,1.79688 -0.29927,0.74787 -0.52142,0.52573 -0.5664,-0.56641 z m 90.9375,0 c -0.0407,-0.98827 0.18087,-1.54199 0.49239,-1.23047 0.31152,0.31152 0.34482,1.12012 0.074,1.79688 -0.29927,0.74787 -0.52142,0.52573 -0.5664,-0.56641 z m 4.6875,0 c -0.0407,-0.98827 0.18087,-1.54199 0.49239,-1.23047 0.31152,0.31152 0.34482,1.12012 0.074,1.79688 -0.29927,0.74787 -0.52142,0.52573 -0.5664,-0.56641 z m -738.75,-0.9375 c -0.0407,-0.98827 0.18086,-1.54199 0.49239,-1.23047 0.31152,0.31152 0.34482,1.12012 0.074,1.79688 -0.29927,0.74787 -0.52142,0.52573 -0.5664,-0.56641 z m 239.0625,0 c -0.0407,-0.98827 0.18087,-1.54199 0.49239,-1.23047 0.31152,0.31152 0.34482,1.12012 0.074,1.79688 -0.29927,0.74787 -0.52142,0.52573 -0.5664,-0.56641 z m 356.25,0 c -0.0407,-0.98827 0.18087,-1.54199 0.49239,-1.23047 0.31152,0.31152 0.34482,1.12012 0.074,1.79688 -0.29927,0.74787 -0.52142,0.52573 -0.5664,-0.56641 z m -734.062507,-0.9375 c -0.04071,-0.98827 0.18087,-1.54199 0.492394,-1.23047 0.311522,0.31152 0.344829,1.12012 0.07401,1.79688 -0.299274,0.74787 -0.521421,0.52573 -0.566406,-0.56641 z m 179.062507,0 c -0.0407,-0.98827 0.18086,-1.54199 0.49239,-1.23047 0.31152,0.31152 0.34482,1.12012 0.074,1.79688 -0.29927,0.74787 -0.52142,0.52573 -0.5664,-0.56641 z m 54.375,0 c -0.0407,-0.98827 0.18087,-1.54199 0.49239,-1.23047 0.31152,0.31152 0.34482,1.12012 0.074,1.79688 -0.29927,0.74787 -0.52142,0.52573 -0.5664,-0.56641 z m 204.375,0 c -0.0407,-0.98827 0.18087,-1.54199 0.49239,-1.23047 0.31152,0.31152 0.34482,1.12012 0.074,1.79688 -0.29927,0.74787 -0.52142,0.52573 -0.5664,-0.56641 z m 207.1875,0 c -0.0407,-0.98827 0.18087,-1.54199 0.49239,-1.23047 0.31152,0.31152 0.34482,1.12012 0.074,1.79688 -0.29927,0.74787 -0.52142,0.52573 -0.5664,-0.56641 z m 176.86126,0.71319 c 0.63472,-0.2568 1.90035,-0.27243 2.8125,-0.0348 0.91216,0.2377 0.39285,0.44781 -1.15403,0.46692 -1.54687,0.0191 -2.29318,-0.17537 -1.65847,-0.43218 z M 390.2175,214.6875 c 0,-1.80469 0.19294,-2.54297 0.42875,-1.64063 0.2358,0.90235 0.2358,2.37891 0,3.28125 -0.23581,0.90235 -0.42875,0.16407 -0.42875,-1.64062 z m 102.04402,1.48437 c -0.0407,-0.98827 0.18087,-1.54199 0.49239,-1.23047 0.31152,0.31152 0.34482,1.12012 0.074,1.79688 -0.29927,0.74787 -0.52142,0.52573 -0.5664,-0.56641 z m 274.6875,0 c -0.0407,-0.98827 0.18087,-1.54199 0.49239,-1.23047 0.31152,0.31152 0.34482,1.12012 0.074,1.79688 -0.29927,0.74787 -0.52142,0.52573 -0.5664,-0.56641 z m -559.6875,-0.9375 c -0.0407,-0.98827 0.18086,-1.54199 0.49239,-1.23047 0.31152,0.31152 0.34482,1.12012 0.074,1.79688 -0.29927,0.74787 -0.52142,0.52573 -0.5664,-0.56641 z M 307.75534,211.875 c 0,-2.32031 0.18283,-3.26953 0.40628,-2.10938 0.22346,1.16016 0.22346,3.0586 0,4.21875 -0.22345,1.16016 -0.40628,0.21094 -0.40628,-2.10937 z m 402.00618,2.42187 c -0.0407,-0.98827 0.18087,-1.54199 0.49239,-1.23047 0.31152,0.31152 0.34482,1.12012 0.074,1.79688 -0.29927,0.74787 -0.52142,0.52573 -0.5664,-0.56641 z M 882.44284,211.875 c 0,-2.32031 0.18283,-3.26953 0.40628,-2.10938 0.22346,1.16016 0.22346,3.0586 0,4.21875 -0.22345,1.16016 -0.40628,0.21094 -0.40628,-2.10937 z m -123.93132,1.48437 c -0.0407,-0.98827 0.18087,-1.54199 0.49239,-1.23047 0.31152,0.31152 0.34482,1.12012 0.074,1.79688 -0.29927,0.74787 -0.52142,0.52573 -0.5664,-0.56641 z m 4.6875,0 c -0.0407,-0.98827 0.18087,-1.54199 0.49239,-1.23047 0.31152,0.31152 0.34482,1.12012 0.074,1.79688 -0.29927,0.74787 -0.52142,0.52573 -0.5664,-0.56641 z m 134.0625,0 c -0.0407,-0.98827 0.18087,-1.54199 0.49239,-1.23047 0.31152,0.31152 0.34482,1.12012 0.074,1.79688 -0.29927,0.74787 -0.52142,0.52573 -0.5664,-0.56641 z m -738.75,-0.9375 c -0.0407,-0.98827 0.18086,-1.54199 0.49239,-1.23047 0.31152,0.31152 0.34482,1.12012 0.074,1.79688 -0.29927,0.74787 -0.52142,0.52573 -0.5664,-0.56641 z m 45,0 c -0.0407,-0.98827 0.18086,-1.54199 0.49239,-1.23047 0.31152,0.31152 0.34482,1.12012 0.074,1.79688 -0.29927,0.74787 -0.52142,0.52573 -0.5664,-0.56641 z m 344.1365,-0.54687 c 0,-1.28906 0.2128,-1.81641 0.47287,-1.17188 0.26007,0.64454 0.26007,1.69922 0,2.34375 -0.26007,0.64454 -0.47287,0.11719 -0.47287,-1.17187 z m 126.4885,0.54687 c -0.0407,-0.98827 0.18087,-1.54199 0.49239,-1.23047 0.31152,0.31152 0.34482,1.12012 0.074,1.79688 -0.29927,0.74787 -0.52142,0.52573 -0.5664,-0.56641 z m 218.4375,0 c -0.0407,-0.98827 0.18087,-1.54199 0.49239,-1.23047 0.31152,0.31152 0.34482,1.12012 0.074,1.79688 -0.29927,0.74787 -0.52142,0.52573 -0.5664,-0.56641 z m -435,-0.9375 c -0.0407,-0.98827 0.18087,-1.54199 0.49239,-1.23047 0.31152,0.31152 0.34482,1.12012 0.074,1.79688 -0.29927,0.74787 -0.52142,0.52573 -0.5664,-0.56641 z m 422.8125,0 c -0.0407,-0.98827 0.18087,-1.54199 0.49239,-1.23047 0.31152,0.31152 0.34482,1.12012 0.074,1.79688 -0.29927,0.74787 -0.52142,0.52573 -0.5664,-0.56641 z m -578.4375,-0.9375 c -0.0407,-0.98827 0.18087,-1.54199 0.49239,-1.23047 0.31152,0.31152 0.34482,1.12012 0.074,1.79688 -0.29927,0.74787 -0.52142,0.52573 -0.5664,-0.56641 z m 150.52445,-0.0781 c -0.29679,-0.77344 -0.13099,-1.40625 0.36845,-1.40625 0.49944,0 0.90808,0.63281 0.90808,1.40625 0,0.77344 -0.16581,1.40625 -0.36845,1.40625 -0.20265,0 -0.61128,-0.63281 -0.90808,-1.40625 z m 138.22555,0.0781 c -0.0407,-0.98827 0.18087,-1.54199 0.49239,-1.23047 0.31152,0.31153 0.34482,1.12012 0.074,1.79688 -0.29927,0.74788 -0.52142,0.52573 -0.5664,-0.56641 z m 177.1875,0 c -0.0407,-0.98827 0.18087,-1.54199 0.49239,-1.23047 0.31152,0.31153 0.34482,1.12012 0.074,1.79688 -0.29927,0.74788 -0.52142,0.52573 -0.5664,-0.56641 z M 66.690171,209.8423 c -0.07022,-0.86017 -0.400699,-2.33673 -0.734401,-3.28125 -0.468357,-1.32565 -0.343351,-1.4747 0.548123,-0.65356 0.63517,0.58507 0.96565,2.06163 0.734401,3.28125 -0.231249,1.21964 -0.477905,1.51373 -0.548123,0.65356 z m 145.406709,-1.49259 c -1.09459,-2.33496 -1.06857,-2.41069 0.34319,-0.99893 0.84016,0.84016 1.37313,1.97709 1.18437,2.5265 -0.18876,0.54941 -0.87616,-0.138 -1.52756,-1.52757 z m 228.59402,1.94 c 0.0362,-0.41715 0.42845,-1.60221 0.8716,-2.63346 0.7768,-1.80772 0.80808,-1.80129 0.8716,0.17904 0.0363,1.12973 -0.35598,2.31478 -0.8716,2.63346 -0.51563,0.31868 -0.90785,0.23811 -0.8716,-0.17904 z m 356.25812,-0.68034 c -0.0407,-0.98827 0.18087,-1.54199 0.49239,-1.23047 0.31152,0.31153 0.34482,1.12012 0.074,1.79688 -0.29927,0.74787 -0.52142,0.52573 -0.5664,-0.56641 z m -686.25,-0.9375 c -0.0407,-0.98827 0.18086,-1.54199 0.49239,-1.23047 0.31152,0.31153 0.34482,1.12012 0.074,1.79688 -0.29927,0.74787 -0.52142,0.52573 -0.5664,-0.56641 z m 137.8125,0 c -0.0407,-0.98827 0.18087,-1.54199 0.49239,-1.23047 0.31152,0.31153 0.34482,1.12012 0.074,1.79688 -0.29927,0.74787 -0.52142,0.52573 -0.5664,-0.56641 z m 307.5,0 c -0.0407,-0.98827 0.18087,-1.54199 0.49239,-1.23047 0.31152,0.31153 0.34482,1.12012 0.074,1.79688 -0.29927,0.74787 -0.52142,0.52573 -0.5664,-0.56641 z m 342.1875,-0.9375 c -0.0407,-0.98827 0.18087,-1.54199 0.49239,-1.23047 0.31152,0.31153 0.34482,1.12012 0.074,1.79688 -0.29927,0.74787 -0.52142,0.52573 -0.5664,-0.56641 z m -693.1209,-0.23026 c 0.64454,-0.26007 1.69922,-0.26007 2.34375,0 0.64454,0.26007 0.11719,0.47287 -1.17187,0.47287 -1.28906,0 -1.81641,-0.2128 -1.17188,-0.47287 z m 49.0584,-0.70724 c -0.0407,-0.98827 0.18087,-1.54199 0.49239,-1.23047 0.31152,0.31152 0.34482,1.12012 0.074,1.79688 -0.29927,0.74787 -0.52142,0.52573 -0.5664,-0.56641 z m 638.94942,0.58024 c -0.25422,-0.41134 -0.0746,-1.36056 0.39906,-2.10938 0.67246,-1.06298 0.86443,-0.89902 0.87565,0.74789 0.0147,2.16847 -0.46155,2.6772 -1.27471,1.36149 z M 76.011513,205.85937 c -0.04071,-0.98827 0.18087,-1.54199 0.492394,-1.23047 0.311522,0.31152 0.344829,1.12012 0.07402,1.79688 -0.299274,0.74787 -0.521421,0.52573 -0.566406,-0.56641 z m 382.500007,0 c -0.0407,-0.98827 0.18087,-1.54199 0.49239,-1.23047 0.31152,0.31152 0.34482,1.12012 0.074,1.79688 -0.29927,0.74787 -0.52142,0.52573 -0.5664,-0.56641 z M 843.75,205.60108 c 1.28906,-0.26269 2.69227,-0.96242 3.11825,-1.55497 0.51772,-0.72017 0.64916,-0.61114 0.39645,0.32889 -0.21328,0.79332 -1.57239,1.47107 -3.11825,1.55497 -2.35985,0.12807 -2.41488,0.0824 -0.39645,-0.32889 z m 43.125,-0.23325 c 0,-0.54606 0.42187,-0.99283 0.9375,-0.99283 0.51562,0 0.9375,0.18604 0.9375,0.41342 0,0.22738 -0.42188,0.67415 -0.9375,0.99283 -0.51563,0.31868 -0.9375,0.13264 -0.9375,-0.41342 z M 70.341212,204.84375 c 0,-0.51563 0.408954,-1.57031 0.908788,-2.34375 0.499834,-0.77344 0.908788,-0.98438 0.908788,-0.46875 0,0.51562 -0.408954,1.57031 -0.908788,2.34375 -0.499834,0.77344 -0.908788,0.98437 -0.908788,0.46875 z m 271.920308,-0.85938 c -0.0407,-0.98827 0.18087,-1.54199 0.49239,-1.23047 0.31152,0.31152 0.34482,1.12012 0.074,1.79688 -0.29927,0.74787 -0.52142,0.52573 -0.5664,-0.56641 z m 4.6875,0 c -0.0407,-0.98827 0.18087,-1.54199 0.49239,-1.23047 0.31152,0.31152 0.34482,1.12012 0.074,1.79688 -0.29927,0.74787 -0.52142,0.52573 -0.5664,-0.56641 z m 36.5625,0 c -0.0407,-0.98827 0.18087,-1.54199 0.49239,-1.23047 0.31152,0.31152 0.34482,1.12012 0.074,1.79688 -0.29927,0.74787 -0.52142,0.52573 -0.5664,-0.56641 z m 63.00661,-2.89062 c 0.007,-2.57813 0.18912,-3.52154 0.4046,-2.09648 0.21549,1.42505 0.20973,3.53443 -0.0127,4.6875 -0.22252,1.15306 -0.39883,-0.0128 -0.3918,-2.59102 z m 264.25489,2.34375 c 0,-1.28906 0.2128,-1.81641 0.47287,-1.17188 0.26007,0.64454 0.26007,1.69922 0,2.34375 -0.26007,0.64454 -0.47287,0.11719 -0.47287,-1.17187 z M 205.7427,203.3752 c -0.33987,-0.54993 -0.36477,-1.25306 -0.0553,-1.56251 0.30945,-0.30944 0.56263,-0.0212 0.56263,0.64047 0,0.74181 0.7194,1.01496 1.87629,0.71243 1.03196,-0.26986 1.63988,-0.10813 1.35092,0.35941 -0.71839,1.16238 -2.9796,1.07167 -3.73451,-0.1498 z m 391.51882,-0.32826 c -0.0407,-0.98828 0.18087,-1.54199 0.49239,-1.23047 0.31152,0.31152 0.34482,1.12012 0.074,1.79688 -0.29927,0.74787 -0.52142,0.52573 -0.5664,-0.56641 z m 206.25,0 c -0.0407,-0.98828 0.18087,-1.54199 0.49239,-1.23047 0.31152,0.31152 0.34482,1.12012 0.074,1.79688 -0.29927,0.74787 -0.52142,0.52573 -0.5664,-0.56641 z m -366.5625,-0.9375 c -0.0407,-0.98828 0.18087,-1.54199 0.49239,-1.23047 0.31152,0.31152 0.34482,1.12012 0.074,1.79688 -0.29927,0.74787 -0.52142,0.52573 -0.5664,-0.56641 z m 62.8125,0 c -0.0407,-0.98828 0.18087,-1.54199 0.49239,-1.23047 0.31152,0.31152 0.34482,1.12012 0.074,1.79688 -0.29927,0.74787 -0.52142,0.52573 -0.5664,-0.56641 z m 337.5,0 c -0.0407,-0.98828 0.18087,-1.54199 0.49239,-1.23047 0.31152,0.31152 0.34482,1.12012 0.074,1.79688 -0.29927,0.74787 -0.52142,0.52573 -0.5664,-0.56641 z m 61.875,0 c -0.0407,-0.98828 0.18087,-1.54199 0.49239,-1.23047 0.31152,0.31152 0.34482,1.12012 0.074,1.79688 -0.29927,0.74787 -0.52142,0.52573 -0.5664,-0.56641 z m -743.4375,-0.9375 c -0.0407,-0.98828 0.18086,-1.54199 0.49239,-1.23047 0.31152,0.31152 0.34482,1.12012 0.074,1.79688 -0.29927,0.74787 -0.52142,0.52573 -0.5664,-0.56641 z m 59.0625,0 c -0.0407,-0.98828 0.18086,-1.54199 0.49239,-1.23047 0.31152,0.31152 0.34482,1.12012 0.074,1.79688 -0.29927,0.74787 -0.52142,0.52573 -0.5664,-0.56641 z m 178.125,0 c -0.0407,-0.98828 0.18087,-1.54199 0.49239,-1.23047 0.31152,0.31152 0.34482,1.12012 0.074,1.79688 -0.29927,0.74787 -0.52142,0.52573 -0.5664,-0.56641 z m 450.61126,0.71318 c 0.63472,-0.2568 1.90034,-0.27242 2.8125,-0.0348 0.91216,0.2377 0.39284,0.44781 -1.15403,0.46692 -1.54688,0.0191 -2.29318,-0.17537 -1.65847,-0.43218 z M 459.44902,200.2344 c -0.0407,-0.98828 0.18087,-1.54199 0.49239,-1.23047 0.31152,0.31152 0.34482,1.12012 0.074,1.79688 -0.29927,0.74787 -0.52142,0.52573 -0.5664,-0.56641 z m 91.0115,-0.5469 c 0,-1.28906 0.2128,-1.81641 0.47287,-1.17188 0.26007,0.64454 0.26007,1.69922 0,2.34375 -0.26007,0.64454 -0.47287,0.11719 -0.47287,-1.17187 z m -340.3865,-0.39063 c -0.0407,-0.98827 0.18086,-1.54199 0.49239,-1.23047 0.31152,0.31152 0.34482,1.12012 0.074,1.79688 -0.29927,0.74787 -0.52142,0.52573 -0.5664,-0.56641 z m -140.625007,-1.875 c -0.04071,-0.98827 0.18087,-1.54199 0.492394,-1.23047 0.311522,0.31152 0.344829,1.12012 0.07402,1.79688 -0.299274,0.74787 -0.521421,0.52573 -0.566406,-0.56641 z m 132.187507,0 c -0.0407,-0.98827 0.18086,-1.54199 0.49239,-1.23047 0.31152,0.31152 0.34482,1.12012 0.074,1.79688 -0.29927,0.74787 -0.52142,0.52573 -0.5664,-0.56641 z m 4.6875,0 c -0.0407,-0.98827 0.18086,-1.54199 0.49239,-1.23047 0.31152,0.31152 0.34482,1.12012 0.074,1.79688 -0.29927,0.74787 -0.52142,0.52573 -0.5664,-0.56641 z m 555.074,-0.54687 c 0,-1.28906 0.2128,-1.81641 0.47287,-1.17188 0.26007,0.64454 0.26007,1.69922 0,2.34375 -0.26007,0.64454 -0.47287,0.11719 -0.47287,-1.17187 z M 61.949013,196.48437 c -0.04071,-0.98827 0.18087,-1.54199 0.492394,-1.23047 0.311522,0.31152 0.344829,1.12012 0.07402,1.79688 -0.299274,0.74787 -0.521421,0.52573 -0.566406,-0.56641 z m 194.062507,0 c -0.0407,-0.98827 0.18087,-1.54199 0.49239,-1.23047 0.31152,0.31152 0.34482,1.12012 0.074,1.79688 -0.29927,0.74787 -0.52142,0.52573 -0.5664,-0.56641 z m 52.6624,-1.95312 c -0.0104,-2.0625 0.17307,-3.01664 0.40772,-2.12031 0.23464,0.89634 0.24316,2.58384 0.0189,3.75 -0.22425,1.16617 -0.41624,0.43281 -0.42664,-1.62969 z m 244.5251,1.01562 c -0.0407,-0.98827 0.18087,-1.54199 0.49239,-1.23047 0.31152,0.31152 0.34482,1.12012 0.074,1.79688 -0.29927,0.74787 -0.52142,0.52573 -0.5664,-0.56641 z m 123.75,0 c -0.0407,-0.98827 0.18087,-1.54199 0.49239,-1.23047 0.31152,0.31152 0.34482,1.12012 0.074,1.79688 -0.29927,0.74787 -0.52142,0.52573 -0.5664,-0.56641 z m 32.8125,0 c -0.0407,-0.98827 0.18087,-1.54199 0.49239,-1.23047 0.31152,0.31152 0.34482,1.12012 0.074,1.79688 -0.29927,0.74787 -0.52142,0.52573 -0.5664,-0.56641 z m -249.375,-0.9375 c -0.0407,-0.98827 0.18087,-1.54199 0.49239,-1.23047 0.31152,0.31152 0.34482,1.12012 0.074,1.79688 -0.29927,0.74787 -0.52142,0.52573 -0.5664,-0.56641 z m 133.125,0 c -0.0407,-0.98827 0.18087,-1.54199 0.49239,-1.23047 0.31152,0.31152 0.34482,1.12012 0.074,1.79688 -0.29927,0.74787 -0.52142,0.52573 -0.5664,-0.56641 z m -201.5625,-0.9375 c -0.0407,-0.98827 0.18087,-1.54199 0.49239,-1.23047 0.31152,0.31152 0.34482,1.12012 0.074,1.79688 -0.29927,0.74787 -0.52142,0.52573 -0.5664,-0.56641 z m 166.875,0 c -0.0407,-0.98827 0.18087,-1.54199 0.49239,-1.23047 0.31152,0.31152 0.34482,1.12012 0.074,1.79688 -0.29927,0.74787 -0.52142,0.52573 -0.5664,-0.56641 z m 240.9375,0 c -0.0407,-0.98827 0.18087,-1.54199 0.49239,-1.23047 0.31152,0.31152 0.34482,1.12012 0.074,1.79688 -0.29927,0.74787 -0.52142,0.52573 -0.5664,-0.56641 z m 78.75,0 c -0.0407,-0.98827 0.18087,-1.54199 0.49239,-1.23047 0.31152,0.31152 0.34482,1.12012 0.074,1.79688 -0.29927,0.74787 -0.52142,0.52573 -0.5664,-0.56641 z m -328.9885,-1.48437 c 0,-1.28906 0.2128,-1.81641 0.47287,-1.17188 0.26007,0.64454 0.26007,1.69922 0,2.34375 -0.26007,0.64454 -0.47287,0.11719 -0.47287,-1.17187 z m 256.03017,0 c 0.21088,-0.77344 1.19222,-1.50428 2.18075,-1.6241 1.26285,-0.15305 1.37914,-0.0415 0.39106,0.37496 -0.77344,0.32603 -1.75477,1.05687 -2.18075,1.62408 -0.49815,0.66332 -0.63768,0.52954 -0.39106,-0.37494 z m -683.60417,-1.32813 c -0.0407,-0.98827 0.18086,-1.54199 0.49239,-1.23047 0.31152,0.31152 0.34482,1.12012 0.074,1.79688 -0.29927,0.74787 -0.52142,0.52573 -0.5664,-0.56641 z m 94.6875,0 c -0.0407,-0.98827 0.18086,-1.54199 0.49239,-1.23047 0.31152,0.31152 0.34482,1.12012 0.074,1.79688 -0.29927,0.74787 -0.52142,0.52573 -0.5664,-0.56641 z m 43.125,0 c -0.0407,-0.98827 0.18087,-1.54199 0.49239,-1.23047 0.31152,0.31152 0.34482,1.12012 0.074,1.79688 -0.29927,0.74787 -0.52142,0.52573 -0.5664,-0.56641 z M 886.155,189.375 c 0,-1.80469 0.19294,-2.54297 0.42875,-1.64063 0.2358,0.90235 0.2358,2.37891 0,3.28125 -0.23581,0.90235 -0.42875,0.16407 -0.42875,-1.64062 z m -817.643487,0.54687 c -0.04071,-0.98827 0.18087,-1.54199 0.492394,-1.23047 0.311522,0.31152 0.344829,1.12012 0.07402,1.79688 -0.299274,0.74787 -0.521421,0.52573 -0.566406,-0.56641 z m 475.312507,0 c -0.0407,-0.98827 0.18087,-1.54199 0.49239,-1.23047 0.31152,0.31152 0.34482,1.12012 0.074,1.79688 -0.29927,0.74787 -0.52142,0.52573 -0.5664,-0.56641 z m 138.51145,-0.85233 c -0.3488,-1.71077 -0.21814,-2.32721 0.36887,-1.7402 0.49995,0.49995 0.74301,1.69209 0.54014,2.6492 -0.27321,1.2889 -0.50895,1.05315 -0.90901,-0.909 z m 115.55105,0.0711 c 0.0495,-1.40948 0.25162,-1.64278 0.60931,-0.70313 0.29443,0.77344 0.9994,1.7162 1.56661,2.09502 0.63613,0.42485 0.40265,0.69427 -0.60932,0.70313 -1.10223,0.01 -1.61633,-0.67786 -1.5666,-2.09502 z m 48.67598,1.46047 c 1.28906,-0.26269 2.69227,-0.96242 3.11825,-1.55497 0.51772,-0.72017 0.64916,-0.61114 0.39645,0.32889 -0.21328,0.79332 -1.57239,1.47107 -3.11825,1.55497 -2.35985,0.12807 -2.41488,0.0824 -0.39645,-0.32889 z M 349.76152,188.9844 c -0.0407,-0.98827 0.18087,-1.54199 0.49239,-1.23047 0.31152,0.31152 0.34482,1.12012 0.074,1.79688 -0.29927,0.74787 -0.52142,0.52573 -0.5664,-0.56641 z m 111.5625,0 c -0.0407,-0.98827 0.18087,-1.54199 0.49239,-1.23047 0.31152,0.31152 0.34482,1.12012 0.074,1.79688 -0.29927,0.74787 -0.52142,0.52573 -0.5664,-0.56641 z m 130.3125,0 c -0.0407,-0.98827 0.18087,-1.54199 0.49239,-1.23047 0.31152,0.31152 0.34482,1.12012 0.074,1.79688 -0.29927,0.74787 -0.52142,0.52573 -0.5664,-0.56641 z m 117.1875,-0.9375 c -0.0407,-0.98827 0.18087,-1.54199 0.49239,-1.23047 0.31152,0.31152 0.34482,1.12012 0.074,1.79688 -0.29927,0.74787 -0.52142,0.52573 -0.5664,-0.56641 z M 11.282464,165.68505 c -3.8950487,-1.38332 -7.5229206,-6.39192 -7.5569625,-10.43306 -0.013474,-1.59954 1.5639905,-12.29496 3.505477,-23.76762 l 3.5299755,-20.85937 10.557023,0 c 8.220585,0 10.557023,0.27919 10.557023,1.26149 0,0.69382 -1.050676,6.91647 -2.334835,13.82813 -3.175122,17.08925 -3.113557,19.72846 0.531765,22.7958 4.832542,4.06631 11.827025,2.5928 15.257316,-3.21421 0.836487,-1.41607 2.599749,-8.74432 3.918358,-16.28503 l 2.397472,-13.71035 -1.901998,-4.29979 C 48.696979,108.63617 42.710872,98.216784 36.440618,87.846875 22.504325,64.798662 20.625,60.734495 20.625,53.644519 c 0,-6.220722 5.827267,-34.468015 8.09753,-39.252236 1.729511,-3.644676 5.782245,-7.0656853 10.907196,-9.2070269 5.206711,-2.1755027 38.895711,-2.0746612 43.542397,0.1303357 4.220839,2.0029196 6.819916,6.2822502 6.824373,11.2361992 0.0028,3.102102 -4.855606,31.560788 -7.057264,41.338834 C 82.480136,59.929569 82.101244,60 71.591547,60 61.693633,60 60.757324,59.852747 61.148315,58.357594 c 0.236224,-0.903323 1.43016,-7.628855 2.65319,-14.945626 2.486809,-14.877315 2.164068,-17.705723 -2.262433,-19.827289 -3.77231,-1.808021 -8.775494,-0.598257 -12.363144,2.989393 -3.37063,3.37063 -5.81546,11.980181 -6.721455,23.669831 l -0.515414,6.650152 7.961238,12.099848 c 9.421166,14.318711 17.699955,28.325722 20.992406,35.517387 l 2.371242,5.17947 -4.402788,22.52974 c -4.811128,24.61927 -5.547831,26.47089 -12.468509,31.33841 l -4.048367,2.84734 -18.906515,0.2163 c -13.090007,0.14977 -19.905991,-0.13866 -22.155302,-0.9375 z m 76.412862,0.5061 c -5.030008,-1.2777 -8.935395,-6.17148 -8.956068,-11.22272 -0.0059,-1.44357 5.785027,-36.05827 12.868743,-76.921555 L 104.48749,3.75 l 10.1,0 c 5.55501,0 10.10001,0.3800572 10.10001,0.8445716 0,0.4645144 -5.71395,33.0179444 -12.69767,72.3409544 -6.98371,39.323014 -12.48133,72.060144 -12.216917,72.749174 0.358947,0.93542 2.976517,1.2528 10.332297,1.2528 9.19572,0 9.94048,-0.14043 11.18714,-2.10938 0.73457,-1.16015 7.16532,-34.27734 14.29054,-73.593745 L 148.53784,3.75 l 9.65519,0 c 9.5295,0 9.64896,0.027461 9.17695,2.109375 -0.26303,1.1601562 -6.58915,35.147331 -14.05804,75.527054 -10.61211,57.373231 -13.99688,74.003421 -15.48834,76.097981 -2.9043,4.07872 -7.1873,7.33744 -11.05583,8.41183 -3.44307,0.95623 -35.515947,1.1983 -39.072444,0.29491 z m 59.804934,-1.42553 c 0.28381,-1.16015 6.8745,-35.64843 14.64598,-76.64062 7.77148,-40.992188 14.57585,-76.746094 15.12083,-79.453125 L 178.25794,3.75 l 24.40122,0 c 20.85166,0 24.88116,0.2277413 27.70046,1.5655918 4.24435,2.0140779 6.81993,6.2790402 6.82437,11.3006592 0.004,4.239441 -10.64963,60.430762 -12.27076,64.722186 -1.39218,3.685375 -5.42082,7.689114 -9.75698,9.696691 -3.13748,1.452602 -6.14523,1.739556 -18.41399,1.756783 -14.42188,0.02025 -14.67249,0.05541 -15.17825,2.129964 -0.28284,1.160156 -3.28951,16.664065 -6.68149,34.453125 -3.39197,17.78906 -6.40388,33.50391 -6.69312,34.92187 l -0.52588,2.57813 -10.33964,0 c -10.25049,0 -10.3352,-0.0182 -9.82362,-2.10938 z M 203.56615,75 C 205.24828,72.719962 213.75,35.476725 213.75,30.387895 c 0,-1.291467 -1.03552,-3.383634 -2.30114,-4.649259 -2.00902,-2.009019 -3.14217,-2.301136 -8.92634,-2.301136 -5.97889,0 -6.71303,0.205781 -7.52534,2.109375 -1.17029,2.742477 -9.37218,45.293432 -9.37218,48.622362 0,3.256931 0.86719,3.570367 9.27788,3.353395 6.20474,-0.160065 7.11602,-0.425421 8.66327,-2.522632 z m 16.21438,89.29687 C 220.72567,159.90261 251.25,4.5579051 251.25,4.1421593 251.25,3.9264716 260.97897,3.75 272.86994,3.75 l 21.61995,0 -0.60627,3.984375 c -0.33344,2.1914063 -1.10022,6.726563 -1.70395,10.078125 l -1.09769,6.09375 -11.34696,0.262175 -11.34698,0.262174 -4.81949,24.112826 c -2.65071,13.262054 -4.81927,24.640169 -4.81902,25.2847 C 258.74988,74.700598 261.62882,75 270.01786,75 c 11.20776,0 11.26521,0.01125 10.76979,2.109375 -0.27394,1.160156 -1.03863,4.851562 -1.69931,8.203125 l -1.20123,6.09375 -11.44355,0.26323 c -6.29396,0.144777 -11.44592,0.566652 -11.44881,0.9375 -0.003,0.370848 -2.05249,12.59224 -4.55467,27.15865 l -4.54942,26.48437 11.11717,0 c 10.77946,0 11.11717,0.0618 11.11717,2.03258 0,1.92305 -1.46004,11.90834 -2.41013,16.48304 l -0.43809,2.10938 -23.02538,0 -23.02538,0 0.55451,-2.57813 z m 56.29462,0.46875 c 0.26723,-1.16015 7.02819,-36.91406 15.02437,-79.45312 7.99616,-42.539063 14.75453,-78.2929688 15.01859,-79.453125 L 306.59822,3.75 l 24.44983,0 c 20.89707,0 24.92924,0.2274936 27.74907,1.5655918 4.14529,1.9670686 6.81984,6.2680602 6.82437,10.9744152 0.002,1.998568 -2.55421,16.97513 -5.6803,33.281251 l -5.6838,29.647492 -3.74947,3.460342 c -2.0622,1.903187 -5.62169,4.175346 -7.90994,5.049241 -2.28826,0.873896 -4.16048,1.875324 -4.16048,2.225398 0,0.350072 1.5028,1.353132 3.33955,2.229019 2.37282,1.131519 3.87318,2.798853 5.18292,5.759741 l 1.84335,4.167219 -5.89708,32.14827 -5.89708,32.14827 -10.06708,0.26609 c -8.07148,0.21335 -10.06708,0.009 -10.06708,-1.02997 0,-0.71285 2.35654,-13.48884 5.23676,-28.3911 5.35649,-27.71454 6.11279,-35.17456 4.1645,-41.077954 l -1.10917,-3.360816 -7.40943,0 c -6.91223,0 -7.44265,0.141548 -7.90431,2.109375 -0.27218,1.160156 -3.03078,15.609375 -6.13022,32.109375 -3.09943,16.5 -6.07875,32.21484 -6.6207,34.92187 l -0.98537,4.92188 -10.26389,0 c -10.163,0 -10.25912,-0.0207 -9.77802,-2.10938 z m 51.9052,-88.438498 c 1.36862,-0.816958 3.1475,-2.398989 3.95306,-3.515625 0.80556,-1.116635 3.26495,-10.678684 5.46531,-21.248997 2.20036,-10.570313 4.19116,-19.908996 4.42401,-20.752628 0.23285,-0.843634 -0.68201,-2.84754 -2.03302,-4.453125 -2.30508,-2.739426 -2.84842,-2.919247 -8.82076,-2.919247 -3.98619,0 -6.70088,0.437894 -7.26493,1.171875 -0.99609,1.296194 -9.64152,45.859297 -9.64152,49.697503 0,1.32653 0.52734,2.62466 1.17187,2.884734 2.63898,1.064852 10.39511,0.538798 12.74598,-0.86449 z m 57.63446,88.438498 c 0.27807,-1.16015 7.09907,-36.91406 15.1578,-79.45312 C 408.83133,42.773437 415.65622,7.0195312 415.93904,5.859375 416.43316,3.8324634 416.85245,3.75 426.66413,3.75 c 7.53818,0 10.21358,0.3067377 10.22121,1.171875 0.0219,2.4847634 10.11463,81.453095 10.45359,81.792057 0.19707,0.197066 2.8263,-12.799356 5.84275,-28.88094 3.01644,-16.081583 6.54162,-34.829086 7.83374,-41.661117 L 463.36472,3.75 l 11.59889,0 c 8.66934,0 11.59167,0.2959816 11.57032,1.171875 -0.0158,0.6445312 -6.89142,37.242187 -15.27934,81.328125 l -15.25079,80.15625 -10.26752,0 -10.26753,0 -2.00819,-24.84375 c -1.10451,-13.66406 -2.75628,-34.44198 -3.6706,-46.17315 -0.91433,-11.73117 -1.81144,-21.180364 -1.9936,-20.998208 -0.18215,0.182155 -4.33003,20.11632 -9.21749,44.298148 -4.88747,24.18183 -9.10641,44.91618 -9.37545,46.07633 -0.47535,2.0499 -0.82194,2.10938 -12.29166,2.10938 -11.76446,0 -11.8009,-0.007 -11.29695,-2.10938 z m 81.26019,1.55447 c 0,-0.97441 30.06465,-159.220756 30.57441,-160.929465 C 497.87494,3.9642411 499.21605,3.75 507.71943,3.75 c 8.78873,0 9.78057,0.1709106 9.78057,1.6853635 0,0.9269501 -6.75,37.2015395 -15,80.6101975 -8.25,43.408659 -15,79.353369 -15,79.877139 0,0.58702 -3.95564,0.9523 -10.3125,0.9523 -5.67188,0 -10.3125,-0.2497 -10.3125,-0.55491 z m 31.38997,-1.52627 C 498.82753,162.40011 528.75,4.6853007 528.75,4.1139359 528.75,3.9137711 533.37151,3.75 539.02002,3.75 l 10.27001,0 0.52129,3.046875 c 0.52512,3.0693328 9.8067,77.279632 9.95676,79.608665 0.17667,2.742106 1.7792,-5.060676 8.84078,-43.046165 L 575.97233,3.75 l 11.54509,0 c 10.29736,0 11.54508,0.1744149 11.54508,1.6138566 0,0.887621 -6.75,37.1539564 -15,80.5918574 -8.25,43.437906 -15,79.414786 -15,79.948646 0,0.61003 -3.80992,0.97064 -10.25506,0.97064 l -10.25505,0 -0.53118,-3.98438 c -0.29215,-2.1914 -2.01407,-22.94216 -3.82649,-46.11279 -1.81242,-23.170635 -3.42554,-42.258649 -3.5847,-42.417812 -0.15917,-0.159163 -4.47749,20.486126 -9.59629,45.878422 l -9.3069,46.16781 -11.9721,0.26257 -11.9721,0.26257 0.50235,-2.13757 z M 592.5,165.33886 c 0,-0.87661 5.48437,-32.47487 12.1875,-70.218338 6.70312,-37.743469 12.1875,-69.101723 12.1875,-69.685006 0,-0.68025 -2.18501,-1.060516 -6.09375,-1.060516 -3.35156,0 -6.09367,-0.316406 -6.09359,-0.703125 1.9e-4,-0.820114 2.56868,-14.7156214 3.29253,-17.8125 L 608.47322,3.75 l 23.88839,0 c 22.12854,0 23.88787,0.1208639 23.88131,1.640625 -0.008,1.7165478 -1.52591,11.972141 -2.4292,16.40625 -0.5073,2.490271 -0.73031,2.578125 -6.54446,2.578125 -3.31059,0 -6.04726,0.105469 -6.08148,0.234375 -0.0342,0.128906 -5.84675,32.085937 -12.91671,71.015625 l -12.85448,70.78125 -11.4583,0.26323 C 593.69553,166.90524 592.5,166.76641 592.5,165.33886 Z m 40.3125,1.01784 c 0,-0.64721 30.87439,-157.6058102 31.57047,-160.497325 l 0.5078,-2.109375 21.47195,0 21.47194,0 -0.56918,3.515625 c -0.31304,1.9335938 -1.05631,6.46875 -1.6517,10.078125 l -1.08253,6.5625 -11.35285,0.262175 -11.35286,0.262174 -4.81949,24.112826 c -2.65071,13.262054 -4.81927,24.640169 -4.81902,25.2847 C 672.18738,74.700359 675.05806,75 683.41406,75 l 11.22656,0 -0.51138,2.578125 c -0.28126,1.417969 -1.009,5.109375 -1.61719,8.203125 l -1.1058,5.625 -11.48438,0.26323 c -6.3164,0.144777 -11.48437,0.52503 -11.48437,0.845008 0,1.154318 -8.53619,50.494262 -9.01282,52.094882 -0.44631,1.49886 0.48908,1.64063 10.82464,1.64063 10.15215,0 11.31245,0.16837 11.3061,1.64062 -0.008,1.71655 -1.52591,11.97214 -2.4292,16.40625 l -0.5252,2.57813 -22.89426,0 c -12.59184,0 -22.89426,-0.23323 -22.89426,-0.5183 z m 53.48417,-1.12233 c 0.0257,-0.90234 6.88252,-37.49999 15.23746,-81.32812 l 15.19079,-79.6875 10.36615,-0.2634177 10.36616,-0.2634177 5.06047,41.2790424 c 2.78326,22.703473 5.28898,41.27777 5.56826,41.276214 0.27928,-0.0016 3.84246,-18.036712 7.91816,-40.078125 4.07569,-22.041413 7.6013,-40.6026398 7.83467,-41.247171 C 764.14735,4.0696929 767.45299,3.75 775.95604,3.75 l 11.69294,0 -0.53712,2.578125 C 786.81643,7.7460937 780.03251,43.5 772.03647,85.78125 c -7.99604,42.28125 -14.75683,77.82422 -15.02397,78.98437 -0.4669,2.02766 -0.87883,2.10938 -10.63265,2.10938 l -10.14693,0 -1.02906,-12.42188 c -0.56599,-6.83203 -2.19849,-27.29296 -3.62777,-45.46874 -1.42927,-18.175786 -2.8599,-33.04688 -3.17916,-33.04688 -0.31926,0 -4.27444,18.457031 -8.7893,41.01563 -4.51485,22.55859 -8.62883,43.01953 -9.14216,45.46874 l -0.93334,4.45313 -11.64106,0 c -10.47952,0 -11.63641,-0.16371 -11.5944,-1.64063 z m 81.51583,0.51399 c 0,-1.48132 29.86179,-159.1407897 30.46164,-160.826485 0.54389,-1.5284408 46.81198,-1.6850122 50.80545,-0.1719259 3.96065,1.5006483 6.76708,4.5560976 7.8381,8.5336129 0.82751,3.073094 -0.78935,12.85979 -11.78129,71.31106 -9.23972,49.133598 -13.31984,68.906018 -14.84912,71.959518 -1.44895,2.89306 -3.53535,5.09296 -6.6685,7.03125 l -4.55979,2.82086 -25.62325,0.28948 c -20.73777,0.23428 -25.62324,0.0537 -25.62324,-0.94737 z m 40.47635,-17.1291 c 2.22341,-1.51085 3.92286,-3.71478 4.8796,-6.32813 C 814.73257,138.01871 834.375,35.176474 834.375,31.259578 834.375,25.520084 829.86588,22.5 821.29656,22.5 c -3.11936,0 -5.67156,0.231473 -5.67156,0.514383 0,0.282911 -5.07131,27.810255 -11.26958,61.171875 -6.19827,33.361622 -11.51866,62.028582 -11.82309,63.704362 l -0.5535,3.04688 6.4492,0 c 5.31547,0 7.04896,-0.40754 9.86082,-2.31824 z m 43.21398,16.86581 c -3.77974,-1.64316 -6.80722,-6.47027 -6.81182,-10.86101 -0.004,-3.76164 21.81113,-130.264204 23.58751,-136.780666 C 869.72494,12.53734 875.635,6.4731319 880.89002,4.9029721 883.4022,4.1523494 891.50984,3.75 904.12326,3.75 c 20.43199,0 23.60081,0.5243507 27.13188,4.4895666 4.10471,4.6093774 4.05278,5.0340614 -9.24434,75.6005074 -6.90531,36.645776 -12.9963,68.158036 -13.53553,70.027276 -1.24366,4.31113 -8.03889,10.66334 -12.83024,11.99375 -5.58556,1.55095 -40.39162,1.25445 -44.1422,-0.37603 z m 32.56281,-17.83183 c 1.47022,-1.40856 3.11763,-3.67161 3.66091,-5.029 1.39971,-3.49715 19.96993,-106.694426 20.00234,-111.155705 0.0216,-2.971869 -0.54685,-4.200264 -2.92834,-6.328125 -1.7181,-1.535117 -4.02816,-2.638943 -5.51847,-2.636906 -3.46683,0.0048 -8.25817,3.068214 -9.96696,6.372631 -2.03978,3.944509 -21.44318,113.149995 -20.70301,116.519955 0.87105,3.96586 3.84918,5.75584 8.72477,5.24396 2.74469,-0.28816 4.9197,-1.25363 6.72876,-2.98681 z"
       id="path3350"
       inkscape:connector-curvature="0" />
    <path
       style="fill:#030303"
       d="m 0,207.1875 0,-26.25 457.03125,0 457.03125,0 0,26.25 0,26.25 -457.03125,0 -457.03125,0 0,-26.25 z m 23.4375,14.59352 c 0,-1.65395 -0.580851,-2.36307 -2.111759,-2.57813 -2.032551,-0.28551 -2.082227,-0.51642 -1.324399,-6.15602 0.761399,-5.66617 0.877399,-5.85937 3.518009,-5.85937 2.105649,0 2.730649,-0.42916 2.730649,-1.875 0,-1.39552 -0.625,-1.875 -2.444052,-1.875 -1.686116,0 -2.290969,-0.39893 -1.950417,-1.28639 0.271499,-0.70751 0.786411,-3.23876 1.144249,-5.625 0.600959,-4.00749 0.857143,-4.33861 3.356668,-4.33861 2.261456,0 2.706052,-0.38507 2.706052,-2.34375 0,-2.18323 -0.316712,-2.34375 -4.624324,-2.34375 -5.424069,0 -4.574354,-1.82737 -8.500676,18.28125 -1.610859,8.25 -3.142027,15.73828 -3.402593,16.64062 -0.414176,1.4343 0.241627,1.64063 5.214417,1.64063 5.400987,0 5.688176,-0.11519 5.688176,-2.28148 z m 40.22027,-2.38434 c 0.550351,-2.56621 1.296625,-6.46855 1.658386,-8.67188 0.586037,-3.5693 0.730747,-3.75053 1.327345,-1.6623 0.368279,1.28906 0.717412,4.24219 0.775851,6.5625 0.165898,6.58706 0.92718,8.4375 3.47124,8.4375 1.228924,0 2.23758,-0.10547 2.241456,-0.23438 0.0038,-0.1289 1.480141,-7.82812 3.280587,-17.10937 1.800448,-9.28125 3.273838,-17.40234 3.274203,-18.04688 3.77e-4,-0.66702 -1.165254,-1.17187 -2.705684,-1.17187 -2.604902,0 -2.748574,0.23721 -3.832916,6.32812 -1.845485,10.36639 -2.230408,10.61477 -3.268961,2.10938 -0.942599,-7.71956 -1.053646,-7.97802 -3.551152,-8.26539 -1.417969,-0.16316 -2.579716,-0.16316 -2.581659,0 -0.0019,0.16315 -1.476916,8.10133 -3.277716,17.64039 -1.8008,9.53906 -3.275771,17.66016 -3.277716,18.04687 -0.002,0.38672 1.227133,0.70313 2.731281,0.70313 2.521045,0 2.813031,-0.36471 3.735455,-4.66582 z m 53.04435,-11.50606 c 2.37441,-13.336 3.04568,-15.70312 4.45312,-15.70312 1.14274,0 1.65726,-0.72765 1.65726,-2.34375 0,-2.23442 -0.25729,-2.34375 -5.51571,-2.34375 -5.13895,0 -5.54631,0.1601 -5.96374,2.34375 -0.30044,1.57163 -0.0276,2.34375 0.8282,2.34375 1.66993,0 1.65869,0.16177 -1.07148,15.42037 -2.99036,16.71266 -2.99122,16.65413 0.23836,16.28252 2.56901,-0.29559 2.588,-0.35215 5.37399,-15.99977 z m 45.48538,15.31106 c 0,-0.47346 0.25607,-1.52815 0.56905,-2.34375 0.43303,-1.12843 -0.041,-1.48293 -1.98302,-1.48293 l -2.55208,0 0.67047,-5.39063 c 0.81176,-6.52676 0.95921,-6.79687 3.71032,-6.79687 1.39063,0 2.35648,-0.67842 2.6694,-1.875 0.40309,-1.54142 0.0288,-1.875 -2.104,-1.875 l -2.59433,0 1.07478,-5.39063 c 0.96646,-4.84737 1.33123,-5.42052 3.61959,-5.68726 1.39965,-0.16316 2.54482,-0.656 2.54482,-1.0952 0,-0.43921 0.25607,-1.46588 0.56905,-2.28148 0.47721,-1.24358 -0.27937,-1.48293 -4.6875,-1.48293 -2.89111,0 -5.25685,0.10547 -5.25722,0.23437 -3.5e-4,0.12891 -1.47375,7.82813 -3.2742,17.10938 -1.80045,9.28125 -3.27671,17.40234 -3.28058,18.04687 -0.005,0.79632 1.64544,1.17188 5.1492,1.17188 2.83594,0 5.15625,-0.38738 5.15625,-0.86082 z m 41.21493,-7.34231 c 1.15789,-6.53133 1.65164,-7.73437 3.1743,-7.73437 1.91486,0 1.91739,0.42322 0.0715,11.95312 -0.61453,3.83851 -0.54769,3.98438 1.82569,3.98438 1.35497,0 2.46357,-0.17382 2.46357,-0.38628 0,-0.21245 0.6293,-3.67534 1.39845,-7.6953 0.89028,-4.6531 1.07247,-7.635 0.50136,-8.2061 -0.57109,-0.5711 -0.40402,-1.26662 0.45977,-1.91407 1.92591,-1.44353 4.49635,-15.47133 3.13542,-17.11113 -0.6615,-0.79704 -3.15745,-1.24962 -6.89159,-1.24962 l -5.85448,0 -3.02904,16.17187 c -1.66597,8.89454 -3.25262,17.15434 -3.52589,18.35512 -0.44186,1.94157 -0.19818,2.14913 2.20144,1.875 2.59874,-0.29687 2.74888,-0.5936 4.06947,-8.04262 z m 3.33553,-17.34375 c 0.78266,-5.80221 1.02943,-6.32812 2.9694,-6.32812 1.23123,0 1.36618,0.79543 0.82594,4.86802 -0.75358,5.6807 -1.08547,6.38198 -3.02035,6.38198 -1.19511,0 -1.32642,-0.83387 -0.77499,-4.92188 z m 47.77666,9.375 c 2.3744,-13.336 3.04568,-15.70312 4.45312,-15.70312 1.14274,0 1.65726,-0.72765 1.65726,-2.34375 0,-2.23442 -0.25729,-2.34375 -5.51571,-2.34375 -5.13895,0 -5.54631,0.1601 -5.96374,2.34375 -0.30044,1.57163 -0.0276,2.34375 0.8282,2.34375 1.68938,0 1.65563,0.48109 -1.05858,15.08962 -3.05271,16.43037 -3.04512,16.9896 0.22545,16.61327 2.56902,-0.29559 2.58801,-0.35215 5.374,-15.99976 z m 42.55121,11.71875 c 0.99311,-2.73525 1.99174,-3.98437 3.18535,-3.98437 1.52941,0 1.66256,0.50783 1.10607,4.21875 l -0.63265,4.21875 3.28817,0 3.28818,0 0.55559,-8.20313 c 0.30558,-4.51171 0.82263,-12.73828 1.14901,-18.28125 l 0.59342,-10.07812 -3.2795,0 c -2.70369,0 -3.45979,0.45265 -4.30637,2.57812 -1.80468,4.53099 -12.3256,33.30788 -12.3256,33.7131 0,0.21454 1.33463,0.25788 2.96585,0.0963 2.54036,-0.25163 3.17338,-0.86536 4.41248,-4.27814 z m 4.11647,-11.01482 c 0.55374,-1.80425 1.18721,-3.10004 1.40771,-2.87953 0.66135,0.66135 -0.80191,6.15998 -1.63924,6.15998 -0.4264,0 -0.32221,-1.47621 0.23153,-3.28045 z m 45.58027,-0.70393 c 1.67736,-8.89453 3.27834,-17.12109 3.55772,-18.28125 0.43738,-1.81625 0.13333,-2.10937 -2.18803,-2.10937 l -2.696,0 -2.08974,11.48437 c -1.14935,6.31641 -2.67507,14.54297 -3.39047,18.28125 l -1.30072,6.79688 2.52874,0 2.52873,0 3.04977,-16.17188 z m 40.8625,6.32813 c 1.03832,-5.15625 1.97663,-8.32031 2.08514,-7.03125 0.10851,1.28906 0.46504,5.61328 0.79228,9.60937 0.5852,7.14614 0.63714,7.26563 3.15863,7.26563 2.54291,0 2.5801,-0.0929 4.59886,-11.48438 1.11938,-6.3164 2.62739,-14.56637 3.35113,-18.33326 l 1.31588,-6.84888 -2.9003,0.28638 c -2.85474,0.28189 -2.92403,0.41157 -4.4105,8.25514 -1.65555,8.73568 -1.63423,8.76128 -3.36148,-4.03563 -0.5642,-4.18007 -0.78464,-4.48382 -3.06164,-4.21875 -2.39295,0.27856 -2.52485,0.65684 -5.33027,15.28563 -1.58213,8.25 -3.16353,16.39743 -3.51422,18.1054 -0.6247,3.04249 -0.57657,3.09946 2.37551,2.8125 l 3.01313,-0.2929 1.88785,-9.375 z m 51.42477,7.73437 c 0.2767,-1.16015 0.79299,-4.11846 1.1473,-6.57403 1.01818,-7.05649 2.30286,-6.16569 2.30286,1.59683 0,6.47638 0.16247,7.08658 1.88682,7.08658 1.40085,0 2.48918,-1.38842 4.22551,-5.39063 4.08414,-9.41386 4.28791,-9.63346 3.6971,-3.98437 -0.29659,2.83594 -0.78069,6.13871 -1.07576,7.33949 -0.47894,1.94895 -0.24695,2.15017 2.16179,1.875 l 2.69829,-0.30824 2.48499,-14.53125 c 1.36676,-7.99219 2.74283,-16.11328 3.05796,-18.04688 0.56669,-3.47718 0.5386,-3.51562 -2.56924,-3.51562 -3.09086,0 -3.20972,0.15682 -7.27669,9.60043 l -4.13452,9.60042 -0.83097,-9.60042 -0.83096,-9.60043 -3.15342,0 c -1.73437,0 -3.1534,0.24024 -3.1534,0.53388 0,0.57884 -5.28533,29.23003 -6.17066,33.45049 -0.49408,2.35536 -0.30014,2.57813 2.24454,2.57813 2.11445,0 2.90654,-0.50809 3.28846,-2.10938 z m 62.51266,1.24856 c 0,-0.47346 0.25607,-1.52815 0.56905,-2.34375 0.44011,-1.14692 -0.0613,-1.48293 -2.21289,-1.48293 l -2.78195,0 1.04357,-5.85938 c 0.94825,-5.32412 1.27013,-5.88563 3.52368,-6.14681 3.46421,-0.40148 4.41259,-3.93131 1.05624,-3.93131 -2.32177,0 -2.36182,-0.11262 -1.731,-4.86802 0.7969,-6.00723 1.02413,-6.38198 3.86988,-6.38198 1.25863,0 2.28842,-0.38738 2.28842,-0.86082 0,-0.47346 0.25607,-1.52815 0.56905,-2.34375 0.47626,-1.24112 -0.26911,-1.48293 -4.57102,-1.48293 l -5.14007,0 -3.39774,17.32163 c -1.86874,9.5269 -3.39772,17.75346 -3.39772,18.28125 0,0.53818 2.26451,0.95962 5.15625,0.95962 2.83594,0 5.15625,-0.38738 5.15625,-0.86082 z m 43.72727,-8.74856 1.89761,-9.60937 0.74583,9.60937 0.74583,9.60938 2.51612,0 2.51612,0 3.06574,-16.64063 c 1.68617,-9.15234 3.27019,-17.3789 3.52004,-18.28125 0.36082,-1.30304 -0.13373,-1.64062 -2.40352,-1.64062 -3.16431,0 -3.04167,-0.2604 -5.07765,10.78125 l -1.21006,6.5625 -0.71774,-6.5625 c -1.12131,-10.25257 -1.38435,-10.92635 -4.13745,-10.5981 -2.32908,0.2777 -2.48124,0.73974 -5.49671,16.69185 -3.82493,20.23413 -3.81118,19.6875 -0.49535,19.6875 2.59173,0 2.66374,-0.15271 4.53119,-9.60938 z m 49.83223,4.21875 c 0.52103,-2.96484 1.72493,-9.99251 2.67533,-15.61703 1.36097,-8.05431 2.0771,-10.3177 3.37158,-10.65621 0.98649,-0.25798 1.64359,-1.32312 1.64359,-2.66422 0,-2.10594 -0.3234,-2.23441 -5.625,-2.23441 -5.375,0 -5.625,0.10417 -5.625,2.34375 0,1.35261 0.53989,2.34375 1.27668,2.34375 1.0196,0 0.73681,3.06749 -1.40451,15.23437 -1.47464,8.37891 -2.68195,15.55079 -2.68292,15.9375 -9.3e-4,0.38672 1.2188,0.70313 2.71058,0.70313 2.56713,0 2.76305,-0.28858 3.65967,-5.39063 z m 81.0006,2.76803 c 0.52774,-0.52774 1.53191,-3.42182 2.23148,-6.43129 l 1.27196,-5.47175 -3.67636,-6.18823 c -3.01935,-5.08231 -3.54709,-6.67446 -2.95303,-8.90905 0.47839,-1.7995 1.42367,-2.82325 2.79155,-3.02329 1.92404,-0.28137 2.02567,-0.0363 1.45769,3.51563 -0.58037,3.62946 -0.49211,3.81808 1.78657,3.81808 2.15007,0 2.50714,-0.52999 3.46474,-5.14276 0.5872,-2.82852 0.80314,-5.57071 0.47988,-6.09375 -0.32326,-0.52304 -3.29018,-0.95099 -6.59317,-0.95099 -6.84079,0 -7.55934,0.66433 -8.552,7.90657 -0.51221,3.73697 -0.18163,4.90109 2.82525,9.94875 4.42321,7.42528 4.59495,14.01968 0.36511,14.01968 -1.71908,0 -1.84567,-0.41189 -1.31547,-4.2801 0.58002,-4.23178 0.55765,-4.27676 -1.98195,-3.98438 -2.31815,0.26689 -2.6522,0.78872 -3.42592,5.35181 -0.75863,4.47399 -0.6507,5.21098 0.9375,6.4017 1.98185,1.48586 9.23805,1.1615 10.88617,-0.48663 z m 37.73167,0.83171 c 0.29008,-0.46936 1.20937,-4.16076 2.04286,-8.20312 1.1495,-5.5749 2.84662,-9.65832 7.02791,-16.90973 3.03185,-5.25799 5.51246,-9.81987 5.51246,-10.13752 0,-0.31765 -1.37109,-0.44534 -3.04688,-0.28377 -2.65278,0.25578 -3.41065,0.99067 -5.85937,5.68173 -1.54688,2.96337 -3.12891,5.38916 -3.51563,5.39063 -0.38671,0.001 -0.70312,-2.52858 -0.70312,-5.62233 l 0,-5.625 -3.29233,0 c -3.27278,0 -3.28921,0.0209 -2.76749,3.51562 1.77767,11.90774 1.93261,16.78325 0.74831,23.54751 -0.68904,3.93559 -1.05471,7.68296 -0.81258,8.32749 0.50824,1.35288 3.88415,1.58332 4.66586,0.31849 z m 51.0413,-0.78724 c 1.22596,-1.0167 2.33073,-3.53837 2.90506,-6.6309 0.97809,-5.2666 0.34516,-7.44823 -3.92127,-13.51595 -1.20119,-1.70834 -1.70852,-3.74944 -1.51463,-6.09375 0.23999,-2.9019 0.68791,-3.58105 2.53393,-3.84204 2.13143,-0.30132 2.21207,-0.12733 1.62955,3.51563 -0.57952,3.62408 -0.4857,3.83264 1.7241,3.83264 2.55689,0 3.51495,-2.17343 3.68611,-8.36214 l 0.0928,-3.35661 -6.27289,-0.27595 c -7.16195,-0.31506 -7.62215,0.0797 -8.73339,7.49065 -0.60234,4.017 -0.34813,4.91574 2.90495,10.2709 1.96078,3.22779 3.50055,6.73117 3.42174,7.7853 -0.32471,4.34289 -1.23462,6.13535 -3.11446,6.13535 -1.73786,0 -1.85619,-0.38941 -1.28195,-4.21875 0.6068,-4.0462 0.53656,-4.21875 -1.71722,-4.21875 -2.6294,0 -3.06282,0.74326 -3.97309,6.81346 -0.5322,3.54895 -0.35335,4.40491 1.09645,5.2476 2.68247,1.55915 8.33171,1.24988 10.53421,-0.57669 z m 35.69176,-0.46875 c 0.4728,-1.16015 1.76537,-7.59375 2.87239,-14.29687 2.46291,-14.91329 2.61195,-15.46875 4.15041,-15.46875 0.67859,0 1.43898,-1.07339 1.68977,-2.38532 0.45264,-2.36783 0.41394,-2.38329 -5.28134,-2.10937 -5.13711,0.24707 -5.76865,0.49661 -6.03689,2.38531 -0.19096,1.34457 0.18696,2.10938 1.0423,2.10938 1.10923,0 0.87702,2.64131 -1.3393,15.23437 -1.47464,8.37891 -2.68195,15.55079 -2.68292,15.9375 -9.3e-4,0.38672 1.06198,0.70313 2.3621,0.70313 1.57169,0 2.65192,-0.70688 3.22348,-2.10938 z m 43.92806,-0.9375 c 0.25748,-2.23765 -0.0309,-2.57812 -2.18386,-2.57812 -2.29551,0 -2.43616,-0.22723 -1.8858,-3.04688 0.3271,-1.67578 0.81045,-4.1817 1.07413,-5.56872 0.35878,-1.88732 1.11244,-2.59498 2.99539,-2.8125 1.78352,-0.20603 2.60322,-0.90475 2.81558,-2.40003 0.24398,-1.71795 -0.14743,-2.10937 -2.10938,-2.10937 -1.32492,0 -2.40895,-0.19017 -2.40895,-0.42261 0,-0.23243 0.45143,-2.52757 1.00319,-5.10031 0.87348,-4.07292 1.32804,-4.71525 3.51563,-4.96802 1.77994,-0.20567 2.59977,-0.90529 2.81201,-2.39969 0.27876,-1.96278 -0.0503,-2.10937 -4.73403,-2.10937 l -5.03362,0 -3.35808,17.57812 c -1.84694,9.66797 -3.15939,17.91527 -2.91653,18.32734 0.24285,0.41207 2.61868,0.62301 5.27962,0.46875 4.49997,-0.26086 4.85879,-0.46063 5.1347,-2.85859 z m 35.8759,-5.39062 1.48503,-7.96875 0.7085,8.20312 c 0.51093,5.91566 1.06174,8.20313 1.97526,8.20313 1.60662,0 2.10985,-0.80479 5.86221,-9.375 2.3083,-5.27202 2.96153,-6.21027 2.61083,-3.75 -1.84821,12.96593 -1.84453,13.125 0.3037,13.125 2.76353,0 3.37183,-1.87123 6.14617,-18.90622 3.0464,-18.70561 3.07648,-17.84208 -0.60879,-17.4813 -2.81595,0.27568 -3.2334,0.82795 -6.77682,8.96564 -2.07681,4.76954 -4.10145,8.67188 -4.4992,8.67188 -0.39775,0 -0.72318,-4.03327 -0.72318,-8.96285 l 0,-8.96283 -3.48159,0.29096 -3.4816,0.29097 -3.04511,15.9375 c -3.85106,20.15564 -3.85672,20.36594 -0.53858,19.98414 2.44937,-0.28183 2.6523,-0.69462 4.06317,-8.26539 z"
       id="path3348"
       inkscape:connector-curvature="0" />
  </g>
</svg>
