<?xml version="1.0" encoding="UTF-8" standalone="no"?>
<!-- Created with Inkscape (http://www.inkscape.org/) -->

<svg
   xmlns:dc="http://purl.org/dc/elements/1.1/"
   xmlns:cc="http://creativecommons.org/ns#"
   xmlns:rdf="http://www.w3.org/1999/02/22-rdf-syntax-ns#"
   xmlns:svg="http://www.w3.org/2000/svg"
   xmlns="http://www.w3.org/2000/svg"
   xmlns:sodipodi="http://sodipodi.sourceforge.net/DTD/sodipodi-0.dtd"
   xmlns:inkscape="http://www.inkscape.org/namespaces/inkscape"
   id="svg3381"
   version="1.1"
   inkscape:version="0.91 r13725"
   width="1069.6875"
   height="306.5625"
   viewBox="0 0 1069.6875 306.5625"
   sodipodi:docname="logo.svg">
  <metadata
     id="metadata3387">
    <rdf:RDF>
      <cc:Work
         rdf:about="">
        <dc:format>image/svg+xml</dc:format>
        <dc:type
           rdf:resource="http://purl.org/dc/dcmitype/StillImage" />
        <dc:title></dc:title>
      </cc:Work>
    </rdf:RDF>
  </metadata>
  <defs
     id="defs3385" />
  <sodipodi:namedview
     pagecolor="#ffffff"
     bordercolor="#666666"
     borderopacity="1"
     objecttolerance="10"
     gridtolerance="10"
     guidetolerance="10"
     inkscape:pageopacity="0"
     inkscape:pageshadow="2"
     inkscape:window-width="1366"
     inkscape:window-height="721"
     id="namedview3383"
     showgrid="false"
     inkscape:zoom="0.27484663"
     inkscape:cx="534.84375"
     inkscape:cy="153.28125"
     inkscape:window-x="-4"
     inkscape:window-y="-4"
     inkscape:window-maximized="1"
     inkscape:current-layer="svg3381" />
  <g
     id="g3391"
     transform="translate(5.1739109e-5,-1.6e-4)">
    <path
       style="fill:#fc1d11"
       d="m 318.08037,288.09277 c -1.99237,-0.38573 -1.91695,-0.62377 1.875,-5.91778 7.85546,-10.96712 41.4411,-58.76943 52.35646,-74.51874 2.85892,-4.125 10.52025,-15.09375 17.0252,-24.375 30.38758,-43.35698 40.56025,-57.57962 41.20984,-57.61642 0.38672,-0.0219 0.70313,29.49142 0.70313,65.58517 0,36.09375 0.36015,65.625 0.80032,65.625 0.74336,0 7.71272,-9.75906 60.25585,-84.375 10.71125,-15.21094 20.70463,-29.34375 22.20749,-31.40625 1.50287,-2.0625 4.68804,-6.47113 7.07816,-9.79695 l 4.34568,-6.04696 0,81.15866 0,81.15867 -3.51563,0.5811 c -3.88116,0.64152 -201.0178,0.58797 -204.3415,-0.0555 z M 4.0308756,233.20312 c 0.831503,-2.0238 35.7125934,-59.51911 37.7883164,-62.28735 l 1.975441,-2.63452 32.477684,-0.2516 c 25.718313,-0.19923 32.488763,-0.004 32.530923,0.9375 0.0293,0.65401 0.007,5.93519 -0.0496,11.73597 -0.0565,5.80079 0.2359,10.51305 0.64988,10.47169 0.41399,-0.0413 3.07302,-4.71658 5.90896,-10.3894 2.83594,-5.67281 5.74765,-10.80695 6.47049,-11.40919 1.76809,-1.47311 58.19701,-2.12875 58.25962,-0.6769 0.0234,0.5435 0.0621,4.67959 0.0858,9.1913 l 0.0431,8.20313 -20.56828,0.25193 -20.56826,0.25193 -1.07999,2.37031 c -0.59399,1.30367 -1.07998,2.56903 -1.07998,2.81191 0,0.24289 9.98941,0.3285 22.19868,0.19026 l 22.19868,-0.25134 0.65332,-2.34375 c 0.35934,-1.28906 2.92071,-6.32625 5.69195,-11.19374 4.26085,-7.48389 5.50132,-8.96937 8.03618,-9.6234 1.64866,-0.42538 15.57054,-0.66163 30.9375,-0.52501 l 27.93994,0.2484 0.26832,9.14062 0.26832,9.14063 -22.41849,0 -22.4185,0 -1.99046,4.62692 c -1.63022,3.78955 -1.99044,6.50422 -1.99044,15 l 0,10.37308 13.59375,0 13.59375,0 0,-2.8125 0,-2.8125 -7.03125,0 c -4.15433,0 -7.03125,-0.39126 -7.03125,-0.95623 0,-0.52593 1.90267,-4.74468 4.22816,-9.375 l 4.22816,-8.41877 14.99059,0 c 11.26406,0 15.0388,0.29132 15.18449,1.17187 0.10665,0.64454 0.42306,-4.73437 0.70313,-11.95312 l 0.50922,-13.125 20.76251,0 c 24.21366,0 21.71295,-0.99623 30.59257,12.1875 3.1256,4.64062 7.00756,10.33594 8.62659,12.65625 2.95258,4.23149 8.54355,12.32954 18.77051,27.1875 3.01676,4.38281 6.51531,9.33984 7.77456,11.01562 l 2.28955,3.04688 -14.87689,-0.0144 -14.8769,-0.0145 -4.21875,-6.06485 -4.21875,-6.06485 -11.95313,-0.0144 c -7.33411,-0.009 -11.95312,-0.37675 -11.95312,-0.95197 0,-0.51563 -0.42188,-0.9375 -0.9375,-0.9375 -0.54167,0 -0.9375,2.96875 -0.9375,7.03125 l 0,7.03125 -12.65625,0 -12.65625,0 -0.10875,-3.04688 c -0.0714,-2.00029 -0.26707,-2.40283 -0.56963,-1.17187 -1.05161,4.27822 -0.51375,4.21875 -38.15516,4.21875 -37.5766,0 -38.00879,-0.0473 -38.06997,-4.17188 -0.0266,-1.797 -0.0926,-1.81157 -1.01595,-0.2243 -0.54309,0.93366 -0.75444,2.30475 -0.46967,3.04687 0.44641,1.16331 -6.13371,1.34931 -47.73404,1.34931 l -48.25183,0 -0.02981,-19.92188 c -0.02692,-17.98619 -0.16758,-19.73969 -1.447679,-18.04687 -0.779824,1.03125 -6.300478,9.99609 -12.268117,19.92187 l -10.850258,18.04688 -12.921962,0 -12.921963,0 13.969895,-23.18477 C 55.588547,198.4386 61.875,187.68079 61.875,187.28398 c 0,-0.39681 -1.029443,-0.72148 -2.287651,-0.72148 -1.966322,0 -3.634101,2.27154 -11.873495,16.17187 -5.272215,8.89454 -11.662059,19.65235 -14.199655,23.90625 l -4.613811,7.73438 -12.675496,0 c -9.7721859,0 -12.5652136,-0.26842 -12.1940164,-1.17188 z M 181.875,206.19467 c 0,-5.64145 -0.38118,-10.25717 -0.84706,-10.25717 -0.46587,0 -2.43084,3.375 -4.36658,7.5 l -3.51954,7.5 -19.13318,0 -19.13318,0 0.29665,2.57812 0.29664,2.57813 22.5,0.46875 c 12.375,0.25781 22.81641,0.33838 23.20313,0.17904 0.38671,-0.15933 0.70312,-4.90543 0.70312,-10.54687 z m 114.375,-3.25603 c 0,-0.77384 -10.34107,-15.34564 -11.31927,-15.95021 -0.50823,-0.3141 -0.86823,2.98481 -0.86823,7.95624 l 0,8.49283 6.09375,0 c 3.35156,0 6.09375,-0.22448 6.09375,-0.49886 z"
       id="path3397"
       inkscape:connector-curvature="0" />
    <path
       style="fill:#016e1d"
       d="m 552.8084,265.54687 c -0.79269,-29.81801 -0.79431,-87.33179 -0.004,-116.29279 l 0.61761,-22.61204 16.49176,-0.27415 c 9.07046,-0.15077 21.08013,-0.15386 26.68814,-0.007 l 10.19638,0.26729 -0.39914,80.18627 c -0.34213,68.7337 -0.59333,80.30913 -1.75888,81.04648 -0.74785,0.47311 -12.57734,0.86667 -26.28775,0.87457 l -24.92754,0.0141 -0.61683,-23.20313 z m 63.1291,-3.73402 0,-27.2218 5.39062,-0.66338 c 2.96485,-0.36485 7.37925,-1.51353 9.80978,-2.5526 5.35975,-2.29135 11.99237,-9.15345 14.64625,-15.153 l 1.95552,-4.42079 30.58476,0.27123 c 20.26659,0.17973 30.86575,0.60977 31.41769,1.27471 1.1498,1.38521 -0.59337,11.52421 -3.45407,20.09028 -2.40049,7.18801 -10.0642,21.43186 -12.257,22.78096 -0.6702,0.41234 -1.21855,1.19402 -1.21855,1.73707 0,1.444 -10.89058,11.59348 -16.875,15.72666 -7.29917,5.04122 -15.15126,8.82507 -24.375,11.74609 -6.57611,2.08255 -10.38539,2.6182 -21.79688,3.06499 l -13.82812,0.54139 0,-27.22181 z m 110.625,-60.73157 0,-34.23122 31.64062,0.24685 31.64063,0.24684 7.70344,15.46875 c 4.23689,8.50781 7.71736,16.441 7.73437,17.6293 0.017,1.18831 -3.34864,9.11065 -7.47924,17.6052 -5.92484,12.18439 -8.01567,15.63684 -9.90478,16.35507 -1.36457,0.51881 -15.07119,0.91043 -31.86482,0.91043 l -29.47022,0 0,-34.23122 z m 49.27208,8.39803 c 1.77536,-3.89575 3.22792,-7.85089 3.22792,-8.78921 0,-0.93831 -1.46591,-4.92275 -3.25758,-8.85431 l -3.25759,-7.14829 -10.33616,0 -10.33617,0 0,15.9375 0,15.9375 10.36583,0 10.36585,0 3.2279,-7.08319 z m 31.35292,-8.39854 0,-34.23175 30.16912,0.24737 30.1691,0.24736 2.42967,4.21875 c 5.11337,8.87857 9.61737,19.70945 9.08244,21.84076 -0.29295,1.16721 -3.07766,5.06256 -6.18825,8.65634 -3.11059,3.59378 -5.65707,6.90641 -5.65885,7.3614 -0.002,0.45498 2.84443,5.93707 6.32489,12.18242 l 6.32813,11.35518 0.46875,-32.80743 0.46875,-32.80742 12.90234,-0.26091 12.90236,-0.2609 -0.24611,34.0109 -0.24609,34.01091 -25.65646,0 -25.65646,0 -9.65646,-15.9375 c -13.91162,-22.96042 -12.5337,-22.78074 -12.58261,-1.64063 l -0.0418,18.04688 -12.65625,0 -12.65625,0 0,-34.23173 z m 43.59355,-6.46592 c 2.34045,-3.0685 2.38218,-3.33358 1.03304,-6.5625 l -1.40592,-3.36485 -8.95408,0 -8.95409,0 0,6.5625 0,6.5625 7.92104,0 c 7.91146,0 7.92399,-0.004 10.36001,-3.19765 z m 75.00661,30.61952 C 911.5545,203.13567 909.61527,200.07908 908.57795,198.10851 907.89931,196.81932 907.5,190.64521 907.5,181.44142 l 0,-14.61933 12.89062,0.26083 12.89063,0.26083 0.46875,11.71875 0.46875,11.71875 7.77947,11.25 c 4.27875,6.1875 8.07562,11.3404 8.4375,11.45089 0.36187,0.11049 4.34944,-5.24532 8.86115,-11.90182 l 8.20313,-12.10271 0,-11.3013 0,-11.30131 13.20563,0 13.20571,0 -0.32643,15.23437 -0.32644,15.23438 -4.49944,7.03125 c -11.55937,18.06371 -18.08512,28.02976 -19.2644,29.42032 -1.10288,1.30036 -3.85407,1.51718 -19.25129,1.51718 l -17.96463,0 -6.49105,-10.07813 z m 69.27793,8.77376 c -0.27525,-0.71741 -0.3675,-11.58069 -0.20493,-24.14063 l 0.29559,-22.83625 5.62495,-9.84375 5.625,-9.84375 29.7657,-0.24755 29.7656,-0.24753 0,8.91941 0,8.91942 -20.592,0 c -19.3992,0 -20.6482,0.10504 -21.5625,1.81337 -2.5475,4.75987 -2.594,4.74913 20.592,4.74913 l 21.5625,0 0,3.2635 c 0,1.79492 -1.3522,6.00553 -3.0048,9.35692 l -3.0048,6.09341 -19.7296,0.25246 -19.7296,0.25246 0,2.8125 0,2.8125 22.7344,0.25104 22.7344,0.25105 0,9.35833 0,9.35833 -35.1857,0 c -29.1899,0 -35.27089,-0.22227 -35.68621,-1.30437 z M 646.92516,203.53121 c -1.30343,-2.43545 -1.14666,-2.47867 22.91859,-6.31744 34.01954,-5.42665 38.21798,-6.02704 38.70943,-5.5356 0.25891,0.25891 0.82402,2.69428 1.25581,5.41192 1.41278,8.89199 3.94448,8.22241 -31.08918,8.22241 -29.34099,0 -30.88772,-0.0866 -31.79465,-1.78129 z M 644.6875,196.25 c -1.92868,-1.92868 -1.21889,-2.30131 34.6621,-18.1977 10.38446,-4.60064 19.3422,-8.3648 19.90607,-8.3648 1.14535,0 5.74433,8.54844 5.74433,10.67737 0,1.69485 -0.47222,1.84355 -31.46523,9.90823 -25.64666,6.67351 -27.7209,7.10327 -28.84727,5.9769 z m -4.69326,-6.35216 c -0.71124,-1.85343 1.29934,-4.22891 8.81449,-10.41421 8.79374,-7.23762 14.72493,-12.21467 18.22252,-15.29107 1.54687,-1.36059 4.92187,-4.11254 7.5,-6.11544 2.57812,-2.00289 5.10937,-4.14883 5.625,-4.76874 0.51562,-0.61991 1.88518,-1.63191 3.04345,-2.2489 1.90878,-1.01676 2.49978,-0.70195 6.31225,3.36249 2.31346,2.46636 4.21343,4.98171 4.22217,5.58968 0.0157,1.08929 -9.1174,6.70501 -35.38207,21.75569 -15.68193,8.98635 -17.68839,9.87499 -18.35781,8.1305 z m -6.69441,-5.18027 c -0.83241,-1.34686 1.58542,-5.58488 11.51647,-20.18632 16.10785,-23.68311 19.04589,-27.65625 20.45108,-27.65625 1.67873,0 6.79553,2.51917 8.95299,4.40787 1.45693,1.27541 1.44266,1.57289 -0.20805,4.34007 -2.08495,3.4951 -35.39066,37.4608 -38.21515,38.97241 -1.22959,0.65806 -2.13867,0.70255 -2.49734,0.12222 z m -7.00929,-2.80788 c -1.70902,-1.06828 -0.92728,-4.31596 8.07147,-33.53255 4.98225,-16.17606 6.73404,-20.75707 7.82549,-20.46401 12.03246,3.23078 12.30552,3.35911 11.67593,5.48704 -0.82501,2.78844 -22.64721,44.6871 -24.63314,47.29566 -1.1182,1.46878 -1.96954,1.82032 -2.93975,1.21386 z m -9.85028,-3.5142 c -0.69032,-2.75043 -0.51263,-37.63654 0.23654,-46.44237 l 0.45862,-5.39062 7.03162,0 7.03163,0 -0.53748,4.53817 c -0.77811,6.5699 -9.15894,46.25691 -10.17776,48.1962 -1.28186,2.44002 -3.31849,1.98597 -4.04317,-0.90138 z M 414.14062,110.00411 c 0.64454,-0.26007 1.69922,-0.26007 2.34375,0 0.64454,0.26007 0.11719,0.47287 -1.17187,0.47287 -1.28906,0 -1.81641,-0.2128 -1.17188,-0.47287 z m 59.55078,0.0545 c 0.31152,-0.31152 1.12012,-0.34482 1.79688,-0.074 0.74787,0.29927 0.52573,0.52142 -0.56641,0.5664 -0.98827,0.0407 -1.54199,-0.18086 -1.23047,-0.49239 z m 44.12998,-6.46483 c 0.004,-4.125 0.16823,-5.695884 0.36628,-3.49085 0.19803,2.20504 0.19525,5.58004 -0.007,7.5 -0.20144,1.91997 -0.36347,0.11585 -0.36007,-4.00915 z m 29.44424,6.41036 c 0.64454,-0.26007 1.69922,-0.26007 2.34375,0 0.64454,0.26007 0.11719,0.47287 -1.17187,0.47287 -1.28906,0 -1.81641,-0.2128 -1.17188,-0.47287 z m -15.23437,-7.81661 c -1.482,-1.54687 -2.48361,-2.8125 -2.22579,-2.8125 0.25781,0 1.68129,1.26563 3.16329,2.8125 1.482,1.54688 2.48361,2.8125 2.22579,2.8125 -0.25781,0 -1.68129,-1.26562 -3.16329,-2.8125 z M 587.27321,76.875 c 0,-11.085938 0.13562,-15.621094 0.30136,-10.078125 0.16575,5.542969 0.16575,14.613281 0,20.15625 -0.16574,5.542969 -0.30136,1.007812 -0.30136,-10.078125 z m -45.95603,14.765625 -1.78593,-2.109375 2.10937,1.785926 c 1.16016,0.982259 2.10938,1.931478 2.10938,2.109375 0,0.750237 -0.75449,0.196366 -2.43282,-1.785926 z m -23.4958,-5.859375 c 0.004,-4.125 0.16823,-5.69588 0.36628,-3.490844 0.19803,2.205036 0.19525,5.580036 -0.007,7.5 -0.20107,1.919964 -0.36311,0.115844 -0.35971,-4.009156 z M 443.58552,82.5 c 0,-1.289063 0.2128,-1.816406 0.47287,-1.171875 0.26007,0.644531 0.26007,1.699219 0,2.34375 -0.26007,0.644531 -0.47287,0.117187 -0.47287,-1.171875 z m 5.625,0 c 0,-1.289063 0.2128,-1.816406 0.47287,-1.171875 0.26007,0.644531 0.26007,1.699219 0,2.34375 -0.26007,0.644531 -0.47287,0.117187 -0.47287,-1.171875 z m 87.1135,-0.390625 c -0.0407,-0.988281 0.18087,-1.541992 0.49239,-1.230469 0.31152,0.311524 0.34482,1.120117 0.074,1.796875 -0.29927,0.747875 -0.52142,0.525728 -0.5664,-0.566406 z m 107.03535,-0.298474 c 2.44922,-0.193124 6.45704,-0.193124 8.90625,0 2.44922,0.193123 0.44532,0.351134 -4.45312,0.351134 -4.89844,0 -6.90234,-0.158011 -4.45313,-0.351134 z M 426.63652,80.234375 c -0.0407,-0.988281 0.18087,-1.541992 0.49239,-1.230469 0.31152,0.311524 0.34482,1.120117 0.074,1.796875 -0.29927,0.747875 -0.52142,0.525728 -0.5664,-0.566406 z M 522.59069,59.0625 c 0,-12.117188 0.1336,-17.074219 0.29691,-11.015625 0.16329,6.058594 0.16329,15.972656 0,22.03125 -0.16331,6.058594 -0.29691,1.101562 -0.29691,-11.015625 z m 17.8101,0 c 0,-11.601563 0.13458,-16.347656 0.29906,-10.546875 0.16448,5.800781 0.16448,15.292969 0,21.09375 -0.16448,5.800781 -0.29906,1.054687 -0.29906,-10.546875 z M 411.15402,76.212307 c -0.50876,-1.336123 -0.40108,-1.443808 0.52481,-0.524807 0.64071,0.635938 0.92876,1.392413 0.64011,1.681057 -0.28865,0.288645 -0.81286,-0.231667 -1.16492,-1.15625 z M 479.30264,75.9375 c 0.32003,-1.175348 2.91014,-1.41245 15.7745,-1.444008 l 15.39161,-0.03776 -14.96,0.296926 c -10.43086,0.207032 -15.20658,0.644205 -15.77449,1.444009 -0.58805,0.828159 -0.70805,0.756102 -0.43162,-0.259168 z m 78.72744,-1.607368 c 1.40874,-0.213913 3.93999,-0.218219 5.625,-0.0096 1.68502,0.208651 0.53242,0.383671 -2.56133,0.388933 -3.09375,0.0053 -4.4724,-0.165452 -3.06367,-0.379365 z M 385.78125,64.6875 c -1.482,-1.546875 -2.48361,-2.8125 -2.22579,-2.8125 0.25781,0 1.68129,1.265625 3.16329,2.8125 1.482,1.546875 2.48361,2.8125 2.22579,2.8125 -0.25781,0 -1.68129,-1.265625 -3.16329,-2.8125 z m 49.14779,-11.015625 -2.27279,-2.578125 2.57812,2.272794 c 1.41797,1.250038 2.57813,2.410194 2.57813,2.578125 0,0.735257 -0.75919,0.136852 -2.88346,-2.272794 z M 391.17392,40.78125 c -0.0104,-2.0625 0.17307,-3.016638 0.40772,-2.120305 0.23464,0.896331 0.24316,2.583831 0.0189,3.75 -0.22426,1.166167 -0.41626,0.432805 -0.42666,-1.629695 z m 87.90293,1.640625 c 0.01,-1.141333 0.23615,-1.291533 0.74314,-0.493543 0.51171,0.805421 5.18464,1.231897 15.68876,1.431837 l 14.96,0.284755 -15.70313,0.208788 c -14.4146,0.191656 -15.70194,0.07417 -15.68877,-1.431837 z m 87.40752,0.94053 c 6.0586,-0.163299 15.97266,-0.163299 22.03125,0 6.0586,0.163299 1.10157,0.296909 -11.01562,0.296909 -12.11719,0 -17.07422,-0.13361 -11.01563,-0.296909 z M 444.69638,32.34375 c 0.004,-4.125 0.16823,-5.69588 0.36628,-3.490844 0.19803,2.205036 0.19525,5.580036 -0.007,7.5 -0.20107,1.919964 -0.36311,0.115844 -0.35971,-4.009156 z m 73.125,0 c 0.004,-4.125 0.16823,-5.69588 0.36628,-3.490844 0.19803,2.205036 0.19525,5.580036 -0.007,7.5 -0.20107,1.919964 -0.36311,0.115844 -0.35971,-4.009156 z M 449.21052,35.625 c 0,-1.289063 0.2128,-1.816406 0.47287,-1.171875 0.26007,0.644531 0.26007,1.699219 0,2.34375 -0.26007,0.644531 -0.47287,0.117187 -0.47287,-1.171875 z m 95.47698,-6.09375 c 0.6419,-0.773438 1.37802,-1.40625 1.63583,-1.40625 0.25782,0 -0.0564,0.632812 -0.69833,1.40625 -0.6419,0.773438 -1.37802,1.40625 -1.63583,1.40625 -0.25782,0 0.0564,-0.632812 0.69833,-1.40625 z m -148.125,-2.8125 c 0.6419,-0.773438 1.37802,-1.40625 1.63583,-1.40625 0.25782,0 -0.0564,0.632812 -0.69833,1.40625 -0.6419,0.773437 -1.37802,1.40625 -1.63583,1.40625 -0.25782,0 0.0564,-0.632813 0.69833,-1.40625 z M 541.40625,26.25 c 0.93327,-1.03125 1.90779,-1.875 2.16561,-1.875 0.25781,0 -0.29484,0.84375 -1.22811,1.875 -0.93327,1.03125 -1.90779,1.875 -2.16561,1.875 -0.25781,0 0.29484,-0.84375 1.22811,-1.875 z M 406.1914,25.683593 c 0.31152,-0.311522 1.12012,-0.344829 1.79688,-0.07401 0.74787,0.299274 0.52573,0.521421 -0.56641,0.566406 -0.98827,0.04071 -1.54199,-0.18087 -1.23047,-0.492393 z m 145.3125,0 c 0.31152,-0.311522 1.12013,-0.344829 1.79688,-0.07401 0.74787,0.299274 0.52573,0.521421 -0.56641,0.566406 -0.98827,0.04071 -1.54199,-0.18087 -1.23047,-0.492393 z M 444.69638,14.53125 c 0.004,-4.125 0.16823,-5.6958798 0.36628,-3.490844 0.19803,2.205036 0.19525,5.580036 -0.007,7.5 -0.20107,1.919964 -0.36311,0.115844 -0.35971,-4.009156 z m 73.125,0 c 0.004,-4.125 0.16823,-5.6958798 0.36628,-3.490844 0.19803,2.205036 0.19525,5.580036 -0.007,7.5 -0.20107,1.919964 -0.36311,0.115844 -0.35971,-4.009156 z m 13.74112,1.875 C 532.2044,15.632813 532.94052,15 533.19833,15 c 0.25782,0 -0.0564,0.632813 -0.69833,1.40625 -0.6419,0.773437 -1.37802,1.40625 -1.63583,1.40625 -0.25782,0 0.0564,-0.632813 0.69833,-1.40625 z m -142.5,-0.9375 c 0.6419,-0.773437 1.37802,-1.40625 1.63583,-1.40625 0.25782,0 -0.0564,0.632813 -0.69833,1.40625 -0.6419,0.773437 -1.37802,1.40625 -1.63583,1.40625 -0.25782,0 0.0564,-0.632813 0.69833,-1.40625 z m 71.25,-0.9375 c 0.6419,-0.773437 1.37802,-1.40625 1.63583,-1.40625 0.25782,0 -0.0564,0.632813 -0.69833,1.40625 -0.6419,0.773438 -1.37802,1.40625 -1.63583,1.40625 -0.25782,0 0.0564,-0.632812 0.69833,-1.40625 z M 407.57812,7.8166118 c 0.64454,-0.260074 1.69922,-0.260074 2.34375,0 0.64454,0.2600741 0.11719,0.4728619 -1.17187,0.4728619 -1.28906,0 -1.81641,-0.2127878 -1.17188,-0.4728619 z m 67.98828,0.054482 c 0.31152,-0.3115234 1.12012,-0.3448293 1.79688,-0.074013 0.74787,0.2992747 0.52573,0.5214213 -0.56641,0.5664062 -0.98827,0.040707 -1.54199,-0.1808696 -1.23047,-0.4923931 z m 73.57422,-0.054482 c 0.64454,-0.260074 1.69922,-0.260074 2.34375,0 0.64454,0.2600741 0.11719,0.4728619 -1.17187,0.4728619 -1.28906,0 -1.81641,-0.2127878 -1.17188,-0.4728619 z m 96.10665,-0.051844 c 1.42505,-0.2154885 3.53443,-0.2097299 4.6875,0.012797 1.15306,0.2225267 -0.0128,0.3988355 -2.59102,0.3917972 -2.57813,-0.00704 -3.52154,-0.1891057 -2.09648,-0.4045941 z"
       id="path3395"
       inkscape:connector-curvature="0" />
    <path
       style="fill:#010101"
       d="m 375.9375,103.59375 0,-7.03125 20.18636,0 c 21.54167,0 24.52346,-0.504103 29.37764,-4.96662 3.40192,-3.127418 5.70482,-8.963827 5.72791,-14.516617 0.0467,-11.234596 -4.53404,-15.549132 -21.54191,-20.29 -6.9841,-1.946785 -10.62944,-4.369245 -12.49691,-8.30464 -3.34466,-7.048365 -0.80441,-17.211046 5.21137,-20.848853 2.74098,-1.657498 5.13347,-1.888124 22.51991,-2.17082 l 19.45313,-0.3163 0,7.113175 0,7.113175 -17.28842,0 c -17.31639,0 -20.2143,0.541393 -17.27563,3.22747 0.70553,0.644899 3.81405,1.689219 6.9078,2.320711 8.35249,1.704899 14.82367,5.177584 19.64884,10.544335 13.70991,15.248732 8.4405,41.96069 -10.10459,51.222554 -6.22829,3.11056 -13.00233,3.9234 -32.74738,3.9295 l -17.57812,0.005 0,-7.03125 z m 95.79961,5.56722 c -9.28077,-2.49759 -16.64749,-9.436798 -20.57933,-19.385048 -1.34744,-3.409255 -1.58231,-7.91029 -1.60267,-30.713422 l -0.0239,-26.71875 2.91787,-6.157711 c 3.52767,-7.444588 8.4609,-12.50265 15.36338,-15.752149 5.01196,-2.3594938 5.77931,-2.4372355 27.42187,-2.778156 L 517.5,7.3049989 l 0,7.0805881 0,7.080589 -21.87233,0.282537 -21.87232,0.282537 -3.44883,2.632436 c -6.84038,5.221153 -7.18152,6.850506 -7.18152,34.300435 0,14.926032 0.38595,25.372815 0.99714,26.990473 0.54843,1.451536 2.13046,3.836975 3.51563,5.300977 4.8468,5.122663 5.84409,5.306929 28.72192,5.306929 l 21.14031,0 0,7.03125 0,7.03125 -20.39063,-0.0617 c -14.5633,-0.0441 -21.8143,-0.44483 -25.37226,-1.40233 z m 75.14766,0.4877 C 537.56368,107.80456 528.59144,99.852525 524.99933,90.251759 523.12762,85.249172 523.038,83.52501 523.30831,57.71898 l 0.28544,-27.25023 2.77871,-5.484097 C 529.82987,18.161096 536.63912,11.919792 543.07478,9.6754519 547.34054,8.1878291 551.21797,7.96875 573.28125,7.96875 l 25.3125,0 0.27545,6.796875 0.27544,6.796875 -24.92217,0 c -28.43477,0 -30.07667,0.361139 -34.92455,7.681748 l -2.57917,3.894708 -0.29152,24.735229 c -0.27999,23.756047 -0.21124,24.901078 1.73659,28.924762 1.11547,2.304242 3.53292,5.338217 5.37213,6.742168 l 3.34402,2.552635 20.46626,0.285122 20.46627,0.285112 0,-19.73824 0,-19.738244 -15.9375,0 -15.9375,0 0,-6.5625 0,-6.5625 21.55019,0 21.55019,0 0.24669,32.091675 0.24668,32.091675 15.37394,-43.57605 c 8.45567,-23.966827 16.40152,-45.522326 17.65742,-47.901108 3.02666,-5.732707 7.6325,-8.331192 14.76711,-8.331192 6.68406,0 11.22975,2.085312 14.11381,6.474644 1.21754,1.853008 9.55965,24.14645 18.53802,49.540981 l 16.3243,46.171875 -30.34043,0 -30.34042,0 0,-6.09375 0,-6.09375 21.5625,0 c 13.68045,0 21.5625,-0.341044 21.5625,-0.932981 0,-1.701928 -25.39875,-71.683767 -26.79634,-73.832644 -1.53844,-2.365474 -5.67176,-2.845968 -8.06458,-0.9375 -1.16778,0.931407 -11.97357,30.673924 -30.82469,84.843755 l -1.06031,3.04687 -30.61142,-0.10272 c -16.83627,-0.0565 -32.36483,-0.44962 -34.50789,-0.87361 z m 69.99023,0.2641 c 0,-1.82458 28.34456,-82.393636 29.33857,-83.394491 0.64326,-0.647697 1.65443,-0.813842 2.34702,-0.385636 1.07931,0.667313 24.56441,65.329733 24.56441,67.634148 0,0.571818 -7.0804,0.920709 -18.6848,0.920709 -18.551,0 -18.68694,-0.01481 -18.98437,-2.068177 -0.17724,-1.223538 -1.61927,2.030883 -3.53096,7.968747 l -3.2314,10.03693 -5.90923,0 c -3.25009,0 -5.90924,-0.3205 -5.90924,-0.71223 z M 656.25,81.798254 c 0,-1.360162 -7.74344,-24.152619 -8.47885,-24.957116 -0.66233,-0.724541 -8.39615,21.928547 -8.39615,24.593097 0,0.717074 2.76053,1.065765 8.4375,1.065765 4.64062,0 8.4375,-0.315786 8.4375,-0.701746 z m -280.3125,4.003239 0,-7.011006 18.04687,-0.254619 c 15.11791,-0.213294 18.04688,-0.477758 18.04688,-1.629497 0,-0.856252 -1.7682,-1.85188 -4.6875,-2.639405 C 393.53,70.540492 392.9154,70.268449 387.84858,65.637657 371.49503,50.691442 375.75962,21.817983 395.82656,11.622509 401.83129,8.5716722 410.08371,7.5405529 428.67187,7.5185706 L 444.375,7.5 l 0,7.03125 0,7.03125 -19.54005,0 c -18.64845,0 -19.72857,0.09957 -23.67188,2.182162 -6.12405,3.234325 -9.75957,9.560935 -9.74764,16.963069 0.0168,10.419047 6.41501,18.025903 17.07859,20.304739 13.30425,2.843158 18.51839,7.516902 18.39606,16.489524 -0.087,6.37928 -2.54372,10.530141 -7.8133,13.201131 -3.91894,1.986393 -5.29782,2.109375 -23.65043,2.109375 l -19.48885,0 0,-7.011007 z m 99.6794,5.500225 c -6.5683,-3.239268 -8.64256,-8.299 -8.70075,-21.223593 l -0.0412,-9.140625 21.5625,0 21.5625,0 0,6.5625 0,6.5625 -14.94467,0 c -8.21957,0 -15.18187,0.383804 -15.4718,0.852898 -0.28991,0.469094 -0.26967,1.523782 0.045,2.34375 0.49641,1.293668 3.03873,1.490852 19.22177,1.490852 l 18.6497,0 0,7.03125 0,7.03125 -19.45313,-0.02135 c -15.73172,-0.01726 -20.0226,-0.302194 -22.42997,-1.489435 z m 73.10998,-0.314347 c -2.81071,-1.276069 -4.4918,-2.886378 -5.90489,-5.65627 -1.87758,-3.680358 -1.96164,-5.028323 -1.69562,-27.191559 0.3079,-25.653976 0.30016,-25.618981 6.73259,-30.425365 2.42961,-1.815433 4.06445,-1.95143 26.8952,-2.237326 l 24.30834,-0.304398 0,7.084606 0,7.084606 -22.73438,0.251042 -22.73437,0.251043 -0.2534,19.453125 -0.25339,19.453125 7.51902,0 c 6.75237,0 7.51902,-0.180952 7.51902,-1.774698 0,-2.236331 -1.75961,-2.912802 -7.57668,-2.912802 l -4.61082,0 0,-6.5625 0,-6.5625 13.59375,0 13.59375,0 0,15.9375 0,15.9375 -15.23438,-0.02059 c -12.9444,-0.01749 -15.82501,-0.288745 -19.16374,-1.804539 z M 467.01324,46.640625 c 0.29291,-9.069665 0.64802,-11.042462 2.53544,-14.085229 3.91387,-6.309654 5.60414,-6.736313 28.02944,-7.075215 L 517.5,25.179112 l 0,7.097944 0,7.097944 -18.6497,0 c -19.28805,0 -19.7878,0.09664 -19.7878,3.826675 0,0.487986 6.69981,0.860825 15.46875,0.860825 l 15.46875,0 0,6.5625 0,6.5625 -21.66368,0 -21.66368,0 0.3406,-10.546875 z"
       id="path3393"
       inkscape:connector-curvature="0" />
  </g>
</svg>
